<svg width="45" height="45" viewBox="0 0 45 45" fill="none" xmlns="http://www.w3.org/2000/svg">
<circle cx="22.5" cy="22.5" r="21.5" stroke="#E1B793" stroke-width="2"/>
<path d="M22.9715 9.91039C22.6502 9.88666 22.3281 9.87478 22.0059 9.87476V8C22.3744 8.00018 22.7427 8.01394 23.1102 8.04124L22.9715 9.91039ZM26.729 10.754C26.128 10.5221 25.5107 10.3348 24.8821 10.1935L25.2927 8.3637C26.0109 8.52493 26.7177 8.73866 27.404 9.00487L26.729 10.754ZM29.2977 12.0851C29.0297 11.9064 28.7551 11.7375 28.4746 11.5789L29.399 9.94788C30.0401 10.3111 30.6536 10.7209 31.2346 11.174L30.0815 12.6532C29.8273 12.4549 29.5659 12.266 29.2977 12.087V12.0851ZM32.7365 15.4409C32.3656 14.9141 31.9564 14.4153 31.5121 13.9486L32.8696 12.655C33.3759 13.1893 33.8446 13.7612 34.2703 14.3611L32.7365 15.4409ZM34.1315 17.9756C34.0084 17.6784 33.8746 17.3857 33.7303 17.0982L35.4046 16.2546C35.7358 16.9128 36.0178 17.5946 36.2484 18.2943L34.4671 18.8811C34.3664 18.5753 34.2544 18.2733 34.1315 17.9756ZM35.1253 22.6757C35.1101 22.0314 35.0474 21.3891 34.9378 20.754L36.7846 20.4353C36.9103 21.159 36.9834 21.8939 37.0021 22.6288L35.1271 22.6757H35.1253ZM34.8796 25.559C34.9415 25.2403 34.9921 24.9235 35.0315 24.6029L36.8934 24.8335C36.8033 25.565 36.6592 26.2887 36.4621 26.9989L34.6546 26.4983C34.7409 26.189 34.8159 25.8759 34.8796 25.559ZM33.0946 30.0191C33.4396 29.4754 33.7434 28.9055 34.0059 28.3168L35.7196 29.0761C35.4196 29.751 35.0728 30.3997 34.679 31.0221L33.0946 30.0191ZM31.2871 32.2782C31.5159 32.0495 31.7353 31.8133 31.9434 31.5695L33.3646 32.7938C33.1239 33.0728 32.8732 33.3429 32.6128 33.6037L31.2871 32.2782Z" fill="#E1B793"/>
<path d="M22.0059 9.87477C19.8475 9.87492 17.7225 10.4073 15.8191 11.4247C13.9156 12.4421 12.2925 13.9132 11.0935 15.7076C9.89442 17.5021 9.15647 19.5645 8.94497 21.7121C8.73347 23.8598 9.05495 26.0265 9.88094 28.0203C10.7069 30.0141 12.0119 31.7735 13.6803 33.1426C15.3488 34.5117 17.3291 35.4482 19.446 35.8693C21.5629 36.2903 23.7509 36.1829 25.8163 35.5565C27.8818 34.9301 29.7608 33.8041 31.2871 32.2782L32.6127 33.6037C30.8685 35.3487 28.7207 36.6365 26.3597 37.3532C23.9987 38.0699 21.4973 38.1932 19.0772 37.7122C16.6572 37.2312 14.3931 36.1608 12.4856 34.5958C10.5782 33.0309 9.08624 31.0196 8.14198 28.7403C7.19773 26.461 6.83033 23.984 7.07233 21.5288C7.31434 19.0736 8.15827 16.716 9.52936 14.6648C10.9004 12.6137 12.7564 10.9323 14.9327 9.76978C17.109 8.60723 19.5384 7.99935 22.0059 8V9.87477Z" fill="#E1B793"/>
<path d="M21.0684 13.6243C21.317 13.6243 21.5555 13.723 21.7313 13.8988C21.9071 14.0746 22.0059 14.313 22.0059 14.5616V24.3292L28.0958 27.8087C28.3054 27.9352 28.4573 28.1386 28.5189 28.3755C28.5805 28.6123 28.547 28.8639 28.4255 29.0764C28.3041 29.289 28.1043 29.4456 27.8689 29.5127C27.6335 29.5799 27.3812 29.5524 27.1658 29.436L20.6034 25.6865C20.4599 25.6045 20.3406 25.4861 20.2576 25.3432C20.1746 25.2004 20.1309 25.0381 20.1309 24.8729V14.5616C20.1309 14.313 20.2296 14.0746 20.4054 13.8988C20.5813 13.723 20.8197 13.6243 21.0684 13.6243Z" fill="#E1B793"/>
</svg>
