<svg width="30" height="30" viewBox="0 0 30 30" fill="none" xmlns="http://www.w3.org/2000/svg">
<path d="M15.6108 6.35205C11.4313 6.35205 8.03228 9.75072 8.03076 13.9284C8.03015 15.3602 8.43077 16.7543 9.1891 17.9607L9.36918 18.2472L8.60385 21.0433L11.4714 20.2911L11.7482 20.4553C12.9114 21.1458 14.245 21.5108 15.6047 21.5114H15.6077C19.7839 21.5114 23.1829 18.1125 23.1847 13.9345C23.1856 11.9098 22.3981 10.0062 20.9675 8.57413C19.5369 7.14172 17.6345 6.35266 15.6108 6.35205ZM20.0677 17.1859C19.8779 17.7179 18.9678 18.2037 18.5303 18.2688C18.1379 18.3275 17.6412 18.3519 17.0958 18.1785C16.7651 18.0735 16.3408 17.9333 15.7972 17.6988C13.5119 16.7123 12.0195 14.4114 11.9058 14.2597C11.792 14.1076 10.9756 13.0247 10.9756 11.9034C10.9756 10.7822 11.5639 10.2313 11.7729 10.0032C11.9815 9.77505 12.2285 9.71817 12.3803 9.71817C12.5321 9.71817 12.6842 9.71969 12.8168 9.72608C12.9567 9.73307 13.1444 9.67315 13.3294 10.117C13.5192 10.5732 13.9749 11.6942 14.0317 11.8082C14.0886 11.9223 14.1266 12.0552 14.0506 12.2073C13.9746 12.3591 13.9368 12.4543 13.8228 12.5872C13.7087 12.7202 13.5837 12.8841 13.4812 12.9863C13.3671 13.0998 13.2485 13.2233 13.3814 13.4511C13.5143 13.6793 13.9715 14.4251 14.6486 15.0289C15.5186 15.8049 16.2526 16.0455 16.4804 16.1596C16.7083 16.2737 16.8412 16.2545 16.9738 16.1027C17.1067 15.9506 17.5433 15.4375 17.695 15.2096C17.8468 14.9818 17.9986 15.0195 18.2076 15.0956C18.4163 15.1716 19.5363 15.7225 19.7641 15.8366C19.992 15.9506 20.1437 16.0075 20.2006 16.1027C20.2575 16.1976 20.2575 16.6539 20.0677 17.1859Z" fill="white"/>
<path d="M15 0C6.71581 0 0 6.71581 0 15C0 23.2842 6.71581 30 15 30C23.2842 30 30 23.2842 30 15C30 6.71581 23.2842 0 15 0ZM15.6078 23.0509C15.6075 23.0509 15.6081 23.0509 15.6078 23.0509H15.6041C14.0783 23.0503 12.5793 22.6676 11.2479 21.9412L6.41527 23.2091L7.70867 18.4851C6.91079 17.1025 6.49102 15.5342 6.49193 13.9277C6.49345 8.90138 10.5832 4.81222 15.6078 4.81222C18.0464 4.81313 20.3354 5.76249 22.0565 7.4857C23.7776 9.20861 24.7251 11.4991 24.7239 13.935C24.7218 18.9614 20.632 23.0509 15.6078 23.0509Z" fill="white"/>
</svg>
