<svg width="30" height="30" viewBox="0 0 30 30" fill="none" xmlns="http://www.w3.org/2000/svg">
<path d="M15 0C6.71581 0 0 6.71581 0 15C0 23.2842 6.71581 30 15 30C23.2842 30 30 23.2842 30 15C30 6.71581 23.2842 0 15 0ZM23.9732 8.78518C23.9799 8.78518 23.9856 8.78883 23.9923 8.78914L15.6221 17.1594C15.3431 17.4384 14.8491 17.439 14.5702 17.1588L6.19657 8.78518H23.9732ZM5.61283 9.34519C5.61283 9.34063 5.61527 9.33698 5.61527 9.33272L11.3051 15.0225L5.61283 20.7147V9.34519ZM6.17284 21.3712C6.14698 21.3712 6.12478 21.3599 6.09983 21.3566L11.8693 15.5871L14.0056 17.7234C14.2961 18.0139 14.6833 18.1736 15.0961 18.1736C15.5092 18.1736 15.8958 18.0133 16.1863 17.7234L18.2536 15.6561L23.9686 21.3712H6.17284ZM24.5332 20.8069L18.8181 15.0919L24.5332 9.37713V20.8069Z" fill="white"/>
</svg>
