<svg width="45" height="45" viewBox="0 0 45 45" fill="none" xmlns="http://www.w3.org/2000/svg">
<circle cx="22.5" cy="22.5" r="21.5" stroke="#E1B793" stroke-width="2"/>
<path d="M30.9994 38C30.3008 37.7678 29.8017 37.2488 29.6853 36.6341C29.6021 36.279 29.6853 36.0331 30.3507 35.0497C32.8459 31.3617 34.1268 27.1957 34.0602 22.9751C34.1268 18.8774 32.9124 14.8753 30.517 11.283C30.1677 10.682 29.8516 10.1083 29.5855 9.49363C29.6853 8.97459 30.0013 8.49653 30.517 8.20969C31.2656 7.88187 32.1805 7.95017 32.8625 8.33262C33.3283 8.82434 33.7275 9.31607 34.0602 9.88975C35.8501 12.7047 37.0693 15.7404 37.67 18.8774C38.0526 21.3497 38.1025 23.8629 37.8197 26.3489C37.304 29.5451 36.1562 32.632 34.3929 35.5141C33.3283 37.2624 32.7295 38 32.0973 38H30.9994ZM23.7466 34.9814C22.7985 34.7628 22.1996 33.9706 22.3992 33.1784C22.3992 33.0145 22.9149 32.2632 23.3807 31.4983C25.3436 28.3977 26.192 24.901 25.8094 21.418C25.5765 18.9184 24.6948 16.4871 23.2476 14.2879C22.1996 12.5669 22.1331 12.2937 22.7486 11.5561C23.4805 10.8869 24.6948 10.7912 25.5931 11.3649C26.7908 12.8128 27.739 14.3972 28.4377 16.0636C30.5669 21.2404 30.2342 26.8816 27.5061 31.8534C26.1088 34.435 25.1273 35.2682 23.7466 34.9131V34.9814ZM16.261 31.9354C15.9648 31.8262 15.702 31.6641 15.4919 31.4609C15.2818 31.2576 15.1297 31.0184 15.0466 30.7607C15.0466 30.4875 15.0466 30.1324 15.7952 29.0397C17.0147 27.2243 17.6542 25.1849 17.6542 23.1117C17.6542 21.0385 17.0147 18.999 15.7952 17.1837C14.7139 15.4626 14.7139 15.1075 15.5956 14.4519C15.9116 14.1514 16.3774 14.0011 16.8765 14.0557C17.9411 14.0557 18.5399 14.4792 19.4382 16.0226C20.8526 18.155 21.5852 20.547 21.5675 22.9751C21.634 25.4474 20.9021 27.906 19.4549 30.0778C18.5566 31.512 18.1074 31.8534 17.2092 31.9764C16.8931 32.0037 16.5604 31.9764 16.261 31.8534V31.9354ZM9.25771 29.026C8.70876 28.8075 8.27625 28.4387 8.06 27.9606C7.89365 27.4826 8.06 27.0728 8.72539 26.1986C9.55713 25.2698 9.95637 24.1224 9.8732 22.9751C9.98964 21.8141 9.60704 20.6667 8.79193 19.7106C8.51583 19.3662 8.27118 19.0056 8.06 18.6315C7.87702 17.771 8.57568 16.9515 9.72348 16.7875C10.6218 16.651 11.2539 16.9651 12.0856 18.0032C13.2658 19.4778 13.8946 21.2037 13.8946 22.9683C13.8946 24.7328 13.2658 26.4587 12.0856 27.9333C11.2373 28.985 10.2724 29.2992 9.27434 29.026H9.25771Z" fill="#E1B793"/>
</svg>
