<svg width="193" height="65" viewBox="0 0 193 65" fill="none" xmlns="http://www.w3.org/2000/svg">
<g filter="url(#filter0_d_60_162)">
<path d="M35 0L190 0V58L35 58L3 30.5L35 0Z" fill="#C21919"/>
<path d="M39.7005 5.05086L41.1979 3.68362L41.535 4.05285L42.1405 3.5H42.9538V3H44.9684V3.5H46.983V3H48.9977V3.5H51.0123V3L53.0269 3V3.5L55.0416 3.5V3H57.0562V3.5H59.0708V3H61.0855V3.5H63.1001V3H65.1147V3.5L67.1294 3.5V3L69.144 3V3.5H71.1586V3H73.1733V3.5H75.1879V3H77.2025V3.5H79.2172V3H81.2318V3.5H83.2464V3L85.2611 3V3.5L87.2757 3.5V3H89.2903V3.5H91.305V3H93.3196V3.5H95.3342V3H97.3489V3.5L99.3635 3.5V3L101.378 3V3.5H103.393V3H105.407V3.5H107.422V3H109.437V3.5H111.451V3H113.466V3.5H115.481V3L117.495 3V3.5L119.51 3.5V3H121.524V3.5H123.539V3H125.554V3.5H127.568V3H129.583V3.5L131.598 3.5V3L133.612 3V3.5H135.627V3H137.642V3.5H139.656V3H141.671V3.5H143.685V3H145.7V3.5H147.715V3L149.729 3V3.5L151.744 3.5V3H153.759V3.5H155.773V3H157.788V3.5H159.802V3H161.817V3.5L163.832 3.5V3L165.846 3V3.5H167.861V3H169.876V3.5H171.89V3H173.905V3.5H175.92V3H177.934V3.5H179.949V3L181.963 3V3.5L183.978 3.5V3H185.993V3.5H186.5V4H187V6H186.5V8H187V10H186.5V12H187V14H186.5V16H187V18H186.5V20H187V22H186.5V24H187V26H186.5V28H187V30H186.5V32H187V34H186.5V36H187V38H186.5V40H187V42H186.5V44H187V46H186.5V48H187V50H186.5V52H187V54H186.5V54.5H185.993V55H183.978V54.5H181.963V55H179.949V54.5H177.934V55H175.92V54.5H173.905V55H171.89V54.5H169.876V55H167.861V54.5H165.846V55H163.832V54.5H161.817V55H159.803V54.5H157.788V55H155.773V54.5H153.759V55H151.744V54.5H149.729V55H147.715V54.5H145.7V55H143.685V54.5H141.671V55L139.656 55V54.5H137.642V55H135.627V54.5H133.612V55H131.598V54.5H129.583V55H127.568V54.5H125.554V55H123.539V54.5H121.524V55H119.51V54.5H117.495V55H115.481V54.5H113.466V55H111.451V54.5H109.437V55H107.422V54.5H105.407V55H103.393V54.5H101.378V55H99.3635V54.5H97.3489V55H95.3343V54.5H93.3196V55H91.305V54.5H89.2904V55H87.2757V54.5H85.2611V55H83.2465V54.5H81.2318V55H79.2172V54.5H77.2026V55H75.1879V54.5H73.1733V55H71.1587V54.5H69.144V55H67.1294V54.5H65.1148V55H63.1002V54.5H61.0855V55H59.0709V54.5H57.0563V55H55.0416V54.5H53.027V55H51.0124V54.5H48.9977V55H46.9831V54.5H44.9685V55H42.9538V54.5H42.1259L41.5157 53.9976L41.1979 54.3836L39.7005 53.1509L40.0183 52.7649L38.521 51.5321L38.2032 51.9181L36.7059 50.6853L37.0237 50.2993L35.5264 49.0666L35.2086 49.4526L33.7112 48.2198L34.029 47.8338L32.5317 46.6011L32.2139 46.9871L30.7166 45.7543L31.0344 45.3683L29.5371 44.1355L29.2193 44.5216L27.7219 43.2888L28.0397 42.9028L26.5424 41.67L26.2246 42.056L24.7273 40.8233L25.0451 40.4373L23.5477 39.2045L23.2299 39.5905L21.7326 38.3578L22.0504 37.9718L20.5531 36.739L20.2353 37.125L18.738 35.8922L19.0558 35.5062L17.5584 34.2735L17.2406 34.6595L15.7433 33.4267L16.0611 33.0407L14.5638 31.808L14.246 32.194L12.7487 30.9612L13.0665 30.5752L12.7629 30.3253L13.0858 30.0304L12.7487 29.6612L14.246 28.294L14.5831 28.6632L16.0805 27.296L15.7433 26.9267L17.2406 25.5595L17.5778 25.9287L19.0751 24.5615L18.738 24.1922L20.2353 22.825L20.5724 23.1942L22.0698 21.827L21.7326 21.4578L23.2299 20.0905L23.5671 20.4597L25.0644 19.0925L24.7273 18.7233L26.2246 17.356L26.5617 17.7253L28.0591 16.358L27.7219 15.9888L29.2192 14.6216L29.5564 14.9908L31.0537 13.6235L30.7166 13.2543L32.2139 11.8871L32.5511 12.2563L34.0484 10.8891L33.7112 10.5198L35.2086 9.15259L35.5457 9.52182L37.043 8.15457L36.7059 7.78535L38.2032 6.4181L38.5404 6.78733L40.0377 5.42009L39.7005 5.05086Z" stroke="white" stroke-dasharray="2 2"/>
<g filter="url(#filter1_i_60_162)">
<circle cx="16" cy="29" r="4" fill="#ABA7A7"/>
</g>
</g>
<path d="M46.112 40.192C45.088 40.192 44.28 39.984 43.688 39.568C43.096 39.152 42.672 38.56 42.416 37.792C42.176 37.024 42.056 36.12 42.056 35.08V31.048C42.056 30.008 42.176 29.104 42.416 28.336C42.672 27.568 43.096 26.976 43.688 26.56C44.28 26.144 45.088 25.936 46.112 25.936C47.136 25.936 47.936 26.144 48.512 26.56C49.104 26.976 49.52 27.568 49.76 28.336C50.016 29.104 50.144 30.008 50.144 31.048V35.08C50.144 36.12 50.016 37.024 49.76 37.792C49.52 38.56 49.104 39.152 48.512 39.568C47.936 39.984 47.136 40.192 46.112 40.192ZM46.112 38.296C46.608 38.296 46.952 38.152 47.144 37.864C47.352 37.576 47.472 37.2 47.504 36.736C47.552 36.256 47.576 35.76 47.576 35.248V30.904C47.576 30.376 47.552 29.88 47.504 29.416C47.472 28.952 47.352 28.576 47.144 28.288C46.952 27.984 46.608 27.832 46.112 27.832C45.616 27.832 45.264 27.984 45.056 28.288C44.848 28.576 44.72 28.952 44.672 29.416C44.64 29.88 44.624 30.376 44.624 30.904V35.248C44.624 35.76 44.64 36.256 44.672 36.736C44.72 37.2 44.848 37.576 45.056 37.864C45.264 38.152 45.616 38.296 46.112 38.296ZM53.8638 40V28.048H51.2718V26.128H59.0478V28.048H56.4318V40H53.8638ZM70.9571 40.216C69.8371 40.216 68.9251 39.936 68.2211 39.376C67.5171 38.8 66.9971 38.032 66.6611 37.072C66.3411 36.096 66.1811 35.016 66.1811 33.832V27.28C66.1811 26.016 66.3251 24.864 66.6131 23.824C66.9011 22.784 67.3891 21.952 68.0771 21.328C68.7811 20.704 69.7411 20.392 70.9571 20.392C71.9651 20.392 72.8131 20.576 73.5011 20.944C74.2051 21.312 74.7411 21.848 75.1091 22.552C75.4931 23.256 75.6931 24.112 75.7091 25.12C75.7091 25.152 75.7091 25.2 75.7091 25.264C75.7251 25.312 75.7331 25.36 75.7331 25.408H73.1411C73.1411 24.464 72.9891 23.744 72.6851 23.248C72.3811 22.752 71.8051 22.504 70.9571 22.504C70.4931 22.504 70.0931 22.656 69.7571 22.96C69.4211 23.248 69.1651 23.696 68.9891 24.304C68.8291 24.912 68.7491 25.696 68.7491 26.656V29.608C69.0051 29.208 69.3651 28.888 69.8291 28.648C70.3091 28.392 70.8931 28.264 71.5811 28.264C72.6531 28.264 73.4931 28.496 74.1011 28.96C74.7091 29.424 75.1411 30.08 75.3971 30.928C75.6531 31.76 75.7811 32.744 75.7811 33.88C75.7811 35.048 75.6211 36.112 75.3011 37.072C74.9811 38.032 74.4691 38.8 73.7651 39.376C73.0611 39.936 72.1251 40.216 70.9571 40.216ZM70.9571 38.08C71.5331 38.08 71.9811 37.92 72.3011 37.6C72.6211 37.264 72.8451 36.824 72.9731 36.28C73.1171 35.736 73.1891 35.144 73.1891 34.504C73.1891 33.736 73.1491 33.024 73.0691 32.368C73.0051 31.712 72.8211 31.192 72.5171 30.808C72.2131 30.408 71.6931 30.208 70.9571 30.208C70.6051 30.208 70.2851 30.272 69.9971 30.4C69.7091 30.528 69.4611 30.696 69.2531 30.904C69.0451 31.096 68.8771 31.304 68.7491 31.528V34.432C68.7491 35.088 68.8131 35.696 68.9411 36.256C69.0851 36.816 69.3171 37.264 69.6371 37.6C69.9571 37.92 70.3971 38.08 70.9571 38.08ZM82.7394 40.216C81.7314 40.216 80.8674 40.032 80.1474 39.664C79.4434 39.28 78.9074 38.728 78.5394 38.008C78.1714 37.288 77.9794 36.416 77.9634 35.392C77.9634 35.36 77.9634 35.328 77.9634 35.296C77.9634 35.248 77.9634 35.208 77.9634 35.176H80.5314C80.5314 36.104 80.6834 36.824 80.9874 37.336C81.2914 37.832 81.8834 38.08 82.7634 38.08C83.2434 38.08 83.6434 37.936 83.9634 37.648C84.2834 37.344 84.5234 36.888 84.6834 36.28C84.8434 35.656 84.9234 34.872 84.9234 33.928V30.976C84.6834 31.376 84.3234 31.704 83.8434 31.96C83.3794 32.2 82.7954 32.32 82.0914 32.32C81.0194 32.32 80.1794 32.088 79.5714 31.624C78.9634 31.144 78.5314 30.488 78.2754 29.656C78.0354 28.808 77.9154 27.824 77.9154 26.704C77.9154 25.52 78.0754 24.456 78.3954 23.512C78.7154 22.552 79.2274 21.792 79.9314 21.232C80.6514 20.672 81.5874 20.392 82.7394 20.392C83.8594 20.392 84.7714 20.68 85.4754 21.256C86.1794 21.816 86.6914 22.576 87.0114 23.536C87.3474 24.496 87.5154 25.568 87.5154 26.752V33.28C87.5154 34.528 87.3714 35.68 87.0834 36.736C86.7954 37.792 86.3074 38.64 85.6194 39.28C84.9314 39.904 83.9714 40.216 82.7394 40.216ZM82.7394 30.376C83.2994 30.376 83.7554 30.24 84.1074 29.968C84.4594 29.68 84.7314 29.368 84.9234 29.032V26.152C84.9234 25.48 84.8594 24.872 84.7314 24.328C84.6034 23.768 84.3794 23.328 84.0594 23.008C83.7394 22.672 83.2994 22.504 82.7394 22.504C82.1794 22.504 81.7314 22.672 81.3954 23.008C81.0754 23.344 80.8434 23.784 80.6994 24.328C80.5714 24.856 80.5074 25.44 80.5074 26.08C80.5074 26.848 80.5394 27.56 80.6034 28.216C80.6834 28.872 80.8754 29.4 81.1794 29.8C81.4994 30.184 82.0194 30.376 82.7394 30.376ZM100.271 40.216C99.2626 40.216 98.3986 40.032 97.6786 39.664C96.9746 39.28 96.4386 38.728 96.0706 38.008C95.7026 37.288 95.5106 36.416 95.4946 35.392C95.4946 35.36 95.4946 35.328 95.4946 35.296C95.4946 35.248 95.4946 35.208 95.4946 35.176H98.0626C98.0626 36.104 98.2146 36.824 98.5186 37.336C98.8226 37.832 99.4146 38.08 100.295 38.08C100.775 38.08 101.175 37.936 101.495 37.648C101.815 37.344 102.055 36.888 102.215 36.28C102.375 35.656 102.455 34.872 102.455 33.928V30.976C102.215 31.376 101.855 31.704 101.375 31.96C100.911 32.2 100.327 32.32 99.6226 32.32C98.5506 32.32 97.7106 32.088 97.1026 31.624C96.4946 31.144 96.0626 30.488 95.8066 29.656C95.5666 28.808 95.4466 27.824 95.4466 26.704C95.4466 25.52 95.6066 24.456 95.9266 23.512C96.2466 22.552 96.7586 21.792 97.4626 21.232C98.1826 20.672 99.1186 20.392 100.271 20.392C101.391 20.392 102.303 20.68 103.007 21.256C103.711 21.816 104.223 22.576 104.543 23.536C104.879 24.496 105.047 25.568 105.047 26.752V33.28C105.047 34.528 104.903 35.68 104.615 36.736C104.327 37.792 103.839 38.64 103.151 39.28C102.463 39.904 101.503 40.216 100.271 40.216ZM100.271 30.376C100.831 30.376 101.287 30.24 101.639 29.968C101.991 29.68 102.263 29.368 102.455 29.032V26.152C102.455 25.48 102.391 24.872 102.263 24.328C102.135 23.768 101.911 23.328 101.591 23.008C101.271 22.672 100.831 22.504 100.271 22.504C99.7106 22.504 99.2626 22.672 98.9266 23.008C98.6066 23.344 98.3746 23.784 98.2306 24.328C98.1026 24.856 98.0386 25.44 98.0386 26.08C98.0386 26.848 98.0706 27.56 98.1346 28.216C98.2146 28.872 98.4066 29.4 98.7106 29.8C99.0306 30.184 99.5506 30.376 100.271 30.376ZM112.654 40.216C111.55 40.216 110.638 39.968 109.918 39.472C109.214 38.976 108.686 38.296 108.334 37.432C107.998 36.568 107.83 35.584 107.83 34.48V26.104C107.83 24.968 107.998 23.976 108.334 23.128C108.67 22.264 109.19 21.592 109.894 21.112C110.614 20.632 111.534 20.392 112.654 20.392C113.774 20.392 114.686 20.632 115.39 21.112C116.094 21.592 116.614 22.264 116.95 23.128C117.286 23.976 117.454 24.968 117.454 26.104V34.48C117.454 35.6 117.278 36.592 116.926 37.456C116.59 38.32 116.07 39 115.366 39.496C114.662 39.976 113.758 40.216 112.654 40.216ZM112.654 38.104C113.262 38.104 113.718 37.928 114.022 37.576C114.342 37.224 114.558 36.776 114.67 36.232C114.798 35.672 114.862 35.096 114.862 34.504V26.08C114.862 25.456 114.806 24.872 114.694 24.328C114.582 23.768 114.366 23.32 114.046 22.984C113.742 22.648 113.278 22.48 112.654 22.48C112.03 22.48 111.558 22.648 111.238 22.984C110.918 23.32 110.702 23.768 110.59 24.328C110.478 24.872 110.422 25.456 110.422 26.08V34.504C110.422 35.096 110.478 35.672 110.59 36.232C110.718 36.776 110.942 37.224 111.262 37.576C111.598 37.928 112.062 38.104 112.654 38.104ZM125.052 40.216C123.948 40.216 123.036 39.968 122.316 39.472C121.612 38.976 121.084 38.296 120.732 37.432C120.396 36.568 120.228 35.584 120.228 34.48V26.104C120.228 24.968 120.396 23.976 120.732 23.128C121.068 22.264 121.588 21.592 122.292 21.112C123.012 20.632 123.932 20.392 125.052 20.392C126.172 20.392 127.084 20.632 127.788 21.112C128.492 21.592 129.012 22.264 129.348 23.128C129.684 23.976 129.852 24.968 129.852 26.104V34.48C129.852 35.6 129.676 36.592 129.324 37.456C128.988 38.32 128.468 39 127.764 39.496C127.06 39.976 126.156 40.216 125.052 40.216ZM125.052 38.104C125.66 38.104 126.116 37.928 126.42 37.576C126.74 37.224 126.956 36.776 127.068 36.232C127.196 35.672 127.26 35.096 127.26 34.504V26.08C127.26 25.456 127.204 24.872 127.092 24.328C126.98 23.768 126.764 23.32 126.444 22.984C126.14 22.648 125.676 22.48 125.052 22.48C124.428 22.48 123.956 22.648 123.636 22.984C123.316 23.32 123.1 23.768 122.988 24.328C122.876 24.872 122.82 25.456 122.82 26.08V34.504C122.82 35.096 122.876 35.672 122.988 36.232C123.116 36.776 123.34 37.224 123.66 37.576C123.996 37.928 124.46 38.104 125.052 38.104ZM139.575 40V28.048H136.983V26.128L144.759 26.128V28.048H142.143V40H139.575ZM146.312 40V26.128H151.904V27.976H148.88V40H146.312ZM152.673 40L157.905 20.56H160.137L154.881 40H152.673ZM162.06 40L162.204 26.128H164.1L167.172 34.648L170.268 26.128H172.164L172.308 40H170.148V31.72L167.58 38.632H166.788L164.22 31.768V40H162.06ZM175.387 29.608V28.144L178.363 24.904C178.843 24.392 179.219 23.96 179.491 23.608C179.779 23.24 179.979 22.912 180.091 22.624C180.219 22.336 180.283 22.048 180.283 21.76C180.283 21.28 180.171 20.912 179.947 20.656C179.723 20.384 179.379 20.248 178.915 20.248C178.307 20.248 177.875 20.448 177.619 20.848C177.379 21.232 177.259 21.8 177.259 22.552H175.363V22.216C175.363 21.512 175.483 20.88 175.723 20.32C175.963 19.744 176.339 19.288 176.851 18.952C177.379 18.616 178.067 18.448 178.915 18.448C179.955 18.448 180.771 18.736 181.363 19.312C181.955 19.872 182.251 20.648 182.251 21.64C182.251 22.44 182.059 23.144 181.675 23.752C181.307 24.344 180.723 25.048 179.923 25.864L177.931 27.928H182.371V29.608H175.387Z" fill="white"/>
<defs>
<filter id="filter0_d_60_162" x="0" y="0" width="193" height="65" filterUnits="userSpaceOnUse" color-interpolation-filters="sRGB">
<feFlood flood-opacity="0" result="BackgroundImageFix"/>
<feColorMatrix in="SourceAlpha" type="matrix" values="0 0 0 0 0 0 0 0 0 0 0 0 0 0 0 0 0 0 127 0" result="hardAlpha"/>
<feOffset dy="4"/>
<feGaussianBlur stdDeviation="1.5"/>
<feComposite in2="hardAlpha" operator="out"/>
<feColorMatrix type="matrix" values="0 0 0 0 0.0588235 0 0 0 0 0.0901961 0 0 0 0 0.133333 0 0 0 0.28 0"/>
<feBlend mode="normal" in2="BackgroundImageFix" result="effect1_dropShadow_60_162"/>
<feBlend mode="normal" in="SourceGraphic" in2="effect1_dropShadow_60_162" result="shape"/>
</filter>
<filter id="filter1_i_60_162" x="12" y="25" width="8" height="12" filterUnits="userSpaceOnUse" color-interpolation-filters="sRGB">
<feFlood flood-opacity="0" result="BackgroundImageFix"/>
<feBlend mode="normal" in="SourceGraphic" in2="BackgroundImageFix" result="shape"/>
<feColorMatrix in="SourceAlpha" type="matrix" values="0 0 0 0 0 0 0 0 0 0 0 0 0 0 0 0 0 0 127 0" result="hardAlpha"/>
<feOffset dy="4"/>
<feGaussianBlur stdDeviation="2"/>
<feComposite in2="hardAlpha" operator="arithmetic" k2="-1" k3="1"/>
<feColorMatrix type="matrix" values="0 0 0 0 0.0588235 0 0 0 0 0.0901961 0 0 0 0 0.133333 0 0 0 0.29 0"/>
<feBlend mode="normal" in2="shape" result="effect1_innerShadow_60_162"/>
</filter>
</defs>
</svg>
