<svg width="214" height="65" viewBox="0 0 214 65" fill="none" xmlns="http://www.w3.org/2000/svg">
<g filter="url(#filter0_d_60_168)">
<path d="M38.4827 0L210.352 0V58L38.4827 58L3 30.5L38.4827 0Z" fill="#C21919"/>
<path d="M43.9212 4.86442L45.4306 3.62147L45.7484 4.00744L46.3646 3.5H47.1904V3H49.201V3.5H51.2115V3L53.222 3V3.5L55.2325 3.5V3H57.243V3.5H59.2535V3H61.264V3.5H63.2746V3H65.2851V3.5L67.2956 3.5V3L69.3061 3V3.5H71.3166V3H73.3271V3.5H75.3376V3H77.3481V3.5H79.3587V3H81.3692V3.5H83.3797V3L85.3902 3V3.5L87.4007 3.5V3H89.4112V3.5H91.4217V3H93.4322V3.5H95.4427V3H97.4532V3.5L99.4637 3.5V3L101.474 3V3.5H103.485V3H105.495V3.5H107.506V3H109.516V3.5H111.527V3H113.537V3.5H115.548V3L117.558 3V3.5L119.569 3.5V3H121.579V3.5H123.59V3H125.6V3.5H127.611V3H129.621V3.5L131.632 3.5V3L133.642 3V3.5H135.653V3H137.663V3.5H139.674V3H141.684V3.5H143.695V3H145.705V3.5H147.716V3L149.726 3V3.5L151.737 3.5V3H153.747V3.5H155.758V3H157.768V3.5H159.779V3H161.789V3.5L163.8 3.5V3L165.81 3V3.5H167.821V3H169.831V3.5H171.842V3H173.852V3.5H175.863V3H177.873V3.5H179.884V3L181.894 3V3.5L183.905 3.5V3H185.915V3.5H187.926V3H189.936V3.5H191.947V3H193.957V3.5L195.968 3.5V3L197.978 3V3.5H199.989V3H202V3.5H204.01V3H206.021V3.5H206.526V4H207.026V6H206.526V8H207.026V10H206.526V12H207.026V14H206.526V16H207.026V18H206.526V20H207.026V22H206.526V24H207.026V26H206.526V28H207.026V30H206.526V32H207.026V34H206.526V36H207.026V38H206.526V40H207.026V42H206.526V44H207.026V46H206.526V48H207.026V50H206.526V52H207.026V54H206.526V54.5H206.021V55H204.01V54.5H202V55H199.989V54.5H197.979V55H195.968V54.5H193.958V55H191.947V54.5H189.936V55H187.926V54.5H185.915V55H183.905V54.5H181.894V55H179.884V54.5H177.873V55H175.863V54.5H173.852V55H171.842V54.5H169.831V55H167.821V54.5H165.81V55H163.8V54.5H161.789V55H159.779V54.5H157.768V55H155.758V54.5H153.747V55H151.737V54.5H149.726V55H147.716V54.5H145.705V55H143.695V54.5H141.684V55L139.674 55V54.5H137.663V55H135.653V54.5H133.642V55H131.632V54.5H129.621V55H127.611V54.5H125.6V55H123.59V54.5H121.579V55H119.569V54.5H117.558V55H115.548V54.5H113.537V55H111.527V54.5H109.516V55H107.506V54.5H105.495V55H103.485V54.5H101.474V55H99.4637V54.5H97.4532V55H95.4427V54.5H93.4322V55H91.4217V54.5H89.4111V55H87.4006V54.5H85.3901V55H83.3796V54.5H81.3691V55H79.3586V54.5H77.3481V55H75.3376V54.5H73.3271V55H71.3166V54.5H69.3061V55H67.2956V54.5H65.2851V55H63.2746V54.5H61.2641V55H59.2536V54.5H57.2431V55H55.2325V54.5H53.222V55H51.2115V54.5H49.201V55H47.1905V54.5H46.3506L45.6532 53.9822L45.3551 54.3836L43.6948 53.1509L43.9929 52.7494L42.3326 51.5167L42.0346 51.9181L40.3743 50.6853L40.6723 50.2839L39.012 49.0511L38.714 49.4526L37.0537 48.2198L37.3518 47.8184L35.6915 46.5856L35.3934 46.9871L33.7331 45.7543L34.0312 45.3529L32.3709 44.1201L32.0728 44.5216L30.4125 43.2888L30.7106 42.8874L29.0503 41.6546L28.7522 42.056L27.0919 40.8233L27.39 40.4218L25.7297 39.1891L25.4317 39.5905L23.7714 38.3578L24.0694 37.9563L22.4091 36.7236L22.1111 37.125L20.4508 35.8922L20.7489 35.4908L19.0886 34.258L18.7905 34.6595L17.1302 33.4267L17.4283 33.0253L15.768 31.7925L15.4699 32.194L13.8096 30.9612L14.1077 30.5598L13.7908 30.3244L14.052 30.1093L13.7342 29.7233L15.2435 28.4804L15.5614 28.8664L17.0707 27.6234L16.7529 27.2375L18.2622 25.9945L18.5801 26.3805L20.0894 25.1375L19.7716 24.7516L21.2809 23.5086L21.5988 23.8946L23.1081 22.6516L22.7903 22.2657L24.2996 21.0227L24.6175 21.4087L26.1268 20.1657L25.809 19.7798L27.3184 18.5368L27.6362 18.9228L29.1456 17.6799L28.8277 17.2939L30.3371 16.0509L30.6549 16.4369L32.1643 15.194L31.8464 14.808L33.3558 13.565L33.6736 13.951L35.183 12.7081L34.8651 12.3221L36.3745 11.0792L36.6923 11.4651L38.2017 10.2222L37.8838 9.83621L39.3932 8.59326L39.711 8.97923L41.2204 7.73628L40.9025 7.35031L42.4119 6.10737L42.7297 6.49334L44.2391 5.25039L43.9212 4.86442Z" stroke="white" stroke-dasharray="2 2"/>
<g filter="url(#filter1_i_60_168)">
<ellipse cx="17.4148" cy="29" rx="4.43534" ry="4" fill="#ABA7A7"/>
</g>
</g>
<path d="M50.2477 40.192C49.2237 40.192 48.4157 39.984 47.8237 39.568C47.2317 39.152 46.8077 38.56 46.5517 37.792C46.3117 37.024 46.1917 36.12 46.1917 35.08V31.048C46.1917 30.008 46.3117 29.104 46.5517 28.336C46.8077 27.568 47.2317 26.976 47.8237 26.56C48.4157 26.144 49.2237 25.936 50.2477 25.936C51.2717 25.936 52.0717 26.144 52.6477 26.56C53.2397 26.976 53.6557 27.568 53.8957 28.336C54.1517 29.104 54.2797 30.008 54.2797 31.048V35.08C54.2797 36.12 54.1517 37.024 53.8957 37.792C53.6557 38.56 53.2397 39.152 52.6477 39.568C52.0717 39.984 51.2717 40.192 50.2477 40.192ZM50.2477 38.296C50.7437 38.296 51.0877 38.152 51.2797 37.864C51.4877 37.576 51.6077 37.2 51.6397 36.736C51.6877 36.256 51.7117 35.76 51.7117 35.248V30.904C51.7117 30.376 51.6877 29.88 51.6397 29.416C51.6077 28.952 51.4877 28.576 51.2797 28.288C51.0877 27.984 50.7437 27.832 50.2477 27.832C49.7517 27.832 49.3997 27.984 49.1917 28.288C48.9837 28.576 48.8557 28.952 48.8077 29.416C48.7757 29.88 48.7597 30.376 48.7597 30.904V35.248C48.7597 35.76 48.7757 36.256 48.8077 36.736C48.8557 37.2 48.9837 37.576 49.1917 37.864C49.3997 38.152 49.7517 38.296 50.2477 38.296ZM57.9996 40V28.048H55.4076V26.128H63.1836V28.048H60.5676V40H57.9996ZM74.9248 40.216C73.7568 40.216 72.8208 39.984 72.1168 39.52C71.4128 39.056 70.9008 38.4 70.5808 37.552C70.2768 36.688 70.1248 35.68 70.1248 34.528C70.1248 33.872 70.1808 33.296 70.2928 32.8C70.4048 32.304 70.5648 31.872 70.7728 31.504C70.9968 31.12 71.2528 30.792 71.5408 30.52C71.8448 30.232 72.1728 29.976 72.5248 29.752C71.8848 29.32 71.3648 28.76 70.9648 28.072C70.5648 27.368 70.3648 26.48 70.3648 25.408C70.3648 24.384 70.5248 23.496 70.8448 22.744C71.1648 21.992 71.6608 21.416 72.3328 21.016C73.0208 20.6 73.8848 20.392 74.9248 20.392C75.9648 20.392 76.8128 20.6 77.4688 21.016C78.1408 21.416 78.6368 21.992 78.9568 22.744C79.2768 23.496 79.4368 24.384 79.4368 25.408C79.4368 26.496 79.2368 27.384 78.8368 28.072C78.4528 28.76 77.9328 29.32 77.2768 29.752C77.6288 29.976 77.9488 30.232 78.2368 30.52C78.5408 30.792 78.7968 31.12 79.0048 31.504C79.2288 31.872 79.3968 32.304 79.5088 32.8C79.6368 33.296 79.7008 33.872 79.7008 34.528C79.7008 35.68 79.5408 36.688 79.2208 37.552C78.9168 38.4 78.4128 39.056 77.7088 39.52C77.0208 39.984 76.0928 40.216 74.9248 40.216ZM74.9248 38.176C75.5488 38.176 76.0288 38.016 76.3648 37.696C76.7008 37.376 76.9248 36.944 77.0368 36.4C77.1648 35.856 77.2288 35.248 77.2288 34.576C77.2288 33.968 77.1568 33.4 77.0128 32.872C76.8848 32.328 76.6528 31.888 76.3168 31.552C75.9808 31.2 75.5168 31.024 74.9248 31.024C74.3328 31.024 73.8608 31.192 73.5088 31.528C73.1728 31.864 72.9328 32.304 72.7888 32.848C72.6448 33.376 72.5728 33.952 72.5728 34.576C72.5728 35.248 72.6368 35.856 72.7648 36.4C72.8928 36.944 73.1248 37.376 73.4608 37.696C73.8128 38.016 74.3008 38.176 74.9248 38.176ZM74.9248 28.576C75.4688 28.56 75.8768 28.392 76.1488 28.072C76.4368 27.752 76.6368 27.344 76.7488 26.848C76.8608 26.336 76.9168 25.808 76.9168 25.264C76.9168 24.464 76.7728 23.784 76.4848 23.224C76.1968 22.664 75.6768 22.384 74.9248 22.384C74.1728 22.384 73.6448 22.664 73.3408 23.224C73.0368 23.784 72.8848 24.464 72.8848 25.264C72.8848 25.808 72.9408 26.336 73.0528 26.848C73.1648 27.344 73.3648 27.752 73.6528 28.072C73.9568 28.392 74.3808 28.56 74.9248 28.576ZM86.7814 40.216C85.7734 40.216 84.9094 40.032 84.1894 39.664C83.4854 39.28 82.9494 38.728 82.5814 38.008C82.2134 37.288 82.0214 36.416 82.0054 35.392C82.0054 35.36 82.0054 35.328 82.0054 35.296C82.0054 35.248 82.0054 35.208 82.0054 35.176H84.5734C84.5734 36.104 84.7254 36.824 85.0294 37.336C85.3334 37.832 85.9254 38.08 86.8054 38.08C87.2854 38.08 87.6854 37.936 88.0054 37.648C88.3254 37.344 88.5654 36.888 88.7254 36.28C88.8854 35.656 88.9654 34.872 88.9654 33.928V30.976C88.7254 31.376 88.3654 31.704 87.8854 31.96C87.4214 32.2 86.8374 32.32 86.1334 32.32C85.0614 32.32 84.2214 32.088 83.6134 31.624C83.0054 31.144 82.5734 30.488 82.3174 29.656C82.0774 28.808 81.9574 27.824 81.9574 26.704C81.9574 25.52 82.1174 24.456 82.4374 23.512C82.7574 22.552 83.2694 21.792 83.9734 21.232C84.6934 20.672 85.6294 20.392 86.7814 20.392C87.9014 20.392 88.8134 20.68 89.5174 21.256C90.2214 21.816 90.7334 22.576 91.0534 23.536C91.3894 24.496 91.5574 25.568 91.5574 26.752V33.28C91.5574 34.528 91.4134 35.68 91.1254 36.736C90.8374 37.792 90.3494 38.64 89.6614 39.28C88.9734 39.904 88.0134 40.216 86.7814 40.216ZM86.7814 30.376C87.3414 30.376 87.7974 30.24 88.1494 29.968C88.5014 29.68 88.7734 29.368 88.9654 29.032V26.152C88.9654 25.48 88.9014 24.872 88.7734 24.328C88.6454 23.768 88.4214 23.328 88.1014 23.008C87.7814 22.672 87.3414 22.504 86.7814 22.504C86.2214 22.504 85.7734 22.672 85.4374 23.008C85.1174 23.344 84.8854 23.784 84.7414 24.328C84.6134 24.856 84.5494 25.44 84.5494 26.08C84.5494 26.848 84.5814 27.56 84.6454 28.216C84.7254 28.872 84.9174 29.4 85.2214 29.8C85.5414 30.184 86.0614 30.376 86.7814 30.376ZM104.313 40.216C103.305 40.216 102.441 40.032 101.721 39.664C101.017 39.28 100.481 38.728 100.113 38.008C99.7446 37.288 99.5526 36.416 99.5366 35.392C99.5366 35.36 99.5366 35.328 99.5366 35.296C99.5366 35.248 99.5366 35.208 99.5366 35.176H102.105C102.105 36.104 102.257 36.824 102.561 37.336C102.865 37.832 103.457 38.08 104.337 38.08C104.817 38.08 105.217 37.936 105.537 37.648C105.857 37.344 106.097 36.888 106.257 36.28C106.417 35.656 106.497 34.872 106.497 33.928V30.976C106.257 31.376 105.897 31.704 105.417 31.96C104.953 32.2 104.369 32.32 103.665 32.32C102.593 32.32 101.753 32.088 101.145 31.624C100.537 31.144 100.105 30.488 99.8486 29.656C99.6086 28.808 99.4886 27.824 99.4886 26.704C99.4886 25.52 99.6486 24.456 99.9686 23.512C100.289 22.552 100.801 21.792 101.505 21.232C102.225 20.672 103.161 20.392 104.313 20.392C105.433 20.392 106.345 20.68 107.049 21.256C107.753 21.816 108.265 22.576 108.585 23.536C108.921 24.496 109.089 25.568 109.089 26.752V33.28C109.089 34.528 108.945 35.68 108.657 36.736C108.369 37.792 107.881 38.64 107.193 39.28C106.505 39.904 105.545 40.216 104.313 40.216ZM104.313 30.376C104.873 30.376 105.329 30.24 105.681 29.968C106.033 29.68 106.305 29.368 106.497 29.032V26.152C106.497 25.48 106.433 24.872 106.305 24.328C106.177 23.768 105.953 23.328 105.633 23.008C105.313 22.672 104.873 22.504 104.313 22.504C103.753 22.504 103.305 22.672 102.969 23.008C102.649 23.344 102.417 23.784 102.273 24.328C102.145 24.856 102.081 25.44 102.081 26.08C102.081 26.848 102.113 27.56 102.177 28.216C102.257 28.872 102.449 29.4 102.753 29.8C103.073 30.184 103.593 30.376 104.313 30.376ZM116.695 40.216C115.591 40.216 114.679 39.968 113.959 39.472C113.255 38.976 112.727 38.296 112.375 37.432C112.039 36.568 111.871 35.584 111.871 34.48V26.104C111.871 24.968 112.039 23.976 112.375 23.128C112.711 22.264 113.231 21.592 113.935 21.112C114.655 20.632 115.575 20.392 116.695 20.392C117.815 20.392 118.727 20.632 119.431 21.112C120.135 21.592 120.655 22.264 120.991 23.128C121.327 23.976 121.495 24.968 121.495 26.104V34.48C121.495 35.6 121.319 36.592 120.967 37.456C120.631 38.32 120.111 39 119.407 39.496C118.703 39.976 117.799 40.216 116.695 40.216ZM116.695 38.104C117.303 38.104 117.759 37.928 118.063 37.576C118.383 37.224 118.599 36.776 118.711 36.232C118.839 35.672 118.903 35.096 118.903 34.504V26.08C118.903 25.456 118.847 24.872 118.735 24.328C118.623 23.768 118.407 23.32 118.087 22.984C117.783 22.648 117.319 22.48 116.695 22.48C116.071 22.48 115.599 22.648 115.279 22.984C114.959 23.32 114.743 23.768 114.631 24.328C114.519 24.872 114.463 25.456 114.463 26.08V34.504C114.463 35.096 114.519 35.672 114.631 36.232C114.759 36.776 114.983 37.224 115.303 37.576C115.639 37.928 116.103 38.104 116.695 38.104ZM129.094 40.216C127.99 40.216 127.078 39.968 126.358 39.472C125.654 38.976 125.126 38.296 124.774 37.432C124.438 36.568 124.27 35.584 124.27 34.48V26.104C124.27 24.968 124.438 23.976 124.774 23.128C125.11 22.264 125.63 21.592 126.334 21.112C127.054 20.632 127.974 20.392 129.094 20.392C130.214 20.392 131.126 20.632 131.83 21.112C132.534 21.592 133.054 22.264 133.39 23.128C133.726 23.976 133.894 24.968 133.894 26.104V34.48C133.894 35.6 133.718 36.592 133.366 37.456C133.03 38.32 132.51 39 131.806 39.496C131.102 39.976 130.198 40.216 129.094 40.216ZM129.094 38.104C129.702 38.104 130.158 37.928 130.462 37.576C130.782 37.224 130.998 36.776 131.11 36.232C131.238 35.672 131.302 35.096 131.302 34.504V26.08C131.302 25.456 131.246 24.872 131.134 24.328C131.022 23.768 130.806 23.32 130.486 22.984C130.182 22.648 129.718 22.48 129.094 22.48C128.47 22.48 127.998 22.648 127.678 22.984C127.358 23.32 127.142 23.768 127.03 24.328C126.918 24.872 126.862 25.456 126.862 26.08V34.504C126.862 35.096 126.918 35.672 127.03 36.232C127.158 36.776 127.382 37.224 127.702 37.576C128.038 37.928 128.502 38.104 129.094 38.104ZM143.617 40V28.048H141.025V26.128L148.801 26.128V28.048H146.185V40H143.617ZM150.354 40V26.128H155.946V27.976H152.922V40H150.354ZM156.715 40L161.947 20.56H164.179L158.923 40H156.715ZM166.102 40L166.246 26.128H168.142L171.214 34.648L174.31 26.128H176.206L176.35 40H174.19V31.72L171.622 38.632H170.83L168.262 31.768V40H166.102ZM179.429 29.608V28.144L182.405 24.904C182.885 24.392 183.261 23.96 183.533 23.608C183.821 23.24 184.021 22.912 184.133 22.624C184.261 22.336 184.325 22.048 184.325 21.76C184.325 21.28 184.213 20.912 183.989 20.656C183.765 20.384 183.421 20.248 182.957 20.248C182.349 20.248 181.917 20.448 181.661 20.848C181.421 21.232 181.301 21.8 181.301 22.552H179.405V22.216C179.405 21.512 179.525 20.88 179.765 20.32C180.005 19.744 180.381 19.288 180.893 18.952C181.421 18.616 182.109 18.448 182.957 18.448C183.997 18.448 184.813 18.736 185.405 19.312C185.997 19.872 186.293 20.648 186.293 21.64C186.293 22.44 186.101 23.144 185.717 23.752C185.349 24.344 184.765 25.048 183.965 25.864L181.973 27.928H186.413V29.608H179.429Z" fill="white"/>
<defs>
<filter id="filter0_d_60_168" x="0" y="0" width="213.353" height="65" filterUnits="userSpaceOnUse" color-interpolation-filters="sRGB">
<feFlood flood-opacity="0" result="BackgroundImageFix"/>
<feColorMatrix in="SourceAlpha" type="matrix" values="0 0 0 0 0 0 0 0 0 0 0 0 0 0 0 0 0 0 127 0" result="hardAlpha"/>
<feOffset dy="4"/>
<feGaussianBlur stdDeviation="1.5"/>
<feComposite in2="hardAlpha" operator="out"/>
<feColorMatrix type="matrix" values="0 0 0 0 0.0588235 0 0 0 0 0.0901961 0 0 0 0 0.133333 0 0 0 0.28 0"/>
<feBlend mode="normal" in2="BackgroundImageFix" result="effect1_dropShadow_60_168"/>
<feBlend mode="normal" in="SourceGraphic" in2="effect1_dropShadow_60_168" result="shape"/>
</filter>
<filter id="filter1_i_60_168" x="12.9795" y="25" width="8.87061" height="12" filterUnits="userSpaceOnUse" color-interpolation-filters="sRGB">
<feFlood flood-opacity="0" result="BackgroundImageFix"/>
<feBlend mode="normal" in="SourceGraphic" in2="BackgroundImageFix" result="shape"/>
<feColorMatrix in="SourceAlpha" type="matrix" values="0 0 0 0 0 0 0 0 0 0 0 0 0 0 0 0 0 0 127 0" result="hardAlpha"/>
<feOffset dy="4"/>
<feGaussianBlur stdDeviation="2"/>
<feComposite in2="hardAlpha" operator="arithmetic" k2="-1" k3="1"/>
<feColorMatrix type="matrix" values="0 0 0 0 0.0588235 0 0 0 0 0.0901961 0 0 0 0 0.133333 0 0 0 0.29 0"/>
<feBlend mode="normal" in2="shape" result="effect1_innerShadow_60_168"/>
</filter>
</defs>
</svg>
