<svg width="214" height="65" viewBox="0 0 214 65" fill="none" xmlns="http://www.w3.org/2000/svg">
<g filter="url(#filter0_d_60_168)">
<path d="M38.4827 0L210.352 0V58L38.4827 58L3 30.5L38.4827 0Z" fill="#C21919"/>
<path d="M43.9212 4.86442L45.4306 3.62147L45.7484 4.00744L46.3646 3.5H47.1904V3H49.201V3.5H51.2115V3L53.222 3V3.5L55.2325 3.5V3H57.243V3.5H59.2535V3H61.264V3.5H63.2746V3H65.2851V3.5L67.2956 3.5V3L69.3061 3V3.5H71.3166V3H73.3271V3.5H75.3376V3H77.3481V3.5H79.3587V3H81.3692V3.5H83.3797V3L85.3902 3V3.5L87.4007 3.5V3H89.4112V3.5H91.4217V3H93.4322V3.5H95.4427V3H97.4532V3.5L99.4637 3.5V3L101.474 3V3.5H103.485V3H105.495V3.5H107.506V3H109.516V3.5H111.527V3H113.537V3.5H115.548V3L117.558 3V3.5L119.569 3.5V3H121.579V3.5H123.59V3H125.6V3.5H127.611V3H129.621V3.5L131.632 3.5V3L133.642 3V3.5H135.653V3H137.663V3.5H139.674V3H141.684V3.5H143.695V3H145.705V3.5H147.716V3L149.726 3V3.5L151.737 3.5V3H153.747V3.5H155.758V3H157.768V3.5H159.779V3H161.789V3.5L163.8 3.5V3L165.81 3V3.5H167.821V3H169.831V3.5H171.842V3H173.852V3.5H175.863V3H177.873V3.5H179.884V3L181.894 3V3.5L183.905 3.5V3H185.915V3.5H187.926V3H189.936V3.5H191.947V3H193.957V3.5L195.968 3.5V3L197.978 3V3.5H199.989V3H202V3.5H204.01V3H206.021V3.5H206.526V4H207.026V6H206.526V8H207.026V10H206.526V12H207.026V14H206.526V16H207.026V18H206.526V20H207.026V22H206.526V24H207.026V26H206.526V28H207.026V30H206.526V32H207.026V34H206.526V36H207.026V38H206.526V40H207.026V42H206.526V44H207.026V46H206.526V48H207.026V50H206.526V52H207.026V54H206.526V54.5H206.021V55H204.01V54.5H202V55H199.989V54.5H197.979V55H195.968V54.5H193.958V55H191.947V54.5H189.936V55H187.926V54.5H185.915V55H183.905V54.5H181.894V55H179.884V54.5H177.873V55H175.863V54.5H173.852V55H171.842V54.5H169.831V55H167.821V54.5H165.81V55H163.8V54.5H161.789V55H159.779V54.5H157.768V55H155.758V54.5H153.747V55H151.737V54.5H149.726V55H147.716V54.5H145.705V55H143.695V54.5H141.684V55L139.674 55V54.5H137.663V55H135.653V54.5H133.642V55H131.632V54.5H129.621V55H127.611V54.5H125.6V55H123.59V54.5H121.579V55H119.569V54.5H117.558V55H115.548V54.5H113.537V55H111.527V54.5H109.516V55H107.506V54.5H105.495V55H103.485V54.5H101.474V55H99.4637V54.5H97.4532V55H95.4427V54.5H93.4322V55H91.4217V54.5H89.4111V55H87.4006V54.5H85.3901V55H83.3796V54.5H81.3691V55H79.3586V54.5H77.3481V55H75.3376V54.5H73.3271V55H71.3166V54.5H69.3061V55H67.2956V54.5H65.2851V55H63.2746V54.5H61.2641V55H59.2536V54.5H57.2431V55H55.2325V54.5H53.222V55H51.2115V54.5H49.201V55H47.1905V54.5H46.3506L45.6532 53.9822L45.3551 54.3836L43.6948 53.1509L43.9929 52.7494L42.3326 51.5167L42.0346 51.9181L40.3743 50.6853L40.6723 50.2839L39.012 49.0511L38.714 49.4526L37.0537 48.2198L37.3518 47.8184L35.6915 46.5856L35.3934 46.9871L33.7331 45.7543L34.0312 45.3529L32.3709 44.1201L32.0728 44.5216L30.4125 43.2888L30.7106 42.8874L29.0503 41.6546L28.7522 42.056L27.0919 40.8233L27.39 40.4218L25.7297 39.1891L25.4317 39.5905L23.7714 38.3578L24.0694 37.9563L22.4091 36.7236L22.1111 37.125L20.4508 35.8922L20.7489 35.4908L19.0886 34.258L18.7905 34.6595L17.1302 33.4267L17.4283 33.0253L15.768 31.7925L15.4699 32.194L13.8096 30.9612L14.1077 30.5598L13.7908 30.3244L14.052 30.1093L13.7342 29.7233L15.2435 28.4804L15.5614 28.8664L17.0707 27.6234L16.7529 27.2375L18.2622 25.9945L18.5801 26.3805L20.0894 25.1375L19.7716 24.7516L21.2809 23.5086L21.5988 23.8946L23.1081 22.6516L22.7903 22.2657L24.2996 21.0227L24.6175 21.4087L26.1268 20.1657L25.809 19.7798L27.3184 18.5368L27.6362 18.9228L29.1456 17.6799L28.8277 17.2939L30.3371 16.0509L30.6549 16.4369L32.1643 15.194L31.8464 14.808L33.3558 13.565L33.6736 13.951L35.183 12.7081L34.8651 12.3221L36.3745 11.0792L36.6923 11.4651L38.2017 10.2222L37.8838 9.83621L39.3932 8.59326L39.711 8.97923L41.2204 7.73628L40.9025 7.35031L42.4119 6.10737L42.7297 6.49334L44.2391 5.25039L43.9212 4.86442Z" stroke="white" stroke-dasharray="2 2"/>
<g filter="url(#filter1_i_60_168)">
<ellipse cx="17.4148" cy="29" rx="4.43534" ry="4" fill="#ABA7A7"/>
</g>
</g>
<path d="M50.2477 40.192C49.2237 40.192 48.4157 39.984 47.8237 39.568C47.2317 39.152 46.8077 38.56 46.5517 37.792C46.3117 37.024 46.1917 36.12 46.1917 35.08V31.048C46.1917 30.008 46.3117 29.104 46.5517 28.336C46.8077 27.568 47.2317 26.976 47.8237 26.56C48.4157 26.144 49.2237 25.936 50.2477 25.936C51.2717 25.936 52.0717 26.144 52.6477 26.56C53.2397 26.976 53.6557 27.568 53.8957 28.336C54.1517 29.104 54.2797 30.008 54.2797 31.048V35.08C54.2797 36.12 54.1517 37.024 53.8957 37.792C53.6557 38.56 53.2397 39.152 52.6477 39.568C52.0717 39.984 51.2717 40.192 50.2477 40.192ZM50.2477 38.296C50.7437 38.296 51.0877 38.152 51.2797 37.864C51.4877 37.576 51.6077 37.2 51.6397 36.736C51.6877 36.256 51.7117 35.76 51.7117 35.248V30.904C51.7117 30.376 51.6877 29.88 51.6397 29.416C51.6077 28.952 51.4877 28.576 51.2797 28.288C51.0877 27.984 50.7437 27.832 50.2477 27.832C49.7517 27.832 49.3997 27.984 49.1917 28.288C48.9837 28.576 48.8557 28.952 48.8077 29.416C48.7757 29.88 48.7597 30.376 48.7597 30.904V35.248C48.7597 35.76 48.7757 36.256 48.8077 36.736C48.8557 37.2 48.9837 37.576 49.1917 37.864C49.3997 38.152 49.7517 38.296 50.2477 38.296ZM57.9996 40V28.048H55.4076V26.128H63.1836V28.048H60.5676V40H57.9996ZM73.0288 40V23.92C73.0128 23.936 72.8288 23.984 72.4768 24.064C72.1408 24.144 71.7568 24.224 71.3248 24.304C70.8928 24.384 70.5088 24.456 70.1728 24.52C69.8368 24.584 69.6608 24.616 69.6448 24.616V22.672C69.9168 22.608 70.2288 22.52 70.5808 22.408C70.9488 22.296 71.3168 22.16 71.6848 22C72.0688 21.84 72.4288 21.64 72.7648 21.4C73.1168 21.16 73.4128 20.88 73.6528 20.56H75.5968V40H73.0288ZM82.5444 40V23.92C82.5284 23.936 82.3444 23.984 81.9924 24.064C81.6564 24.144 81.2724 24.224 80.8404 24.304C80.4084 24.384 80.0244 24.456 79.6884 24.52C79.3524 24.584 79.1764 24.616 79.1604 24.616V22.672C79.4324 22.608 79.7444 22.52 80.0964 22.408C80.4644 22.296 80.8324 22.16 81.2004 22C81.5844 21.84 81.9444 21.64 82.2804 21.4C82.6324 21.16 82.9284 20.88 83.1684 20.56H85.1124V40H82.5444ZM93.8361 40.216C92.8281 40.216 91.9641 40.032 91.2441 39.664C90.5401 39.28 90.0041 38.728 89.6361 38.008C89.2681 37.288 89.0761 36.416 89.0601 35.392C89.0601 35.36 89.0601 35.328 89.0601 35.296C89.0601 35.248 89.0601 35.208 89.0601 35.176H91.6281C91.6281 36.104 91.7801 36.824 92.0841 37.336C92.3881 37.832 92.9801 38.08 93.8601 38.08C94.3401 38.08 94.7401 37.936 95.0601 37.648C95.3801 37.344 95.6201 36.888 95.7801 36.28C95.9401 35.656 96.0201 34.872 96.0201 33.928V30.976C95.7801 31.376 95.4201 31.704 94.9401 31.96C94.4761 32.2 93.8921 32.32 93.1881 32.32C92.1161 32.32 91.2761 32.088 90.6681 31.624C90.0601 31.144 89.6281 30.488 89.3721 29.656C89.1321 28.808 89.0121 27.824 89.0121 26.704C89.0121 25.52 89.1721 24.456 89.4921 23.512C89.8121 22.552 90.3241 21.792 91.0281 21.232C91.7481 20.672 92.6841 20.392 93.8361 20.392C94.9561 20.392 95.8681 20.68 96.5721 21.256C97.2761 21.816 97.7881 22.576 98.1081 23.536C98.4441 24.496 98.6121 25.568 98.6121 26.752V33.28C98.6121 34.528 98.4681 35.68 98.1801 36.736C97.8921 37.792 97.4041 38.64 96.7161 39.28C96.0281 39.904 95.0681 40.216 93.8361 40.216ZM93.8361 30.376C94.3961 30.376 94.8521 30.24 95.2041 29.968C95.5561 29.68 95.8281 29.368 96.0201 29.032V26.152C96.0201 25.48 95.9561 24.872 95.8281 24.328C95.7001 23.768 95.4761 23.328 95.1561 23.008C94.8361 22.672 94.3961 22.504 93.8361 22.504C93.2761 22.504 92.8281 22.672 92.4921 23.008C92.1721 23.344 91.9401 23.784 91.7961 24.328C91.6681 24.856 91.6041 25.44 91.6041 26.08C91.6041 26.848 91.6361 27.56 91.7001 28.216C91.7801 28.872 91.9721 29.4 92.2761 29.8C92.5961 30.184 93.1161 30.376 93.8361 30.376ZM111.367 40.216C110.359 40.216 109.495 40.032 108.775 39.664C108.071 39.28 107.535 38.728 107.167 38.008C106.799 37.288 106.607 36.416 106.591 35.392C106.591 35.36 106.591 35.328 106.591 35.296C106.591 35.248 106.591 35.208 106.591 35.176H109.159C109.159 36.104 109.311 36.824 109.615 37.336C109.919 37.832 110.511 38.08 111.391 38.08C111.871 38.08 112.271 37.936 112.591 37.648C112.911 37.344 113.151 36.888 113.311 36.28C113.471 35.656 113.551 34.872 113.551 33.928V30.976C113.311 31.376 112.951 31.704 112.471 31.96C112.007 32.2 111.423 32.32 110.719 32.32C109.647 32.32 108.807 32.088 108.199 31.624C107.591 31.144 107.159 30.488 106.903 29.656C106.663 28.808 106.543 27.824 106.543 26.704C106.543 25.52 106.703 24.456 107.023 23.512C107.343 22.552 107.855 21.792 108.559 21.232C109.279 20.672 110.215 20.392 111.367 20.392C112.487 20.392 113.399 20.68 114.103 21.256C114.807 21.816 115.319 22.576 115.639 23.536C115.975 24.496 116.143 25.568 116.143 26.752V33.28C116.143 34.528 115.999 35.68 115.711 36.736C115.423 37.792 114.935 38.64 114.247 39.28C113.559 39.904 112.599 40.216 111.367 40.216ZM111.367 30.376C111.927 30.376 112.383 30.24 112.735 29.968C113.087 29.68 113.359 29.368 113.551 29.032V26.152C113.551 25.48 113.487 24.872 113.359 24.328C113.231 23.768 113.007 23.328 112.687 23.008C112.367 22.672 111.927 22.504 111.367 22.504C110.807 22.504 110.359 22.672 110.023 23.008C109.703 23.344 109.471 23.784 109.327 24.328C109.199 24.856 109.135 25.44 109.135 26.08C109.135 26.848 109.167 27.56 109.231 28.216C109.311 28.872 109.503 29.4 109.807 29.8C110.127 30.184 110.647 30.376 111.367 30.376ZM123.75 40.216C122.646 40.216 121.734 39.968 121.014 39.472C120.31 38.976 119.782 38.296 119.43 37.432C119.094 36.568 118.926 35.584 118.926 34.48V26.104C118.926 24.968 119.094 23.976 119.43 23.128C119.766 22.264 120.286 21.592 120.99 21.112C121.71 20.632 122.63 20.392 123.75 20.392C124.87 20.392 125.782 20.632 126.486 21.112C127.19 21.592 127.71 22.264 128.046 23.128C128.382 23.976 128.55 24.968 128.55 26.104V34.48C128.55 35.6 128.374 36.592 128.022 37.456C127.686 38.32 127.166 39 126.462 39.496C125.758 39.976 124.854 40.216 123.75 40.216ZM123.75 38.104C124.358 38.104 124.814 37.928 125.118 37.576C125.438 37.224 125.654 36.776 125.766 36.232C125.894 35.672 125.958 35.096 125.958 34.504V26.08C125.958 25.456 125.902 24.872 125.79 24.328C125.678 23.768 125.462 23.32 125.142 22.984C124.838 22.648 124.374 22.48 123.75 22.48C123.126 22.48 122.654 22.648 122.334 22.984C122.014 23.32 121.798 23.768 121.686 24.328C121.574 24.872 121.518 25.456 121.518 26.08V34.504C121.518 35.096 121.574 35.672 121.686 36.232C121.814 36.776 122.038 37.224 122.358 37.576C122.694 37.928 123.158 38.104 123.75 38.104ZM136.149 40.216C135.045 40.216 134.133 39.968 133.413 39.472C132.709 38.976 132.181 38.296 131.829 37.432C131.493 36.568 131.325 35.584 131.325 34.48V26.104C131.325 24.968 131.493 23.976 131.829 23.128C132.165 22.264 132.685 21.592 133.389 21.112C134.109 20.632 135.029 20.392 136.149 20.392C137.269 20.392 138.181 20.632 138.885 21.112C139.589 21.592 140.109 22.264 140.445 23.128C140.781 23.976 140.949 24.968 140.949 26.104V34.48C140.949 35.6 140.773 36.592 140.421 37.456C140.085 38.32 139.565 39 138.861 39.496C138.157 39.976 137.253 40.216 136.149 40.216ZM136.149 38.104C136.757 38.104 137.213 37.928 137.517 37.576C137.837 37.224 138.053 36.776 138.165 36.232C138.293 35.672 138.357 35.096 138.357 34.504V26.08C138.357 25.456 138.301 24.872 138.189 24.328C138.077 23.768 137.861 23.32 137.541 22.984C137.237 22.648 136.773 22.48 136.149 22.48C135.525 22.48 135.053 22.648 134.733 22.984C134.413 23.32 134.197 23.768 134.085 24.328C133.973 24.872 133.917 25.456 133.917 26.08V34.504C133.917 35.096 133.973 35.672 134.085 36.232C134.213 36.776 134.437 37.224 134.757 37.576C135.093 37.928 135.557 38.104 136.149 38.104ZM150.671 40V28.048H148.079V26.128H155.855V28.048H153.239V40H150.671ZM157.408 40V26.128H163V27.976H159.976V40H157.408ZM163.769 40L169.001 20.56H171.233L165.977 40H163.769ZM173.157 40L173.301 26.128H175.197L178.269 34.648L181.365 26.128H183.261L183.405 40H181.245V31.72L178.677 38.632H177.885L175.317 31.768V40H173.157ZM186.484 29.608V28.144L189.46 24.904C189.94 24.392 190.316 23.96 190.588 23.608C190.876 23.24 191.076 22.912 191.188 22.624C191.316 22.336 191.38 22.048 191.38 21.76C191.38 21.28 191.268 20.912 191.044 20.656C190.82 20.384 190.476 20.248 190.012 20.248C189.404 20.248 188.972 20.448 188.716 20.848C188.476 21.232 188.356 21.8 188.356 22.552H186.46V22.216C186.46 21.512 186.58 20.88 186.82 20.32C187.06 19.744 187.436 19.288 187.948 18.952C188.476 18.616 189.164 18.448 190.012 18.448C191.052 18.448 191.868 18.736 192.46 19.312C193.052 19.872 193.348 20.648 193.348 21.64C193.348 22.44 193.156 23.144 192.772 23.752C192.404 24.344 191.82 25.048 191.02 25.864L189.028 27.928H193.468V29.608H186.484Z" fill="white"/>
<defs>
<filter id="filter0_d_60_168" x="0" y="0" width="213.353" height="65" filterUnits="userSpaceOnUse" color-interpolation-filters="sRGB">
<feFlood flood-opacity="0" result="BackgroundImageFix"/>
<feColorMatrix in="SourceAlpha" type="matrix" values="0 0 0 0 0 0 0 0 0 0 0 0 0 0 0 0 0 0 127 0" result="hardAlpha"/>
<feOffset dy="4"/>
<feGaussianBlur stdDeviation="1.5"/>
<feComposite in2="hardAlpha" operator="out"/>
<feColorMatrix type="matrix" values="0 0 0 0 0.0588235 0 0 0 0 0.0901961 0 0 0 0 0.133333 0 0 0 0.28 0"/>
<feBlend mode="normal" in2="BackgroundImageFix" result="effect1_dropShadow_60_168"/>
<feBlend mode="normal" in="SourceGraphic" in2="effect1_dropShadow_60_168" result="shape"/>
</filter>
<filter id="filter1_i_60_168" x="12.9795" y="25" width="8.87061" height="12" filterUnits="userSpaceOnUse" color-interpolation-filters="sRGB">
<feFlood flood-opacity="0" result="BackgroundImageFix"/>
<feBlend mode="normal" in="SourceGraphic" in2="BackgroundImageFix" result="shape"/>
<feColorMatrix in="SourceAlpha" type="matrix" values="0 0 0 0 0 0 0 0 0 0 0 0 0 0 0 0 0 0 127 0" result="hardAlpha"/>
<feOffset dy="4"/>
<feGaussianBlur stdDeviation="2"/>
<feComposite in2="hardAlpha" operator="arithmetic" k2="-1" k3="1"/>
<feColorMatrix type="matrix" values="0 0 0 0 0.0588235 0 0 0 0 0.0901961 0 0 0 0 0.133333 0 0 0 0.29 0"/>
<feBlend mode="normal" in2="shape" result="effect1_innerShadow_60_168"/>
</filter>
</defs>
</svg>
