<svg width="214" height="65" viewBox="0 0 214 65" fill="none" xmlns="http://www.w3.org/2000/svg">
<g filter="url(#filter0_d_60_168)">
<path d="M38.4827 0L210.352 0V58L38.4827 58L3 30.5L38.4827 0Z" fill="#C21919"/>
<path d="M43.9212 4.86442L45.4306 3.62147L45.7484 4.00744L46.3646 3.5H47.1904V3H49.201V3.5H51.2115V3L53.222 3V3.5L55.2325 3.5V3H57.243V3.5H59.2535V3H61.264V3.5H63.2746V3H65.2851V3.5L67.2956 3.5V3L69.3061 3V3.5H71.3166V3H73.3271V3.5H75.3376V3H77.3481V3.5H79.3587V3H81.3692V3.5H83.3797V3L85.3902 3V3.5L87.4007 3.5V3H89.4112V3.5H91.4217V3H93.4322V3.5H95.4427V3H97.4532V3.5L99.4637 3.5V3L101.474 3V3.5H103.485V3H105.495V3.5H107.506V3H109.516V3.5H111.527V3H113.537V3.5H115.548V3L117.558 3V3.5L119.569 3.5V3H121.579V3.5H123.59V3H125.6V3.5H127.611V3H129.621V3.5L131.632 3.5V3L133.642 3V3.5H135.653V3H137.663V3.5H139.674V3H141.684V3.5H143.695V3H145.705V3.5H147.716V3L149.726 3V3.5L151.737 3.5V3H153.747V3.5H155.758V3H157.768V3.5H159.779V3H161.789V3.5L163.8 3.5V3L165.81 3V3.5H167.821V3H169.831V3.5H171.842V3H173.852V3.5H175.863V3H177.873V3.5H179.884V3L181.894 3V3.5L183.905 3.5V3H185.915V3.5H187.926V3H189.936V3.5H191.947V3H193.957V3.5L195.968 3.5V3L197.979 3V3.5H199.989V3H202V3.5H204.01V3H206.021V3.5H206.526V4H207.026V6H206.526V8H207.026V10H206.526V12H207.026V14H206.526V16H207.026V18H206.526V20H207.026V22H206.526V24H207.026V26H206.526V28H207.026V30H206.526V32H207.026V34H206.526V36H207.026V38H206.526V40H207.026V42H206.526V44H207.026V46H206.526V48H207.026V50H206.526V52H207.026V54H206.526V54.5H206.021V55H204.01V54.5H202V55H199.989V54.5H197.979V55H195.968V54.5H193.958V55H191.947V54.5H189.936V55H187.926V54.5H185.915V55H183.905V54.5H181.894V55H179.884V54.5H177.873V55H175.863V54.5H173.852V55H171.842V54.5H169.831V55H167.821V54.5H165.81V55H163.8V54.5H161.789V55H159.779V54.5H157.768V55H155.758V54.5H153.747V55H151.737V54.5H149.726V55H147.716V54.5H145.705V55H143.695V54.5H141.684V55L139.674 55V54.5H137.663V55H135.653V54.5H133.642V55H131.632V54.5H129.621V55H127.611V54.5H125.6V55H123.59V54.5H121.579V55H119.569V54.5H117.558V55H115.548V54.5H113.537V55H111.527V54.5H109.516V55H107.506V54.5H105.495V55H103.485V54.5H101.474V55H99.4637V54.5H97.4532V55H95.4427V54.5H93.4322V55H91.4217V54.5H89.4111V55H87.4006V54.5H85.3901V55H83.3796V54.5H81.3691V55H79.3586V54.5H77.3481V55H75.3376V54.5H73.3271V55H71.3166V54.5H69.3061V55H67.2956V54.5H65.2851V55H63.2746V54.5H61.2641V55H59.2536V54.5H57.2431V55H55.2325V54.5H53.222V55H51.2115V54.5H49.201V55H47.1905V54.5H46.3506L45.6532 53.9822L45.3551 54.3836L43.6948 53.1509L43.9929 52.7494L42.3326 51.5167L42.0346 51.9181L40.3743 50.6853L40.6723 50.2839L39.012 49.0511L38.714 49.4526L37.0537 48.2198L37.3518 47.8184L35.6915 46.5856L35.3934 46.9871L33.7331 45.7543L34.0312 45.3529L32.3709 44.1201L32.0728 44.5216L30.4125 43.2888L30.7106 42.8874L29.0503 41.6546L28.7522 42.056L27.0919 40.8233L27.39 40.4218L25.7297 39.1891L25.4317 39.5905L23.7714 38.3578L24.0694 37.9563L22.4091 36.7236L22.1111 37.125L20.4508 35.8922L20.7489 35.4908L19.0886 34.258L18.7905 34.6595L17.1302 33.4267L17.4283 33.0253L15.768 31.7925L15.4699 32.194L13.8096 30.9612L14.1077 30.5598L13.7908 30.3244L14.052 30.1093L13.7342 29.7233L15.2435 28.4804L15.5614 28.8664L17.0707 27.6234L16.7529 27.2375L18.2622 25.9945L18.5801 26.3805L20.0894 25.1375L19.7716 24.7516L21.2809 23.5086L21.5988 23.8946L23.1081 22.6516L22.7903 22.2657L24.2996 21.0227L24.6175 21.4087L26.1268 20.1657L25.809 19.7798L27.3184 18.5368L27.6362 18.9228L29.1456 17.6799L28.8277 17.2939L30.3371 16.0509L30.6549 16.4369L32.1643 15.194L31.8464 14.808L33.3558 13.565L33.6736 13.951L35.183 12.7081L34.8651 12.3221L36.3745 11.0792L36.6923 11.4651L38.2017 10.2222L37.8838 9.83621L39.3932 8.59326L39.711 8.97923L41.2204 7.73628L40.9025 7.35031L42.4119 6.10737L42.7297 6.49334L44.2391 5.25039L43.9212 4.86442Z" stroke="white" stroke-dasharray="2 2"/>
<g filter="url(#filter1_i_60_168)">
<ellipse cx="17.4148" cy="29" rx="4.43534" ry="4" fill="#ABA7A7"/>
</g>
</g>
<path d="M50.2477 40.192C49.2237 40.192 48.4157 39.984 47.8237 39.568C47.2317 39.152 46.8077 38.56 46.5517 37.792C46.3117 37.024 46.1917 36.12 46.1917 35.08V31.048C46.1917 30.008 46.3117 29.104 46.5517 28.336C46.8077 27.568 47.2317 26.976 47.8237 26.56C48.4157 26.144 49.2237 25.936 50.2477 25.936C51.2717 25.936 52.0717 26.144 52.6477 26.56C53.2397 26.976 53.6557 27.568 53.8957 28.336C54.1517 29.104 54.2797 30.008 54.2797 31.048V35.08C54.2797 36.12 54.1517 37.024 53.8957 37.792C53.6557 38.56 53.2397 39.152 52.6477 39.568C52.0717 39.984 51.2717 40.192 50.2477 40.192ZM50.2477 38.296C50.7437 38.296 51.0877 38.152 51.2797 37.864C51.4877 37.576 51.6077 37.2 51.6397 36.736C51.6877 36.256 51.7117 35.76 51.7117 35.248V30.904C51.7117 30.376 51.6877 29.88 51.6397 29.416C51.6077 28.952 51.4877 28.576 51.2797 28.288C51.0877 27.984 50.7437 27.832 50.2477 27.832C49.7517 27.832 49.3997 27.984 49.1917 28.288C48.9837 28.576 48.8557 28.952 48.8077 29.416C48.7757 29.88 48.7597 30.376 48.7597 30.904V35.248C48.7597 35.76 48.7757 36.256 48.8077 36.736C48.8557 37.2 48.9837 37.576 49.1917 37.864C49.3997 38.152 49.7517 38.296 50.2477 38.296ZM57.9996 40V28.048H55.4076V26.128H63.1836V28.048H60.5676V40H57.9996ZM75.0928 40.216C73.9728 40.216 73.0608 39.936 72.3568 39.376C71.6528 38.8 71.1328 38.032 70.7968 37.072C70.4768 36.096 70.3168 35.016 70.3168 33.832V27.28C70.3168 26.016 70.4608 24.864 70.7488 23.824C71.0368 22.784 71.5248 21.952 72.2128 21.328C72.9168 20.704 73.8768 20.392 75.0928 20.392C76.1008 20.392 76.9488 20.576 77.6368 20.944C78.3408 21.312 78.8768 21.848 79.2448 22.552C79.6288 23.256 79.8288 24.112 79.8448 25.12C79.8448 25.152 79.8448 25.2 79.8448 25.264C79.8608 25.312 79.8688 25.36 79.8688 25.408H77.2768C77.2768 24.464 77.1248 23.744 76.8208 23.248C76.5168 22.752 75.9408 22.504 75.0928 22.504C74.6288 22.504 74.2288 22.656 73.8928 22.96C73.5568 23.248 73.3008 23.696 73.1248 24.304C72.9648 24.912 72.8848 25.696 72.8848 26.656V29.608C73.1408 29.208 73.5008 28.888 73.9648 28.648C74.4448 28.392 75.0288 28.264 75.7168 28.264C76.7888 28.264 77.6288 28.496 78.2368 28.96C78.8448 29.424 79.2768 30.08 79.5328 30.928C79.7888 31.76 79.9168 32.744 79.9168 33.88C79.9168 35.048 79.7568 36.112 79.4368 37.072C79.1168 38.032 78.6048 38.8 77.9008 39.376C77.1968 39.936 76.2608 40.216 75.0928 40.216ZM75.0928 38.08C75.6688 38.08 76.1168 37.92 76.4368 37.6C76.7568 37.264 76.9808 36.824 77.1088 36.28C77.2528 35.736 77.3248 35.144 77.3248 34.504C77.3248 33.736 77.2848 33.024 77.2048 32.368C77.1408 31.712 76.9568 31.192 76.6528 30.808C76.3488 30.408 75.8288 30.208 75.0928 30.208C74.7408 30.208 74.4208 30.272 74.1328 30.4C73.8448 30.528 73.5968 30.696 73.3888 30.904C73.1808 31.096 73.0128 31.304 72.8848 31.528V34.432C72.8848 35.088 72.9488 35.696 73.0768 36.256C73.2208 36.816 73.4528 37.264 73.7728 37.6C74.0928 37.92 74.5328 38.08 75.0928 38.08ZM86.8751 40.216C85.8671 40.216 85.0031 40.032 84.2831 39.664C83.5791 39.28 83.0431 38.728 82.6751 38.008C82.3071 37.288 82.1151 36.416 82.0991 35.392C82.0991 35.36 82.0991 35.328 82.0991 35.296C82.0991 35.248 82.0991 35.208 82.0991 35.176H84.6671C84.6671 36.104 84.8191 36.824 85.1231 37.336C85.4271 37.832 86.0191 38.08 86.8991 38.08C87.3791 38.08 87.7791 37.936 88.0991 37.648C88.4191 37.344 88.6591 36.888 88.8191 36.28C88.9791 35.656 89.0591 34.872 89.0591 33.928V30.976C88.8191 31.376 88.4591 31.704 87.9791 31.96C87.5151 32.2 86.9311 32.32 86.2271 32.32C85.1551 32.32 84.3151 32.088 83.7071 31.624C83.0991 31.144 82.6671 30.488 82.4111 29.656C82.1711 28.808 82.0511 27.824 82.0511 26.704C82.0511 25.52 82.2111 24.456 82.5311 23.512C82.8511 22.552 83.3631 21.792 84.0671 21.232C84.7871 20.672 85.7231 20.392 86.8751 20.392C87.9951 20.392 88.9071 20.68 89.6111 21.256C90.3151 21.816 90.8271 22.576 91.1471 23.536C91.4831 24.496 91.6511 25.568 91.6511 26.752V33.28C91.6511 34.528 91.5071 35.68 91.2191 36.736C90.9311 37.792 90.4431 38.64 89.7551 39.28C89.0671 39.904 88.1071 40.216 86.8751 40.216ZM86.8751 30.376C87.4351 30.376 87.8911 30.24 88.2431 29.968C88.5951 29.68 88.8671 29.368 89.0591 29.032V26.152C89.0591 25.48 88.9951 24.872 88.8671 24.328C88.7391 23.768 88.5151 23.328 88.1951 23.008C87.8751 22.672 87.4351 22.504 86.8751 22.504C86.3151 22.504 85.8671 22.672 85.5311 23.008C85.2111 23.344 84.9791 23.784 84.8351 24.328C84.7071 24.856 84.6431 25.44 84.6431 26.08C84.6431 26.848 84.6751 27.56 84.7391 28.216C84.8191 28.872 85.0111 29.4 85.3151 29.8C85.6351 30.184 86.1551 30.376 86.8751 30.376ZM104.406 40.216C103.398 40.216 102.534 40.032 101.814 39.664C101.11 39.28 100.574 38.728 100.206 38.008C99.8384 37.288 99.6464 36.416 99.6304 35.392C99.6304 35.36 99.6304 35.328 99.6304 35.296C99.6304 35.248 99.6304 35.208 99.6304 35.176H102.198C102.198 36.104 102.35 36.824 102.654 37.336C102.958 37.832 103.55 38.08 104.43 38.08C104.91 38.08 105.31 37.936 105.63 37.648C105.95 37.344 106.19 36.888 106.35 36.28C106.51 35.656 106.59 34.872 106.59 33.928V30.976C106.35 31.376 105.99 31.704 105.51 31.96C105.046 32.2 104.462 32.32 103.758 32.32C102.686 32.32 101.846 32.088 101.238 31.624C100.63 31.144 100.198 30.488 99.9424 29.656C99.7024 28.808 99.5824 27.824 99.5824 26.704C99.5824 25.52 99.7424 24.456 100.062 23.512C100.382 22.552 100.894 21.792 101.598 21.232C102.318 20.672 103.254 20.392 104.406 20.392C105.526 20.392 106.438 20.68 107.142 21.256C107.846 21.816 108.358 22.576 108.678 23.536C109.014 24.496 109.182 25.568 109.182 26.752V33.28C109.182 34.528 109.038 35.68 108.75 36.736C108.462 37.792 107.974 38.64 107.286 39.28C106.598 39.904 105.638 40.216 104.406 40.216ZM104.406 30.376C104.966 30.376 105.422 30.24 105.774 29.968C106.126 29.68 106.398 29.368 106.59 29.032V26.152C106.59 25.48 106.526 24.872 106.398 24.328C106.27 23.768 106.046 23.328 105.726 23.008C105.406 22.672 104.966 22.504 104.406 22.504C103.846 22.504 103.398 22.672 103.062 23.008C102.742 23.344 102.51 23.784 102.366 24.328C102.238 24.856 102.174 25.44 102.174 26.08C102.174 26.848 102.206 27.56 102.27 28.216C102.35 28.872 102.542 29.4 102.846 29.8C103.166 30.184 103.686 30.376 104.406 30.376ZM116.789 40.216C115.685 40.216 114.773 39.968 114.053 39.472C113.349 38.976 112.821 38.296 112.469 37.432C112.133 36.568 111.965 35.584 111.965 34.48V26.104C111.965 24.968 112.133 23.976 112.469 23.128C112.805 22.264 113.325 21.592 114.029 21.112C114.749 20.632 115.669 20.392 116.789 20.392C117.909 20.392 118.821 20.632 119.525 21.112C120.229 21.592 120.749 22.264 121.085 23.128C121.421 23.976 121.589 24.968 121.589 26.104V34.48C121.589 35.6 121.413 36.592 121.061 37.456C120.725 38.32 120.205 39 119.501 39.496C118.797 39.976 117.893 40.216 116.789 40.216ZM116.789 38.104C117.397 38.104 117.853 37.928 118.157 37.576C118.477 37.224 118.693 36.776 118.805 36.232C118.933 35.672 118.997 35.096 118.997 34.504V26.08C118.997 25.456 118.941 24.872 118.829 24.328C118.717 23.768 118.501 23.32 118.181 22.984C117.877 22.648 117.413 22.48 116.789 22.48C116.165 22.48 115.693 22.648 115.373 22.984C115.053 23.32 114.837 23.768 114.725 24.328C114.613 24.872 114.557 25.456 114.557 26.08V34.504C114.557 35.096 114.613 35.672 114.725 36.232C114.853 36.776 115.077 37.224 115.397 37.576C115.733 37.928 116.197 38.104 116.789 38.104ZM129.188 40.216C128.084 40.216 127.172 39.968 126.452 39.472C125.748 38.976 125.22 38.296 124.868 37.432C124.532 36.568 124.364 35.584 124.364 34.48V26.104C124.364 24.968 124.532 23.976 124.868 23.128C125.204 22.264 125.724 21.592 126.428 21.112C127.148 20.632 128.068 20.392 129.188 20.392C130.308 20.392 131.22 20.632 131.924 21.112C132.628 21.592 133.148 22.264 133.484 23.128C133.82 23.976 133.988 24.968 133.988 26.104V34.48C133.988 35.6 133.812 36.592 133.46 37.456C133.124 38.32 132.604 39 131.9 39.496C131.196 39.976 130.292 40.216 129.188 40.216ZM129.188 38.104C129.796 38.104 130.252 37.928 130.556 37.576C130.876 37.224 131.092 36.776 131.204 36.232C131.332 35.672 131.396 35.096 131.396 34.504V26.08C131.396 25.456 131.34 24.872 131.228 24.328C131.116 23.768 130.9 23.32 130.58 22.984C130.276 22.648 129.812 22.48 129.188 22.48C128.564 22.48 128.092 22.648 127.772 22.984C127.452 23.32 127.236 23.768 127.124 24.328C127.012 24.872 126.956 25.456 126.956 26.08V34.504C126.956 35.096 127.012 35.672 127.124 36.232C127.252 36.776 127.476 37.224 127.796 37.576C128.132 37.928 128.596 38.104 129.188 38.104ZM143.71 40V28.048H141.118V26.128L148.894 26.128V28.048H146.278V40H143.71ZM150.447 40V26.128H156.039V27.976H153.015V40H150.447ZM156.808 40L162.04 20.56H164.272L159.016 40H156.808ZM166.196 40L166.34 26.128H168.236L171.308 34.648L174.404 26.128H176.3L176.444 40H174.284V31.72L171.716 38.632H170.924L168.356 31.768V40H166.196ZM179.523 29.608V28.144L182.499 24.904C182.979 24.392 183.355 23.96 183.627 23.608C183.915 23.24 184.115 22.912 184.227 22.624C184.355 22.336 184.419 22.048 184.419 21.76C184.419 21.28 184.307 20.912 184.083 20.656C183.859 20.384 183.515 20.248 183.051 20.248C182.443 20.248 182.011 20.448 181.755 20.848C181.515 21.232 181.395 21.8 181.395 22.552H179.499V22.216C179.499 21.512 179.619 20.88 179.859 20.32C180.099 19.744 180.475 19.288 180.987 18.952C181.515 18.616 182.203 18.448 183.051 18.448C184.091 18.448 184.907 18.736 185.499 19.312C186.091 19.872 186.387 20.648 186.387 21.64C186.387 22.44 186.195 23.144 185.811 23.752C185.443 24.344 184.859 25.048 184.059 25.864L182.067 27.928H186.507V29.608H179.523Z" fill="white"/>
<defs>
<filter id="filter0_d_60_168" x="0" y="0" width="213.353" height="65" filterUnits="userSpaceOnUse" color-interpolation-filters="sRGB">
<feFlood flood-opacity="0" result="BackgroundImageFix"/>
<feColorMatrix in="SourceAlpha" type="matrix" values="0 0 0 0 0 0 0 0 0 0 0 0 0 0 0 0 0 0 127 0" result="hardAlpha"/>
<feOffset dy="4"/>
<feGaussianBlur stdDeviation="1.5"/>
<feComposite in2="hardAlpha" operator="out"/>
<feColorMatrix type="matrix" values="0 0 0 0 0.0588235 0 0 0 0 0.0901961 0 0 0 0 0.133333 0 0 0 0.28 0"/>
<feBlend mode="normal" in2="BackgroundImageFix" result="effect1_dropShadow_60_168"/>
<feBlend mode="normal" in="SourceGraphic" in2="effect1_dropShadow_60_168" result="shape"/>
</filter>
<filter id="filter1_i_60_168" x="12.9795" y="25" width="8.87061" height="12" filterUnits="userSpaceOnUse" color-interpolation-filters="sRGB">
<feFlood flood-opacity="0" result="BackgroundImageFix"/>
<feBlend mode="normal" in="SourceGraphic" in2="BackgroundImageFix" result="shape"/>
<feColorMatrix in="SourceAlpha" type="matrix" values="0 0 0 0 0 0 0 0 0 0 0 0 0 0 0 0 0 0 127 0" result="hardAlpha"/>
<feOffset dy="4"/>
<feGaussianBlur stdDeviation="2"/>
<feComposite in2="hardAlpha" operator="arithmetic" k2="-1" k3="1"/>
<feColorMatrix type="matrix" values="0 0 0 0 0.0588235 0 0 0 0 0.0901961 0 0 0 0 0.133333 0 0 0 0.29 0"/>
<feBlend mode="normal" in2="shape" result="effect1_innerShadow_60_168"/>
</filter>
</defs>
</svg>
