<svg width="230" height="87" viewBox="0 0 230 87" fill="none" xmlns="http://www.w3.org/2000/svg">
<g filter="url(#filter0_d_263_5)">
<path d="M41.3248 0.0187689L226.961 0.10968L226.999 79.1375L41.3636 79.0466L3.0204 41.5578L41.3248 0.0187689Z" fill="#C21919"/>
<path d="M47.5786 6.26035L48.9573 4.82804L49.3177 5.17498L49.8597 4.61199L50.657 4.6124L50.6568 4.1124L52.6768 4.11344L52.677 4.61344L54.6971 4.61448L54.6968 4.11448L56.7169 4.11553L56.7171 4.61553L58.7371 4.61657L58.7369 4.11657L60.7569 4.11761L60.7572 4.61761L62.7772 4.61865L62.777 4.11865L64.797 4.11969L64.7972 4.61969L66.8173 4.62074L66.817 4.12074L68.8371 4.12178L68.8373 4.62178L70.8573 4.62282L70.8571 4.12282L72.8771 4.12386L72.8774 4.62386L74.8974 4.6249L74.8972 4.1249L76.9172 4.12594L76.9174 4.62594L78.9375 4.62699L78.9372 4.12699L80.9573 4.12803L80.9575 4.62803L82.9775 4.62907L82.9773 4.12907L84.9973 4.13011L84.9976 4.63011L87.0176 4.63115L87.0174 4.13115L89.0374 4.1322L89.0376 4.6322L91.0577 4.63324L91.0574 4.13324L93.0775 4.13428L93.0777 4.63428L95.0977 4.63532L95.0975 4.13532L97.1176 4.13636L97.1178 4.63636L99.1378 4.6374L99.1376 4.1374L101.158 4.13845L101.158 4.63845L103.178 4.63949L103.178 4.13949L105.198 4.14053L105.198 4.64053L107.218 4.64157L107.218 4.14157L109.238 4.14261L109.238 4.64261L111.258 4.64365L111.258 4.14365L113.278 4.1447L113.278 4.6447L115.298 4.64574L115.298 4.14574L117.318 4.14678L117.318 4.64678L119.338 4.64782L119.338 4.14782L121.358 4.14886L121.358 4.64886L123.378 4.64991L123.378 4.14991L125.398 4.15095L125.398 4.65095L127.418 4.65199L127.418 4.15199L129.438 4.15303L129.438 4.65303L131.459 4.65407L131.458 4.15407L133.478 4.15511L133.479 4.65511L135.499 4.65616L135.498 4.15616L137.518 4.1572L137.519 4.6572L139.539 4.65824L139.538 4.15824L141.558 4.15928L141.559 4.65928L143.579 4.66032L143.579 4.16032L145.599 4.16137L145.599 4.66137L147.619 4.66241L147.619 4.16241L149.639 4.16345L149.639 4.66345L151.659 4.66449L151.659 4.16449L153.679 4.16553L153.679 4.66553L155.699 4.66657L155.699 4.16657L157.719 4.16762L157.719 4.66762L159.739 4.66866L159.739 4.16866L161.759 4.1697L161.759 4.6697L163.779 4.67074L163.779 4.17074L165.799 4.17178L165.799 4.67178L167.819 4.67282L167.819 4.17282L169.839 4.17387L169.839 4.67387L171.859 4.67491L171.859 4.17491L173.879 4.17595L173.879 4.67595L175.899 4.67699L175.899 4.17699L177.919 4.17803L177.919 4.67803L179.939 4.67908L179.939 4.17908L181.959 4.18012L181.96 4.68012L183.98 4.68116L183.979 4.18116L185.999 4.1822L186 4.6822L188.02 4.68324L188.019 4.18324L190.039 4.18428L190.04 4.68428L192.06 4.68533L192.059 4.18533L194.08 4.18637L194.08 4.68637L196.1 4.68741L196.1 4.18741L198.12 4.18845L198.12 4.68845L200.14 4.68949L200.14 4.18949L202.16 4.19054L202.16 4.69054L204.18 4.69158L204.18 4.19158L206.2 4.19262L206.2 4.69262L208.22 4.69366L208.22 4.19366L210.24 4.1947L210.24 4.6947L212.26 4.69574L212.26 4.19574L214.28 4.19679L214.28 4.69679L216.3 4.69783L216.3 4.19783L218.32 4.19887L218.32 4.69887L220.34 4.69991L220.34 4.19991L222.36 4.20095L222.36 4.70095L222.87 4.70122L222.871 5.18528L223.371 5.18554L223.371 7.15366L222.871 7.1534L222.872 9.12153L223.372 9.12179L223.373 11.0899L222.873 11.0897L222.874 13.0578L223.374 13.058L223.375 15.0262L222.875 15.0259L222.876 16.994L223.376 16.9943L223.377 18.9624L222.877 18.9622L222.878 20.9303L223.378 20.9305L223.379 22.8987L222.879 22.8984L222.88 24.8665L223.38 24.8668L223.381 26.8349L222.881 26.8347L222.882 28.8028L223.382 28.8031L223.382 30.7712L222.882 30.7709L222.883 32.7391L223.383 32.7393L223.384 34.7074L222.884 34.7072L222.885 36.6753L223.385 36.6756L223.386 38.6437L222.886 38.6434L222.887 40.6116L223.387 40.6118L223.388 42.58L222.888 42.5797L222.889 44.5478L223.389 44.5481L223.39 46.5162L222.89 46.516L222.891 48.4841L223.391 48.4843L223.392 50.4525L222.892 50.4522L222.893 52.4203L223.393 52.4206L223.393 54.3887L222.893 54.3885L222.894 56.3566L223.394 56.3568L223.395 58.325L222.895 58.3247L222.896 60.2928L223.396 60.2931L223.397 62.2612L222.897 62.261L222.898 64.2291L223.398 64.2293L223.399 66.1975L222.899 66.1972L222.9 68.1653L223.4 68.1656L223.401 70.1337L222.901 70.1335L222.902 72.1016L223.402 72.1018L223.403 74.07L222.903 74.0697L222.903 74.5538L222.393 74.5535L222.393 75.0535L220.373 75.0525L220.373 74.5525L218.353 74.5514L218.353 75.0514L216.333 75.0504L216.333 74.5504L214.313 74.5494L214.313 75.0494L212.293 75.0483L212.293 74.5483L210.273 74.5473L210.273 75.0473L208.253 75.0462L208.253 74.5462L206.233 74.5452L206.233 75.0452L204.213 75.0441L204.213 74.5441L202.192 74.5431L202.193 75.0431L200.173 75.0421L200.172 74.5421L198.152 74.541L198.153 75.041L196.133 75.04L196.132 74.54L194.112 74.5389L194.113 75.0389L192.093 75.0379L192.092 74.5379L190.072 74.5369L190.073 75.0369L188.052 75.0358L188.052 74.5358L186.032 74.5348L186.032 75.0348L184.012 75.0337L184.012 74.5337L181.992 74.5327L181.992 75.0327L179.972 75.0316L179.972 74.5316L177.952 74.5306L177.952 75.0306L175.932 75.0296L175.932 74.5296L173.912 74.5285L173.912 75.0285L171.892 75.0275L171.892 74.5275L169.872 74.5264L169.872 75.0264L167.852 75.0254L167.852 74.5254L165.832 74.5244L165.832 75.0244L163.812 75.0233L163.812 74.5233L161.792 74.5223L161.792 75.0223L159.772 75.0212L159.772 74.5212L157.752 74.5202L157.752 75.0202L155.732 75.0191L155.732 74.5191L153.712 74.5181L153.712 75.0181L151.692 75.0171L151.692 74.5171L149.671 74.516L149.672 75.016L147.652 75.015L147.651 74.515L145.631 74.5139L145.632 75.0139L143.612 75.0129L143.611 74.5129L141.591 74.5119L141.592 75.0119L139.572 75.0108L139.571 74.5108L137.551 74.5098L137.551 75.0098L135.531 75.0087L135.531 74.5087L133.511 74.5077L133.511 75.0077L131.491 75.0066L131.491 74.5066L129.471 74.5056L129.471 75.0056L127.451 75.0046L127.451 74.5046L125.431 74.5035L125.431 75.0035L123.411 75.0025L123.411 74.5025L121.391 74.5014L121.391 75.0014L119.371 75.0004L119.371 74.5004L117.351 74.4993L117.351 74.9993L115.331 74.9983L115.331 74.4983L113.311 74.4973L113.311 74.9973L111.291 74.9962L111.291 74.4962L109.271 74.4952L109.271 74.9952L107.251 74.9941L107.251 74.4941L105.231 74.4931L105.231 74.9931L103.211 74.9921L103.211 74.4921L101.191 74.491L101.191 74.991L99.1707 74.99L99.1705 74.49L97.1504 74.4889L97.1507 74.9889L95.1306 74.9879L95.1304 74.4879L93.1103 74.4868L93.1106 74.9868L91.0905 74.9858L91.0903 74.4858L89.0703 74.4848L89.0705 74.9848L87.0505 74.9837L87.0502 74.4837L85.0302 74.4827L85.0304 74.9827L83.0104 74.9816L83.0102 74.4816L80.9901 74.4806L80.9903 74.9806L78.9703 74.9796L78.9701 74.4796L76.95 74.4785L76.9503 74.9785L74.9302 74.9775L74.93 74.4775L72.91 74.4764L72.9102 74.9764L70.8902 74.9754L70.8899 74.4754L68.8699 74.4743L68.8701 74.9743L66.8501 74.9733L66.8498 74.4733L64.8298 74.4723L64.83 74.9723L62.81 74.9712L62.8098 74.4712L60.7897 74.4702L60.79 74.9702L58.7699 74.9691L58.7697 74.4691L56.7497 74.4681L56.7499 74.9681L54.7298 74.9671L54.7296 74.4671L52.7096 74.466L52.7098 74.966L50.6898 74.965L50.6895 74.465L49.8771 74.4646L49.2739 73.8995L48.9322 74.2642L47.4372 72.8637L47.7788 72.4989L46.2838 71.0984L45.9421 71.4632L44.4471 70.0626L44.7887 69.6979L43.2937 68.2974L42.952 68.6621L41.457 67.2616L41.7986 66.8969L40.3036 65.4963L39.9619 65.8611L38.4669 64.4606L38.8085 64.0958L37.3135 62.6953L36.9718 63.0601L35.4768 61.6595L35.8184 61.2948L34.3234 59.8943L33.9818 60.259L32.4867 58.8585L32.8283 58.4938L31.3333 57.0933L30.9917 57.458L29.4966 56.0575L29.8383 55.6927L28.3432 54.2922L28.0016 54.657L26.5065 53.2564L26.8482 52.8917L25.3531 51.4912L25.0115 51.8559L23.5164 50.4554L23.8581 50.0907L22.363 48.6902L22.0214 49.0549L20.5263 47.6544L20.868 47.2896L19.3729 45.8891L19.0313 46.2539L17.5362 44.8534L17.8779 44.4886L16.3828 43.0881L16.0412 43.4528L14.5461 42.0523L14.8878 41.6876L14.5104 41.334L14.8484 40.9828L14.488 40.6359L15.8668 39.2036L16.2272 39.5505L17.6059 38.1182L17.2456 37.7713L18.6243 36.339L18.9847 36.6859L20.3635 35.2536L20.0031 34.9066L21.3819 33.4743L21.7423 33.8213L23.121 32.389L22.7606 32.042L24.1394 30.6097L24.4998 30.9566L25.8786 29.5243L25.5182 29.1774L26.897 27.7451L27.2573 28.092L28.6361 26.6597L28.2757 26.3128L29.6545 24.8804L30.0149 25.2274L31.3937 23.7951L31.0333 23.4481L32.4121 22.0158L32.7724 22.3628L34.1512 20.9304L33.7908 20.5835L35.1696 19.1512L35.53 19.4981L36.9088 18.0658L36.5484 17.7189L37.9271 16.2866L38.2875 16.6335L39.6663 15.2012L39.3059 14.8542L40.6847 13.4219L41.0451 13.7689L42.4239 12.3366L42.0635 11.9896L43.4422 10.5573L43.8026 10.9042L45.1814 9.47192L44.821 9.12498L46.1998 7.69267L46.5602 8.03961L47.9389 6.60729L47.5786 6.26035Z" stroke="white" stroke-dasharray="2 2"/>
<g filter="url(#filter1_i_263_5)">
<ellipse cx="21.5827" cy="39.3931" rx="5.63151" ry="5.89472" fill="#ABA7A7"/>
</g>
</g>
<path d="M107.41 44.162C106.654 44.162 106.006 44.024 105.466 43.748C104.938 43.46 104.536 43.046 104.26 42.506C103.984 41.966 103.84 41.312 103.828 40.544C103.828 40.52 103.828 40.496 103.828 40.472C103.828 40.436 103.828 40.406 103.828 40.382H105.754C105.754 41.078 105.868 41.618 106.096 42.002C106.324 42.374 106.768 42.56 107.428 42.56C107.788 42.56 108.088 42.452 108.328 42.236C108.568 42.008 108.748 41.666 108.868 41.21C108.988 40.742 109.048 40.154 109.048 39.446V37.232C108.868 37.532 108.598 37.778 108.238 37.97C107.89 38.15 107.452 38.24 106.924 38.24C106.12 38.24 105.49 38.066 105.034 37.718C104.578 37.358 104.254 36.866 104.062 36.242C103.882 35.606 103.792 34.868 103.792 34.028C103.792 33.14 103.912 32.342 104.152 31.634C104.392 30.914 104.776 30.344 105.304 29.924C105.844 29.504 106.546 29.294 107.41 29.294C108.25 29.294 108.934 29.51 109.462 29.942C109.99 30.362 110.374 30.932 110.614 31.652C110.866 32.372 110.992 33.176 110.992 34.064V38.96C110.992 39.896 110.884 40.76 110.668 41.552C110.452 42.344 110.086 42.98 109.57 43.46C109.054 43.928 108.334 44.162 107.41 44.162ZM107.41 36.782C107.83 36.782 108.172 36.68 108.436 36.476C108.7 36.26 108.904 36.026 109.048 35.774V33.614C109.048 33.11 109 32.654 108.904 32.246C108.808 31.826 108.64 31.496 108.4 31.256C108.16 31.004 107.83 30.878 107.41 30.878C106.99 30.878 106.654 31.004 106.402 31.256C106.162 31.508 105.988 31.838 105.88 32.246C105.784 32.642 105.736 33.08 105.736 33.56C105.736 34.136 105.76 34.67 105.808 35.162C105.868 35.654 106.012 36.05 106.24 36.35C106.48 36.638 106.87 36.782 107.41 36.782ZM116.445 44.162C115.689 44.162 115.041 44.024 114.501 43.748C113.973 43.46 113.571 43.046 113.295 42.506C113.019 41.966 112.875 41.312 112.863 40.544C112.863 40.52 112.863 40.496 112.863 40.472C112.863 40.436 112.863 40.406 112.863 40.382H114.789C114.789 41.078 114.903 41.618 115.131 42.002C115.359 42.374 115.803 42.56 116.463 42.56C116.823 42.56 117.123 42.452 117.363 42.236C117.603 42.008 117.783 41.666 117.903 41.21C118.023 40.742 118.083 40.154 118.083 39.446V37.232C117.903 37.532 117.633 37.778 117.273 37.97C116.925 38.15 116.487 38.24 115.959 38.24C115.155 38.24 114.525 38.066 114.069 37.718C113.613 37.358 113.289 36.866 113.097 36.242C112.917 35.606 112.827 34.868 112.827 34.028C112.827 33.14 112.947 32.342 113.187 31.634C113.427 30.914 113.811 30.344 114.339 29.924C114.879 29.504 115.581 29.294 116.445 29.294C117.285 29.294 117.969 29.51 118.497 29.942C119.025 30.362 119.409 30.932 119.649 31.652C119.901 32.372 120.027 33.176 120.027 34.064V38.96C120.027 39.896 119.919 40.76 119.703 41.552C119.487 42.344 119.121 42.98 118.605 43.46C118.089 43.928 117.369 44.162 116.445 44.162ZM116.445 36.782C116.865 36.782 117.207 36.68 117.471 36.476C117.735 36.26 117.939 36.026 118.083 35.774V33.614C118.083 33.11 118.035 32.654 117.939 32.246C117.843 31.826 117.675 31.496 117.435 31.256C117.195 31.004 116.865 30.878 116.445 30.878C116.025 30.878 115.689 31.004 115.437 31.256C115.197 31.508 115.023 31.838 114.915 32.246C114.819 32.642 114.771 33.08 114.771 33.56C114.771 34.136 114.795 34.67 114.843 35.162C114.903 35.654 115.047 36.05 115.275 36.35C115.515 36.638 115.905 36.782 116.445 36.782ZM129.594 44.162C128.838 44.162 128.19 44.024 127.65 43.748C127.122 43.46 126.72 43.046 126.444 42.506C126.168 41.966 126.024 41.312 126.012 40.544C126.012 40.52 126.012 40.496 126.012 40.472C126.012 40.436 126.012 40.406 126.012 40.382H127.938C127.938 41.078 128.052 41.618 128.28 42.002C128.508 42.374 128.952 42.56 129.612 42.56C129.972 42.56 130.272 42.452 130.512 42.236C130.752 42.008 130.932 41.666 131.052 41.21C131.172 40.742 131.232 40.154 131.232 39.446V37.232C131.052 37.532 130.782 37.778 130.422 37.97C130.074 38.15 129.636 38.24 129.108 38.24C128.304 38.24 127.674 38.066 127.218 37.718C126.762 37.358 126.438 36.866 126.246 36.242C126.066 35.606 125.976 34.868 125.976 34.028C125.976 33.14 126.096 32.342 126.336 31.634C126.576 30.914 126.96 30.344 127.488 29.924C128.028 29.504 128.73 29.294 129.594 29.294C130.434 29.294 131.118 29.51 131.646 29.942C132.174 30.362 132.558 30.932 132.798 31.652C133.05 32.372 133.176 33.176 133.176 34.064V38.96C133.176 39.896 133.068 40.76 132.852 41.552C132.636 42.344 132.27 42.98 131.754 43.46C131.238 43.928 130.518 44.162 129.594 44.162ZM129.594 36.782C130.014 36.782 130.356 36.68 130.62 36.476C130.884 36.26 131.088 36.026 131.232 35.774V33.614C131.232 33.11 131.184 32.654 131.088 32.246C130.992 31.826 130.824 31.496 130.584 31.256C130.344 31.004 130.014 30.878 129.594 30.878C129.174 30.878 128.838 31.004 128.586 31.256C128.346 31.508 128.172 31.838 128.064 32.246C127.968 32.642 127.92 33.08 127.92 33.56C127.92 34.136 127.944 34.67 127.992 35.162C128.052 35.654 128.196 36.05 128.424 36.35C128.664 36.638 129.054 36.782 129.594 36.782ZM138.881 44.162C138.053 44.162 137.369 43.976 136.829 43.604C136.301 43.232 135.905 42.722 135.641 42.074C135.389 41.426 135.263 40.688 135.263 39.86V33.578C135.263 32.726 135.389 31.982 135.641 31.346C135.893 30.698 136.283 30.194 136.811 29.834C137.351 29.474 138.041 29.294 138.881 29.294C139.721 29.294 140.405 29.474 140.933 29.834C141.461 30.194 141.851 30.698 142.103 31.346C142.355 31.982 142.481 32.726 142.481 33.578V39.86C142.481 40.7 142.349 41.444 142.085 42.092C141.833 42.74 141.443 43.25 140.915 43.622C140.387 43.982 139.709 44.162 138.881 44.162ZM138.881 42.578C139.337 42.578 139.679 42.446 139.907 42.182C140.147 41.918 140.309 41.582 140.393 41.174C140.489 40.754 140.537 40.322 140.537 39.878V33.56C140.537 33.092 140.495 32.654 140.411 32.246C140.327 31.826 140.165 31.49 139.925 31.238C139.697 30.986 139.349 30.86 138.881 30.86C138.413 30.86 138.059 30.986 137.819 31.238C137.579 31.49 137.417 31.826 137.333 32.246C137.249 32.654 137.207 33.092 137.207 33.56V39.878C137.207 40.322 137.249 40.754 137.333 41.174C137.429 41.582 137.597 41.918 137.837 42.182C138.089 42.446 138.437 42.578 138.881 42.578ZM148.18 44.162C147.352 44.162 146.668 43.976 146.128 43.604C145.6 43.232 145.204 42.722 144.94 42.074C144.688 41.426 144.562 40.688 144.562 39.86V33.578C144.562 32.726 144.688 31.982 144.94 31.346C145.192 30.698 145.582 30.194 146.11 29.834C146.65 29.474 147.34 29.294 148.18 29.294C149.02 29.294 149.704 29.474 150.232 29.834C150.76 30.194 151.15 30.698 151.402 31.346C151.654 31.982 151.78 32.726 151.78 33.578V39.86C151.78 40.7 151.648 41.444 151.384 42.092C151.132 42.74 150.742 43.25 150.214 43.622C149.686 43.982 149.008 44.162 148.18 44.162ZM148.18 42.578C148.636 42.578 148.978 42.446 149.206 42.182C149.446 41.918 149.608 41.582 149.692 41.174C149.788 40.754 149.836 40.322 149.836 39.878V33.56C149.836 33.092 149.794 32.654 149.71 32.246C149.626 31.826 149.464 31.49 149.224 31.238C148.996 30.986 148.648 30.86 148.18 30.86C147.712 30.86 147.358 30.986 147.118 31.238C146.878 31.49 146.716 31.826 146.632 32.246C146.548 32.654 146.506 33.092 146.506 33.56V39.878C146.506 40.322 146.548 40.754 146.632 41.174C146.728 41.582 146.896 41.918 147.136 42.182C147.388 42.446 147.736 42.578 148.18 42.578ZM159.072 44V35.036H157.128V33.596H162.96V35.036H160.998V44H159.072ZM164.124 44V33.596H168.318V34.982H166.05V44H164.124ZM168.895 44L172.819 29.42H174.493L170.551 44H168.895ZM175.936 44L176.044 33.596H177.466L179.77 39.986L182.092 33.596H183.514L183.622 44H182.002V37.79L180.076 42.974H179.482L177.556 37.826V44H175.936ZM185.931 36.206V35.108L188.163 32.678C188.523 32.294 188.805 31.97 189.009 31.706C189.225 31.43 189.375 31.184 189.459 30.968C189.555 30.752 189.603 30.536 189.603 30.32C189.603 29.96 189.519 29.684 189.351 29.492C189.183 29.288 188.925 29.186 188.577 29.186C188.121 29.186 187.797 29.336 187.605 29.636C187.425 29.924 187.335 30.35 187.335 30.914H185.913V30.662C185.913 30.134 186.003 29.66 186.183 29.24C186.363 28.808 186.645 28.466 187.029 28.214C187.425 27.962 187.941 27.836 188.577 27.836C189.357 27.836 189.969 28.052 190.413 28.484C190.857 28.904 191.079 29.486 191.079 30.23C191.079 30.83 190.935 31.358 190.647 31.814C190.371 32.258 189.933 32.786 189.333 33.398L187.839 34.946H191.169V36.206H185.931Z" fill="white"/>
<path d="M43.14 38.1567L42.852 39.2367H45.354L45.084 38.1567C44.916 37.5687 44.754 36.9447 44.598 36.2847C44.442 35.6247 44.286 34.9887 44.13 34.3767H44.058C43.914 35.0007 43.764 35.6427 43.608 36.3027C43.464 36.9507 43.308 37.5687 43.14 38.1567ZM38.892 44.0967L42.564 32.3607H45.75L49.422 44.0967H46.614L45.894 41.3067H42.312L41.592 44.0967H38.892ZM50.7044 44.0967V32.3607H53.3504V36.9687H54.6464L56.1764 34.2687C56.4044 33.8727 56.6264 33.5427 56.8424 33.2787C57.0704 33.0027 57.3104 32.7807 57.5624 32.6127C57.8144 32.4447 58.0784 32.3247 58.3544 32.2527C58.6304 32.1807 58.9364 32.1447 59.2724 32.1447C59.4404 32.1447 59.6084 32.1567 59.7764 32.1807C59.9564 32.2047 60.1124 32.2467 60.2444 32.3067L59.8124 34.7007C59.7164 34.6647 59.6204 34.6467 59.5244 34.6467C59.4284 34.6347 59.3504 34.6287 59.2904 34.6287C59.0264 34.6287 58.7984 34.7007 58.6064 34.8447C58.4264 34.9887 58.2164 35.2707 57.9764 35.6907L56.7344 37.8507L60.5504 44.0967H57.7604L54.6464 39.1107H53.3504V44.0967H50.7044ZM61.9016 44.0967V32.3607H64.5476V41.8647H68.2556V32.3607H70.9016V41.8647H72.3416V43.5207L72.1076 47.4807H69.7316V44.0967H61.9016ZM73.8548 44.0967V32.3607H76.4828V36.5007C76.4828 37.1967 76.4408 37.9287 76.3568 38.6967C76.2728 39.4647 76.2008 40.1607 76.1408 40.7847H76.2128L77.3648 38.2107L80.4428 32.3607H83.2508V44.0967H80.6408V39.9387C80.6408 39.2427 80.6768 38.5227 80.7488 37.7787C80.8328 37.0347 80.9048 36.3387 80.9648 35.6907H80.8928L79.7408 38.2467L76.6628 44.0967H73.8548ZM91.6888 44.0967V39.8667H90.3748L87.8728 44.0967H84.8488L87.8548 39.4707C87.1828 39.2067 86.6368 38.7927 86.2168 38.2287C85.7968 37.6647 85.5868 36.9267 85.5868 36.0147C85.5868 35.3187 85.7068 34.7367 85.9468 34.2687C86.1868 33.8007 86.5108 33.4287 86.9188 33.1527C87.3388 32.8647 87.8188 32.6607 88.3588 32.5407C88.9108 32.4207 89.4988 32.3607 90.1228 32.3607H94.3528V44.0967H91.6888ZM90.3388 37.7607H91.6888V34.4667H90.3388C89.6308 34.4667 89.0968 34.5807 88.7368 34.8087C88.3768 35.0367 88.1968 35.4387 88.1968 36.0147C88.1968 37.1787 88.9108 37.7607 90.3388 37.7607Z" fill="#FAFF00"/>
<path d="M40.0669 63V56.196H41.2149V62.062H44.2669V56.196H45.4149V62.062H46.4089V62.79L46.2969 65.408H45.3029V63H40.0669ZM50.5769 63.168C50.1196 63.168 49.6902 63.0887 49.2889 62.93C48.8969 62.762 48.5516 62.5287 48.2529 62.23C47.9636 61.922 47.7349 61.5487 47.5669 61.11C47.3989 60.6713 47.3149 60.172 47.3149 59.612C47.3149 59.052 47.3989 58.5527 47.5669 58.114C47.7442 57.666 47.9729 57.288 48.2529 56.98C48.5422 56.672 48.8689 56.4387 49.2329 56.28C49.5969 56.112 49.9749 56.028 50.3669 56.028C50.7962 56.028 51.1789 56.1027 51.5149 56.252C51.8602 56.4013 52.1449 56.616 52.3689 56.896C52.6022 57.176 52.7796 57.512 52.9009 57.904C53.0222 58.296 53.0829 58.7347 53.0829 59.22C53.0829 59.3413 53.0782 59.4627 53.0689 59.584C53.0689 59.696 53.0596 59.794 53.0409 59.878H48.4489C48.4956 60.606 48.7196 61.1847 49.1209 61.614C49.5316 62.034 50.0636 62.244 50.7169 62.244C51.0436 62.244 51.3422 62.1973 51.6129 62.104C51.8929 62.0013 52.1589 61.8707 52.4109 61.712L52.8169 62.468C52.5182 62.6547 52.1869 62.818 51.8229 62.958C51.4589 63.098 51.0436 63.168 50.5769 63.168ZM48.4349 59.052H52.0749C52.0749 58.3613 51.9256 57.8387 51.6269 57.484C51.3376 57.12 50.9269 56.938 50.3949 56.938C50.1522 56.938 49.9189 56.9847 49.6949 57.078C49.4802 57.1713 49.2842 57.3113 49.1069 57.498C48.9296 57.6753 48.7802 57.8947 48.6589 58.156C48.5469 58.4173 48.4722 58.716 48.4349 59.052ZM54.7642 63V56.196H55.9122V58.954H59.1882V56.196H60.3362V63H59.1882V59.976H55.9122V63H54.7642ZM64.1935 63.168C63.6242 63.168 63.1482 63 62.7655 62.664C62.3922 62.328 62.2055 61.852 62.2055 61.236C62.2055 60.4893 62.5369 59.92 63.1995 59.528C63.8622 59.1267 64.9215 58.8467 66.3775 58.688C66.3775 58.4733 66.3542 58.2633 66.3075 58.058C66.2702 57.8527 66.2002 57.6707 66.0975 57.512C65.9949 57.3533 65.8502 57.2273 65.6635 57.134C65.4862 57.0313 65.2575 56.98 64.9775 56.98C64.5855 56.98 64.2169 57.0547 63.8715 57.204C63.5262 57.3533 63.2182 57.5213 62.9475 57.708L62.4995 56.91C62.8169 56.7047 63.2042 56.5087 63.6615 56.322C64.1189 56.126 64.6229 56.028 65.1735 56.028C66.0042 56.028 66.6062 56.2847 66.9795 56.798C67.3529 57.302 67.5395 57.9787 67.5395 58.828V63H66.5875L66.4895 62.188H66.4475C66.1209 62.4587 65.7709 62.692 65.3975 62.888C65.0242 63.0747 64.6229 63.168 64.1935 63.168ZM64.5295 62.244C64.8562 62.244 65.1642 62.1693 65.4535 62.02C65.7429 61.8613 66.0509 61.6327 66.3775 61.334V59.444C65.8082 59.5187 65.3275 59.6073 64.9355 59.71C64.5529 59.8127 64.2402 59.934 63.9975 60.074C63.7642 60.214 63.5915 60.3773 63.4795 60.564C63.3769 60.7413 63.3255 60.9373 63.3255 61.152C63.3255 61.544 63.4422 61.824 63.6755 61.992C63.9089 62.16 64.1935 62.244 64.5295 62.244ZM72.721 63V65.408H71.727L71.601 62.79V62.062H71.937C72.0303 62.006 72.119 61.9313 72.203 61.838C72.2963 61.7353 72.3803 61.5813 72.455 61.376C72.5296 61.1707 72.6043 60.8953 72.679 60.55C72.7536 60.2047 72.8236 59.7567 72.889 59.206L73.253 56.196H77.481V62.062H78.475V62.79L78.363 65.408H77.369V63H72.721ZM73.897 59.43C73.8223 60.102 73.7196 60.648 73.589 61.068C73.4676 61.488 73.3276 61.8193 73.169 62.062H76.333V57.134H74.163L73.897 59.43ZM82.6921 63.168C82.2348 63.168 81.8055 63.0887 81.4041 62.93C81.0121 62.762 80.6668 62.5287 80.3681 62.23C80.0788 61.922 79.8501 61.5487 79.6821 61.11C79.5141 60.6713 79.4301 60.172 79.4301 59.612C79.4301 59.052 79.5141 58.5527 79.6821 58.114C79.8595 57.666 80.0881 57.288 80.3681 56.98C80.6575 56.672 80.9841 56.4387 81.3481 56.28C81.7121 56.112 82.0901 56.028 82.4821 56.028C82.9115 56.028 83.2941 56.1027 83.6301 56.252C83.9755 56.4013 84.2601 56.616 84.4841 56.896C84.7175 57.176 84.8948 57.512 85.0161 57.904C85.1375 58.296 85.1981 58.7347 85.1981 59.22C85.1981 59.3413 85.1935 59.4627 85.1841 59.584C85.1841 59.696 85.1748 59.794 85.1561 59.878H80.5641C80.6108 60.606 80.8348 61.1847 81.2361 61.614C81.6468 62.034 82.1788 62.244 82.8321 62.244C83.1588 62.244 83.4575 62.1973 83.7281 62.104C84.0081 62.0013 84.2741 61.8707 84.5261 61.712L84.9321 62.468C84.6335 62.6547 84.3021 62.818 83.9381 62.958C83.5741 63.098 83.1588 63.168 82.6921 63.168ZM80.5501 59.052H84.1901C84.1901 58.3613 84.0408 57.8387 83.7421 57.484C83.4528 57.12 83.0421 56.938 82.5101 56.938C82.2675 56.938 82.0341 56.9847 81.8101 57.078C81.5955 57.1713 81.3995 57.3113 81.2221 57.498C81.0448 57.6753 80.8955 57.8947 80.7741 58.156C80.6621 58.4173 80.5875 58.716 80.5501 59.052ZM86.8794 63V56.196H87.9994V59.024C87.9994 59.388 87.9854 59.7893 87.9574 60.228C87.9388 60.6573 87.9154 61.0913 87.8874 61.53H87.9434C88.0741 61.3153 88.2234 61.0727 88.3914 60.802C88.5688 60.5313 88.7181 60.2887 88.8394 60.074L91.4154 56.196H92.4934V63H91.3734V60.172C91.3734 59.808 91.3828 59.4113 91.4014 58.982C91.4294 58.5433 91.4574 58.1 91.4854 57.652H91.4294C91.2988 57.8667 91.1448 58.114 90.9674 58.394C90.7994 58.6647 90.6548 58.9027 90.5334 59.108L87.9434 63H86.8794ZM89.7214 54.978C89.3294 54.978 88.9981 54.9173 88.7274 54.796C88.4568 54.6747 88.2328 54.516 88.0554 54.32C87.8781 54.1147 87.7474 53.886 87.6634 53.634C87.5794 53.3727 87.5328 53.1067 87.5234 52.836H88.4754C88.4848 53.032 88.5081 53.2233 88.5454 53.41C88.5921 53.5873 88.6621 53.7413 88.7554 53.872C88.8581 54.0027 88.9841 54.11 89.1334 54.194C89.2921 54.2687 89.4881 54.306 89.7214 54.306C89.9548 54.306 90.1461 54.2687 90.2954 54.194C90.4541 54.11 90.5801 54.0027 90.6734 53.872C90.7761 53.7413 90.8461 53.5873 90.8834 53.41C90.9301 53.2233 90.9581 53.032 90.9674 52.836H91.9194C91.9008 53.1067 91.8494 53.3727 91.7654 53.634C91.6908 53.886 91.5648 54.1147 91.3874 54.32C91.2101 54.516 90.9861 54.6747 90.7154 54.796C90.4448 54.9173 90.1134 54.978 89.7214 54.978ZM97.4835 63.168C97.0355 63.168 96.6155 63.0887 96.2235 62.93C95.8315 62.7713 95.4908 62.5427 95.2015 62.244C94.9215 61.936 94.6975 61.5627 94.5295 61.124C94.3708 60.676 94.2915 60.172 94.2915 59.612C94.2915 59.0427 94.3801 58.5387 94.5575 58.1C94.7348 57.652 94.9728 57.274 95.2715 56.966C95.5701 56.658 95.9155 56.4247 96.3075 56.266C96.7088 56.1073 97.1288 56.028 97.5675 56.028C98.0155 56.028 98.3981 56.1073 98.7155 56.266C99.0328 56.4247 99.3128 56.6113 99.5555 56.826L98.9675 57.582C98.7715 57.4047 98.5615 57.26 98.3375 57.148C98.1228 57.036 97.8801 56.98 97.6095 56.98C97.3015 56.98 97.0168 57.0453 96.7555 57.176C96.4941 57.2973 96.2701 57.4747 96.0835 57.708C95.8968 57.9413 95.7475 58.2213 95.6355 58.548C95.5328 58.8653 95.4815 59.22 95.4815 59.612C95.4815 60.004 95.5328 60.3587 95.6355 60.676C95.7381 60.9933 95.8781 61.2687 96.0555 61.502C96.2421 61.726 96.4661 61.9033 96.7275 62.034C96.9888 62.1553 97.2735 62.216 97.5815 62.216C97.8988 62.216 98.1881 62.1507 98.4495 62.02C98.7201 61.88 98.9628 61.7167 99.1775 61.53L99.6815 62.3C99.3735 62.5707 99.0328 62.7853 98.6595 62.944C98.2861 63.0933 97.8941 63.168 97.4835 63.168ZM102.542 63V57.134H100.26V56.196H105.972V57.134H103.69V63H102.542ZM107.483 63V56.196H110.101C110.474 56.196 110.815 56.2287 111.123 56.294C111.431 56.3593 111.692 56.462 111.907 56.602C112.131 56.7327 112.304 56.91 112.425 57.134C112.546 57.3487 112.607 57.61 112.607 57.918C112.607 58.3007 112.504 58.6133 112.299 58.856C112.103 59.0987 111.828 59.2713 111.473 59.374V59.416C111.669 59.4627 111.851 59.528 112.019 59.612C112.196 59.696 112.35 59.8033 112.481 59.934C112.612 60.0647 112.714 60.2233 112.789 60.41C112.864 60.5967 112.901 60.8113 112.901 61.054C112.901 61.39 112.831 61.6793 112.691 61.922C112.56 62.1647 112.374 62.37 112.131 62.538C111.898 62.6967 111.618 62.8133 111.291 62.888C110.964 62.9627 110.605 63 110.213 63H107.483ZM108.617 59.052H109.905C110.474 59.052 110.88 58.9633 111.123 58.786C111.366 58.5993 111.487 58.3473 111.487 58.03C111.487 57.7127 111.37 57.4653 111.137 57.288C110.904 57.1107 110.521 57.022 109.989 57.022H108.617V59.052ZM108.617 62.174H110.087C110.647 62.174 111.062 62.0713 111.333 61.866C111.613 61.6607 111.753 61.3667 111.753 60.984C111.753 60.6387 111.608 60.368 111.319 60.172C111.03 59.976 110.596 59.878 110.017 59.878H108.617V62.174ZM114.65 65.926C114.491 65.926 114.346 65.912 114.216 65.884C114.085 65.8653 113.964 65.8327 113.852 65.786L114.076 64.876C114.15 64.8947 114.234 64.9133 114.328 64.932C114.421 64.96 114.51 64.974 114.594 64.974C114.986 64.974 115.303 64.834 115.546 64.554C115.798 64.2833 115.994 63.938 116.134 63.518L116.288 63.014L113.558 56.196H114.748L116.134 59.962C116.236 60.2607 116.344 60.578 116.456 60.914C116.577 61.2407 116.689 61.5627 116.792 61.88H116.848C116.95 61.572 117.048 61.25 117.142 60.914C117.235 60.578 117.328 60.2607 117.422 59.962L118.64 56.196H119.76L117.198 63.56C117.076 63.896 116.941 64.2087 116.792 64.498C116.642 64.7873 116.465 65.0347 116.26 65.24C116.054 65.4547 115.821 65.6227 115.56 65.744C115.298 65.8653 114.995 65.926 114.65 65.926ZM123.776 63.168C123.319 63.168 122.889 63.0887 122.488 62.93C122.096 62.762 121.751 62.5287 121.452 62.23C121.163 61.922 120.934 61.5487 120.766 61.11C120.598 60.6713 120.514 60.172 120.514 59.612C120.514 59.052 120.598 58.5527 120.766 58.114C120.943 57.666 121.172 57.288 121.452 56.98C121.741 56.672 122.068 56.4387 122.432 56.28C122.796 56.112 123.174 56.028 123.566 56.028C123.995 56.028 124.378 56.1027 124.714 56.252C125.059 56.4013 125.344 56.616 125.568 56.896C125.801 57.176 125.979 57.512 126.1 57.904C126.221 58.296 126.282 58.7347 126.282 59.22C126.282 59.3413 126.277 59.4627 126.268 59.584C126.268 59.696 126.259 59.794 126.24 59.878H121.648C121.695 60.606 121.919 61.1847 122.32 61.614C122.731 62.034 123.263 62.244 123.916 62.244C124.243 62.244 124.541 62.1973 124.812 62.104C125.092 62.0013 125.358 61.8707 125.61 61.712L126.016 62.468C125.717 62.6547 125.386 62.818 125.022 62.958C124.658 63.098 124.243 63.168 123.776 63.168ZM121.634 59.052H125.274C125.274 58.3613 125.125 57.8387 124.826 57.484C124.537 57.12 124.126 56.938 123.594 56.938C123.351 56.938 123.118 56.9847 122.894 57.078C122.679 57.1713 122.483 57.3113 122.306 57.498C122.129 57.6753 121.979 57.8947 121.858 58.156C121.746 58.4173 121.671 58.716 121.634 59.052ZM129.325 63V57.134H127.043V56.196H132.755V57.134H130.473V63H129.325ZM137.307 63V65.408H136.313L136.187 62.79V62.062H136.523C136.616 62.006 136.705 61.9313 136.789 61.838C136.882 61.7353 136.966 61.5813 137.041 61.376C137.116 61.1707 137.19 60.8953 137.265 60.55C137.34 60.2047 137.41 59.7567 137.475 59.206L137.839 56.196H142.067V62.062H143.061V62.79L142.949 65.408H141.955V63H137.307ZM138.483 59.43C138.408 60.102 138.306 60.648 138.175 61.068C138.054 61.488 137.914 61.8193 137.755 62.062H140.919V57.134H138.749L138.483 59.43ZM147.166 63.168C146.746 63.168 146.345 63.0887 145.962 62.93C145.589 62.7713 145.257 62.5427 144.968 62.244C144.679 61.936 144.445 61.5627 144.268 61.124C144.1 60.676 144.016 60.172 144.016 59.612C144.016 59.0427 144.1 58.5387 144.268 58.1C144.445 57.652 144.679 57.274 144.968 56.966C145.257 56.658 145.589 56.4247 145.962 56.266C146.345 56.1073 146.746 56.028 147.166 56.028C147.586 56.028 147.983 56.1073 148.356 56.266C148.739 56.4247 149.075 56.658 149.364 56.966C149.653 57.274 149.882 57.652 150.05 58.1C150.227 58.5387 150.316 59.0427 150.316 59.612C150.316 60.172 150.227 60.676 150.05 61.124C149.882 61.5627 149.653 61.936 149.364 62.244C149.075 62.5427 148.739 62.7713 148.356 62.93C147.983 63.0887 147.586 63.168 147.166 63.168ZM147.166 62.216C147.455 62.216 147.721 62.1553 147.964 62.034C148.207 61.9033 148.412 61.726 148.58 61.502C148.757 61.2687 148.893 60.9933 148.986 60.676C149.079 60.3587 149.126 60.004 149.126 59.612C149.126 59.22 149.079 58.8653 148.986 58.548C148.893 58.2213 148.757 57.9413 148.58 57.708C148.412 57.4747 148.207 57.2973 147.964 57.176C147.721 57.0453 147.455 56.98 147.166 56.98C146.877 56.98 146.611 57.0453 146.368 57.176C146.125 57.2973 145.915 57.4747 145.738 57.708C145.57 57.9413 145.439 58.2213 145.346 58.548C145.253 58.8653 145.206 59.22 145.206 59.612C145.206 60.004 145.253 60.3587 145.346 60.676C145.439 60.9933 145.57 61.2687 145.738 61.502C145.915 61.726 146.125 61.9033 146.368 62.034C146.611 62.1553 146.877 62.216 147.166 62.216ZM157.067 63.168C156.712 63.168 156.385 63.1307 156.087 63.056C155.797 62.9907 155.531 62.902 155.289 62.79C155.046 62.6687 154.827 62.5333 154.631 62.384C154.444 62.2347 154.276 62.076 154.127 61.908L154.715 61.152C154.985 61.432 155.298 61.6793 155.653 61.894C156.017 62.1087 156.465 62.216 156.997 62.216C157.538 62.216 157.981 62.0713 158.327 61.782C158.672 61.4833 158.845 61.082 158.845 60.578C158.845 60.3167 158.793 60.0787 158.691 59.864C158.597 59.64 158.439 59.4487 158.215 59.29C157.991 59.1313 157.697 59.01 157.333 58.926C156.969 58.842 156.521 58.8 155.989 58.8V57.918C156.465 57.918 156.861 57.876 157.179 57.792C157.505 57.708 157.767 57.5913 157.963 57.442C158.168 57.2927 158.313 57.1153 158.397 56.91C158.481 56.7047 158.523 56.4853 158.523 56.252C158.523 55.8133 158.383 55.468 158.103 55.216C157.832 54.964 157.459 54.838 156.983 54.838C156.609 54.838 156.264 54.922 155.947 55.09C155.639 55.258 155.349 55.4773 155.079 55.748L154.463 55.02C154.808 54.6933 155.186 54.4273 155.597 54.222C156.017 54.0073 156.493 53.9 157.025 53.9C157.417 53.9 157.776 53.9513 158.103 54.054C158.429 54.1567 158.709 54.306 158.943 54.502C159.185 54.6887 159.372 54.922 159.503 55.202C159.633 55.482 159.699 55.804 159.699 56.168C159.699 56.7093 159.549 57.1527 159.251 57.498C158.952 57.8433 158.56 58.1093 158.075 58.296V58.352C158.345 58.4173 158.597 58.5153 158.831 58.646C159.064 58.7673 159.269 58.926 159.447 59.122C159.624 59.3087 159.759 59.528 159.853 59.78C159.955 60.032 160.007 60.312 160.007 60.62C160.007 61.012 159.927 61.3667 159.769 61.684C159.619 62.0013 159.409 62.272 159.139 62.496C158.877 62.7107 158.569 62.8787 158.215 63C157.86 63.112 157.477 63.168 157.067 63.168ZM164.208 63.168C163.302 63.168 162.598 62.7667 162.094 61.964C161.59 61.1613 161.338 60.0087 161.338 58.506C161.338 57.0033 161.59 55.86 162.094 55.076C162.598 54.292 163.302 53.9 164.208 53.9C165.104 53.9 165.804 54.292 166.308 55.076C166.812 55.86 167.064 57.0033 167.064 58.506C167.064 60.0087 166.812 61.1613 166.308 61.964C165.804 62.7667 165.104 63.168 164.208 63.168ZM164.208 62.244C164.469 62.244 164.702 62.174 164.908 62.034C165.122 61.8847 165.304 61.6607 165.454 61.362C165.612 61.054 165.734 60.6667 165.818 60.2C165.902 59.724 165.944 59.1593 165.944 58.506C165.944 57.8527 165.902 57.2927 165.818 56.826C165.734 56.3593 165.612 55.9813 165.454 55.692C165.304 55.3933 165.122 55.174 164.908 55.034C164.702 54.894 164.469 54.824 164.208 54.824C163.946 54.824 163.708 54.894 163.494 55.034C163.279 55.174 163.092 55.3933 162.934 55.692C162.784 55.9813 162.668 56.3593 162.584 56.826C162.5 57.2927 162.458 57.8527 162.458 58.506C162.458 59.8127 162.616 60.7647 162.934 61.362C163.26 61.95 163.685 62.244 164.208 62.244ZM169.431 63.168C169.197 63.168 168.997 63.0887 168.829 62.93C168.67 62.762 168.591 62.552 168.591 62.3C168.591 62.0293 168.67 61.8147 168.829 61.656C168.997 61.488 169.197 61.404 169.431 61.404C169.655 61.404 169.846 61.488 170.005 61.656C170.173 61.8147 170.257 62.0293 170.257 62.3C170.257 62.552 170.173 62.762 170.005 62.93C169.846 63.0887 169.655 63.168 169.431 63.168ZM174.653 63.168C173.748 63.168 173.043 62.7667 172.539 61.964C172.035 61.1613 171.783 60.0087 171.783 58.506C171.783 57.0033 172.035 55.86 172.539 55.076C173.043 54.292 173.748 53.9 174.653 53.9C175.549 53.9 176.249 54.292 176.753 55.076C177.257 55.86 177.509 57.0033 177.509 58.506C177.509 60.0087 177.257 61.1613 176.753 61.964C176.249 62.7667 175.549 63.168 174.653 63.168ZM174.653 62.244C174.914 62.244 175.148 62.174 175.353 62.034C175.568 61.8847 175.75 61.6607 175.899 61.362C176.058 61.054 176.179 60.6667 176.263 60.2C176.347 59.724 176.389 59.1593 176.389 58.506C176.389 57.8527 176.347 57.2927 176.263 56.826C176.179 56.3593 176.058 55.9813 175.899 55.692C175.75 55.3933 175.568 55.174 175.353 55.034C175.148 54.894 174.914 54.824 174.653 54.824C174.392 54.824 174.154 54.894 173.939 55.034C173.724 55.174 173.538 55.3933 173.379 55.692C173.23 55.9813 173.113 56.3593 173.029 56.826C172.945 57.2927 172.903 57.8527 172.903 58.506C172.903 59.8127 173.062 60.7647 173.379 61.362C173.706 61.95 174.13 62.244 174.653 62.244ZM182.382 63V60.536H178.364V59.78L182.186 54.068H183.474V59.612H184.692V60.536H183.474V63H182.382ZM179.582 59.612H182.382V57.022C182.382 56.7793 182.387 56.4947 182.396 56.168C182.415 55.832 182.433 55.5427 182.452 55.3H182.396C182.284 55.5147 182.167 55.7247 182.046 55.93C181.925 56.1353 181.799 56.3453 181.668 56.56L179.582 59.612ZM186.835 63.168C186.602 63.168 186.401 63.0887 186.233 62.93C186.074 62.762 185.995 62.552 185.995 62.3C185.995 62.0293 186.074 61.8147 186.233 61.656C186.401 61.488 186.602 61.404 186.835 61.404C187.059 61.404 187.25 61.488 187.409 61.656C187.577 61.8147 187.661 62.0293 187.661 62.3C187.661 62.552 187.577 62.762 187.409 62.93C187.25 63.0887 187.059 63.168 186.835 63.168ZM189.131 63V62.314C189.803 61.642 190.401 61.0353 190.923 60.494C191.446 59.9527 191.885 59.4533 192.239 58.996C192.594 58.5293 192.865 58.1047 193.051 57.722C193.238 57.33 193.331 56.952 193.331 56.588C193.331 56.0747 193.191 55.6547 192.911 55.328C192.631 55.0013 192.207 54.838 191.637 54.838C191.264 54.838 190.919 54.9453 190.601 55.16C190.284 55.3653 189.995 55.6173 189.733 55.916L189.075 55.258C189.449 54.8473 189.845 54.5207 190.265 54.278C190.685 54.026 191.189 53.9 191.777 53.9C192.608 53.9 193.261 54.1427 193.737 54.628C194.213 55.104 194.451 55.7387 194.451 56.532C194.451 56.952 194.358 57.3767 194.171 57.806C193.994 58.226 193.742 58.6647 193.415 59.122C193.098 59.57 192.715 60.0413 192.267 60.536C191.829 61.0213 191.343 61.5393 190.811 62.09C191.054 62.0713 191.306 62.0527 191.567 62.034C191.829 62.0153 192.076 62.006 192.309 62.006H194.899V63H189.131ZM199.016 63.168C198.111 63.168 197.406 62.7667 196.902 61.964C196.398 61.1613 196.146 60.0087 196.146 58.506C196.146 57.0033 196.398 55.86 196.902 55.076C197.406 54.292 198.111 53.9 199.016 53.9C199.912 53.9 200.612 54.292 201.116 55.076C201.62 55.86 201.872 57.0033 201.872 58.506C201.872 60.0087 201.62 61.1613 201.116 61.964C200.612 62.7667 199.912 63.168 199.016 63.168ZM199.016 62.244C199.278 62.244 199.511 62.174 199.716 62.034C199.931 61.8847 200.113 61.6607 200.262 61.362C200.421 61.054 200.542 60.6667 200.626 60.2C200.71 59.724 200.752 59.1593 200.752 58.506C200.752 57.8527 200.71 57.2927 200.626 56.826C200.542 56.3593 200.421 55.9813 200.262 55.692C200.113 55.3933 199.931 55.174 199.716 55.034C199.511 54.894 199.278 54.824 199.016 54.824C198.755 54.824 198.517 54.894 198.302 55.034C198.088 55.174 197.901 55.3933 197.742 55.692C197.593 55.9813 197.476 56.3593 197.392 56.826C197.308 57.2927 197.266 57.8527 197.266 58.506C197.266 59.8127 197.425 60.7647 197.742 61.362C198.069 61.95 198.494 62.244 199.016 62.244ZM203.049 63V62.314C203.721 61.642 204.319 61.0353 204.841 60.494C205.364 59.9527 205.803 59.4533 206.157 58.996C206.512 58.5293 206.783 58.1047 206.969 57.722C207.156 57.33 207.249 56.952 207.249 56.588C207.249 56.0747 207.109 55.6547 206.829 55.328C206.549 55.0013 206.125 54.838 205.555 54.838C205.182 54.838 204.837 54.9453 204.519 55.16C204.202 55.3653 203.913 55.6173 203.651 55.916L202.993 55.258C203.367 54.8473 203.763 54.5207 204.183 54.278C204.603 54.026 205.107 53.9 205.695 53.9C206.526 53.9 207.179 54.1427 207.655 54.628C208.131 55.104 208.369 55.7387 208.369 56.532C208.369 56.952 208.276 57.3767 208.089 57.806C207.912 58.226 207.66 58.6647 207.333 59.122C207.016 59.57 206.633 60.0413 206.185 60.536C205.747 61.0213 205.261 61.5393 204.729 62.09C204.972 62.0713 205.224 62.0527 205.485 62.034C205.747 62.0153 205.994 62.006 206.227 62.006H208.817V63H203.049ZM210.008 63V62.314C210.68 61.642 211.278 61.0353 211.8 60.494C212.323 59.9527 212.762 59.4533 213.116 58.996C213.471 58.5293 213.742 58.1047 213.928 57.722C214.115 57.33 214.208 56.952 214.208 56.588C214.208 56.0747 214.068 55.6547 213.788 55.328C213.508 55.0013 213.084 54.838 212.514 54.838C212.141 54.838 211.796 54.9453 211.478 55.16C211.161 55.3653 210.872 55.6173 210.61 55.916L209.952 55.258C210.326 54.8473 210.722 54.5207 211.142 54.278C211.562 54.026 212.066 53.9 212.654 53.9C213.485 53.9 214.138 54.1427 214.614 54.628C215.09 55.104 215.328 55.7387 215.328 56.532C215.328 56.952 215.235 57.3767 215.048 57.806C214.871 58.226 214.619 58.6647 214.292 59.122C213.975 59.57 213.592 60.0413 213.144 60.536C212.706 61.0213 212.22 61.5393 211.688 62.09C211.931 62.0713 212.183 62.0527 212.444 62.034C212.706 62.0153 212.953 62.006 213.186 62.006H215.776V63H210.008Z" fill="white"/>
<path d="M176.394 21V11.62C176.385 11.6293 176.277 11.6573 176.072 11.704C175.876 11.7507 175.652 11.7973 175.4 11.844C175.148 11.8907 174.924 11.9327 174.728 11.97C174.532 12.0073 174.429 12.026 174.42 12.026V10.892C174.579 10.8547 174.761 10.8033 174.966 10.738C175.181 10.6727 175.395 10.5933 175.61 10.5C175.834 10.4067 176.044 10.29 176.24 10.15C176.445 10.01 176.618 9.84667 176.758 9.66H177.892V21H176.394ZM180.125 21V19.936L183.009 15.442C183.223 15.106 183.419 14.7933 183.597 14.504C183.783 14.2147 183.933 13.9113 184.045 13.594C184.166 13.2673 184.227 12.894 184.227 12.474C184.227 11.9513 184.143 11.5407 183.975 11.242C183.807 10.9433 183.513 10.794 183.093 10.794C182.738 10.794 182.463 10.892 182.267 11.088C182.071 11.284 181.935 11.5407 181.861 11.858C181.786 12.1753 181.749 12.516 181.749 12.88V13.258H180.251V12.866C180.251 12.1847 180.339 11.6013 180.517 11.116C180.703 10.6213 180.997 10.2387 181.399 9.968C181.809 9.69733 182.351 9.562 183.023 9.562C183.937 9.562 184.619 9.82333 185.067 10.346C185.515 10.8593 185.739 11.5733 185.739 12.488C185.739 12.9733 185.678 13.398 185.557 13.762C185.445 14.126 185.295 14.4667 185.109 14.784C184.922 15.1013 184.717 15.428 184.493 15.764L181.889 19.74H185.473V21H180.125ZM189.666 21.126C189.078 21.126 188.574 21.0187 188.154 20.804C187.744 20.58 187.431 20.258 187.216 19.838C187.002 19.418 186.89 18.9093 186.88 18.312C186.88 18.2933 186.88 18.2747 186.88 18.256C186.88 18.228 186.88 18.2047 186.88 18.186H188.378C188.378 18.7273 188.467 19.1473 188.644 19.446C188.822 19.7353 189.167 19.88 189.68 19.88C189.96 19.88 190.194 19.796 190.38 19.628C190.567 19.4507 190.707 19.1847 190.8 18.83C190.894 18.466 190.94 18.0087 190.94 17.458V15.736C190.8 15.9693 190.59 16.1607 190.31 16.31C190.04 16.45 189.699 16.52 189.288 16.52C188.663 16.52 188.173 16.3847 187.818 16.114C187.464 15.834 187.212 15.4513 187.062 14.966C186.922 14.4713 186.852 13.8973 186.852 13.244C186.852 12.5533 186.946 11.9327 187.132 11.382C187.319 10.822 187.618 10.3787 188.028 10.052C188.448 9.72533 188.994 9.562 189.666 9.562C190.32 9.562 190.852 9.73 191.262 10.066C191.673 10.3927 191.972 10.836 192.158 11.396C192.354 11.956 192.452 12.5813 192.452 13.272V17.08C192.452 17.808 192.368 18.48 192.2 19.096C192.032 19.712 191.748 20.2067 191.346 20.58C190.945 20.944 190.385 21.126 189.666 21.126ZM189.666 15.386C189.993 15.386 190.259 15.3067 190.464 15.148C190.67 14.98 190.828 14.798 190.94 14.602V12.922C190.94 12.53 190.903 12.1753 190.828 11.858C190.754 11.5313 190.623 11.2747 190.436 11.088C190.25 10.892 189.993 10.794 189.666 10.794C189.34 10.794 189.078 10.892 188.882 11.088C188.696 11.284 188.56 11.5407 188.476 11.858C188.402 12.166 188.364 12.5067 188.364 12.88C188.364 13.328 188.383 13.7433 188.42 14.126C188.467 14.5087 188.579 14.8167 188.756 15.05C188.943 15.274 189.246 15.386 189.666 15.386ZM199.893 21.126C199.305 21.126 198.801 21.0187 198.381 20.804C197.97 20.58 197.658 20.258 197.443 19.838C197.228 19.418 197.116 18.9093 197.107 18.312C197.107 18.2933 197.107 18.2747 197.107 18.256C197.107 18.228 197.107 18.2047 197.107 18.186H198.605C198.605 18.7273 198.694 19.1473 198.871 19.446C199.048 19.7353 199.394 19.88 199.907 19.88C200.187 19.88 200.42 19.796 200.607 19.628C200.794 19.4507 200.934 19.1847 201.027 18.83C201.12 18.466 201.167 18.0087 201.167 17.458V15.736C201.027 15.9693 200.817 16.1607 200.537 16.31C200.266 16.45 199.926 16.52 199.515 16.52C198.89 16.52 198.4 16.3847 198.045 16.114C197.69 15.834 197.438 15.4513 197.289 14.966C197.149 14.4713 197.079 13.8973 197.079 13.244C197.079 12.5533 197.172 11.9327 197.359 11.382C197.546 10.822 197.844 10.3787 198.255 10.052C198.675 9.72533 199.221 9.562 199.893 9.562C200.546 9.562 201.078 9.73 201.489 10.066C201.9 10.3927 202.198 10.836 202.385 11.396C202.581 11.956 202.679 12.5813 202.679 13.272V17.08C202.679 17.808 202.595 18.48 202.427 19.096C202.259 19.712 201.974 20.2067 201.573 20.58C201.172 20.944 200.612 21.126 199.893 21.126ZM199.893 15.386C200.22 15.386 200.486 15.3067 200.691 15.148C200.896 14.98 201.055 14.798 201.167 14.602V12.922C201.167 12.53 201.13 12.1753 201.055 11.858C200.98 11.5313 200.85 11.2747 200.663 11.088C200.476 10.892 200.22 10.794 199.893 10.794C199.566 10.794 199.305 10.892 199.109 11.088C198.922 11.284 198.787 11.5407 198.703 11.858C198.628 12.166 198.591 12.5067 198.591 12.88C198.591 13.328 198.61 13.7433 198.647 14.126C198.694 14.5087 198.806 14.8167 198.983 15.05C199.17 15.274 199.473 15.386 199.893 15.386ZM207.116 21.126C206.472 21.126 205.94 20.9813 205.52 20.692C205.11 20.4027 204.802 20.006 204.596 19.502C204.4 18.998 204.302 18.424 204.302 17.78V12.894C204.302 12.2313 204.4 11.6527 204.596 11.158C204.792 10.654 205.096 10.262 205.506 9.982C205.926 9.702 206.463 9.562 207.116 9.562C207.77 9.562 208.302 9.702 208.712 9.982C209.123 10.262 209.426 10.654 209.622 11.158C209.818 11.6527 209.916 12.2313 209.916 12.894V17.78C209.916 18.4333 209.814 19.012 209.608 19.516C209.412 20.02 209.109 20.4167 208.698 20.706C208.288 20.986 207.76 21.126 207.116 21.126ZM207.116 19.894C207.471 19.894 207.737 19.7913 207.914 19.586C208.101 19.3807 208.227 19.1193 208.292 18.802C208.367 18.4753 208.404 18.1393 208.404 17.794V12.88C208.404 12.516 208.372 12.1753 208.306 11.858C208.241 11.5313 208.115 11.27 207.928 11.074C207.751 10.878 207.48 10.78 207.116 10.78C206.752 10.78 206.477 10.878 206.29 11.074C206.104 11.27 205.978 11.5313 205.912 11.858C205.847 12.1753 205.814 12.516 205.814 12.88V17.794C205.814 18.1393 205.847 18.4753 205.912 18.802C205.987 19.1193 206.118 19.3807 206.304 19.586C206.5 19.7913 206.771 19.894 207.116 19.894ZM214.349 21.126C213.705 21.126 213.173 20.9813 212.753 20.692C212.342 20.4027 212.034 20.006 211.829 19.502C211.633 18.998 211.535 18.424 211.535 17.78V12.894C211.535 12.2313 211.633 11.6527 211.829 11.158C212.025 10.654 212.328 10.262 212.739 9.982C213.159 9.702 213.695 9.562 214.349 9.562C215.002 9.562 215.534 9.702 215.945 9.982C216.355 10.262 216.659 10.654 216.855 11.158C217.051 11.6527 217.149 12.2313 217.149 12.894V17.78C217.149 18.4333 217.046 19.012 216.841 19.516C216.645 20.02 216.341 20.4167 215.931 20.706C215.52 20.986 214.993 21.126 214.349 21.126ZM214.349 19.894C214.703 19.894 214.969 19.7913 215.147 19.586C215.333 19.3807 215.459 19.1193 215.525 18.802C215.599 18.4753 215.637 18.1393 215.637 17.794V12.88C215.637 12.516 215.604 12.1753 215.539 11.858C215.473 11.5313 215.347 11.27 215.161 11.074C214.983 10.878 214.713 10.78 214.349 10.78C213.985 10.78 213.709 10.878 213.523 11.074C213.336 11.27 213.21 11.5313 213.145 11.858C213.079 12.1753 213.047 12.516 213.047 12.88V17.794C213.047 18.1393 213.079 18.4753 213.145 18.802C213.219 19.1193 213.35 19.3807 213.537 19.586C213.733 19.7913 214.003 19.894 214.349 19.894Z" fill="white"/>
<line y1="-0.5" x2="49.8655" y2="-0.5" transform="matrix(0.958465 -0.285212 0.314025 0.949415 174 21.7778)" stroke="white"/>
<defs>
<filter id="filter0_d_263_5" x="0.0205078" y="0.0187988" width="229.979" height="86.1188" filterUnits="userSpaceOnUse" color-interpolation-filters="sRGB">
<feFlood flood-opacity="0" result="BackgroundImageFix"/>
<feColorMatrix in="SourceAlpha" type="matrix" values="0 0 0 0 0 0 0 0 0 0 0 0 0 0 0 0 0 0 127 0" result="hardAlpha"/>
<feOffset dy="4"/>
<feGaussianBlur stdDeviation="1.5"/>
<feComposite in2="hardAlpha" operator="out"/>
<feColorMatrix type="matrix" values="0 0 0 0 0.0588235 0 0 0 0 0.0901961 0 0 0 0 0.133333 0 0 0 0.28 0"/>
<feBlend mode="normal" in2="BackgroundImageFix" result="effect1_dropShadow_263_5"/>
<feBlend mode="normal" in="SourceGraphic" in2="effect1_dropShadow_263_5" result="shape"/>
</filter>
<filter id="filter1_i_263_5" x="15.9512" y="33.4984" width="11.2632" height="15.7894" filterUnits="userSpaceOnUse" color-interpolation-filters="sRGB">
<feFlood flood-opacity="0" result="BackgroundImageFix"/>
<feBlend mode="normal" in="SourceGraphic" in2="BackgroundImageFix" result="shape"/>
<feColorMatrix in="SourceAlpha" type="matrix" values="0 0 0 0 0 0 0 0 0 0 0 0 0 0 0 0 0 0 127 0" result="hardAlpha"/>
<feOffset dy="4"/>
<feGaussianBlur stdDeviation="2"/>
<feComposite in2="hardAlpha" operator="arithmetic" k2="-1" k3="1"/>
<feColorMatrix type="matrix" values="0 0 0 0 0.0588235 0 0 0 0 0.0901961 0 0 0 0 0.133333 0 0 0 0.29 0"/>
<feBlend mode="normal" in2="shape" result="effect1_innerShadow_263_5"/>
</filter>
</defs>
</svg>
