<svg width="363" height="93" viewBox="0 0 363 93" fill="none" xmlns="http://www.w3.org/2000/svg">
<g filter="url(#filter0_d_263_4)">
<path d="M64.0909 0H360V85.4734H64.0909L3 44.9472L64.0909 0Z" fill="#C21919"/>
<path d="M74.83 6.19885L76.5115 5.01363L76.7996 5.42231L77.5108 4.92102H78.3555V4.42102H80.3622V4.92102H82.3689V4.42102H84.3756V4.92102H86.3822V4.42102H88.3889V4.92102H90.3956V4.42102H92.4023V4.92102H94.409V4.42102H96.4156V4.92102H98.4223V4.42102L100.429 4.42102V4.92102L102.436 4.92102V4.42102H104.442V4.92102H106.449V4.42102H108.456V4.92102H110.462V4.42102H112.469V4.92102H114.476V4.42102H116.482V4.92102H118.489V4.42102H120.496V4.92102H122.502V4.42102H124.509V4.92102H126.516V4.42102H128.522V4.92102L130.529 4.92102V4.42102L132.536 4.42102V4.92102H134.542V4.42102H136.549V4.92102H138.556V4.42102H140.562V4.92102H142.569V4.42102H144.576V4.92102H146.582V4.42102H148.589V4.92102H150.596V4.42102H152.602V4.92102H154.609V4.42102H156.616V4.92102H158.622V4.42102H160.629V4.92102H162.636V4.42102L164.642 4.42102V4.92102L166.649 4.92102V4.42102H168.656V4.92102H170.662V4.42102H172.669V4.92102H174.676V4.42102H176.682V4.92102H178.689V4.42102H180.696V4.92102H182.702V4.42102H184.709V4.92102H186.716V4.42102H188.722V4.92102H190.729V4.42102H192.736V4.92102L194.742 4.92102V4.42102L196.749 4.42102V4.92102H198.756V4.42102H200.762V4.92102H202.769V4.42102H204.776V4.92102H206.782V4.42102H208.789V4.92102H210.796V4.42102H212.802V4.92102H214.809V4.42102H216.816V4.92102H218.822V4.42102H220.829V4.92102H222.836V4.42102H224.842V4.92102H226.849V4.42102L228.856 4.42102V4.92102L230.862 4.92102V4.42102H232.869V4.92102H234.876V4.42102H236.882V4.92102H238.889V4.42102H240.896V4.92102H242.902V4.42102H244.909V4.92102H246.916V4.42102H248.922V4.92102H250.929V4.42102H252.936V4.92102H254.942V4.42102H256.949V4.92102L258.956 4.92102V4.42102L260.962 4.42102V4.92102H262.969V4.42102H264.976V4.92102H266.982V4.42102H268.989V4.92102H270.996V4.42102H273.002V4.92102H275.009V4.42102H277.016V4.92102H279.022V4.42102H281.029V4.92102H283.036V4.42102H285.042V4.92102H287.049V4.42102H289.056V4.92102H291.062V4.42102L293.069 4.42102V4.92102L295.076 4.92102V4.42102H297.082V4.92102H299.089V4.42102H301.096V4.92102H303.102V4.42102H305.109V4.92102H307.116V4.42102H309.122V4.92102H311.129V4.42102H313.136V4.92102H315.142V4.42102H317.149V4.92102H319.156V4.42102H321.163V4.92102L323.169 4.92102V4.42102L325.176 4.42102V4.92102H327.182V4.42102H329.189V4.92102H331.196V4.42102H333.203V4.92102H335.209V4.42102H337.216V4.92102H339.223V4.42102H341.229V4.92102H343.236V4.42102H345.243V4.92102H347.249V4.42102H349.256V4.92102H351.263V4.42102H353.269V4.92102H353.773V5.42928H354.273V7.4459H353.773V9.46252H354.273V11.4791H353.773V13.4958H354.273V15.5124H353.773V17.529H354.273V19.5456H353.773V21.5622H354.273V23.5788H353.773V25.5954H354.273V27.6121H353.773V29.6287H354.273V31.6453H353.773V33.6619H354.273V35.6785H353.773V37.6952H354.273V39.7118H353.773V41.7284H354.273V43.745H353.773V45.7616H354.273V47.7782H353.773V49.7949H354.273V51.8115H353.773V53.8281H354.273V55.8447H353.773V57.8613H354.273V59.8779H353.773V61.8945H354.273V63.9112H353.773V65.9278H354.273V67.9444H353.773V69.961H354.273V71.9776H353.773V73.9942H354.273V76.0108H353.773V78.0275H354.273V80.0441H353.773V80.5524H353.269V81.0524H351.263V80.5524H349.256V81.0524H347.249V80.5524H345.243V81.0524H343.236V80.5524H341.229V81.0524H339.223V80.5524H337.216V81.0524H335.209V80.5524H333.202V81.0524H331.196V80.5524H329.189V81.0524H327.182V80.5524H325.176V81.0524H323.169V80.5524H321.162V81.0524H319.156V80.5524H317.149V81.0524H315.142V80.5524H313.136V81.0524H311.129V80.5524H309.122V81.0524H307.116V80.5524H305.109V81.0524H303.102V80.5524H301.096V81.0524H299.089V80.5524H297.082V81.0524H295.076V80.5524H293.069V81.0524H291.062V80.5524H289.056V81.0524H287.049V80.5524H285.042V81.0524H283.036V80.5524H281.029V81.0524H279.022V80.5524H277.016V81.0524L275.009 81.0524V80.5524H273.002V81.0524H270.996V80.5524H268.989V81.0524H266.982V80.5524H264.976V81.0524H262.969V80.5524H260.962V81.0524H258.956V80.5524H256.949V81.0524H254.942V80.5524H252.936V81.0524H250.929V80.5524H248.922V81.0524H246.916V80.5524H244.909V81.0524H242.902V80.5524H240.896V81.0524H238.889V80.5524H236.882V81.0524H234.876V80.5524H232.869V81.0524H230.862V80.5524H228.856V81.0524H226.849V80.5524H224.842V81.0524H222.836V80.5524H220.829V81.0524H218.822V80.5524H216.816V81.0524H214.809V80.5524H212.802V81.0524H210.796V80.5524H208.789V81.0524H206.782V80.5524H204.776V81.0524H202.769V80.5524H200.762V81.0524H198.756V80.5524H196.749V81.0524H194.742V80.5524H192.736V81.0524H190.729V80.5524H188.722V81.0524H186.716V80.5524H184.709V81.0524H182.702V80.5524H180.696V81.0524H178.689V80.5524H176.682V81.0524H174.676V80.5524H172.669V81.0524H170.662V80.5524H168.656V81.0524H166.649V80.5524H164.642V81.0524H162.636V80.5524H160.629V81.0524H158.622V80.5524H156.616V81.0524H154.609V80.5524H152.602V81.0524H150.596V80.5524H148.589V81.0524H146.582V80.5524H144.576V81.0524H142.569V80.5524H140.562V81.0524H138.556V80.5524H136.549V81.0524H134.542V80.5524H132.536V81.0524H130.529V80.5524H128.522V81.0524H126.516V80.5524H124.509V81.0524H122.502V80.5524H120.496V81.0524H118.489V80.5524H116.482V81.0524H114.476V80.5524H112.469V81.0524H110.462V80.5524H108.456V81.0524H106.449V80.5524H104.442V81.0524H102.436V80.5524H100.429V81.0524H98.4223V80.5524H96.4156V81.0524H94.409V80.5524H92.4023V81.0524H90.3956V80.5524H88.3889V81.0524H86.3823V80.5524H84.3756V81.0524H82.3689V80.5524H80.3623V81.0524H78.3556V80.5524H77.4977L76.7797 80.0961L76.5115 80.5181L74.83 79.4494L75.0982 79.0274L73.4167 77.9588L73.1486 78.3808L71.4671 77.3121L71.7353 76.8902L70.0538 75.8215L69.7856 76.2435L68.1041 75.1749L68.3723 74.7529L66.6908 73.6842L66.4226 74.1062L64.7411 73.0376L65.0093 72.6156L63.3278 71.5469L63.0596 71.9689L61.3781 70.9003L61.6463 70.4783L59.9648 69.4097L59.6966 69.8316L58.0152 68.763L58.2833 68.341L56.6019 67.2724L56.3337 67.6944L54.6522 66.6257L54.9204 66.2037L53.2389 65.1351L52.9707 65.5571L51.2892 64.4884L51.5574 64.0664L49.8759 62.9978L49.6077 63.4198L47.9262 62.3511L48.1944 61.9292L46.5129 60.8605L46.2447 61.2825L44.5632 60.2139L44.8314 59.7919L43.1499 58.7232L42.8817 59.1452L41.2003 58.0766L41.4684 57.6546L39.787 56.5859L39.5188 57.0079L37.8373 55.9393L38.1055 55.5173L36.424 54.4487L36.1558 54.8707L34.4743 53.802L34.7425 53.38L33.061 52.3114L32.7928 52.7334L31.1113 51.6647L31.3795 51.2427L29.698 50.1741L29.4298 50.5961L27.7483 49.5274L28.0165 49.1054L26.335 48.0368L26.0669 48.4588L24.3854 47.3902L24.6536 46.9682L22.9721 45.8995L22.7039 46.3215L21.0224 45.2529L21.2906 44.8309L21.08 44.6971L21.3104 44.5346L21.0224 44.1259L22.7039 42.9407L22.9919 43.3494L24.6734 42.1642L24.3854 41.7555L26.0669 40.5703L26.3549 40.979L28.0364 39.7937L27.7483 39.3851L29.4298 38.1998L29.7179 38.6085L31.3994 37.4233L31.1113 37.0146L32.7928 35.8294L33.0809 36.2381L34.7624 35.0528L34.4743 34.6442L36.1558 33.4589L36.4438 33.8676L38.1253 32.6824L37.8373 32.2737L39.5188 31.0885L39.8068 31.4972L41.4883 30.312L41.2003 29.9033L42.8817 28.7181L43.1698 29.1267L44.8513 27.9415L44.5632 27.5328L46.2447 26.3476L46.5328 26.7563L48.2143 25.5711L47.9262 25.1624L49.6077 23.9772L49.8958 24.3859L51.5773 23.2006L51.2892 22.792L52.9707 21.6067L53.2587 22.0154L54.9402 20.8302L54.6522 20.4215L56.3337 19.2363L56.6217 19.645L58.3032 18.4597L58.0151 18.0511L59.6966 16.8658L59.9847 17.2745L61.6662 16.0893L61.3781 15.6806L63.0596 14.4954L63.3477 14.9041L65.0292 13.7189L64.7411 13.3102L66.4226 12.125L66.7107 12.5336L68.3921 11.3484L68.1041 10.9397L69.7856 9.75452L70.0736 10.1632L71.7551 8.97798L71.4671 8.5693L73.1485 7.38407L73.4366 7.79275L75.1181 6.60753L74.83 6.19885Z" stroke="white" stroke-dasharray="2 2"/>
<g filter="url(#filter1_i_263_4)">
<ellipse cx="27.818" cy="42.7368" rx="7.63636" ry="5.89472" fill="#ABA7A7"/>
</g>
</g>
<path d="M167.88 40.216C166.872 40.216 166.008 40.032 165.288 39.664C164.584 39.28 164.048 38.728 163.68 38.008C163.312 37.288 163.12 36.416 163.104 35.392C163.104 35.36 163.104 35.328 163.104 35.296C163.104 35.248 163.104 35.208 163.104 35.176H165.672C165.672 36.104 165.824 36.824 166.128 37.336C166.432 37.832 167.024 38.08 167.904 38.08C168.384 38.08 168.784 37.936 169.104 37.648C169.424 37.344 169.664 36.888 169.824 36.28C169.984 35.656 170.064 34.872 170.064 33.928V30.976C169.824 31.376 169.464 31.704 168.984 31.96C168.52 32.2 167.936 32.32 167.232 32.32C166.16 32.32 165.32 32.088 164.712 31.624C164.104 31.144 163.672 30.488 163.416 29.656C163.176 28.808 163.056 27.824 163.056 26.704C163.056 25.52 163.216 24.456 163.536 23.512C163.856 22.552 164.368 21.792 165.072 21.232C165.792 20.672 166.728 20.392 167.88 20.392C169 20.392 169.912 20.68 170.616 21.256C171.32 21.816 171.832 22.576 172.152 23.536C172.488 24.496 172.656 25.568 172.656 26.752V33.28C172.656 34.528 172.512 35.68 172.224 36.736C171.936 37.792 171.448 38.64 170.76 39.28C170.072 39.904 169.112 40.216 167.88 40.216ZM167.88 30.376C168.44 30.376 168.896 30.24 169.248 29.968C169.6 29.68 169.872 29.368 170.064 29.032V26.152C170.064 25.48 170 24.872 169.872 24.328C169.744 23.768 169.52 23.328 169.2 23.008C168.88 22.672 168.44 22.504 167.88 22.504C167.32 22.504 166.872 22.672 166.536 23.008C166.216 23.344 165.984 23.784 165.84 24.328C165.712 24.856 165.648 25.44 165.648 26.08C165.648 26.848 165.68 27.56 165.744 28.216C165.824 28.872 166.016 29.4 166.32 29.8C166.64 30.184 167.16 30.376 167.88 30.376ZM179.927 40.216C178.919 40.216 178.055 40.032 177.335 39.664C176.631 39.28 176.095 38.728 175.727 38.008C175.359 37.288 175.167 36.416 175.151 35.392C175.151 35.36 175.151 35.328 175.151 35.296C175.151 35.248 175.151 35.208 175.151 35.176H177.719C177.719 36.104 177.871 36.824 178.175 37.336C178.479 37.832 179.071 38.08 179.951 38.08C180.431 38.08 180.831 37.936 181.151 37.648C181.471 37.344 181.711 36.888 181.871 36.28C182.031 35.656 182.111 34.872 182.111 33.928V30.976C181.871 31.376 181.511 31.704 181.031 31.96C180.567 32.2 179.983 32.32 179.279 32.32C178.207 32.32 177.367 32.088 176.759 31.624C176.151 31.144 175.719 30.488 175.463 29.656C175.223 28.808 175.103 27.824 175.103 26.704C175.103 25.52 175.263 24.456 175.583 23.512C175.903 22.552 176.415 21.792 177.119 21.232C177.839 20.672 178.775 20.392 179.927 20.392C181.047 20.392 181.959 20.68 182.663 21.256C183.367 21.816 183.879 22.576 184.199 23.536C184.535 24.496 184.703 25.568 184.703 26.752V33.28C184.703 34.528 184.559 35.68 184.271 36.736C183.983 37.792 183.495 38.64 182.807 39.28C182.119 39.904 181.159 40.216 179.927 40.216ZM179.927 30.376C180.487 30.376 180.943 30.24 181.295 29.968C181.647 29.68 181.919 29.368 182.111 29.032V26.152C182.111 25.48 182.047 24.872 181.919 24.328C181.791 23.768 181.567 23.328 181.247 23.008C180.927 22.672 180.487 22.504 179.927 22.504C179.367 22.504 178.919 22.672 178.583 23.008C178.263 23.344 178.031 23.784 177.887 24.328C177.759 24.856 177.695 25.44 177.695 26.08C177.695 26.848 177.727 27.56 177.791 28.216C177.871 28.872 178.063 29.4 178.367 29.8C178.687 30.184 179.207 30.376 179.927 30.376ZM197.458 40.216C196.45 40.216 195.586 40.032 194.866 39.664C194.162 39.28 193.626 38.728 193.258 38.008C192.89 37.288 192.698 36.416 192.682 35.392C192.682 35.36 192.682 35.328 192.682 35.296C192.682 35.248 192.682 35.208 192.682 35.176H195.25C195.25 36.104 195.402 36.824 195.706 37.336C196.01 37.832 196.602 38.08 197.482 38.08C197.962 38.08 198.362 37.936 198.682 37.648C199.002 37.344 199.242 36.888 199.402 36.28C199.562 35.656 199.642 34.872 199.642 33.928V30.976C199.402 31.376 199.042 31.704 198.562 31.96C198.098 32.2 197.514 32.32 196.81 32.32C195.738 32.32 194.898 32.088 194.29 31.624C193.682 31.144 193.25 30.488 192.994 29.656C192.754 28.808 192.634 27.824 192.634 26.704C192.634 25.52 192.794 24.456 193.114 23.512C193.434 22.552 193.946 21.792 194.65 21.232C195.37 20.672 196.306 20.392 197.458 20.392C198.578 20.392 199.49 20.68 200.194 21.256C200.898 21.816 201.41 22.576 201.73 23.536C202.066 24.496 202.234 25.568 202.234 26.752V33.28C202.234 34.528 202.09 35.68 201.802 36.736C201.514 37.792 201.026 38.64 200.338 39.28C199.65 39.904 198.69 40.216 197.458 40.216ZM197.458 30.376C198.018 30.376 198.474 30.24 198.826 29.968C199.178 29.68 199.45 29.368 199.642 29.032V26.152C199.642 25.48 199.578 24.872 199.45 24.328C199.322 23.768 199.098 23.328 198.778 23.008C198.458 22.672 198.018 22.504 197.458 22.504C196.898 22.504 196.45 22.672 196.114 23.008C195.794 23.344 195.562 23.784 195.418 24.328C195.29 24.856 195.226 25.44 195.226 26.08C195.226 26.848 195.258 27.56 195.322 28.216C195.402 28.872 195.594 29.4 195.898 29.8C196.218 30.184 196.738 30.376 197.458 30.376ZM209.841 40.216C208.737 40.216 207.825 39.968 207.105 39.472C206.401 38.976 205.873 38.296 205.521 37.432C205.185 36.568 205.017 35.584 205.017 34.48V26.104C205.017 24.968 205.185 23.976 205.521 23.128C205.857 22.264 206.377 21.592 207.081 21.112C207.801 20.632 208.721 20.392 209.841 20.392C210.961 20.392 211.873 20.632 212.577 21.112C213.281 21.592 213.801 22.264 214.137 23.128C214.473 23.976 214.641 24.968 214.641 26.104V34.48C214.641 35.6 214.465 36.592 214.113 37.456C213.777 38.32 213.257 39 212.553 39.496C211.849 39.976 210.945 40.216 209.841 40.216ZM209.841 38.104C210.449 38.104 210.905 37.928 211.209 37.576C211.529 37.224 211.745 36.776 211.857 36.232C211.985 35.672 212.049 35.096 212.049 34.504V26.08C212.049 25.456 211.993 24.872 211.881 24.328C211.769 23.768 211.553 23.32 211.233 22.984C210.929 22.648 210.465 22.48 209.841 22.48C209.217 22.48 208.745 22.648 208.425 22.984C208.105 23.32 207.889 23.768 207.777 24.328C207.665 24.872 207.609 25.456 207.609 26.08V34.504C207.609 35.096 207.665 35.672 207.777 36.232C207.905 36.776 208.129 37.224 208.449 37.576C208.785 37.928 209.249 38.104 209.841 38.104ZM222.239 40.216C221.135 40.216 220.223 39.968 219.503 39.472C218.799 38.976 218.271 38.296 217.919 37.432C217.583 36.568 217.415 35.584 217.415 34.48V26.104C217.415 24.968 217.583 23.976 217.919 23.128C218.255 22.264 218.775 21.592 219.479 21.112C220.199 20.632 221.119 20.392 222.239 20.392C223.359 20.392 224.271 20.632 224.975 21.112C225.679 21.592 226.199 22.264 226.535 23.128C226.871 23.976 227.039 24.968 227.039 26.104V34.48C227.039 35.6 226.863 36.592 226.511 37.456C226.175 38.32 225.655 39 224.951 39.496C224.247 39.976 223.343 40.216 222.239 40.216ZM222.239 38.104C222.847 38.104 223.303 37.928 223.607 37.576C223.927 37.224 224.143 36.776 224.255 36.232C224.383 35.672 224.447 35.096 224.447 34.504V26.08C224.447 25.456 224.391 24.872 224.279 24.328C224.167 23.768 223.951 23.32 223.631 22.984C223.327 22.648 222.863 22.48 222.239 22.48C221.615 22.48 221.143 22.648 220.823 22.984C220.503 23.32 220.287 23.768 220.175 24.328C220.063 24.872 220.007 25.456 220.007 26.08V34.504C220.007 35.096 220.063 35.672 220.175 36.232C220.303 36.776 220.527 37.224 220.847 37.576C221.183 37.928 221.647 38.104 222.239 38.104ZM236.762 40V28.048H234.17V26.128H241.946V28.048H239.33V40H236.762ZM243.499 40V26.128H249.091V27.976H246.067V40H243.499ZM249.86 40L255.092 20.56H257.324L252.068 40H249.86ZM259.247 40L259.391 26.128H261.287L264.359 34.648L267.455 26.128H269.351L269.495 40H267.335V31.72L264.767 38.632H263.975L261.407 31.768V40H259.247ZM272.575 29.608V28.144L275.551 24.904C276.031 24.392 276.407 23.96 276.679 23.608C276.967 23.24 277.167 22.912 277.279 22.624C277.407 22.336 277.471 22.048 277.471 21.76C277.471 21.28 277.359 20.912 277.135 20.656C276.911 20.384 276.567 20.248 276.103 20.248C275.495 20.248 275.063 20.448 274.807 20.848C274.567 21.232 274.447 21.8 274.447 22.552H272.551V22.216C272.551 21.512 272.671 20.88 272.911 20.32C273.151 19.744 273.527 19.288 274.039 18.952C274.567 18.616 275.255 18.448 276.103 18.448C277.143 18.448 277.959 18.736 278.551 19.312C279.143 19.872 279.439 20.648 279.439 21.64C279.439 22.44 279.247 23.144 278.863 23.752C278.495 24.344 277.911 25.048 277.111 25.864L275.119 27.928H279.559V29.608H272.575Z" fill="white"/>
<path d="M67.3203 30.5259L66.9363 31.9659H70.2723L69.9123 30.5259C69.6883 29.7419 69.4723 28.9099 69.2643 28.0299C69.0563 27.1499 68.8483 26.3019 68.6403 25.4859H68.5443C68.3523 26.3179 68.1523 27.1739 67.9443 28.0539C67.7523 28.9179 67.5443 29.7419 67.3203 30.5259ZM61.6563 38.4459L66.5523 22.7979H70.8003L75.6963 38.4459H71.9523L70.9923 34.7259H66.2163L65.2563 38.4459H61.6563ZM77.4061 38.4459V22.7979H80.9341V28.9419H82.6621L84.7021 25.3419C85.0061 24.8139 85.3021 24.3739 85.5901 24.0219C85.8941 23.6539 86.2141 23.3579 86.5501 23.1339C86.8861 22.9099 87.2381 22.7499 87.6061 22.6539C87.9741 22.5579 88.3821 22.5099 88.8301 22.5099C89.0541 22.5099 89.2781 22.5259 89.5021 22.5579C89.7421 22.5899 89.9501 22.6459 90.1261 22.7259L89.5501 25.9179C89.4221 25.8699 89.2941 25.8459 89.1661 25.8459C89.0381 25.8299 88.9341 25.8219 88.8541 25.8219C88.5021 25.8219 88.1981 25.9179 87.9421 26.1099C87.7021 26.3019 87.4221 26.6779 87.1021 27.2379L85.4461 30.1179L90.5341 38.4459H86.8141L82.6621 31.7979H80.9341V38.4459H77.4061ZM92.3358 38.4459V22.7979H95.8638V35.4699H100.808V22.7979H104.336V35.4699H106.256V37.6779L105.944 42.9579H102.776V38.4459H92.3358ZM108.273 38.4459V22.7979H111.777V28.3179C111.777 29.2459 111.721 30.2219 111.609 31.2459C111.497 32.2699 111.401 33.1979 111.321 34.0299H111.417L112.953 30.5979L117.057 22.7979H120.801V38.4459H117.321V32.9019C117.321 31.9739 117.369 31.0139 117.465 30.0219C117.577 29.0299 117.673 28.1019 117.753 27.2379H117.657L116.121 30.6459L112.017 38.4459H108.273ZM132.052 38.4459V32.8059H130.3L126.964 38.4459H122.932L126.94 32.2779C126.044 31.9259 125.316 31.3739 124.756 30.6219C124.196 29.8699 123.916 28.8859 123.916 27.6699C123.916 26.7419 124.076 25.9659 124.396 25.3419C124.716 24.7179 125.148 24.2219 125.692 23.8539C126.252 23.4699 126.892 23.1979 127.612 23.0379C128.348 22.8779 129.132 22.7979 129.964 22.7979H135.604V38.4459H132.052ZM130.252 29.9979H132.052V25.6059H130.252C129.308 25.6059 128.596 25.7579 128.116 26.0619C127.636 26.3659 127.396 26.9019 127.396 27.6699C127.396 29.2219 128.348 29.9979 130.252 29.9979Z" fill="#FAFF00"/>
<path d="M69.296 65.752V63H63.312V55.224H64.624V61.928H68.112V55.224H69.424V61.928H70.56V62.76L70.432 65.752H69.296ZM75.3234 63.192C74.63 63.192 74.0007 63.032 73.4354 62.712C72.87 62.3813 72.422 61.912 72.0914 61.304C71.7607 60.696 71.5954 59.9707 71.5954 59.128C71.5954 58.2747 71.7607 57.544 72.0914 56.936C72.4327 56.328 72.87 55.8587 73.4034 55.528C73.9367 55.1973 74.4967 55.032 75.0834 55.032C76.0754 55.032 76.838 55.3627 77.3714 56.024C77.9154 56.6853 78.1874 57.5707 78.1874 58.68C78.1874 58.8187 78.182 58.9573 78.1714 59.096C78.1714 59.224 78.1607 59.336 78.1394 59.432H72.8914C72.9447 60.2533 73.2007 60.9093 73.6594 61.4C74.1287 61.8907 74.7367 62.136 75.4834 62.136C75.8567 62.136 76.198 62.0827 76.5074 61.976C76.8274 61.8587 77.1314 61.7093 77.4194 61.528L77.8834 62.392C77.5527 62.6053 77.174 62.792 76.7474 62.952C76.3314 63.112 75.8567 63.192 75.3234 63.192ZM72.8754 58.488H77.0354C77.0354 57.6987 76.8647 57.1013 76.5234 56.696C76.1927 56.28 75.7234 56.072 75.1154 56.072C74.5714 56.072 74.0807 56.2853 73.6434 56.712C73.2167 57.128 72.9607 57.72 72.8754 58.488ZM80.1089 63V55.224H81.4209V58.376H85.1649V55.224H86.4769V63H85.1649V59.544H81.4209V63H80.1089ZM90.8853 63.192C90.2346 63.192 89.6906 63 89.2533 62.616C88.8266 62.2213 88.6133 61.6773 88.6133 60.984C88.6133 60.1307 88.9919 59.48 89.7493 59.032C90.5173 58.5733 91.7279 58.2533 93.3813 58.072C93.3813 57.7413 93.3333 57.4267 93.2373 57.128C93.1519 56.8293 92.9919 56.5893 92.7573 56.408C92.5333 56.216 92.2079 56.12 91.7812 56.12C91.3333 56.12 90.9119 56.2053 90.5173 56.376C90.1226 56.5467 89.7706 56.7387 89.4613 56.952L88.9493 56.04C89.3119 55.8053 89.7546 55.5813 90.2773 55.368C90.8106 55.144 91.3866 55.032 92.0052 55.032C92.9546 55.032 93.6426 55.3253 94.0693 55.912C94.4959 56.488 94.7093 57.2613 94.7093 58.232V63H93.6213L93.5093 62.072H93.4613C93.0986 62.3707 92.6986 62.632 92.2613 62.856C91.8346 63.08 91.3759 63.192 90.8853 63.192ZM91.2693 62.136C91.6426 62.136 91.9946 62.0453 92.3253 61.864C92.6559 61.6827 93.0079 61.4267 93.3813 61.096V58.936C92.0906 59.096 91.1839 59.336 90.6613 59.656C90.1493 59.976 89.8932 60.3867 89.8932 60.888C89.8932 61.3253 90.0266 61.6453 90.2933 61.848C90.5599 62.04 90.8853 62.136 91.2693 62.136ZM101.975 58.92C101.89 59.688 101.772 60.312 101.623 60.792C101.484 61.272 101.324 61.6507 101.143 61.928H104.759V56.296H102.279L101.975 58.92ZM100.631 63V65.752H99.4949L99.3509 62.76V61.928H99.7349C99.8842 61.8427 100.018 61.7093 100.135 61.528C100.263 61.336 100.386 61.0213 100.503 60.584C100.62 60.136 100.727 59.496 100.823 58.664L101.239 55.224H106.071V61.928H107.207V62.76L107.079 65.752H105.943V63H100.631ZM112.027 63.192C111.333 63.192 110.704 63.032 110.139 62.712C109.573 62.3813 109.125 61.912 108.795 61.304C108.464 60.696 108.299 59.9707 108.299 59.128C108.299 58.2747 108.464 57.544 108.795 56.936C109.136 56.328 109.573 55.8587 110.107 55.528C110.64 55.1973 111.2 55.032 111.786 55.032C112.779 55.032 113.541 55.3627 114.075 56.024C114.619 56.6853 114.891 57.5707 114.891 58.68C114.891 58.8187 114.885 58.9573 114.875 59.096C114.875 59.224 114.864 59.336 114.843 59.432H109.595C109.648 60.2533 109.904 60.9093 110.363 61.4C110.832 61.8907 111.44 62.136 112.187 62.136C112.56 62.136 112.901 62.0827 113.211 61.976C113.531 61.8587 113.835 61.7093 114.123 61.528L114.587 62.392C114.256 62.6053 113.877 62.792 113.451 62.952C113.035 63.112 112.56 63.192 112.027 63.192ZM109.579 58.488H113.739C113.739 57.6987 113.568 57.1013 113.227 56.696C112.896 56.28 112.427 56.072 111.819 56.072C111.275 56.072 110.784 56.2853 110.347 56.712C109.92 57.128 109.664 57.72 109.579 58.488ZM116.812 63V55.224H118.092V58.456C118.092 58.872 118.076 59.3307 118.044 59.832C118.023 60.3227 117.996 60.8187 117.964 61.32H118.028C118.177 61.0747 118.348 60.7973 118.54 60.488C118.743 60.168 118.913 59.8907 119.052 59.656L121.996 55.224H123.228V63H121.948V59.768C121.948 59.352 121.959 58.8933 121.98 58.392C122.012 57.8907 122.044 57.3893 122.076 56.888H122.012C121.873 57.1227 121.703 57.4 121.5 57.72C121.297 58.04 121.127 58.3173 120.988 58.552L118.028 63H116.812ZM120.06 53.832C119.463 53.832 118.983 53.7147 118.62 53.48C118.268 53.2453 118.007 52.9413 117.836 52.568C117.665 52.1947 117.569 51.8 117.548 51.384H118.636C118.657 51.8427 118.769 52.2373 118.972 52.568C119.175 52.8987 119.537 53.064 120.06 53.064C120.593 53.064 120.961 52.8987 121.164 52.568C121.367 52.2373 121.473 51.8427 121.484 51.384H122.572C122.551 51.8 122.455 52.1947 122.284 52.568C122.113 52.9413 121.847 53.2453 121.484 53.48C121.132 53.7147 120.657 53.832 120.06 53.832ZM128.931 63.192C128.248 63.192 127.63 63.032 127.075 62.712C126.52 62.392 126.083 61.928 125.763 61.32C125.443 60.712 125.283 59.9813 125.283 59.128C125.283 58.2533 125.454 57.512 125.795 56.904C126.147 56.296 126.606 55.832 127.171 55.512C127.747 55.192 128.366 55.032 129.027 55.032C129.539 55.032 129.976 55.1227 130.339 55.304C130.712 55.4853 131.032 55.6987 131.299 55.944L130.627 56.808C130.403 56.6053 130.163 56.44 129.907 56.312C129.662 56.184 129.384 56.12 129.075 56.12C128.606 56.12 128.184 56.248 127.811 56.504C127.448 56.7493 127.16 57.1013 126.947 57.56C126.744 58.008 126.643 58.5307 126.643 59.128C126.643 60.0133 126.862 60.7333 127.299 61.288C127.747 61.832 128.328 62.104 129.043 62.104C129.406 62.104 129.742 62.0293 130.051 61.88C130.36 61.72 130.632 61.5333 130.867 61.32L131.443 62.2C131.091 62.5093 130.702 62.7547 130.275 62.936C129.848 63.1067 129.4 63.192 128.931 63.192ZM134.712 63V56.296H132.104V55.224H138.632V56.296H136.024V63H134.712ZM140.359 63V55.224H143.351C144.204 55.224 144.892 55.3787 145.415 55.688C145.948 55.9867 146.215 56.488 146.215 57.192C146.215 57.6187 146.098 57.976 145.863 58.264C145.639 58.5413 145.324 58.7387 144.919 58.856V58.904C145.356 59.0107 145.735 59.208 146.055 59.496C146.386 59.784 146.551 60.2107 146.551 60.776C146.551 61.544 146.263 62.1093 145.687 62.472C145.111 62.824 144.375 63 143.479 63H140.359ZM141.655 58.488H143.127C143.778 58.488 144.242 58.3867 144.519 58.184C144.796 57.9707 144.935 57.6827 144.935 57.32C144.935 56.9573 144.796 56.6747 144.519 56.472C144.252 56.2693 143.82 56.168 143.223 56.168H141.655V58.488ZM141.655 62.056H143.335C143.975 62.056 144.45 61.9387 144.759 61.704C145.079 61.4587 145.239 61.1227 145.239 60.696C145.239 60.3013 145.074 59.992 144.743 59.768C144.412 59.544 143.916 59.432 143.255 59.432H141.655V62.056ZM148.549 66.344C148.379 66.344 148.213 66.328 148.053 66.296C147.904 66.264 147.765 66.2267 147.637 66.184L147.893 65.144C147.979 65.1653 148.075 65.1867 148.181 65.208C148.288 65.24 148.389 65.256 148.485 65.256C148.923 65.256 149.285 65.096 149.573 64.776C149.861 64.4667 150.085 64.072 150.245 63.592L150.421 63.016L147.301 55.224H148.661L150.245 59.528C150.363 59.8587 150.485 60.216 150.613 60.6C150.752 60.984 150.88 61.3573 150.997 61.72H151.061C151.179 61.368 151.291 61 151.397 60.616C151.504 60.232 151.611 59.8693 151.717 59.528L153.109 55.224H154.389L151.461 63.64C151.28 64.152 151.061 64.6107 150.805 65.016C150.56 65.4213 150.251 65.7413 149.877 65.976C149.515 66.2213 149.072 66.344 148.549 66.344ZM158.98 63.192C158.286 63.192 157.657 63.032 157.092 62.712C156.526 62.3813 156.078 61.912 155.748 61.304C155.417 60.696 155.252 59.9707 155.252 59.128C155.252 58.2747 155.417 57.544 155.748 56.936C156.089 56.328 156.526 55.8587 157.06 55.528C157.593 55.1973 158.153 55.032 158.74 55.032C159.732 55.032 160.494 55.3627 161.028 56.024C161.572 56.6853 161.844 57.5707 161.844 58.68C161.844 58.8187 161.838 58.9573 161.828 59.096C161.828 59.224 161.817 59.336 161.796 59.432H156.548C156.601 60.2533 156.857 60.9093 157.316 61.4C157.785 61.8907 158.393 62.136 159.14 62.136C159.513 62.136 159.854 62.0827 160.164 61.976C160.484 61.8587 160.788 61.7093 161.076 61.528L161.54 62.392C161.209 62.6053 160.83 62.792 160.404 62.952C159.988 63.112 159.513 63.192 158.98 63.192ZM156.532 58.488H160.692C160.692 57.6987 160.521 57.1013 160.18 56.696C159.849 56.28 159.38 56.072 158.772 56.072C158.228 56.072 157.737 56.2853 157.3 56.712C156.873 57.128 156.617 57.72 156.532 58.488ZM165.321 63V56.296H162.713V55.224H169.241V56.296H166.633V63H165.321ZM175.787 58.92C175.702 59.688 175.585 60.312 175.435 60.792C175.297 61.272 175.137 61.6507 174.955 61.928H178.571V56.296H176.091L175.787 58.92ZM174.443 63V65.752H173.307L173.163 62.76V61.928H173.547C173.697 61.8427 173.83 61.7093 173.947 61.528C174.075 61.336 174.198 61.0213 174.315 60.584C174.433 60.136 174.539 59.496 174.635 58.664L175.051 55.224H179.883V61.928H181.019V62.76L180.891 65.752H179.755V63H174.443ZM185.711 63.192C185.082 63.192 184.49 63.032 183.935 62.712C183.391 62.392 182.948 61.928 182.607 61.32C182.276 60.712 182.111 59.9813 182.111 59.128C182.111 58.2533 182.276 57.512 182.607 56.904C182.948 56.296 183.391 55.832 183.935 55.512C184.49 55.192 185.082 55.032 185.711 55.032C186.351 55.032 186.943 55.192 187.487 55.512C188.031 55.832 188.468 56.296 188.799 56.904C189.14 57.512 189.311 58.2533 189.311 59.128C189.311 59.9813 189.14 60.712 188.799 61.32C188.468 61.928 188.031 62.392 187.487 62.712C186.943 63.032 186.351 63.192 185.711 63.192ZM185.711 62.104C186.383 62.104 186.922 61.832 187.327 61.288C187.743 60.7333 187.951 60.0133 187.951 59.128C187.951 58.232 187.743 57.5067 187.327 56.952C186.922 56.3973 186.383 56.12 185.711 56.12C185.05 56.12 184.511 56.3973 184.095 56.952C183.679 57.5067 183.471 58.232 183.471 59.128C183.471 60.0133 183.679 60.7333 184.095 61.288C184.511 61.832 185.05 62.104 185.711 62.104ZM197.026 63.192C196.215 63.192 195.538 63.048 194.994 62.76C194.45 62.4613 194.007 62.1253 193.666 61.752L194.338 60.888C194.647 61.208 195.01 61.4907 195.426 61.736C195.842 61.9813 196.349 62.104 196.946 62.104C197.565 62.104 198.071 61.9333 198.466 61.592C198.861 61.2507 199.058 60.7973 199.058 60.232C199.058 59.8267 198.951 59.4747 198.738 59.176C198.535 58.8667 198.194 58.6267 197.714 58.456C197.245 58.2853 196.605 58.2 195.794 58.2V57.192C196.519 57.192 197.09 57.1067 197.506 56.936C197.933 56.7653 198.237 56.536 198.418 56.248C198.599 55.96 198.69 55.64 198.69 55.288C198.69 54.7867 198.53 54.392 198.21 54.104C197.901 53.816 197.474 53.672 196.93 53.672C196.503 53.672 196.109 53.768 195.746 53.96C195.394 54.152 195.063 54.4027 194.754 54.712L194.05 53.88C194.445 53.5067 194.882 53.2027 195.362 52.968C195.842 52.7227 196.381 52.6 196.978 52.6C197.863 52.6 198.594 52.8293 199.17 53.288C199.746 53.736 200.034 54.3707 200.034 55.192C200.034 55.8107 199.863 56.3173 199.522 56.712C199.181 57.1067 198.733 57.4107 198.178 57.624V57.688C198.797 57.8267 199.319 58.12 199.746 58.568C200.173 59.0053 200.386 59.576 200.386 60.28C200.386 60.8773 200.237 61.3947 199.938 61.832C199.639 62.2693 199.234 62.6053 198.722 62.84C198.221 63.0747 197.655 63.192 197.026 63.192ZM205.187 63.192C204.163 63.192 203.358 62.7333 202.771 61.816C202.195 60.888 201.907 59.5707 201.907 57.864C201.907 56.1467 202.195 54.84 202.771 53.944C203.358 53.048 204.163 52.6 205.187 52.6C206.2 52.6 206.995 53.048 207.571 53.944C208.158 54.84 208.451 56.1467 208.451 57.864C208.451 59.5707 208.158 60.888 207.571 61.816C206.995 62.7333 206.2 63.192 205.187 63.192ZM205.187 62.136C205.784 62.136 206.264 61.8 206.627 61.128C206.99 60.4453 207.171 59.3573 207.171 57.864C207.171 56.3707 206.99 55.2987 206.627 54.648C206.264 53.9867 205.784 53.656 205.187 53.656C204.59 53.656 204.104 53.9867 203.731 54.648C203.368 55.2987 203.187 56.3707 203.187 57.864C203.187 59.3573 203.368 60.4453 203.731 61.128C204.104 61.8 204.59 62.136 205.187 62.136ZM211.156 63.192C210.89 63.192 210.66 63.1013 210.468 62.92C210.287 62.728 210.196 62.488 210.196 62.2C210.196 61.8907 210.287 61.6453 210.468 61.464C210.66 61.272 210.89 61.176 211.156 61.176C211.412 61.176 211.631 61.272 211.812 61.464C212.004 61.6453 212.1 61.8907 212.1 62.2C212.1 62.488 212.004 62.728 211.812 62.92C211.631 63.1013 211.412 63.192 211.156 63.192ZM217.125 63.192C216.101 63.192 215.295 62.7333 214.709 61.816C214.133 60.888 213.845 59.5707 213.845 57.864C213.845 56.1467 214.133 54.84 214.709 53.944C215.295 53.048 216.101 52.6 217.125 52.6C218.138 52.6 218.933 53.048 219.509 53.944C220.095 54.84 220.389 56.1467 220.389 57.864C220.389 59.5707 220.095 60.888 219.509 61.816C218.933 62.7333 218.138 63.192 217.125 63.192ZM217.125 62.136C217.722 62.136 218.202 61.8 218.565 61.128C218.927 60.4453 219.109 59.3573 219.109 57.864C219.109 56.3707 218.927 55.2987 218.565 54.648C218.202 53.9867 217.722 53.656 217.125 53.656C216.527 53.656 216.042 53.9867 215.669 54.648C215.306 55.2987 215.125 56.3707 215.125 57.864C215.125 59.3573 215.306 60.4453 215.669 61.128C216.042 61.8 216.527 62.136 217.125 62.136ZM222.758 59.128H225.958V56.168C225.958 55.8907 225.968 55.56 225.99 55.176C226.011 54.792 226.027 54.4667 226.038 54.2H225.974C225.846 54.4453 225.712 54.6853 225.574 54.92C225.435 55.1547 225.291 55.3947 225.142 55.64L222.758 59.128ZM225.958 63V60.184H221.366V59.32L225.734 52.792H227.206V59.128H228.598V60.184H227.206V63H225.958ZM231.047 63.192C230.78 63.192 230.551 63.1013 230.359 62.92C230.178 62.728 230.087 62.488 230.087 62.2C230.087 61.8907 230.178 61.6453 230.359 61.464C230.551 61.272 230.78 61.176 231.047 61.176C231.303 61.176 231.522 61.272 231.703 61.464C231.895 61.6453 231.991 61.8907 231.991 62.2C231.991 62.488 231.895 62.728 231.703 62.92C231.522 63.1013 231.303 63.192 231.047 63.192ZM233.671 63V62.216C234.695 61.192 235.565 60.296 236.279 59.528C236.994 58.7493 237.538 58.0507 237.911 57.432C238.285 56.8027 238.471 56.216 238.471 55.672C238.471 55.0853 238.311 54.6053 237.991 54.232C237.671 53.8587 237.186 53.672 236.535 53.672C236.109 53.672 235.714 53.7947 235.351 54.04C234.989 54.2747 234.658 54.5627 234.359 54.904L233.607 54.152C234.034 53.6827 234.487 53.3093 234.967 53.032C235.458 52.744 236.034 52.6 236.695 52.6C237.645 52.6 238.391 52.8773 238.935 53.432C239.479 53.976 239.751 54.7013 239.751 55.608C239.751 56.248 239.57 56.8987 239.207 57.56C238.855 58.2107 238.365 58.8987 237.735 59.624C237.117 60.3387 236.402 61.1173 235.591 61.96C235.869 61.9387 236.157 61.9173 236.455 61.896C236.754 61.8747 237.037 61.864 237.303 61.864H240.263V63H233.671ZM244.968 63.192C243.944 63.192 243.139 62.7333 242.552 61.816C241.976 60.888 241.688 59.5707 241.688 57.864C241.688 56.1467 241.976 54.84 242.552 53.944C243.139 53.048 243.944 52.6 244.968 52.6C245.982 52.6 246.776 53.048 247.352 53.944C247.939 54.84 248.232 56.1467 248.232 57.864C248.232 59.5707 247.939 60.888 247.352 61.816C246.776 62.7333 245.982 63.192 244.968 63.192ZM244.968 62.136C245.566 62.136 246.046 61.8 246.408 61.128C246.771 60.4453 246.952 59.3573 246.952 57.864C246.952 56.3707 246.771 55.2987 246.408 54.648C246.046 53.9867 245.566 53.656 244.968 53.656C244.371 53.656 243.886 53.9867 243.512 54.648C243.15 55.2987 242.968 56.3707 242.968 57.864C242.968 59.3573 243.15 60.4453 243.512 61.128C243.886 61.8 244.371 62.136 244.968 62.136ZM249.578 63V62.216C250.602 61.192 251.471 60.296 252.186 59.528C252.9 58.7493 253.444 58.0507 253.818 57.432C254.191 56.8027 254.378 56.216 254.378 55.672C254.378 55.0853 254.218 54.6053 253.898 54.232C253.578 53.8587 253.092 53.672 252.442 53.672C252.015 53.672 251.62 53.7947 251.258 54.04C250.895 54.2747 250.564 54.5627 250.266 54.904L249.514 54.152C249.94 53.6827 250.394 53.3093 250.874 53.032C251.364 52.744 251.94 52.6 252.602 52.6C253.551 52.6 254.298 52.8773 254.842 53.432C255.386 53.976 255.658 54.7013 255.658 55.608C255.658 56.248 255.476 56.8987 255.114 57.56C254.762 58.2107 254.271 58.8987 253.641 59.624C253.023 60.3387 252.308 61.1173 251.498 61.96C251.775 61.9387 252.063 61.9173 252.362 61.896C252.66 61.8747 252.943 61.864 253.21 61.864H256.17V63H249.578ZM257.531 63V62.216C258.555 61.192 259.424 60.296 260.139 59.528C260.853 58.7493 261.397 58.0507 261.771 57.432C262.144 56.8027 262.331 56.216 262.331 55.672C262.331 55.0853 262.171 54.6053 261.851 54.232C261.531 53.8587 261.045 53.672 260.395 53.672C259.968 53.672 259.573 53.7947 259.211 54.04C258.848 54.2747 258.517 54.5627 258.219 54.904L257.467 54.152C257.893 53.6827 258.347 53.3093 258.827 53.032C259.317 52.744 259.893 52.6 260.555 52.6C261.504 52.6 262.251 52.8773 262.795 53.432C263.339 53.976 263.611 54.7013 263.611 55.608C263.611 56.248 263.429 56.8987 263.067 57.56C262.715 58.2107 262.224 58.8987 261.595 59.624C260.976 60.3387 260.261 61.1173 259.451 61.96C259.728 61.9387 260.016 61.9173 260.315 61.896C260.613 61.8747 260.896 61.864 261.163 61.864H264.123V63H257.531Z" fill="white"/>
<path d="M294.736 30V19.28C294.725 19.2907 294.603 19.3227 294.368 19.376C294.144 19.4293 293.888 19.4827 293.6 19.536C293.312 19.5893 293.056 19.6373 292.832 19.68C292.608 19.7227 292.491 19.744 292.48 19.744V18.448C292.661 18.4053 292.869 18.3467 293.104 18.272C293.349 18.1973 293.595 18.1067 293.84 18C294.096 17.8933 294.336 17.76 294.56 17.6C294.795 17.44 294.992 17.2533 295.152 17.04H296.448V30H294.736ZM299 30V28.784L302.296 23.648C302.541 23.264 302.765 22.9067 302.968 22.576C303.181 22.2453 303.352 21.8987 303.48 21.536C303.618 21.1627 303.688 20.736 303.688 20.256C303.688 19.6587 303.592 19.1893 303.4 18.848C303.208 18.5067 302.872 18.336 302.392 18.336C301.986 18.336 301.672 18.448 301.448 18.672C301.224 18.896 301.069 19.1893 300.984 19.552C300.898 19.9147 300.856 20.304 300.856 20.72V21.152H299.144V20.704C299.144 19.9253 299.245 19.2587 299.448 18.704C299.661 18.1387 299.997 17.7013 300.456 17.392C300.925 17.0827 301.544 16.928 302.312 16.928C303.357 16.928 304.136 17.2267 304.648 17.824C305.16 18.4107 305.416 19.2267 305.416 20.272C305.416 20.8267 305.346 21.312 305.208 21.728C305.08 22.144 304.909 22.5333 304.696 22.896C304.482 23.2587 304.248 23.632 303.992 24.016L301.016 28.56H305.112V30H299ZM309.904 30.144C309.232 30.144 308.656 30.0213 308.176 29.776C307.707 29.52 307.35 29.152 307.104 28.672C306.859 28.192 306.731 27.6107 306.72 26.928C306.72 26.9067 306.72 26.8853 306.72 26.864C306.72 26.832 306.72 26.8053 306.72 26.784H308.432C308.432 27.4027 308.534 27.8827 308.736 28.224C308.939 28.5547 309.334 28.72 309.92 28.72C310.24 28.72 310.507 28.624 310.72 28.432C310.934 28.2293 311.094 27.9253 311.2 27.52C311.307 27.104 311.36 26.5813 311.36 25.952V23.984C311.2 24.2507 310.96 24.4693 310.64 24.64C310.331 24.8 309.942 24.88 309.472 24.88C308.758 24.88 308.198 24.7253 307.792 24.416C307.387 24.096 307.099 23.6587 306.928 23.104C306.768 22.5387 306.688 21.8827 306.688 21.136C306.688 20.3467 306.795 19.6373 307.008 19.008C307.222 18.368 307.563 17.8613 308.032 17.488C308.512 17.1147 309.136 16.928 309.904 16.928C310.651 16.928 311.259 17.12 311.728 17.504C312.198 17.8773 312.539 18.384 312.752 19.024C312.976 19.664 313.088 20.3787 313.088 21.168V25.52C313.088 26.352 312.992 27.12 312.8 27.824C312.608 28.528 312.283 29.0933 311.824 29.52C311.366 29.936 310.726 30.144 309.904 30.144ZM309.904 23.584C310.278 23.584 310.582 23.4933 310.816 23.312C311.051 23.12 311.232 22.912 311.36 22.688V20.768C311.36 20.32 311.318 19.9147 311.232 19.552C311.147 19.1787 310.998 18.8853 310.784 18.672C310.571 18.448 310.278 18.336 309.904 18.336C309.531 18.336 309.232 18.448 309.008 18.672C308.795 18.896 308.64 19.1893 308.544 19.552C308.459 19.904 308.416 20.2933 308.416 20.72C308.416 21.232 308.438 21.7067 308.48 22.144C308.534 22.5813 308.662 22.9333 308.864 23.2C309.078 23.456 309.424 23.584 309.904 23.584ZM321.592 30.144C320.92 30.144 320.344 30.0213 319.864 29.776C319.395 29.52 319.037 29.152 318.792 28.672C318.547 28.192 318.419 27.6107 318.408 26.928C318.408 26.9067 318.408 26.8853 318.408 26.864C318.408 26.832 318.408 26.8053 318.408 26.784H320.12C320.12 27.4027 320.221 27.8827 320.424 28.224C320.627 28.5547 321.021 28.72 321.608 28.72C321.928 28.72 322.195 28.624 322.408 28.432C322.621 28.2293 322.781 27.9253 322.888 27.52C322.995 27.104 323.048 26.5813 323.048 25.952V23.984C322.888 24.2507 322.648 24.4693 322.328 24.64C322.019 24.8 321.629 24.88 321.16 24.88C320.445 24.88 319.885 24.7253 319.48 24.416C319.075 24.096 318.787 23.6587 318.616 23.104C318.456 22.5387 318.376 21.8827 318.376 21.136C318.376 20.3467 318.483 19.6373 318.696 19.008C318.909 18.368 319.251 17.8613 319.72 17.488C320.2 17.1147 320.824 16.928 321.592 16.928C322.339 16.928 322.947 17.12 323.416 17.504C323.885 17.8773 324.227 18.384 324.44 19.024C324.664 19.664 324.776 20.3787 324.776 21.168V25.52C324.776 26.352 324.68 27.12 324.488 27.824C324.296 28.528 323.971 29.0933 323.512 29.52C323.053 29.936 322.413 30.144 321.592 30.144ZM321.592 23.584C321.965 23.584 322.269 23.4933 322.504 23.312C322.739 23.12 322.92 22.912 323.048 22.688V20.768C323.048 20.32 323.005 19.9147 322.92 19.552C322.835 19.1787 322.685 18.8853 322.472 18.672C322.259 18.448 321.965 18.336 321.592 18.336C321.219 18.336 320.92 18.448 320.696 18.672C320.483 18.896 320.328 19.1893 320.232 19.552C320.147 19.904 320.104 20.2933 320.104 20.72C320.104 21.232 320.125 21.7067 320.168 22.144C320.221 22.5813 320.349 22.9333 320.552 23.2C320.765 23.456 321.112 23.584 321.592 23.584ZM329.847 30.144C329.111 30.144 328.503 29.9787 328.023 29.648C327.554 29.3173 327.202 28.864 326.967 28.288C326.743 27.712 326.631 27.056 326.631 26.32V20.736C326.631 19.9787 326.743 19.3173 326.967 18.752C327.191 18.176 327.538 17.728 328.007 17.408C328.487 17.088 329.1 16.928 329.847 16.928C330.594 16.928 331.202 17.088 331.671 17.408C332.14 17.728 332.487 18.176 332.711 18.752C332.935 19.3173 333.047 19.9787 333.047 20.736V26.32C333.047 27.0667 332.93 27.728 332.695 28.304C332.471 28.88 332.124 29.3333 331.655 29.664C331.186 29.984 330.583 30.144 329.847 30.144ZM329.847 28.736C330.252 28.736 330.556 28.6187 330.759 28.384C330.972 28.1493 331.116 27.8507 331.191 27.488C331.276 27.1147 331.319 26.7307 331.319 26.336V20.72C331.319 20.304 331.282 19.9147 331.207 19.552C331.132 19.1787 330.988 18.88 330.775 18.656C330.572 18.432 330.263 18.32 329.847 18.32C329.431 18.32 329.116 18.432 328.903 18.656C328.69 18.88 328.546 19.1787 328.471 19.552C328.396 19.9147 328.359 20.304 328.359 20.72V26.336C328.359 26.7307 328.396 27.1147 328.471 27.488C328.556 27.8507 328.706 28.1493 328.919 28.384C329.143 28.6187 329.452 28.736 329.847 28.736ZM338.113 30.144C337.377 30.144 336.769 29.9787 336.289 29.648C335.819 29.3173 335.467 28.864 335.233 28.288C335.009 27.712 334.897 27.056 334.897 26.32V20.736C334.897 19.9787 335.009 19.3173 335.233 18.752C335.457 18.176 335.803 17.728 336.273 17.408C336.753 17.088 337.366 16.928 338.113 16.928C338.859 16.928 339.467 17.088 339.937 17.408C340.406 17.728 340.753 18.176 340.977 18.752C341.201 19.3173 341.313 19.9787 341.313 20.736V26.32C341.313 27.0667 341.195 27.728 340.961 28.304C340.737 28.88 340.39 29.3333 339.921 29.664C339.451 29.984 338.849 30.144 338.113 30.144ZM338.113 28.736C338.518 28.736 338.822 28.6187 339.025 28.384C339.238 28.1493 339.382 27.8507 339.457 27.488C339.542 27.1147 339.585 26.7307 339.585 26.336V20.72C339.585 20.304 339.547 19.9147 339.473 19.552C339.398 19.1787 339.254 18.88 339.041 18.656C338.838 18.432 338.529 18.32 338.113 18.32C337.697 18.32 337.382 18.432 337.169 18.656C336.955 18.88 336.811 19.1787 336.737 19.552C336.662 19.9147 336.625 20.304 336.625 20.72V26.336C336.625 26.7307 336.662 27.1147 336.737 27.488C336.822 27.8507 336.971 28.1493 337.185 28.384C337.409 28.6187 337.718 28.736 338.113 28.736Z" fill="white"/>
<line x1="291.85" y1="30.5229" x2="342.85" y2="14.5229" stroke="white"/>
<defs>
<filter id="filter0_d_263_4" x="0" y="0" width="363" height="92.4734" filterUnits="userSpaceOnUse" color-interpolation-filters="sRGB">
<feFlood flood-opacity="0" result="BackgroundImageFix"/>
<feColorMatrix in="SourceAlpha" type="matrix" values="0 0 0 0 0 0 0 0 0 0 0 0 0 0 0 0 0 0 127 0" result="hardAlpha"/>
<feOffset dy="4"/>
<feGaussianBlur stdDeviation="1.5"/>
<feComposite in2="hardAlpha" operator="out"/>
<feColorMatrix type="matrix" values="0 0 0 0 0.0588235 0 0 0 0 0.0901961 0 0 0 0 0.133333 0 0 0 0.28 0"/>
<feBlend mode="normal" in2="BackgroundImageFix" result="effect1_dropShadow_263_4"/>
<feBlend mode="normal" in="SourceGraphic" in2="effect1_dropShadow_263_4" result="shape"/>
</filter>
<filter id="filter1_i_263_4" x="20.1816" y="36.842" width="15.2729" height="15.7894" filterUnits="userSpaceOnUse" color-interpolation-filters="sRGB">
<feFlood flood-opacity="0" result="BackgroundImageFix"/>
<feBlend mode="normal" in="SourceGraphic" in2="BackgroundImageFix" result="shape"/>
<feColorMatrix in="SourceAlpha" type="matrix" values="0 0 0 0 0 0 0 0 0 0 0 0 0 0 0 0 0 0 127 0" result="hardAlpha"/>
<feOffset dy="4"/>
<feGaussianBlur stdDeviation="2"/>
<feComposite in2="hardAlpha" operator="arithmetic" k2="-1" k3="1"/>
<feColorMatrix type="matrix" values="0 0 0 0 0.0588235 0 0 0 0 0.0901961 0 0 0 0 0.133333 0 0 0 0.29 0"/>
<feBlend mode="normal" in2="shape" result="effect1_innerShadow_263_4"/>
</filter>
</defs>
</svg>
