<svg width="193" height="65" viewBox="0 0 193 65" fill="none" xmlns="http://www.w3.org/2000/svg">
<g filter="url(#filter0_d_60_162)">
<path d="M35 0L190 0V58L35 58L3 30.5L35 0Z" fill="#C21919"/>
<path d="M39.7005 5.05086L41.1979 3.68362L41.535 4.05285L42.1405 3.5H42.9538V3H44.9684V3.5H46.983V3H48.9977V3.5H51.0123V3L53.0269 3V3.5L55.0416 3.5V3H57.0562V3.5H59.0708V3H61.0854V3.5H63.1001V3H65.1147V3.5L67.1293 3.5V3L69.144 3V3.5H71.1586V3H73.1732V3.5H75.1879V3H77.2025V3.5H79.2171V3H81.2318V3.5H83.2464V3L85.261 3V3.5L87.2757 3.5V3H89.2903V3.5H91.3049V3H93.3196V3.5H95.3342V3H97.3488V3.5L99.3635 3.5V3L101.378 3V3.5H103.393V3H105.407V3.5H107.422V3H109.437V3.5H111.451V3H113.466V3.5H115.481V3L117.495 3V3.5L119.51 3.5V3H121.524V3.5H123.539V3H125.554V3.5H127.568V3H129.583V3.5L131.598 3.5V3L133.612 3V3.5H135.627V3H137.642V3.5H139.656V3H141.671V3.5H143.685V3H145.7V3.5H147.715V3L149.729 3V3.5L151.744 3.5V3H153.759V3.5H155.773V3H157.788V3.5H159.802V3H161.817V3.5L163.832 3.5V3L165.846 3V3.5H167.861V3H169.876V3.5H171.89V3H173.905V3.5H175.92V3H177.934V3.5H179.949V3L181.963 3V3.5L183.978 3.5V3H185.993V3.5H186.5V4H187V6H186.5V8H187V10H186.5V12H187V14H186.5V16H187V18H186.5V20H187V22H186.5V24H187V26H186.5V28H187V30H186.5V32H187V34H186.5V36H187V38H186.5V40H187V42H186.5V44H187V46H186.5V48H187V50H186.5V52H187V54H186.5V54.5H185.993V55H183.978V54.5H181.964V55H179.949V54.5H177.934V55H175.92V54.5H173.905V55H171.89V54.5H169.876V55H167.861V54.5H165.846V55H163.832V54.5H161.817V55H159.803V54.5H157.788V55H155.773V54.5H153.759V55H151.744V54.5H149.729V55H147.715V54.5H145.7V55H143.685V54.5H141.671V55L139.656 55V54.5H137.642V55H135.627V54.5H133.612V55H131.598V54.5H129.583V55H127.568V54.5H125.554V55H123.539V54.5H121.525V55H119.51V54.5H117.495V55H115.481V54.5H113.466V55H111.451V54.5H109.437V55H107.422V54.5H105.407V55H103.393V54.5H101.378V55H99.3635V54.5H97.3489V55H95.3343V54.5H93.3196V55H91.305V54.5H89.2904V55H87.2757V54.5H85.2611V55H83.2465V54.5H81.2318V55H79.2172V54.5H77.2026V55H75.1879V54.5H73.1733V55H71.1587V54.5H69.144V55H67.1294V54.5H65.1148V55H63.1002V54.5H61.0855V55H59.0709V54.5H57.0563V55H55.0416V54.5H53.027V55H51.0124V54.5H48.9977V55H46.9831V54.5H44.9685V55H42.9538V54.5H42.1259L41.5157 53.9976L41.1979 54.3836L39.7005 53.1509L40.0183 52.7649L38.521 51.5321L38.2032 51.9181L36.7059 50.6853L37.0237 50.2993L35.5264 49.0666L35.2086 49.4526L33.7112 48.2198L34.029 47.8338L32.5317 46.6011L32.2139 46.9871L30.7166 45.7543L31.0344 45.3683L29.5371 44.1355L29.2193 44.5216L27.7219 43.2888L28.0397 42.9028L26.5424 41.67L26.2246 42.056L24.7273 40.8233L25.0451 40.4373L23.5477 39.2045L23.2299 39.5905L21.7326 38.3578L22.0504 37.9718L20.5531 36.739L20.2353 37.125L18.738 35.8922L19.0558 35.5062L17.5584 34.2735L17.2406 34.6595L15.7433 33.4267L16.0611 33.0407L14.5638 31.808L14.246 32.194L12.7487 30.9612L13.0665 30.5752L12.7629 30.3253L13.0858 30.0304L12.7487 29.6612L14.246 28.294L14.5831 28.6632L16.0805 27.296L15.7433 26.9267L17.2406 25.5595L17.5778 25.9287L19.0751 24.5615L18.738 24.1922L20.2353 22.825L20.5724 23.1942L22.0698 21.827L21.7326 21.4578L23.2299 20.0905L23.5671 20.4597L25.0644 19.0925L24.7273 18.7233L26.2246 17.356L26.5617 17.7253L28.0591 16.358L27.7219 15.9888L29.2192 14.6216L29.5564 14.9908L31.0537 13.6235L30.7166 13.2543L32.2139 11.8871L32.5511 12.2563L34.0484 10.8891L33.7112 10.5198L35.2086 9.15259L35.5457 9.52182L37.043 8.15457L36.7059 7.78535L38.2032 6.4181L38.5404 6.78733L40.0377 5.42009L39.7005 5.05086Z" stroke="white" stroke-dasharray="2 2"/>
<g filter="url(#filter1_i_60_162)">
<circle cx="16" cy="29" r="4" fill="#ABA7A7"/>
</g>
</g>
<path d="M46.112 40.192C45.088 40.192 44.28 39.984 43.688 39.568C43.096 39.152 42.672 38.56 42.416 37.792C42.176 37.024 42.056 36.12 42.056 35.08V31.048C42.056 30.008 42.176 29.104 42.416 28.336C42.672 27.568 43.096 26.976 43.688 26.56C44.28 26.144 45.088 25.936 46.112 25.936C47.136 25.936 47.936 26.144 48.512 26.56C49.104 26.976 49.52 27.568 49.76 28.336C50.016 29.104 50.144 30.008 50.144 31.048V35.08C50.144 36.12 50.016 37.024 49.76 37.792C49.52 38.56 49.104 39.152 48.512 39.568C47.936 39.984 47.136 40.192 46.112 40.192ZM46.112 38.296C46.608 38.296 46.952 38.152 47.144 37.864C47.352 37.576 47.472 37.2 47.504 36.736C47.552 36.256 47.576 35.76 47.576 35.248V30.904C47.576 30.376 47.552 29.88 47.504 29.416C47.472 28.952 47.352 28.576 47.144 28.288C46.952 27.984 46.608 27.832 46.112 27.832C45.616 27.832 45.264 27.984 45.056 28.288C44.848 28.576 44.72 28.952 44.672 29.416C44.64 29.88 44.624 30.376 44.624 30.904V35.248C44.624 35.76 44.64 36.256 44.672 36.736C44.72 37.2 44.848 37.576 45.056 37.864C45.264 38.152 45.616 38.296 46.112 38.296ZM53.8638 40V28.048H51.2718V26.128H59.0478V28.048H56.4318V40H53.8638ZM71.3891 40V34.792H65.7491V32.104L70.8131 20.56H73.8371V32.512H76.0211V34.792H73.8371V40H71.3891ZM68.2211 32.512H71.3891V23.68L68.2211 32.512ZM82.2706 40.216C81.2626 40.216 80.3986 40.032 79.6786 39.664C78.9746 39.28 78.4386 38.728 78.0706 38.008C77.7026 37.288 77.5106 36.416 77.4946 35.392C77.4946 35.36 77.4946 35.328 77.4946 35.296C77.4946 35.248 77.4946 35.208 77.4946 35.176H80.0626C80.0626 36.104 80.2146 36.824 80.5186 37.336C80.8226 37.832 81.4146 38.08 82.2946 38.08C82.7746 38.08 83.1746 37.936 83.4946 37.648C83.8146 37.344 84.0546 36.888 84.2146 36.28C84.3746 35.656 84.4546 34.872 84.4546 33.928V30.976C84.2146 31.376 83.8546 31.704 83.3746 31.96C82.9106 32.2 82.3266 32.32 81.6226 32.32C80.5506 32.32 79.7106 32.088 79.1026 31.624C78.4946 31.144 78.0626 30.488 77.8066 29.656C77.5666 28.808 77.4466 27.824 77.4466 26.704C77.4466 25.52 77.6066 24.456 77.9266 23.512C78.2466 22.552 78.7586 21.792 79.4626 21.232C80.1826 20.672 81.1186 20.392 82.2706 20.392C83.3906 20.392 84.3026 20.68 85.0066 21.256C85.7106 21.816 86.2226 22.576 86.5426 23.536C86.8786 24.496 87.0466 25.568 87.0466 26.752V33.28C87.0466 34.528 86.9026 35.68 86.6146 36.736C86.3266 37.792 85.8386 38.64 85.1506 39.28C84.4626 39.904 83.5026 40.216 82.2706 40.216ZM82.2706 30.376C82.8306 30.376 83.2866 30.24 83.6386 29.968C83.9906 29.68 84.2626 29.368 84.4546 29.032V26.152C84.4546 25.48 84.3906 24.872 84.2626 24.328C84.1346 23.768 83.9106 23.328 83.5906 23.008C83.2706 22.672 82.8306 22.504 82.2706 22.504C81.7106 22.504 81.2626 22.672 80.9266 23.008C80.6066 23.344 80.3746 23.784 80.2306 24.328C80.1026 24.856 80.0386 25.44 80.0386 26.08C80.0386 26.848 80.0706 27.56 80.1346 28.216C80.2146 28.872 80.4066 29.4 80.7106 29.8C81.0306 30.184 81.5506 30.376 82.2706 30.376ZM99.8019 40.216C98.7939 40.216 97.9299 40.032 97.2099 39.664C96.5059 39.28 95.9699 38.728 95.6019 38.008C95.2339 37.288 95.0419 36.416 95.0259 35.392C95.0259 35.36 95.0259 35.328 95.0259 35.296C95.0259 35.248 95.0259 35.208 95.0259 35.176H97.5939C97.5939 36.104 97.7459 36.824 98.0499 37.336C98.3539 37.832 98.9459 38.08 99.8259 38.08C100.306 38.08 100.706 37.936 101.026 37.648C101.346 37.344 101.586 36.888 101.746 36.28C101.906 35.656 101.986 34.872 101.986 33.928V30.976C101.746 31.376 101.386 31.704 100.906 31.96C100.442 32.2 99.8579 32.32 99.1539 32.32C98.0819 32.32 97.2419 32.088 96.6339 31.624C96.0259 31.144 95.5939 30.488 95.3379 29.656C95.0979 28.808 94.9779 27.824 94.9779 26.704C94.9779 25.52 95.1379 24.456 95.4579 23.512C95.7779 22.552 96.2899 21.792 96.9939 21.232C97.7139 20.672 98.6499 20.392 99.8019 20.392C100.922 20.392 101.834 20.68 102.538 21.256C103.242 21.816 103.754 22.576 104.074 23.536C104.41 24.496 104.578 25.568 104.578 26.752V33.28C104.578 34.528 104.434 35.68 104.146 36.736C103.858 37.792 103.37 38.64 102.682 39.28C101.994 39.904 101.034 40.216 99.8019 40.216ZM99.8019 30.376C100.362 30.376 100.818 30.24 101.17 29.968C101.522 29.68 101.794 29.368 101.986 29.032V26.152C101.986 25.48 101.922 24.872 101.794 24.328C101.666 23.768 101.442 23.328 101.122 23.008C100.802 22.672 100.362 22.504 99.8019 22.504C99.2419 22.504 98.7939 22.672 98.4579 23.008C98.1379 23.344 97.9059 23.784 97.7619 24.328C97.6339 24.856 97.5699 25.44 97.5699 26.08C97.5699 26.848 97.6019 27.56 97.6659 28.216C97.7459 28.872 97.9379 29.4 98.2419 29.8C98.5619 30.184 99.0819 30.376 99.8019 30.376ZM112.185 40.216C111.081 40.216 110.169 39.968 109.449 39.472C108.745 38.976 108.217 38.296 107.865 37.432C107.529 36.568 107.361 35.584 107.361 34.48V26.104C107.361 24.968 107.529 23.976 107.865 23.128C108.201 22.264 108.721 21.592 109.425 21.112C110.145 20.632 111.065 20.392 112.185 20.392C113.305 20.392 114.217 20.632 114.921 21.112C115.625 21.592 116.145 22.264 116.481 23.128C116.817 23.976 116.985 24.968 116.985 26.104V34.48C116.985 35.6 116.809 36.592 116.457 37.456C116.121 38.32 115.601 39 114.897 39.496C114.193 39.976 113.289 40.216 112.185 40.216ZM112.185 38.104C112.793 38.104 113.249 37.928 113.553 37.576C113.873 37.224 114.089 36.776 114.201 36.232C114.329 35.672 114.393 35.096 114.393 34.504V26.08C114.393 25.456 114.337 24.872 114.225 24.328C114.113 23.768 113.897 23.32 113.577 22.984C113.273 22.648 112.809 22.48 112.185 22.48C111.561 22.48 111.089 22.648 110.769 22.984C110.449 23.32 110.233 23.768 110.121 24.328C110.009 24.872 109.953 25.456 109.953 26.08V34.504C109.953 35.096 110.009 35.672 110.121 36.232C110.249 36.776 110.473 37.224 110.793 37.576C111.129 37.928 111.593 38.104 112.185 38.104ZM124.583 40.216C123.479 40.216 122.567 39.968 121.847 39.472C121.143 38.976 120.615 38.296 120.263 37.432C119.927 36.568 119.759 35.584 119.759 34.48V26.104C119.759 24.968 119.927 23.976 120.263 23.128C120.599 22.264 121.119 21.592 121.823 21.112C122.543 20.632 123.463 20.392 124.583 20.392C125.703 20.392 126.615 20.632 127.319 21.112C128.023 21.592 128.543 22.264 128.879 23.128C129.215 23.976 129.383 24.968 129.383 26.104V34.48C129.383 35.6 129.207 36.592 128.855 37.456C128.519 38.32 127.999 39 127.295 39.496C126.591 39.976 125.687 40.216 124.583 40.216ZM124.583 38.104C125.191 38.104 125.647 37.928 125.951 37.576C126.271 37.224 126.487 36.776 126.599 36.232C126.727 35.672 126.791 35.096 126.791 34.504V26.08C126.791 25.456 126.735 24.872 126.623 24.328C126.511 23.768 126.295 23.32 125.975 22.984C125.671 22.648 125.207 22.48 124.583 22.48C123.959 22.48 123.487 22.648 123.167 22.984C122.847 23.32 122.631 23.768 122.519 24.328C122.407 24.872 122.351 25.456 122.351 26.08V34.504C122.351 35.096 122.407 35.672 122.519 36.232C122.647 36.776 122.871 37.224 123.191 37.576C123.527 37.928 123.991 38.104 124.583 38.104ZM139.106 40V28.048H136.514V26.128L144.29 26.128V28.048H141.674V40H139.106ZM145.843 40V26.128H151.435V27.976H148.411V40H145.843ZM152.204 40L157.436 20.56H159.668L154.412 40H152.204ZM161.591 40L161.735 26.128H163.631L166.703 34.648L169.799 26.128H171.695L171.839 40H169.679V31.72L167.111 38.632H166.319L163.751 31.768V40H161.591ZM174.918 29.608V28.144L177.894 24.904C178.374 24.392 178.75 23.96 179.022 23.608C179.31 23.24 179.51 22.912 179.622 22.624C179.75 22.336 179.814 22.048 179.814 21.76C179.814 21.28 179.702 20.912 179.478 20.656C179.254 20.384 178.91 20.248 178.446 20.248C177.838 20.248 177.406 20.448 177.15 20.848C176.91 21.232 176.79 21.8 176.79 22.552H174.894V22.216C174.894 21.512 175.014 20.88 175.254 20.32C175.494 19.744 175.87 19.288 176.382 18.952C176.91 18.616 177.598 18.448 178.446 18.448C179.486 18.448 180.302 18.736 180.894 19.312C181.486 19.872 181.782 20.648 181.782 21.64C181.782 22.44 181.59 23.144 181.206 23.752C180.838 24.344 180.254 25.048 179.454 25.864L177.462 27.928H181.902V29.608H174.918Z" fill="white"/>
<defs>
<filter id="filter0_d_60_162" x="0" y="0" width="193" height="65" filterUnits="userSpaceOnUse" color-interpolation-filters="sRGB">
<feFlood flood-opacity="0" result="BackgroundImageFix"/>
<feColorMatrix in="SourceAlpha" type="matrix" values="0 0 0 0 0 0 0 0 0 0 0 0 0 0 0 0 0 0 127 0" result="hardAlpha"/>
<feOffset dy="4"/>
<feGaussianBlur stdDeviation="1.5"/>
<feComposite in2="hardAlpha" operator="out"/>
<feColorMatrix type="matrix" values="0 0 0 0 0.0588235 0 0 0 0 0.0901961 0 0 0 0 0.133333 0 0 0 0.28 0"/>
<feBlend mode="normal" in2="BackgroundImageFix" result="effect1_dropShadow_60_162"/>
<feBlend mode="normal" in="SourceGraphic" in2="effect1_dropShadow_60_162" result="shape"/>
</filter>
<filter id="filter1_i_60_162" x="12" y="25" width="8" height="12" filterUnits="userSpaceOnUse" color-interpolation-filters="sRGB">
<feFlood flood-opacity="0" result="BackgroundImageFix"/>
<feBlend mode="normal" in="SourceGraphic" in2="BackgroundImageFix" result="shape"/>
<feColorMatrix in="SourceAlpha" type="matrix" values="0 0 0 0 0 0 0 0 0 0 0 0 0 0 0 0 0 0 127 0" result="hardAlpha"/>
<feOffset dy="4"/>
<feGaussianBlur stdDeviation="2"/>
<feComposite in2="hardAlpha" operator="arithmetic" k2="-1" k3="1"/>
<feColorMatrix type="matrix" values="0 0 0 0 0.0588235 0 0 0 0 0.0901961 0 0 0 0 0.133333 0 0 0 0.29 0"/>
<feBlend mode="normal" in2="shape" result="effect1_innerShadow_60_162"/>
</filter>
</defs>
</svg>
