<svg width="167" height="65" viewBox="0 0 167 65" fill="none" xmlns="http://www.w3.org/2000/svg">
<g filter="url(#filter0_d_60_184)">
<path d="M30.5037 0L163.725 0V58L30.5037 58L3 30.5L30.5037 0Z" fill="#C21919"/>
<path d="M34.3293 5.27874L35.7592 3.75958L36.1233 4.10228L36.6902 3.5H37.4796V3L39.4905 3V3.5H41.5013V3H43.5121V3.5H45.523V3L47.5338 3V3.5H49.5447V3H51.5555V3.5L53.5663 3.5V3L55.5772 3V3.5H57.588V3H59.5989V3.5H61.6097V3L63.6205 3V3.5H65.6314V3H67.6422V3.5L69.6531 3.5V3H71.6639V3.5H73.6748V3H75.6856V3.5H77.6964V3H79.7073V3.5H81.7181V3H83.729V3.5L85.7398 3.5V3H87.7506V3.5H89.7615V3H91.7723V3.5L93.7832 3.5V3H95.794V3.5H97.8049V3H99.8157V3.5L101.827 3.5V3H103.837V3.5H105.848V3H107.859V3.5L109.87 3.5V3H111.881V3.5H113.892V3H115.902V3.5L117.913 3.5V3H119.924V3.5H121.935V3H123.946V3.5L125.957 3.5V3H127.968V3.5H129.978V3H131.989V3.5H134V3H136.011V3.5H138.022V3H140.033V3.5L142.043 3.5V3H144.054V3.5H146.065V3L148.076 3V3.5H150.087V3H152.098V3.5H154.109V3L156.119 3V3.5L158.13 3.5V3H160.141V3.5H160.646V4H161.146V6H160.646V8H161.146V10H160.646V12H161.146V14H160.646V16H161.146V18H160.646V20H161.146V22H160.646V24H161.146V26H160.646V28H161.146V30H160.646V32H161.146V34H160.646V36H161.146V38H160.646V40H161.146V42H160.646V44H161.146V46H160.646V48H161.146V50H160.646V52H161.146V54H160.646V54.5H160.141V55H158.13V54.5H156.119V55H154.108V54.5H152.098V55H150.087V54.5H148.076V55H146.065V54.5H144.054V55H142.043V54.5H140.033V55H138.022V54.5H136.011V55H134V54.5H131.989V55H129.978V54.5H127.968V55H125.957V54.5H123.946V55H121.935V54.5H119.924V55H117.913V54.5H115.902V55H113.892V54.5H111.881V55H109.87V54.5H107.859V55H105.848V54.5H103.837V55H101.827V54.5H99.8157V55H97.8049V54.5H95.7941V55H93.7832V54.5H91.7724V55H89.7615V54.5H87.7507V55H85.7398V54.5H83.729V55H81.7181V54.5H79.7073V55H77.6964V54.5H75.6856V55H73.6748V54.5L71.6639 54.5V55H69.6531V54.5H67.6422V55H65.6314V54.5H63.6205V55H61.6097V54.5H59.5988V55H57.588V54.5H55.5772V55H53.5663V54.5H51.5555V55H49.5446V54.5H47.5338V55H45.5229V54.5H43.5121V55H41.5013V54.5H39.4904V55H37.4796V54.5H36.675L36.1051 53.9541L35.7592 54.3151L34.3292 52.9454L34.6751 52.5843L33.2452 51.2146L32.8993 51.5757L31.4694 50.2059L31.8153 49.8449L30.3853 48.4751L30.0394 48.8362L28.6095 47.4665L28.9554 47.1054L27.5255 45.7357L27.1796 46.0967L25.7497 44.727L26.0955 44.3659L24.6656 42.9962L24.3197 43.3573L22.8898 41.9875L23.2357 41.6265L21.8057 40.2567L21.4599 40.6178L20.0299 39.2481L20.3758 38.887L18.9459 37.5173L18.6 37.8784L17.1701 36.5086L17.5159 36.1475L16.086 34.7778L15.7401 35.1389L14.3102 33.7692L14.6561 33.4081L13.2261 32.0384L12.8803 32.3994L11.4503 31.0297L11.7962 30.6686L11.4392 30.3266L11.8144 29.928L11.4503 29.5853L12.8802 28.0661L13.2443 28.4088L14.6743 26.8896L14.3102 26.5469L15.7401 25.0278L16.1042 25.3705L17.5341 23.8513L17.17 23.5086L18.6 21.9895L18.9641 22.3322L20.394 20.813L20.0299 20.4703L21.4599 18.9512L21.8239 19.2938L23.2539 17.7747L22.8898 17.432L24.3197 15.9128L24.6838 16.2555L26.1137 14.7364L25.7497 14.3937L27.1796 12.8745L27.5437 13.2172L28.9736 11.6981L28.6095 11.3554L30.0394 9.83621L30.4035 10.1789L31.8335 8.65975L31.4694 8.31705L32.8993 6.79789L33.2634 7.14059L34.6933 5.62144L34.3293 5.27874Z" stroke="white" stroke-dasharray="2 2"/>
<g filter="url(#filter1_i_60_184)">
<ellipse cx="14.1733" cy="29" rx="3.43797" ry="4" fill="#ABA7A7"/>
</g>
</g>
<path d="M46.978 36.8449C46.21 36.8449 45.604 36.6889 45.16 36.3769C44.716 36.0649 44.398 35.6209 44.206 35.0449C44.026 34.4689 43.936 33.7909 43.936 33.0109V29.9869C43.936 29.2069 44.026 28.5289 44.206 27.9529C44.398 27.3769 44.716 26.9329 45.16 26.6209C45.604 26.3089 46.21 26.1529 46.978 26.1529C47.746 26.1529 48.346 26.3089 48.778 26.6209C49.222 26.9329 49.534 27.3769 49.714 27.9529C49.906 28.5289 50.002 29.2069 50.002 29.9869V33.0109C50.002 33.7909 49.906 34.4689 49.714 35.0449C49.534 35.6209 49.222 36.0649 48.778 36.3769C48.346 36.6889 47.746 36.8449 46.978 36.8449ZM46.978 35.4229C47.35 35.4229 47.608 35.3149 47.752 35.0989C47.908 34.8829 47.998 34.6009 48.022 34.2529C48.058 33.8929 48.076 33.5209 48.076 33.1369V29.8789C48.076 29.4829 48.058 29.1109 48.022 28.7629C47.998 28.4149 47.908 28.1329 47.752 27.9169C47.608 27.6889 47.35 27.5749 46.978 27.5749C46.606 27.5749 46.342 27.6889 46.186 27.9169C46.03 28.1329 45.934 28.4149 45.898 28.7629C45.874 29.1109 45.862 29.4829 45.862 29.8789V33.1369C45.862 33.5209 45.874 33.8929 45.898 34.2529C45.934 34.6009 46.03 34.8829 46.186 35.0989C46.342 35.3149 46.606 35.4229 46.978 35.4229ZM52.7919 36.7009V27.7369H50.8479V26.2969H56.6799V27.7369H54.7179V36.7009H52.7919ZM65.9358 36.7009V32.7949H61.7058V30.7789L65.5038 22.1209H67.7718V31.0849H69.4098V32.7949H67.7718V36.7009H65.9358ZM63.5598 31.0849H65.9358V24.4609L63.5598 31.0849ZM74.097 36.8629C73.341 36.8629 72.693 36.7249 72.153 36.4489C71.625 36.1609 71.223 35.7469 70.947 35.2069C70.671 34.6669 70.527 34.0129 70.515 33.2449C70.515 33.2209 70.515 33.1969 70.515 33.1729C70.515 33.1369 70.515 33.1069 70.515 33.0829H72.441C72.441 33.7789 72.555 34.3189 72.783 34.7029C73.011 35.0749 73.455 35.2609 74.115 35.2609C74.475 35.2609 74.775 35.1529 75.015 34.9369C75.255 34.7089 75.435 34.3669 75.555 33.9109C75.675 33.4429 75.735 32.8549 75.735 32.1469V29.9329C75.555 30.2329 75.285 30.4789 74.925 30.6709C74.577 30.8509 74.139 30.9409 73.611 30.9409C72.807 30.9409 72.177 30.7669 71.721 30.4189C71.265 30.0589 70.941 29.5669 70.749 28.9429C70.569 28.3069 70.479 27.5689 70.479 26.7289C70.479 25.8409 70.599 25.0429 70.839 24.3349C71.079 23.6149 71.463 23.0449 71.991 22.6249C72.531 22.2049 73.233 21.9949 74.097 21.9949C74.937 21.9949 75.621 22.2109 76.149 22.6429C76.677 23.0629 77.061 23.6329 77.301 24.3529C77.553 25.0729 77.679 25.8769 77.679 26.7649V31.6609C77.679 32.5969 77.571 33.4609 77.355 34.2529C77.139 35.0449 76.773 35.6809 76.257 36.1609C75.741 36.6289 75.021 36.8629 74.097 36.8629ZM74.097 29.4829C74.517 29.4829 74.859 29.3809 75.123 29.1769C75.387 28.9609 75.591 28.7269 75.735 28.4749V26.3149C75.735 25.8109 75.687 25.3549 75.591 24.9469C75.495 24.5269 75.327 24.1969 75.087 23.9569C74.847 23.7049 74.517 23.5789 74.097 23.5789C73.677 23.5789 73.341 23.7049 73.089 23.9569C72.849 24.2089 72.675 24.5389 72.567 24.9469C72.471 25.3429 72.423 25.7809 72.423 26.2609C72.423 26.8369 72.447 27.3709 72.495 27.8629C72.555 28.3549 72.699 28.7509 72.927 29.0509C73.167 29.3389 73.557 29.4829 74.097 29.4829ZM87.2454 36.8629C86.4894 36.8629 85.8414 36.7249 85.3014 36.4489C84.7734 36.1609 84.3714 35.7469 84.0954 35.2069C83.8194 34.6669 83.6754 34.0129 83.6634 33.2449C83.6634 33.2209 83.6634 33.1969 83.6634 33.1729C83.6634 33.1369 83.6634 33.1069 83.6634 33.0829H85.5894C85.5894 33.7789 85.7034 34.3189 85.9314 34.7029C86.1594 35.0749 86.6034 35.2609 87.2634 35.2609C87.6234 35.2609 87.9234 35.1529 88.1634 34.9369C88.4034 34.7089 88.5834 34.3669 88.7034 33.9109C88.8234 33.4429 88.8834 32.8549 88.8834 32.1469V29.9329C88.7034 30.2329 88.4334 30.4789 88.0734 30.6709C87.7254 30.8509 87.2874 30.9409 86.7594 30.9409C85.9554 30.9409 85.3254 30.7669 84.8694 30.4189C84.4134 30.0589 84.0894 29.5669 83.8974 28.9429C83.7174 28.3069 83.6274 27.5689 83.6274 26.7289C83.6274 25.8409 83.7474 25.0429 83.9874 24.3349C84.2274 23.6149 84.6114 23.0449 85.1394 22.6249C85.6794 22.2049 86.3814 21.9949 87.2454 21.9949C88.0854 21.9949 88.7694 22.2109 89.2974 22.6429C89.8254 23.0629 90.2094 23.6329 90.4494 24.3529C90.7014 25.0729 90.8274 25.8769 90.8274 26.7649V31.6609C90.8274 32.5969 90.7194 33.4609 90.5034 34.2529C90.2874 35.0449 89.9214 35.6809 89.4054 36.1609C88.8894 36.6289 88.1694 36.8629 87.2454 36.8629ZM87.2454 29.4829C87.6654 29.4829 88.0074 29.3809 88.2714 29.1769C88.5354 28.9609 88.7394 28.7269 88.8834 28.4749V26.3149C88.8834 25.8109 88.8354 25.3549 88.7394 24.9469C88.6434 24.5269 88.4754 24.1969 88.2354 23.9569C87.9954 23.7049 87.6654 23.5789 87.2454 23.5789C86.8254 23.5789 86.4894 23.7049 86.2374 23.9569C85.9974 24.2089 85.8234 24.5389 85.7154 24.9469C85.6194 25.3429 85.5714 25.7809 85.5714 26.2609C85.5714 26.8369 85.5954 27.3709 85.6434 27.8629C85.7034 28.3549 85.8474 28.7509 86.0754 29.0509C86.3154 29.3389 86.7054 29.4829 87.2454 29.4829ZM96.5326 36.8629C95.7046 36.8629 95.0206 36.6769 94.4806 36.3049C93.9526 35.9329 93.5566 35.4229 93.2926 34.7749C93.0406 34.1269 92.9146 33.3889 92.9146 32.5609V26.2789C92.9146 25.4269 93.0406 24.6829 93.2926 24.0469C93.5446 23.3989 93.9346 22.8949 94.4626 22.5349C95.0026 22.1749 95.6926 21.9949 96.5326 21.9949C97.3726 21.9949 98.0566 22.1749 98.5846 22.5349C99.1126 22.8949 99.5026 23.3989 99.7546 24.0469C100.007 24.6829 100.133 25.4269 100.133 26.2789V32.5609C100.133 33.4009 100.001 34.1449 99.7366 34.7929C99.4846 35.4409 99.0946 35.9509 98.5666 36.3229C98.0386 36.6829 97.3606 36.8629 96.5326 36.8629ZM96.5326 35.2789C96.9886 35.2789 97.3306 35.1469 97.5586 34.8829C97.7986 34.6189 97.9606 34.2829 98.0446 33.8749C98.1406 33.4549 98.1886 33.0229 98.1886 32.5789V26.2609C98.1886 25.7929 98.1466 25.3549 98.0626 24.9469C97.9786 24.5269 97.8166 24.1909 97.5766 23.9389C97.3486 23.6869 97.0006 23.5609 96.5326 23.5609C96.0646 23.5609 95.7106 23.6869 95.4706 23.9389C95.2306 24.1909 95.0686 24.5269 94.9846 24.9469C94.9006 25.3549 94.8586 25.7929 94.8586 26.2609V32.5789C94.8586 33.0229 94.9006 33.4549 94.9846 33.8749C95.0806 34.2829 95.2486 34.6189 95.4886 34.8829C95.7406 35.1469 96.0886 35.2789 96.5326 35.2789ZM105.831 36.8629C105.003 36.8629 104.319 36.6769 103.779 36.3049C103.251 35.9329 102.855 35.4229 102.591 34.7749C102.339 34.1269 102.213 33.3889 102.213 32.5609V26.2789C102.213 25.4269 102.339 24.6829 102.591 24.0469C102.843 23.3989 103.233 22.8949 103.761 22.5349C104.301 22.1749 104.991 21.9949 105.831 21.9949C106.671 21.9949 107.355 22.1749 107.883 22.5349C108.411 22.8949 108.801 23.3989 109.053 24.0469C109.305 24.6829 109.431 25.4269 109.431 26.2789V32.5609C109.431 33.4009 109.299 34.1449 109.035 34.7929C108.783 35.4409 108.393 35.9509 107.865 36.3229C107.337 36.6829 106.659 36.8629 105.831 36.8629ZM105.831 35.2789C106.287 35.2789 106.629 35.1469 106.857 34.8829C107.097 34.6189 107.259 34.2829 107.343 33.8749C107.439 33.4549 107.487 33.0229 107.487 32.5789V26.2609C107.487 25.7929 107.445 25.3549 107.361 24.9469C107.277 24.5269 107.115 24.1909 106.875 23.9389C106.647 23.6869 106.299 23.5609 105.831 23.5609C105.363 23.5609 105.009 23.6869 104.769 23.9389C104.529 24.1909 104.367 24.5269 104.283 24.9469C104.199 25.3549 104.157 25.7929 104.157 26.2609V32.5789C104.157 33.0229 104.199 33.4549 104.283 33.8749C104.379 34.2829 104.547 34.6189 104.787 34.8829C105.039 35.1469 105.387 35.2789 105.831 35.2789ZM116.724 36.7009V27.7369H114.78V26.2969H120.612V27.7369H118.65V36.7009H116.724ZM121.776 36.7009V26.2969H125.97V27.6829H123.702V36.7009H121.776ZM126.547 36.7009L130.471 22.1209H132.145L128.203 36.7009H126.547ZM133.587 36.7009L133.695 26.2969H135.117L137.421 32.6869L139.743 26.2969H141.165L141.273 36.7009H139.653V30.4909L137.727 35.6749H137.133L135.207 30.5269V36.7009H133.587ZM143.583 28.9069V27.8089L145.815 25.3789C146.175 24.9949 146.457 24.6709 146.661 24.4069C146.877 24.1309 147.027 23.8849 147.111 23.6689C147.207 23.4529 147.255 23.2369 147.255 23.0209C147.255 22.6609 147.171 22.3849 147.003 22.1929C146.835 21.9889 146.577 21.8869 146.229 21.8869C145.773 21.8869 145.449 22.0369 145.257 22.3369C145.077 22.6249 144.987 23.0509 144.987 23.6149H143.565V23.3629C143.565 22.8349 143.655 22.3609 143.835 21.9409C144.015 21.5089 144.297 21.1669 144.681 20.9149C145.077 20.6629 145.593 20.5369 146.229 20.5369C147.009 20.5369 147.621 20.7529 148.065 21.1849C148.509 21.6049 148.731 22.1869 148.731 22.9309C148.731 23.5309 148.587 24.0589 148.299 24.5149C148.023 24.9589 147.585 25.4869 146.985 26.0989L145.491 27.6469H148.821V28.9069H143.583Z" fill="white"/>
<defs>
<filter id="filter0_d_60_184" x="0" y="0" width="166.725" height="65" filterUnits="userSpaceOnUse" color-interpolation-filters="sRGB">
<feFlood flood-opacity="0" result="BackgroundImageFix"/>
<feColorMatrix in="SourceAlpha" type="matrix" values="0 0 0 0 0 0 0 0 0 0 0 0 0 0 0 0 0 0 127 0" result="hardAlpha"/>
<feOffset dy="4"/>
<feGaussianBlur stdDeviation="1.5"/>
<feComposite in2="hardAlpha" operator="out"/>
<feColorMatrix type="matrix" values="0 0 0 0 0.0588235 0 0 0 0 0.0901961 0 0 0 0 0.133333 0 0 0 0.28 0"/>
<feBlend mode="normal" in2="BackgroundImageFix" result="effect1_dropShadow_60_184"/>
<feBlend mode="normal" in="SourceGraphic" in2="effect1_dropShadow_60_184" result="shape"/>
</filter>
<filter id="filter1_i_60_184" x="10.7354" y="25" width="6.87598" height="12" filterUnits="userSpaceOnUse" color-interpolation-filters="sRGB">
<feFlood flood-opacity="0" result="BackgroundImageFix"/>
<feBlend mode="normal" in="SourceGraphic" in2="BackgroundImageFix" result="shape"/>
<feColorMatrix in="SourceAlpha" type="matrix" values="0 0 0 0 0 0 0 0 0 0 0 0 0 0 0 0 0 0 127 0" result="hardAlpha"/>
<feOffset dy="4"/>
<feGaussianBlur stdDeviation="2"/>
<feComposite in2="hardAlpha" operator="arithmetic" k2="-1" k3="1"/>
<feColorMatrix type="matrix" values="0 0 0 0 0.0588235 0 0 0 0 0.0901961 0 0 0 0 0.133333 0 0 0 0.29 0"/>
<feBlend mode="normal" in2="shape" result="effect1_innerShadow_60_184"/>
</filter>
</defs>
</svg>
