<svg width="214" height="65" viewBox="0 0 214 65" fill="none" xmlns="http://www.w3.org/2000/svg">
<g filter="url(#filter0_d_60_168)">
<path d="M38.4827 0L210.352 0V58L38.4827 58L3 30.5L38.4827 0Z" fill="#C21919"/>
<path d="M43.9212 4.86442L45.4306 3.62147L45.7484 4.00744L46.3646 3.5H47.1904V3H49.201V3.5H51.2115V3L53.222 3V3.5L55.2325 3.5V3H57.243V3.5H59.2535V3H61.264V3.5H63.2746V3H65.2851V3.5L67.2956 3.5V3L69.3061 3V3.5H71.3166V3H73.3271V3.5H75.3376V3H77.3481V3.5H79.3587V3H81.3692V3.5H83.3797V3L85.3902 3V3.5L87.4007 3.5V3H89.4112V3.5H91.4217V3H93.4322V3.5H95.4427V3H97.4532V3.5L99.4637 3.5V3L101.474 3V3.5H103.485V3H105.495V3.5H107.506V3H109.516V3.5H111.527V3H113.537V3.5H115.548V3L117.558 3V3.5L119.569 3.5V3H121.579V3.5H123.59V3H125.6V3.5H127.611V3H129.621V3.5L131.632 3.5V3L133.642 3V3.5H135.653V3H137.663V3.5H139.674V3H141.684V3.5H143.695V3H145.705V3.5H147.716V3L149.726 3V3.5L151.737 3.5V3H153.747V3.5H155.758V3H157.768V3.5H159.779V3H161.789V3.5L163.8 3.5V3L165.81 3V3.5H167.821V3H169.831V3.5H171.842V3H173.852V3.5H175.863V3H177.873V3.5H179.884V3L181.894 3V3.5L183.905 3.5V3H185.915V3.5H187.926V3H189.936V3.5H191.947V3H193.957V3.5L195.968 3.5V3L197.979 3V3.5H199.989V3H202V3.5H204.01V3H206.021V3.5H206.526V4H207.026V6H206.526V8H207.026V10H206.526V12H207.026V14H206.526V16H207.026V18H206.526V20H207.026V22H206.526V24H207.026V26H206.526V28H207.026V30H206.526V32H207.026V34H206.526V36H207.026V38H206.526V40H207.026V42H206.526V44H207.026V46H206.526V48H207.026V50H206.526V52H207.026V54H206.526V54.5H206.021V55H204.01V54.5H202V55H199.989V54.5H197.979V55H195.968V54.5H193.958V55H191.947V54.5H189.936V55H187.926V54.5H185.915V55H183.905V54.5H181.894V55H179.884V54.5H177.873V55H175.863V54.5H173.852V55H171.842V54.5H169.831V55H167.821V54.5H165.81V55H163.8V54.5H161.789V55H159.779V54.5H157.768V55H155.758V54.5H153.747V55H151.737V54.5H149.726V55H147.716V54.5H145.705V55H143.695V54.5H141.684V55L139.674 55V54.5H137.663V55H135.653V54.5H133.642V55H131.632V54.5H129.621V55H127.611V54.5H125.6V55H123.59V54.5H121.579V55H119.569V54.5H117.558V55H115.548V54.5H113.537V55H111.527V54.5H109.516V55H107.506V54.5H105.495V55H103.485V54.5H101.474V55H99.4637V54.5H97.4532V55H95.4427V54.5H93.4322V55H91.4217V54.5H89.4111V55H87.4006V54.5H85.3901V55H83.3796V54.5H81.3691V55H79.3586V54.5H77.3481V55H75.3376V54.5H73.3271V55H71.3166V54.5H69.3061V55H67.2956V54.5H65.2851V55H63.2746V54.5H61.2641V55H59.2536V54.5H57.2431V55H55.2325V54.5H53.222V55H51.2115V54.5H49.201V55H47.1905V54.5H46.3506L45.6532 53.9822L45.3551 54.3836L43.6948 53.1509L43.9929 52.7494L42.3326 51.5167L42.0346 51.9181L40.3743 50.6853L40.6723 50.2839L39.012 49.0511L38.714 49.4526L37.0537 48.2198L37.3518 47.8184L35.6915 46.5856L35.3934 46.9871L33.7331 45.7543L34.0312 45.3529L32.3709 44.1201L32.0728 44.5216L30.4125 43.2888L30.7106 42.8874L29.0503 41.6546L28.7522 42.056L27.0919 40.8233L27.39 40.4218L25.7297 39.1891L25.4317 39.5905L23.7714 38.3578L24.0694 37.9563L22.4091 36.7236L22.1111 37.125L20.4508 35.8922L20.7489 35.4908L19.0886 34.258L18.7905 34.6595L17.1302 33.4267L17.4283 33.0253L15.768 31.7925L15.4699 32.194L13.8096 30.9612L14.1077 30.5598L13.7908 30.3244L14.052 30.1093L13.7342 29.7233L15.2435 28.4804L15.5614 28.8664L17.0707 27.6234L16.7529 27.2375L18.2622 25.9945L18.5801 26.3805L20.0894 25.1375L19.7716 24.7516L21.2809 23.5086L21.5988 23.8946L23.1081 22.6516L22.7903 22.2657L24.2996 21.0227L24.6175 21.4087L26.1268 20.1657L25.809 19.7798L27.3184 18.5368L27.6362 18.9228L29.1456 17.6799L28.8277 17.2939L30.3371 16.0509L30.6549 16.4369L32.1643 15.194L31.8464 14.808L33.3558 13.565L33.6736 13.951L35.183 12.7081L34.8651 12.3221L36.3745 11.0792L36.6923 11.4651L38.2017 10.2222L37.8838 9.83621L39.3932 8.59326L39.711 8.97923L41.2204 7.73628L40.9025 7.35031L42.4119 6.10737L42.7297 6.49334L44.2391 5.25039L43.9212 4.86442Z" stroke="white" stroke-dasharray="2 2"/>
<g filter="url(#filter1_i_60_168)">
<ellipse cx="17.4148" cy="29" rx="4.43534" ry="4" fill="#ABA7A7"/>
</g>
</g>
<path d="M50.2477 40.192C49.2237 40.192 48.4157 39.984 47.8237 39.568C47.2317 39.152 46.8077 38.56 46.5517 37.792C46.3117 37.024 46.1917 36.12 46.1917 35.08V31.048C46.1917 30.008 46.3117 29.104 46.5517 28.336C46.8077 27.568 47.2317 26.976 47.8237 26.56C48.4157 26.144 49.2237 25.936 50.2477 25.936C51.2717 25.936 52.0717 26.144 52.6477 26.56C53.2397 26.976 53.6557 27.568 53.8957 28.336C54.1517 29.104 54.2797 30.008 54.2797 31.048V35.08C54.2797 36.12 54.1517 37.024 53.8957 37.792C53.6557 38.56 53.2397 39.152 52.6477 39.568C52.0717 39.984 51.2717 40.192 50.2477 40.192ZM50.2477 38.296C50.7437 38.296 51.0877 38.152 51.2797 37.864C51.4877 37.576 51.6077 37.2 51.6397 36.736C51.6877 36.256 51.7117 35.76 51.7117 35.248V30.904C51.7117 30.376 51.6877 29.88 51.6397 29.416C51.6077 28.952 51.4877 28.576 51.2797 28.288C51.0877 27.984 50.7437 27.832 50.2477 27.832C49.7517 27.832 49.3997 27.984 49.1917 28.288C48.9837 28.576 48.8557 28.952 48.8077 29.416C48.7757 29.88 48.7597 30.376 48.7597 30.904V35.248C48.7597 35.76 48.7757 36.256 48.8077 36.736C48.8557 37.2 48.9837 37.576 49.1917 37.864C49.3997 38.152 49.7517 38.296 50.2477 38.296ZM57.9996 40V28.048H55.4076V26.128H63.1836V28.048H60.5676V40H57.9996ZM71.1568 40L74.6608 22.576H69.4528V20.56H77.2288V21.808L73.6288 40H71.1568ZM84.0626 40.216C83.0546 40.216 82.1906 40.032 81.4706 39.664C80.7666 39.28 80.2306 38.728 79.8626 38.008C79.4946 37.288 79.3026 36.416 79.2866 35.392C79.2866 35.36 79.2866 35.328 79.2866 35.296C79.2866 35.248 79.2866 35.208 79.2866 35.176H81.8546C81.8546 36.104 82.0066 36.824 82.3106 37.336C82.6146 37.832 83.2066 38.08 84.0866 38.08C84.5666 38.08 84.9666 37.936 85.2866 37.648C85.6066 37.344 85.8466 36.888 86.0066 36.28C86.1666 35.656 86.2466 34.872 86.2466 33.928V30.976C86.0066 31.376 85.6466 31.704 85.1666 31.96C84.7026 32.2 84.1186 32.32 83.4146 32.32C82.3426 32.32 81.5026 32.088 80.8946 31.624C80.2866 31.144 79.8546 30.488 79.5986 29.656C79.3586 28.808 79.2386 27.824 79.2386 26.704C79.2386 25.52 79.3986 24.456 79.7186 23.512C80.0386 22.552 80.5506 21.792 81.2546 21.232C81.9746 20.672 82.9106 20.392 84.0626 20.392C85.1826 20.392 86.0946 20.68 86.7986 21.256C87.5026 21.816 88.0146 22.576 88.3346 23.536C88.6706 24.496 88.8386 25.568 88.8386 26.752V33.28C88.8386 34.528 88.6946 35.68 88.4066 36.736C88.1186 37.792 87.6306 38.64 86.9426 39.28C86.2546 39.904 85.2946 40.216 84.0626 40.216ZM84.0626 30.376C84.6226 30.376 85.0786 30.24 85.4306 29.968C85.7826 29.68 86.0546 29.368 86.2466 29.032V26.152C86.2466 25.48 86.1826 24.872 86.0546 24.328C85.9266 23.768 85.7026 23.328 85.3826 23.008C85.0626 22.672 84.6226 22.504 84.0626 22.504C83.5026 22.504 83.0546 22.672 82.7186 23.008C82.3986 23.344 82.1666 23.784 82.0226 24.328C81.8946 24.856 81.8306 25.44 81.8306 26.08C81.8306 26.848 81.8626 27.56 81.9266 28.216C82.0066 28.872 82.1986 29.4 82.5026 29.8C82.8226 30.184 83.3426 30.376 84.0626 30.376ZM101.594 40.216C100.586 40.216 99.7219 40.032 99.0019 39.664C98.2979 39.28 97.7619 38.728 97.3939 38.008C97.0259 37.288 96.8339 36.416 96.8179 35.392C96.8179 35.36 96.8179 35.328 96.8179 35.296C96.8179 35.248 96.8179 35.208 96.8179 35.176H99.3859C99.3859 36.104 99.5379 36.824 99.8419 37.336C100.146 37.832 100.738 38.08 101.618 38.08C102.098 38.08 102.498 37.936 102.818 37.648C103.138 37.344 103.378 36.888 103.538 36.28C103.698 35.656 103.778 34.872 103.778 33.928V30.976C103.538 31.376 103.178 31.704 102.698 31.96C102.234 32.2 101.65 32.32 100.946 32.32C99.8739 32.32 99.0339 32.088 98.4259 31.624C97.8179 31.144 97.3859 30.488 97.1299 29.656C96.8899 28.808 96.7699 27.824 96.7699 26.704C96.7699 25.52 96.9299 24.456 97.2499 23.512C97.5699 22.552 98.0819 21.792 98.7859 21.232C99.5059 20.672 100.442 20.392 101.594 20.392C102.714 20.392 103.626 20.68 104.33 21.256C105.034 21.816 105.546 22.576 105.866 23.536C106.202 24.496 106.37 25.568 106.37 26.752V33.28C106.37 34.528 106.226 35.68 105.938 36.736C105.65 37.792 105.162 38.64 104.474 39.28C103.786 39.904 102.826 40.216 101.594 40.216ZM101.594 30.376C102.154 30.376 102.61 30.24 102.962 29.968C103.314 29.68 103.586 29.368 103.778 29.032V26.152C103.778 25.48 103.714 24.872 103.586 24.328C103.458 23.768 103.234 23.328 102.914 23.008C102.594 22.672 102.154 22.504 101.594 22.504C101.034 22.504 100.586 22.672 100.25 23.008C99.9299 23.344 99.6979 23.784 99.5539 24.328C99.4259 24.856 99.3619 25.44 99.3619 26.08C99.3619 26.848 99.3939 27.56 99.4579 28.216C99.5379 28.872 99.7299 29.4 100.034 29.8C100.354 30.184 100.874 30.376 101.594 30.376ZM113.977 40.216C112.873 40.216 111.961 39.968 111.241 39.472C110.537 38.976 110.009 38.296 109.657 37.432C109.321 36.568 109.153 35.584 109.153 34.48V26.104C109.153 24.968 109.321 23.976 109.657 23.128C109.993 22.264 110.513 21.592 111.217 21.112C111.937 20.632 112.857 20.392 113.977 20.392C115.097 20.392 116.009 20.632 116.713 21.112C117.417 21.592 117.937 22.264 118.273 23.128C118.609 23.976 118.777 24.968 118.777 26.104V34.48C118.777 35.6 118.601 36.592 118.249 37.456C117.913 38.32 117.393 39 116.689 39.496C115.985 39.976 115.081 40.216 113.977 40.216ZM113.977 38.104C114.585 38.104 115.041 37.928 115.345 37.576C115.665 37.224 115.881 36.776 115.993 36.232C116.121 35.672 116.185 35.096 116.185 34.504V26.08C116.185 25.456 116.129 24.872 116.017 24.328C115.905 23.768 115.689 23.32 115.369 22.984C115.065 22.648 114.601 22.48 113.977 22.48C113.353 22.48 112.881 22.648 112.561 22.984C112.241 23.32 112.025 23.768 111.913 24.328C111.801 24.872 111.745 25.456 111.745 26.08V34.504C111.745 35.096 111.801 35.672 111.913 36.232C112.041 36.776 112.265 37.224 112.585 37.576C112.921 37.928 113.385 38.104 113.977 38.104ZM126.375 40.216C125.271 40.216 124.359 39.968 123.639 39.472C122.935 38.976 122.407 38.296 122.055 37.432C121.719 36.568 121.551 35.584 121.551 34.48V26.104C121.551 24.968 121.719 23.976 122.055 23.128C122.391 22.264 122.911 21.592 123.615 21.112C124.335 20.632 125.255 20.392 126.375 20.392C127.495 20.392 128.407 20.632 129.111 21.112C129.815 21.592 130.335 22.264 130.671 23.128C131.007 23.976 131.175 24.968 131.175 26.104V34.48C131.175 35.6 130.999 36.592 130.647 37.456C130.311 38.32 129.791 39 129.087 39.496C128.383 39.976 127.479 40.216 126.375 40.216ZM126.375 38.104C126.983 38.104 127.439 37.928 127.743 37.576C128.063 37.224 128.279 36.776 128.391 36.232C128.519 35.672 128.583 35.096 128.583 34.504V26.08C128.583 25.456 128.527 24.872 128.415 24.328C128.303 23.768 128.087 23.32 127.767 22.984C127.463 22.648 126.999 22.48 126.375 22.48C125.751 22.48 125.279 22.648 124.959 22.984C124.639 23.32 124.423 23.768 124.311 24.328C124.199 24.872 124.143 25.456 124.143 26.08V34.504C124.143 35.096 124.199 35.672 124.311 36.232C124.439 36.776 124.663 37.224 124.983 37.576C125.319 37.928 125.783 38.104 126.375 38.104ZM140.898 40V28.048H138.306V26.128L146.082 26.128V28.048H143.466V40H140.898ZM147.635 40V26.128H153.227V27.976H150.203V40H147.635ZM153.996 40L159.228 20.56H161.46L156.204 40H153.996ZM163.383 40L163.527 26.128H165.423L168.495 34.648L171.591 26.128H173.487L173.631 40H171.471V31.72L168.903 38.632H168.111L165.543 31.768V40H163.383ZM176.71 29.608V28.144L179.686 24.904C180.166 24.392 180.542 23.96 180.814 23.608C181.102 23.24 181.302 22.912 181.414 22.624C181.542 22.336 181.606 22.048 181.606 21.76C181.606 21.28 181.494 20.912 181.27 20.656C181.046 20.384 180.702 20.248 180.238 20.248C179.63 20.248 179.198 20.448 178.942 20.848C178.702 21.232 178.582 21.8 178.582 22.552H176.686V22.216C176.686 21.512 176.806 20.88 177.046 20.32C177.286 19.744 177.662 19.288 178.174 18.952C178.702 18.616 179.39 18.448 180.238 18.448C181.278 18.448 182.094 18.736 182.686 19.312C183.278 19.872 183.574 20.648 183.574 21.64C183.574 22.44 183.382 23.144 182.998 23.752C182.63 24.344 182.046 25.048 181.246 25.864L179.254 27.928H183.694V29.608H176.71Z" fill="white"/>
<defs>
<filter id="filter0_d_60_168" x="0" y="0" width="213.353" height="65" filterUnits="userSpaceOnUse" color-interpolation-filters="sRGB">
<feFlood flood-opacity="0" result="BackgroundImageFix"/>
<feColorMatrix in="SourceAlpha" type="matrix" values="0 0 0 0 0 0 0 0 0 0 0 0 0 0 0 0 0 0 127 0" result="hardAlpha"/>
<feOffset dy="4"/>
<feGaussianBlur stdDeviation="1.5"/>
<feComposite in2="hardAlpha" operator="out"/>
<feColorMatrix type="matrix" values="0 0 0 0 0.0588235 0 0 0 0 0.0901961 0 0 0 0 0.133333 0 0 0 0.28 0"/>
<feBlend mode="normal" in2="BackgroundImageFix" result="effect1_dropShadow_60_168"/>
<feBlend mode="normal" in="SourceGraphic" in2="effect1_dropShadow_60_168" result="shape"/>
</filter>
<filter id="filter1_i_60_168" x="12.9795" y="25" width="8.87061" height="12" filterUnits="userSpaceOnUse" color-interpolation-filters="sRGB">
<feFlood flood-opacity="0" result="BackgroundImageFix"/>
<feBlend mode="normal" in="SourceGraphic" in2="BackgroundImageFix" result="shape"/>
<feColorMatrix in="SourceAlpha" type="matrix" values="0 0 0 0 0 0 0 0 0 0 0 0 0 0 0 0 0 0 127 0" result="hardAlpha"/>
<feOffset dy="4"/>
<feGaussianBlur stdDeviation="2"/>
<feComposite in2="hardAlpha" operator="arithmetic" k2="-1" k3="1"/>
<feColorMatrix type="matrix" values="0 0 0 0 0.0588235 0 0 0 0 0.0901961 0 0 0 0 0.133333 0 0 0 0.29 0"/>
<feBlend mode="normal" in2="shape" result="effect1_innerShadow_60_168"/>
</filter>
</defs>
</svg>
