<svg width="167" height="65" viewBox="0 0 167 65" fill="none" xmlns="http://www.w3.org/2000/svg">
<g filter="url(#filter0_d_60_278)">
<path d="M30.5037 0L163.725 0V58L30.5037 58L3 30.5L30.5037 0Z" fill="#C21919"/>
<path d="M34.3293 5.27874L35.7592 3.75958L36.1233 4.10228L36.6902 3.5H37.4796V3L39.4905 3V3.5H41.5013V3H43.5121V3.5H45.523V3L47.5338 3V3.5H49.5447V3H51.5555V3.5L53.5663 3.5V3L55.5772 3V3.5H57.588V3H59.5989V3.5H61.6097V3L63.6205 3V3.5H65.6314V3H67.6422V3.5L69.6531 3.5V3H71.6639V3.5H73.6748V3H75.6856V3.5H77.6964V3H79.7073V3.5H81.7181V3H83.729V3.5L85.7398 3.5V3H87.7506V3.5H89.7615V3H91.7723V3.5L93.7832 3.5V3H95.794V3.5H97.8049V3H99.8157V3.5L101.827 3.5V3H103.837V3.5H105.848V3H107.859V3.5L109.87 3.5V3H111.881V3.5H113.892V3H115.902V3.5L117.913 3.5V3H119.924V3.5H121.935V3H123.946V3.5L125.957 3.5V3H127.968V3.5H129.978V3H131.989V3.5H134V3H136.011V3.5H138.022V3H140.033V3.5L142.043 3.5V3H144.054V3.5H146.065V3L148.076 3V3.5H150.087V3H152.098V3.5H154.109V3L156.119 3V3.5L158.13 3.5V3H160.141V3.5H160.646V4H161.146V6H160.646V8H161.146V10H160.646V12H161.146V14H160.646V16H161.146V18H160.646V20H161.146V22H160.646V24H161.146V26H160.646V28H161.146V30H160.646V32H161.146V34H160.646V36H161.146V38H160.646V40H161.146V42H160.646V44H161.146V46H160.646V48H161.146V50H160.646V52H161.146V54H160.646V54.5H160.141V55H158.13V54.5H156.119V55H154.108V54.5H152.098V55H150.087V54.5H148.076V55H146.065V54.5H144.054V55H142.043V54.5H140.033V55H138.022V54.5H136.011V55H134V54.5H131.989V55H129.978V54.5H127.968V55H125.957V54.5H123.946V55H121.935V54.5H119.924V55H117.913V54.5H115.902V55H113.892V54.5H111.881V55H109.87V54.5H107.859V55H105.848V54.5H103.837V55H101.827V54.5H99.8157V55H97.8049V54.5H95.7941V55H93.7832V54.5H91.7724V55H89.7615V54.5H87.7507V55H85.7398V54.5H83.729V55H81.7181V54.5H79.7073V55H77.6964V54.5H75.6856V55H73.6748V54.5L71.6639 54.5V55H69.6531V54.5H67.6422V55H65.6314V54.5H63.6205V55H61.6097V54.5H59.5988V55H57.588V54.5H55.5772V55H53.5663V54.5H51.5555V55H49.5446V54.5H47.5338V55H45.5229V54.5H43.5121V55H41.5013V54.5H39.4904V55H37.4796V54.5H36.675L36.1051 53.9541L35.7592 54.3151L34.3292 52.9454L34.6751 52.5843L33.2452 51.2146L32.8993 51.5757L31.4694 50.2059L31.8153 49.8449L30.3853 48.4751L30.0394 48.8362L28.6095 47.4665L28.9554 47.1054L27.5255 45.7357L27.1796 46.0967L25.7497 44.727L26.0955 44.3659L24.6656 42.9962L24.3197 43.3573L22.8898 41.9875L23.2357 41.6265L21.8057 40.2567L21.4599 40.6178L20.0299 39.2481L20.3758 38.887L18.9459 37.5173L18.6 37.8784L17.1701 36.5086L17.5159 36.1475L16.086 34.7778L15.7401 35.1389L14.3102 33.7692L14.6561 33.4081L13.2261 32.0384L12.8803 32.3994L11.4503 31.0297L11.7962 30.6686L11.4392 30.3266L11.8144 29.928L11.4503 29.5853L12.8802 28.0661L13.2443 28.4088L14.6743 26.8896L14.3102 26.5469L15.7401 25.0278L16.1042 25.3705L17.5341 23.8513L17.17 23.5086L18.6 21.9895L18.9641 22.3322L20.394 20.813L20.0299 20.4703L21.4599 18.9512L21.8239 19.2938L23.2539 17.7747L22.8898 17.432L24.3197 15.9128L24.6838 16.2555L26.1137 14.7364L25.7497 14.3937L27.1796 12.8745L27.5437 13.2172L28.9736 11.6981L28.6095 11.3554L30.0394 9.83621L30.4035 10.1789L31.8335 8.65975L31.4694 8.31705L32.8993 6.79789L33.2634 7.14059L34.6933 5.62144L34.3293 5.27874Z" stroke="white" stroke-dasharray="2 2"/>
<g filter="url(#filter1_i_60_278)">
<ellipse cx="14.1733" cy="29" rx="3.43797" ry="4" fill="#ABA7A7"/>
</g>
</g>
<path d="M46.978 36.8449C46.21 36.8449 45.604 36.6889 45.16 36.3769C44.716 36.0649 44.398 35.6209 44.206 35.0449C44.026 34.4689 43.936 33.7909 43.936 33.0109V29.9869C43.936 29.2069 44.026 28.5289 44.206 27.9529C44.398 27.3769 44.716 26.9329 45.16 26.6209C45.604 26.3089 46.21 26.1529 46.978 26.1529C47.746 26.1529 48.346 26.3089 48.778 26.6209C49.222 26.9329 49.534 27.3769 49.714 27.9529C49.906 28.5289 50.002 29.2069 50.002 29.9869V33.0109C50.002 33.7909 49.906 34.4689 49.714 35.0449C49.534 35.6209 49.222 36.0649 48.778 36.3769C48.346 36.6889 47.746 36.8449 46.978 36.8449ZM46.978 35.4229C47.35 35.4229 47.608 35.3149 47.752 35.0989C47.908 34.8829 47.998 34.6009 48.022 34.2529C48.058 33.8929 48.076 33.5209 48.076 33.1369V29.8789C48.076 29.4829 48.058 29.1109 48.022 28.7629C47.998 28.4149 47.908 28.1329 47.752 27.9169C47.608 27.6889 47.35 27.5749 46.978 27.5749C46.606 27.5749 46.342 27.6889 46.186 27.9169C46.03 28.1329 45.934 28.4149 45.898 28.7629C45.874 29.1109 45.862 29.4829 45.862 29.8789V33.1369C45.862 33.5209 45.874 33.8929 45.898 34.2529C45.934 34.6009 46.03 34.8829 46.186 35.0989C46.342 35.3149 46.606 35.4229 46.978 35.4229ZM52.7919 36.7009V27.7369H50.8479V26.2969H56.6799V27.7369H54.7179V36.7009H52.7919ZM65.6118 36.8629C64.7718 36.8629 64.0878 36.6529 63.5598 36.2329C63.0318 35.8009 62.6418 35.2249 62.3898 34.5049C62.1498 33.7729 62.0298 32.9629 62.0298 32.0749V27.1609C62.0298 26.2129 62.1378 25.3489 62.3538 24.5689C62.5698 23.7889 62.9358 23.1649 63.4518 22.6969C63.9798 22.2289 64.6998 21.9949 65.6118 21.9949C66.3678 21.9949 67.0038 22.1329 67.5198 22.4089C68.0478 22.6849 68.4498 23.0869 68.7258 23.6149C69.0138 24.1429 69.1638 24.7849 69.1758 25.5409C69.1758 25.5649 69.1758 25.6009 69.1758 25.6489C69.1878 25.6849 69.1938 25.7209 69.1938 25.7569H67.2498C67.2498 25.0489 67.1358 24.5089 66.9078 24.1369C66.6798 23.7649 66.2478 23.5789 65.6118 23.5789C65.2638 23.5789 64.9638 23.6929 64.7118 23.9209C64.4598 24.1369 64.2678 24.4729 64.1358 24.9289C64.0158 25.3849 63.9558 25.9729 63.9558 26.6929V28.9069C64.1478 28.6069 64.4178 28.3669 64.7658 28.1869C65.1258 27.9949 65.5638 27.8989 66.0798 27.8989C66.8838 27.8989 67.5138 28.0729 67.9698 28.4209C68.4258 28.7689 68.7498 29.2609 68.9418 29.8969C69.1338 30.5209 69.2298 31.2589 69.2298 32.1109C69.2298 32.9869 69.1098 33.7849 68.8698 34.5049C68.6298 35.2249 68.2458 35.8009 67.7178 36.2329C67.1898 36.6529 66.4878 36.8629 65.6118 36.8629ZM65.6118 35.2609C66.0438 35.2609 66.3798 35.1409 66.6198 34.9009C66.8598 34.6489 67.0278 34.3189 67.1238 33.9109C67.2318 33.5029 67.2858 33.0589 67.2858 32.5789C67.2858 32.0029 67.2558 31.4689 67.1958 30.9769C67.1478 30.4849 67.0098 30.0949 66.7818 29.8069C66.5538 29.5069 66.1638 29.3569 65.6118 29.3569C65.3478 29.3569 65.1078 29.4049 64.8918 29.5009C64.6758 29.5969 64.4898 29.7229 64.3338 29.8789C64.1778 30.0229 64.0518 30.1789 63.9558 30.3469V32.5249C63.9558 33.0169 64.0038 33.4729 64.0998 33.8929C64.2078 34.3129 64.3818 34.6489 64.6218 34.9009C64.8618 35.1409 65.1918 35.2609 65.6118 35.2609ZM74.4486 36.8629C73.6926 36.8629 73.0446 36.7249 72.5046 36.4489C71.9766 36.1609 71.5746 35.7469 71.2986 35.2069C71.0226 34.6669 70.8786 34.0129 70.8666 33.2449C70.8666 33.2209 70.8666 33.1969 70.8666 33.1729C70.8666 33.1369 70.8666 33.1069 70.8666 33.0829H72.7926C72.7926 33.7789 72.9066 34.3189 73.1346 34.7029C73.3626 35.0749 73.8066 35.2609 74.4666 35.2609C74.8266 35.2609 75.1266 35.1529 75.3666 34.9369C75.6066 34.7089 75.7866 34.3669 75.9066 33.9109C76.0266 33.4429 76.0866 32.8549 76.0866 32.1469V29.9329C75.9066 30.2329 75.6366 30.4789 75.2766 30.6709C74.9286 30.8509 74.4906 30.9409 73.9626 30.9409C73.1586 30.9409 72.5286 30.7669 72.0726 30.4189C71.6166 30.0589 71.2926 29.5669 71.1006 28.9429C70.9206 28.3069 70.8306 27.5689 70.8306 26.7289C70.8306 25.8409 70.9506 25.0429 71.1906 24.3349C71.4306 23.6149 71.8146 23.0449 72.3426 22.6249C72.8826 22.2049 73.5846 21.9949 74.4486 21.9949C75.2886 21.9949 75.9726 22.2109 76.5006 22.6429C77.0286 23.0629 77.4126 23.6329 77.6526 24.3529C77.9046 25.0729 78.0306 25.8769 78.0306 26.7649V31.6609C78.0306 32.5969 77.9226 33.4609 77.7066 34.2529C77.4906 35.0449 77.1246 35.6809 76.6086 36.1609C76.0926 36.6289 75.3726 36.8629 74.4486 36.8629ZM74.4486 29.4829C74.8686 29.4829 75.2106 29.3809 75.4746 29.1769C75.7386 28.9609 75.9426 28.7269 76.0866 28.4749V26.3149C76.0866 25.8109 76.0386 25.3549 75.9426 24.9469C75.8466 24.5269 75.6786 24.1969 75.4386 23.9569C75.1986 23.7049 74.8686 23.5789 74.4486 23.5789C74.0286 23.5789 73.6926 23.7049 73.4406 23.9569C73.2006 24.2089 73.0266 24.5389 72.9186 24.9469C72.8226 25.3429 72.7746 25.7809 72.7746 26.2609C72.7746 26.8369 72.7986 27.3709 72.8466 27.8629C72.9066 28.3549 73.0506 28.7509 73.2786 29.0509C73.5186 29.3389 73.9086 29.4829 74.4486 29.4829ZM87.597 36.8629C86.841 36.8629 86.193 36.7249 85.653 36.4489C85.125 36.1609 84.723 35.7469 84.447 35.2069C84.171 34.6669 84.027 34.0129 84.015 33.2449C84.015 33.2209 84.015 33.1969 84.015 33.1729C84.015 33.1369 84.015 33.1069 84.015 33.0829H85.941C85.941 33.7789 86.055 34.3189 86.283 34.7029C86.511 35.0749 86.955 35.2609 87.615 35.2609C87.975 35.2609 88.275 35.1529 88.515 34.9369C88.755 34.7089 88.935 34.3669 89.055 33.9109C89.175 33.4429 89.235 32.8549 89.235 32.1469V29.9329C89.055 30.2329 88.785 30.4789 88.425 30.6709C88.077 30.8509 87.639 30.9409 87.111 30.9409C86.307 30.9409 85.677 30.7669 85.221 30.4189C84.765 30.0589 84.441 29.5669 84.249 28.9429C84.069 28.3069 83.979 27.5689 83.979 26.7289C83.979 25.8409 84.099 25.0429 84.339 24.3349C84.579 23.6149 84.963 23.0449 85.491 22.6249C86.031 22.2049 86.733 21.9949 87.597 21.9949C88.437 21.9949 89.121 22.2109 89.649 22.6429C90.177 23.0629 90.561 23.6329 90.801 24.3529C91.053 25.0729 91.179 25.8769 91.179 26.7649V31.6609C91.179 32.5969 91.071 33.4609 90.855 34.2529C90.639 35.0449 90.273 35.6809 89.757 36.1609C89.241 36.6289 88.521 36.8629 87.597 36.8629ZM87.597 29.4829C88.017 29.4829 88.359 29.3809 88.623 29.1769C88.887 28.9609 89.091 28.7269 89.235 28.4749V26.3149C89.235 25.8109 89.187 25.3549 89.091 24.9469C88.995 24.5269 88.827 24.1969 88.587 23.9569C88.347 23.7049 88.017 23.5789 87.597 23.5789C87.177 23.5789 86.841 23.7049 86.589 23.9569C86.349 24.2089 86.175 24.5389 86.067 24.9469C85.971 25.3429 85.923 25.7809 85.923 26.2609C85.923 26.8369 85.947 27.3709 85.995 27.8629C86.055 28.3549 86.199 28.7509 86.427 29.0509C86.667 29.3389 87.057 29.4829 87.597 29.4829ZM96.8842 36.8629C96.0562 36.8629 95.3722 36.6769 94.8322 36.3049C94.3042 35.9329 93.9082 35.4229 93.6442 34.7749C93.3922 34.1269 93.2662 33.3889 93.2662 32.5609V26.2789C93.2662 25.4269 93.3922 24.6829 93.6442 24.0469C93.8962 23.3989 94.2862 22.8949 94.8142 22.5349C95.3542 22.1749 96.0442 21.9949 96.8842 21.9949C97.7242 21.9949 98.4082 22.1749 98.9362 22.5349C99.4642 22.8949 99.8542 23.3989 100.106 24.0469C100.358 24.6829 100.484 25.4269 100.484 26.2789V32.5609C100.484 33.4009 100.352 34.1449 100.088 34.7929C99.8362 35.4409 99.4462 35.9509 98.9182 36.3229C98.3902 36.6829 97.7122 36.8629 96.8842 36.8629ZM96.8842 35.2789C97.3402 35.2789 97.6822 35.1469 97.9102 34.8829C98.1502 34.6189 98.3122 34.2829 98.3962 33.8749C98.4922 33.4549 98.5402 33.0229 98.5402 32.5789V26.2609C98.5402 25.7929 98.4982 25.3549 98.4142 24.9469C98.3302 24.5269 98.1682 24.1909 97.9282 23.9389C97.7002 23.6869 97.3522 23.5609 96.8842 23.5609C96.4162 23.5609 96.0622 23.6869 95.8222 23.9389C95.5822 24.1909 95.4202 24.5269 95.3362 24.9469C95.2522 25.3549 95.2102 25.7929 95.2102 26.2609V32.5789C95.2102 33.0229 95.2522 33.4549 95.3362 33.8749C95.4322 34.2829 95.6002 34.6189 95.8402 34.8829C96.0922 35.1469 96.4402 35.2789 96.8842 35.2789ZM106.183 36.8629C105.355 36.8629 104.671 36.6769 104.131 36.3049C103.603 35.9329 103.207 35.4229 102.943 34.7749C102.691 34.1269 102.565 33.3889 102.565 32.5609V26.2789C102.565 25.4269 102.691 24.6829 102.943 24.0469C103.195 23.3989 103.585 22.8949 104.113 22.5349C104.653 22.1749 105.343 21.9949 106.183 21.9949C107.023 21.9949 107.707 22.1749 108.235 22.5349C108.763 22.8949 109.153 23.3989 109.405 24.0469C109.657 24.6829 109.783 25.4269 109.783 26.2789V32.5609C109.783 33.4009 109.651 34.1449 109.387 34.7929C109.135 35.4409 108.745 35.9509 108.217 36.3229C107.689 36.6829 107.011 36.8629 106.183 36.8629ZM106.183 35.2789C106.639 35.2789 106.981 35.1469 107.209 34.8829C107.449 34.6189 107.611 34.2829 107.695 33.8749C107.791 33.4549 107.839 33.0229 107.839 32.5789V26.2609C107.839 25.7929 107.797 25.3549 107.713 24.9469C107.629 24.5269 107.467 24.1909 107.227 23.9389C106.999 23.6869 106.651 23.5609 106.183 23.5609C105.715 23.5609 105.361 23.6869 105.121 23.9389C104.881 24.1909 104.719 24.5269 104.635 24.9469C104.551 25.3549 104.509 25.7929 104.509 26.2609V32.5789C104.509 33.0229 104.551 33.4549 104.635 33.8749C104.731 34.2829 104.899 34.6189 105.139 34.8829C105.391 35.1469 105.739 35.2789 106.183 35.2789ZM117.075 36.7009V27.7369H115.131V26.2969H120.963V27.7369H119.001V36.7009H117.075ZM122.128 36.7009V26.2969H126.322V27.6829H124.054V36.7009H122.128ZM126.898 36.7009L130.822 22.1209H132.496L128.554 36.7009H126.898ZM133.939 36.7009L134.047 26.2969H135.469L137.773 32.6869L140.095 26.2969H141.517L141.625 36.7009H140.005V30.4909L138.079 35.6749H137.485L135.559 30.5269V36.7009H133.939ZM143.934 28.9069V27.8089L146.166 25.3789C146.526 24.9949 146.808 24.6709 147.012 24.4069C147.228 24.1309 147.378 23.8849 147.462 23.6689C147.558 23.4529 147.606 23.2369 147.606 23.0209C147.606 22.6609 147.522 22.3849 147.354 22.1929C147.186 21.9889 146.928 21.8869 146.58 21.8869C146.124 21.8869 145.8 22.0369 145.608 22.3369C145.428 22.6249 145.338 23.0509 145.338 23.6149H143.916V23.3629C143.916 22.8349 144.006 22.3609 144.186 21.9409C144.366 21.5089 144.648 21.1669 145.032 20.9149C145.428 20.6629 145.944 20.5369 146.58 20.5369C147.36 20.5369 147.972 20.7529 148.416 21.1849C148.86 21.6049 149.082 22.1869 149.082 22.9309C149.082 23.5309 148.938 24.0589 148.65 24.5149C148.374 24.9589 147.936 25.4869 147.336 26.0989L145.842 27.6469H149.172V28.9069H143.934Z" fill="white"/>
<defs>
<filter id="filter0_d_60_278" x="0" y="0" width="166.725" height="65" filterUnits="userSpaceOnUse" color-interpolation-filters="sRGB">
<feFlood flood-opacity="0" result="BackgroundImageFix"/>
<feColorMatrix in="SourceAlpha" type="matrix" values="0 0 0 0 0 0 0 0 0 0 0 0 0 0 0 0 0 0 127 0" result="hardAlpha"/>
<feOffset dy="4"/>
<feGaussianBlur stdDeviation="1.5"/>
<feComposite in2="hardAlpha" operator="out"/>
<feColorMatrix type="matrix" values="0 0 0 0 0.0588235 0 0 0 0 0.0901961 0 0 0 0 0.133333 0 0 0 0.28 0"/>
<feBlend mode="normal" in2="BackgroundImageFix" result="effect1_dropShadow_60_278"/>
<feBlend mode="normal" in="SourceGraphic" in2="effect1_dropShadow_60_278" result="shape"/>
</filter>
<filter id="filter1_i_60_278" x="10.7354" y="25" width="6.87598" height="12" filterUnits="userSpaceOnUse" color-interpolation-filters="sRGB">
<feFlood flood-opacity="0" result="BackgroundImageFix"/>
<feBlend mode="normal" in="SourceGraphic" in2="BackgroundImageFix" result="shape"/>
<feColorMatrix in="SourceAlpha" type="matrix" values="0 0 0 0 0 0 0 0 0 0 0 0 0 0 0 0 0 0 127 0" result="hardAlpha"/>
<feOffset dy="4"/>
<feGaussianBlur stdDeviation="2"/>
<feComposite in2="hardAlpha" operator="arithmetic" k2="-1" k3="1"/>
<feColorMatrix type="matrix" values="0 0 0 0 0.0588235 0 0 0 0 0.0901961 0 0 0 0 0.133333 0 0 0 0.29 0"/>
<feBlend mode="normal" in2="shape" result="effect1_innerShadow_60_278"/>
</filter>
</defs>
</svg>
