<svg width="363" height="93" viewBox="0 0 363 93" fill="none" xmlns="http://www.w3.org/2000/svg">
<g filter="url(#filter0_d_263_4)">
<path d="M64.0909 0H360V85.4734H64.0909L3 44.9472L64.0909 0Z" fill="#C21919"/>
<path d="M74.83 6.19885L76.5115 5.01363L76.7996 5.42231L77.5108 4.92102H78.3555V4.42102H80.3622V4.92102H82.3689V4.42102H84.3756V4.92102H86.3822V4.42102H88.3889V4.92102H90.3956V4.42102H92.4023V4.92102H94.409V4.42102H96.4156V4.92102H98.4223V4.42102L100.429 4.42102V4.92102L102.436 4.92102V4.42102H104.442V4.92102H106.449V4.42102H108.456V4.92102H110.462V4.42102H112.469V4.92102H114.476V4.42102H116.482V4.92102H118.489V4.42102H120.496V4.92102H122.502V4.42102H124.509V4.92102H126.516V4.42102H128.522V4.92102L130.529 4.92102V4.42102L132.536 4.42102V4.92102H134.542V4.42102H136.549V4.92102H138.556V4.42102H140.562V4.92102H142.569V4.42102H144.576V4.92102H146.582V4.42102H148.589V4.92102H150.596V4.42102H152.602V4.92102H154.609V4.42102H156.616V4.92102H158.622V4.42102H160.629V4.92102H162.636V4.42102L164.642 4.42102V4.92102L166.649 4.92102V4.42102H168.656V4.92102H170.662V4.42102H172.669V4.92102H174.676V4.42102H176.682V4.92102H178.689V4.42102H180.696V4.92102H182.702V4.42102H184.709V4.92102H186.716V4.42102H188.722V4.92102H190.729V4.42102H192.736V4.92102L194.742 4.92102V4.42102L196.749 4.42102V4.92102H198.756V4.42102H200.762V4.92102H202.769V4.42102H204.776V4.92102H206.782V4.42102H208.789V4.92102H210.796V4.42102H212.802V4.92102H214.809V4.42102H216.816V4.92102H218.822V4.42102H220.829V4.92102H222.836V4.42102H224.842V4.92102H226.849V4.42102L228.856 4.42102V4.92102L230.862 4.92102V4.42102H232.869V4.92102H234.876V4.42102H236.882V4.92102H238.889V4.42102H240.896V4.92102H242.902V4.42102H244.909V4.92102H246.916V4.42102H248.922V4.92102H250.929V4.42102H252.936V4.92102H254.942V4.42102H256.949V4.92102L258.956 4.92102V4.42102L260.962 4.42102V4.92102H262.969V4.42102H264.976V4.92102H266.982V4.42102H268.989V4.92102H270.996V4.42102H273.002V4.92102H275.009V4.42102H277.016V4.92102H279.022V4.42102H281.029V4.92102H283.036V4.42102H285.042V4.92102H287.049V4.42102H289.056V4.92102H291.062V4.42102L293.069 4.42102V4.92102L295.076 4.92102V4.42102H297.082V4.92102H299.089V4.42102H301.096V4.92102H303.102V4.42102H305.109V4.92102H307.116V4.42102H309.122V4.92102H311.129V4.42102H313.136V4.92102H315.142V4.42102H317.149V4.92102H319.156V4.42102H321.163V4.92102L323.169 4.92102V4.42102L325.176 4.42102V4.92102H327.182V4.42102H329.189V4.92102H331.196V4.42102H333.203V4.92102H335.209V4.42102H337.216V4.92102H339.223V4.42102H341.229V4.92102H343.236V4.42102H345.243V4.92102H347.249V4.42102H349.256V4.92102H351.263V4.42102H353.269V4.92102H353.773V5.42928H354.273V7.4459H353.773V9.46252H354.273V11.4791H353.773V13.4958H354.273V15.5124H353.773V17.529H354.273V19.5456H353.773V21.5622H354.273V23.5788H353.773V25.5954H354.273V27.6121H353.773V29.6287H354.273V31.6453H353.773V33.6619H354.273V35.6785H353.773V37.6952H354.273V39.7118H353.773V41.7284H354.273V43.745H353.773V45.7616H354.273V47.7782H353.773V49.7949H354.273V51.8115H353.773V53.8281H354.273V55.8447H353.773V57.8613H354.273V59.8779H353.773V61.8945H354.273V63.9112H353.773V65.9278H354.273V67.9444H353.773V69.961H354.273V71.9776H353.773V73.9942H354.273V76.0108H353.773V78.0275H354.273V80.0441H353.773V80.5524H353.269V81.0524H351.263V80.5524H349.256V81.0524H347.249V80.5524H345.243V81.0524H343.236V80.5524H341.229V81.0524H339.223V80.5524H337.216V81.0524H335.209V80.5524H333.202V81.0524H331.196V80.5524H329.189V81.0524H327.182V80.5524H325.176V81.0524H323.169V80.5524H321.162V81.0524H319.156V80.5524H317.149V81.0524H315.142V80.5524H313.136V81.0524H311.129V80.5524H309.122V81.0524H307.116V80.5524H305.109V81.0524H303.102V80.5524H301.096V81.0524H299.089V80.5524H297.082V81.0524H295.076V80.5524H293.069V81.0524H291.062V80.5524H289.056V81.0524H287.049V80.5524H285.042V81.0524H283.036V80.5524H281.029V81.0524H279.022V80.5524H277.016V81.0524L275.009 81.0524V80.5524H273.002V81.0524H270.996V80.5524H268.989V81.0524H266.982V80.5524H264.976V81.0524H262.969V80.5524H260.962V81.0524H258.956V80.5524H256.949V81.0524H254.942V80.5524H252.936V81.0524H250.929V80.5524H248.922V81.0524H246.916V80.5524H244.909V81.0524H242.902V80.5524H240.896V81.0524H238.889V80.5524H236.882V81.0524H234.876V80.5524H232.869V81.0524H230.862V80.5524H228.856V81.0524H226.849V80.5524H224.842V81.0524H222.836V80.5524H220.829V81.0524H218.822V80.5524H216.816V81.0524H214.809V80.5524H212.802V81.0524H210.796V80.5524H208.789V81.0524H206.782V80.5524H204.776V81.0524H202.769V80.5524H200.762V81.0524H198.756V80.5524H196.749V81.0524H194.742V80.5524H192.736V81.0524H190.729V80.5524H188.722V81.0524H186.716V80.5524H184.709V81.0524H182.702V80.5524H180.696V81.0524H178.689V80.5524H176.682V81.0524H174.676V80.5524H172.669V81.0524H170.662V80.5524H168.656V81.0524H166.649V80.5524H164.642V81.0524H162.636V80.5524H160.629V81.0524H158.622V80.5524H156.616V81.0524H154.609V80.5524H152.602V81.0524H150.596V80.5524H148.589V81.0524H146.582V80.5524H144.576V81.0524H142.569V80.5524H140.562V81.0524H138.556V80.5524H136.549V81.0524H134.542V80.5524H132.536V81.0524H130.529V80.5524H128.522V81.0524H126.516V80.5524H124.509V81.0524H122.502V80.5524H120.496V81.0524H118.489V80.5524H116.482V81.0524H114.476V80.5524H112.469V81.0524H110.462V80.5524H108.456V81.0524H106.449V80.5524H104.442V81.0524H102.436V80.5524H100.429V81.0524H98.4223V80.5524H96.4156V81.0524H94.409V80.5524H92.4023V81.0524H90.3956V80.5524H88.3889V81.0524H86.3823V80.5524H84.3756V81.0524H82.3689V80.5524H80.3623V81.0524H78.3556V80.5524H77.4977L76.7797 80.0961L76.5115 80.5181L74.83 79.4494L75.0982 79.0274L73.4167 77.9588L73.1486 78.3808L71.4671 77.3121L71.7353 76.8902L70.0538 75.8215L69.7856 76.2435L68.1041 75.1749L68.3723 74.7529L66.6908 73.6842L66.4226 74.1062L64.7411 73.0376L65.0093 72.6156L63.3278 71.5469L63.0596 71.9689L61.3781 70.9003L61.6463 70.4783L59.9648 69.4097L59.6966 69.8316L58.0152 68.763L58.2833 68.341L56.6019 67.2724L56.3337 67.6944L54.6522 66.6257L54.9204 66.2037L53.2389 65.1351L52.9707 65.5571L51.2892 64.4884L51.5574 64.0664L49.8759 62.9978L49.6077 63.4198L47.9262 62.3511L48.1944 61.9292L46.5129 60.8605L46.2447 61.2825L44.5632 60.2139L44.8314 59.7919L43.1499 58.7232L42.8817 59.1452L41.2003 58.0766L41.4684 57.6546L39.787 56.5859L39.5188 57.0079L37.8373 55.9393L38.1055 55.5173L36.424 54.4487L36.1558 54.8707L34.4743 53.802L34.7425 53.38L33.061 52.3114L32.7928 52.7334L31.1113 51.6647L31.3795 51.2427L29.698 50.1741L29.4298 50.5961L27.7483 49.5274L28.0165 49.1054L26.335 48.0368L26.0669 48.4588L24.3854 47.3902L24.6536 46.9682L22.9721 45.8995L22.7039 46.3215L21.0224 45.2529L21.2906 44.8309L21.08 44.6971L21.3104 44.5346L21.0224 44.1259L22.7039 42.9407L22.9919 43.3494L24.6734 42.1642L24.3854 41.7555L26.0669 40.5703L26.3549 40.979L28.0364 39.7937L27.7483 39.3851L29.4298 38.1998L29.7179 38.6085L31.3994 37.4233L31.1113 37.0146L32.7928 35.8294L33.0809 36.2381L34.7624 35.0528L34.4743 34.6442L36.1558 33.4589L36.4439 33.8676L38.1253 32.6824L37.8373 32.2737L39.5188 31.0885L39.8068 31.4972L41.4883 30.312L41.2003 29.9033L42.8817 28.7181L43.1698 29.1267L44.8513 27.9415L44.5632 27.5328L46.2447 26.3476L46.5328 26.7563L48.2143 25.5711L47.9262 25.1624L49.6077 23.9772L49.8958 24.3859L51.5773 23.2006L51.2892 22.792L52.9707 21.6067L53.2587 22.0154L54.9402 20.8302L54.6522 20.4215L56.3337 19.2363L56.6217 19.645L58.3032 18.4597L58.0151 18.0511L59.6966 16.8658L59.9847 17.2745L61.6662 16.0893L61.3781 15.6806L63.0596 14.4954L63.3477 14.9041L65.0292 13.7189L64.7411 13.3102L66.4226 12.125L66.7107 12.5336L68.3921 11.3484L68.1041 10.9397L69.7856 9.75452L70.0736 10.1632L71.7551 8.97798L71.4671 8.5693L73.1485 7.38407L73.4366 7.79275L75.1181 6.60753L74.83 6.19885Z" stroke="white" stroke-dasharray="2 2"/>
<g filter="url(#filter1_i_263_4)">
<ellipse cx="27.818" cy="42.7368" rx="7.63636" ry="5.89472" fill="#ABA7A7"/>
</g>
</g>
<path d="M167.88 40.216C166.872 40.216 166.008 40.032 165.288 39.664C164.584 39.28 164.048 38.728 163.68 38.008C163.312 37.288 163.12 36.416 163.104 35.392C163.104 35.36 163.104 35.328 163.104 35.296C163.104 35.248 163.104 35.208 163.104 35.176H165.672C165.672 36.104 165.824 36.824 166.128 37.336C166.432 37.832 167.024 38.08 167.904 38.08C168.384 38.08 168.784 37.936 169.104 37.648C169.424 37.344 169.664 36.888 169.824 36.28C169.984 35.656 170.064 34.872 170.064 33.928V30.976C169.824 31.376 169.464 31.704 168.984 31.96C168.52 32.2 167.936 32.32 167.232 32.32C166.16 32.32 165.32 32.088 164.712 31.624C164.104 31.144 163.672 30.488 163.416 29.656C163.176 28.808 163.056 27.824 163.056 26.704C163.056 25.52 163.216 24.456 163.536 23.512C163.856 22.552 164.368 21.792 165.072 21.232C165.792 20.672 166.728 20.392 167.88 20.392C169 20.392 169.912 20.68 170.616 21.256C171.32 21.816 171.832 22.576 172.152 23.536C172.488 24.496 172.656 25.568 172.656 26.752V33.28C172.656 34.528 172.512 35.68 172.224 36.736C171.936 37.792 171.448 38.64 170.76 39.28C170.072 39.904 169.112 40.216 167.88 40.216ZM167.88 30.376C168.44 30.376 168.896 30.24 169.248 29.968C169.6 29.68 169.872 29.368 170.064 29.032V26.152C170.064 25.48 170 24.872 169.872 24.328C169.744 23.768 169.52 23.328 169.2 23.008C168.88 22.672 168.44 22.504 167.88 22.504C167.32 22.504 166.872 22.672 166.536 23.008C166.216 23.344 165.984 23.784 165.84 24.328C165.712 24.856 165.648 25.44 165.648 26.08C165.648 26.848 165.68 27.56 165.744 28.216C165.824 28.872 166.016 29.4 166.32 29.8C166.64 30.184 167.16 30.376 167.88 30.376ZM179.927 40.216C178.919 40.216 178.055 40.032 177.335 39.664C176.631 39.28 176.095 38.728 175.727 38.008C175.359 37.288 175.167 36.416 175.151 35.392C175.151 35.36 175.151 35.328 175.151 35.296C175.151 35.248 175.151 35.208 175.151 35.176H177.719C177.719 36.104 177.871 36.824 178.175 37.336C178.479 37.832 179.071 38.08 179.951 38.08C180.431 38.08 180.831 37.936 181.151 37.648C181.471 37.344 181.711 36.888 181.871 36.28C182.031 35.656 182.111 34.872 182.111 33.928V30.976C181.871 31.376 181.511 31.704 181.031 31.96C180.567 32.2 179.983 32.32 179.279 32.32C178.207 32.32 177.367 32.088 176.759 31.624C176.151 31.144 175.719 30.488 175.463 29.656C175.223 28.808 175.103 27.824 175.103 26.704C175.103 25.52 175.263 24.456 175.583 23.512C175.903 22.552 176.415 21.792 177.119 21.232C177.839 20.672 178.775 20.392 179.927 20.392C181.047 20.392 181.959 20.68 182.663 21.256C183.367 21.816 183.879 22.576 184.199 23.536C184.535 24.496 184.703 25.568 184.703 26.752V33.28C184.703 34.528 184.559 35.68 184.271 36.736C183.983 37.792 183.495 38.64 182.807 39.28C182.119 39.904 181.159 40.216 179.927 40.216ZM179.927 30.376C180.487 30.376 180.943 30.24 181.295 29.968C181.647 29.68 181.919 29.368 182.111 29.032V26.152C182.111 25.48 182.047 24.872 181.919 24.328C181.791 23.768 181.567 23.328 181.247 23.008C180.927 22.672 180.487 22.504 179.927 22.504C179.367 22.504 178.919 22.672 178.583 23.008C178.263 23.344 178.031 23.784 177.887 24.328C177.759 24.856 177.695 25.44 177.695 26.08C177.695 26.848 177.727 27.56 177.791 28.216C177.871 28.872 178.063 29.4 178.367 29.8C178.687 30.184 179.207 30.376 179.927 30.376ZM197.458 40.216C196.45 40.216 195.586 40.032 194.866 39.664C194.162 39.28 193.626 38.728 193.258 38.008C192.89 37.288 192.698 36.416 192.682 35.392C192.682 35.36 192.682 35.328 192.682 35.296C192.682 35.248 192.682 35.208 192.682 35.176H195.25C195.25 36.104 195.402 36.824 195.706 37.336C196.01 37.832 196.602 38.08 197.482 38.08C197.962 38.08 198.362 37.936 198.682 37.648C199.002 37.344 199.242 36.888 199.402 36.28C199.562 35.656 199.642 34.872 199.642 33.928V30.976C199.402 31.376 199.042 31.704 198.562 31.96C198.098 32.2 197.514 32.32 196.81 32.32C195.738 32.32 194.898 32.088 194.29 31.624C193.682 31.144 193.25 30.488 192.994 29.656C192.754 28.808 192.634 27.824 192.634 26.704C192.634 25.52 192.794 24.456 193.114 23.512C193.434 22.552 193.946 21.792 194.65 21.232C195.37 20.672 196.306 20.392 197.458 20.392C198.578 20.392 199.49 20.68 200.194 21.256C200.898 21.816 201.41 22.576 201.73 23.536C202.066 24.496 202.234 25.568 202.234 26.752V33.28C202.234 34.528 202.09 35.68 201.802 36.736C201.514 37.792 201.026 38.64 200.338 39.28C199.65 39.904 198.69 40.216 197.458 40.216ZM197.458 30.376C198.018 30.376 198.474 30.24 198.826 29.968C199.178 29.68 199.45 29.368 199.642 29.032V26.152C199.642 25.48 199.578 24.872 199.45 24.328C199.322 23.768 199.098 23.328 198.778 23.008C198.458 22.672 198.018 22.504 197.458 22.504C196.898 22.504 196.45 22.672 196.114 23.008C195.794 23.344 195.562 23.784 195.418 24.328C195.29 24.856 195.226 25.44 195.226 26.08C195.226 26.848 195.258 27.56 195.322 28.216C195.402 28.872 195.594 29.4 195.898 29.8C196.218 30.184 196.738 30.376 197.458 30.376ZM209.841 40.216C208.737 40.216 207.825 39.968 207.105 39.472C206.401 38.976 205.873 38.296 205.521 37.432C205.185 36.568 205.017 35.584 205.017 34.48V26.104C205.017 24.968 205.185 23.976 205.521 23.128C205.857 22.264 206.377 21.592 207.081 21.112C207.801 20.632 208.721 20.392 209.841 20.392C210.961 20.392 211.873 20.632 212.577 21.112C213.281 21.592 213.801 22.264 214.137 23.128C214.473 23.976 214.641 24.968 214.641 26.104V34.48C214.641 35.6 214.465 36.592 214.113 37.456C213.777 38.32 213.257 39 212.553 39.496C211.849 39.976 210.945 40.216 209.841 40.216ZM209.841 38.104C210.449 38.104 210.905 37.928 211.209 37.576C211.529 37.224 211.745 36.776 211.857 36.232C211.985 35.672 212.049 35.096 212.049 34.504V26.08C212.049 25.456 211.993 24.872 211.881 24.328C211.769 23.768 211.553 23.32 211.233 22.984C210.929 22.648 210.465 22.48 209.841 22.48C209.217 22.48 208.745 22.648 208.425 22.984C208.105 23.32 207.889 23.768 207.777 24.328C207.665 24.872 207.609 25.456 207.609 26.08V34.504C207.609 35.096 207.665 35.672 207.777 36.232C207.905 36.776 208.129 37.224 208.449 37.576C208.785 37.928 209.249 38.104 209.841 38.104ZM222.239 40.216C221.135 40.216 220.223 39.968 219.503 39.472C218.799 38.976 218.271 38.296 217.919 37.432C217.583 36.568 217.415 35.584 217.415 34.48V26.104C217.415 24.968 217.583 23.976 217.919 23.128C218.255 22.264 218.775 21.592 219.479 21.112C220.199 20.632 221.119 20.392 222.239 20.392C223.359 20.392 224.271 20.632 224.975 21.112C225.679 21.592 226.199 22.264 226.535 23.128C226.871 23.976 227.039 24.968 227.039 26.104V34.48C227.039 35.6 226.863 36.592 226.511 37.456C226.175 38.32 225.655 39 224.951 39.496C224.247 39.976 223.343 40.216 222.239 40.216ZM222.239 38.104C222.847 38.104 223.303 37.928 223.607 37.576C223.927 37.224 224.143 36.776 224.255 36.232C224.383 35.672 224.447 35.096 224.447 34.504V26.08C224.447 25.456 224.391 24.872 224.279 24.328C224.167 23.768 223.951 23.32 223.631 22.984C223.327 22.648 222.863 22.48 222.239 22.48C221.615 22.48 221.143 22.648 220.823 22.984C220.503 23.32 220.287 23.768 220.175 24.328C220.063 24.872 220.007 25.456 220.007 26.08V34.504C220.007 35.096 220.063 35.672 220.175 36.232C220.303 36.776 220.527 37.224 220.847 37.576C221.183 37.928 221.647 38.104 222.239 38.104ZM236.762 40V28.048H234.17V26.128H241.946V28.048H239.33V40H236.762ZM243.499 40V26.128H249.091V27.976H246.067V40H243.499ZM249.86 40L255.092 20.56H257.324L252.068 40H249.86ZM259.247 40L259.391 26.128H261.287L264.359 34.648L267.455 26.128H269.351L269.495 40H267.335V31.72L264.767 38.632H263.975L261.407 31.768V40H259.247ZM272.575 29.608V28.144L275.551 24.904C276.031 24.392 276.407 23.96 276.679 23.608C276.967 23.24 277.167 22.912 277.279 22.624C277.407 22.336 277.471 22.048 277.471 21.76C277.471 21.28 277.359 20.912 277.135 20.656C276.911 20.384 276.567 20.248 276.103 20.248C275.495 20.248 275.063 20.448 274.807 20.848C274.567 21.232 274.447 21.8 274.447 22.552H272.551V22.216C272.551 21.512 272.671 20.88 272.911 20.32C273.151 19.744 273.527 19.288 274.039 18.952C274.567 18.616 275.255 18.448 276.103 18.448C277.143 18.448 277.959 18.736 278.551 19.312C279.143 19.872 279.439 20.648 279.439 21.64C279.439 22.44 279.247 23.144 278.863 23.752C278.495 24.344 277.911 25.048 277.111 25.864L275.119 27.928H279.559V29.608H272.575Z" fill="white"/>
<path d="M67.3203 30.5259L66.9363 31.9659H70.2723L69.9123 30.5259C69.6883 29.7419 69.4723 28.9099 69.2643 28.0299C69.0563 27.1499 68.8483 26.3019 68.6403 25.4859H68.5443C68.3523 26.3179 68.1523 27.1739 67.9443 28.0539C67.7523 28.9179 67.5443 29.7419 67.3203 30.5259ZM61.6563 38.4459L66.5523 22.7979H70.8003L75.6963 38.4459H71.9523L70.9923 34.7259H66.2163L65.2563 38.4459H61.6563ZM77.4061 38.4459V22.7979H80.9341V28.9419H82.6621L84.7021 25.3419C85.0061 24.8139 85.3021 24.3739 85.5901 24.0219C85.8941 23.6539 86.2141 23.3579 86.5501 23.1339C86.8861 22.9099 87.2381 22.7499 87.6061 22.6539C87.9741 22.5579 88.3821 22.5099 88.8301 22.5099C89.0541 22.5099 89.2781 22.5259 89.5021 22.5579C89.7421 22.5899 89.9501 22.6459 90.1261 22.7259L89.5501 25.9179C89.4221 25.8699 89.2941 25.8459 89.1661 25.8459C89.0381 25.8299 88.9341 25.8219 88.8541 25.8219C88.5021 25.8219 88.1981 25.9179 87.9421 26.1099C87.7021 26.3019 87.4221 26.6779 87.1021 27.2379L85.4461 30.1179L90.5341 38.4459H86.8141L82.6621 31.7979H80.9341V38.4459H77.4061ZM92.3358 38.4459V22.7979H95.8638V35.4699H100.808V22.7979H104.336V35.4699H106.256V37.6779L105.944 42.9579H102.776V38.4459H92.3358ZM108.273 38.4459V22.7979H111.777V28.3179C111.777 29.2459 111.721 30.2219 111.609 31.2459C111.497 32.2699 111.401 33.1979 111.321 34.0299H111.417L112.953 30.5979L117.057 22.7979H120.801V38.4459H117.321V32.9019C117.321 31.9739 117.369 31.0139 117.465 30.0219C117.577 29.0299 117.673 28.1019 117.753 27.2379H117.657L116.121 30.6459L112.017 38.4459H108.273ZM132.052 38.4459V32.8059H130.3L126.964 38.4459H122.932L126.94 32.2779C126.044 31.9259 125.316 31.3739 124.756 30.6219C124.196 29.8699 123.916 28.8859 123.916 27.6699C123.916 26.7419 124.076 25.9659 124.396 25.3419C124.716 24.7179 125.148 24.2219 125.692 23.8539C126.252 23.4699 126.892 23.1979 127.612 23.0379C128.348 22.8779 129.132 22.7979 129.964 22.7979H135.604V38.4459H132.052ZM130.252 29.9979H132.052V25.6059H130.252C129.308 25.6059 128.596 25.7579 128.116 26.0619C127.636 26.3659 127.396 26.9019 127.396 27.6699C127.396 29.2219 128.348 29.9979 130.252 29.9979Z" fill="#FAFF00"/>
<path d="M63.312 63V55.224H64.624V61.928H68.112V55.224H69.424V61.928H70.56V62.76L70.432 65.752H69.296V63H63.312ZM75.3234 63.192C74.8007 63.192 74.31 63.1013 73.8514 62.92C73.4034 62.728 73.0087 62.4613 72.6674 62.12C72.3367 61.768 72.0754 61.3413 71.8834 60.84C71.6914 60.3387 71.5954 59.768 71.5954 59.128C71.5954 58.488 71.6914 57.9173 71.8834 57.416C72.086 56.904 72.3474 56.472 72.6674 56.12C72.998 55.768 73.3714 55.5013 73.7874 55.32C74.2034 55.128 74.6354 55.032 75.0834 55.032C75.574 55.032 76.0114 55.1173 76.3954 55.288C76.79 55.4587 77.1154 55.704 77.3714 56.024C77.638 56.344 77.8407 56.728 77.9794 57.176C78.118 57.624 78.1874 58.1253 78.1874 58.68C78.1874 58.8187 78.182 58.9573 78.1714 59.096C78.1714 59.224 78.1607 59.336 78.1394 59.432H72.8914C72.9447 60.264 73.2007 60.9253 73.6594 61.416C74.1287 61.896 74.7367 62.136 75.4834 62.136C75.8567 62.136 76.198 62.0827 76.5074 61.976C76.8274 61.8587 77.1314 61.7093 77.4194 61.528L77.8834 62.392C77.542 62.6053 77.1634 62.792 76.7474 62.952C76.3314 63.112 75.8567 63.192 75.3234 63.192ZM72.8754 58.488H77.0354C77.0354 57.6987 76.8647 57.1013 76.5234 56.696C76.1927 56.28 75.7234 56.072 75.1154 56.072C74.838 56.072 74.5714 56.1253 74.3154 56.232C74.07 56.3387 73.846 56.4987 73.6434 56.712C73.4407 56.9147 73.27 57.1653 73.1314 57.464C73.0034 57.7627 72.918 58.104 72.8754 58.488ZM80.1089 63V55.224H81.4209V58.376H85.1649V55.224H86.4769V63H85.1649V59.544H81.4209V63H80.1089ZM90.8853 63.192C90.2346 63.192 89.6906 63 89.2533 62.616C88.8266 62.232 88.6133 61.688 88.6133 60.984C88.6133 60.1307 88.9919 59.48 89.7493 59.032C90.5066 58.5733 91.7173 58.2533 93.3813 58.072C93.3813 57.8267 93.3546 57.5867 93.3013 57.352C93.2586 57.1173 93.1786 56.9093 93.0613 56.728C92.9439 56.5467 92.7786 56.4027 92.5653 56.296C92.3626 56.1787 92.1013 56.12 91.7812 56.12C91.3333 56.12 90.9119 56.2053 90.5173 56.376C90.1226 56.5467 89.7706 56.7387 89.4613 56.952L88.9493 56.04C89.3119 55.8053 89.7546 55.5813 90.2773 55.368C90.7999 55.144 91.3759 55.032 92.0052 55.032C92.9546 55.032 93.6426 55.3253 94.0693 55.912C94.4959 56.488 94.7093 57.2613 94.7093 58.232V63H93.6213L93.5093 62.072H93.4613C93.0879 62.3813 92.6879 62.648 92.2613 62.872C91.8346 63.0853 91.3759 63.192 90.8853 63.192ZM91.2693 62.136C91.6426 62.136 91.9946 62.0507 92.3253 61.88C92.6559 61.6987 93.0079 61.4373 93.3813 61.096V58.936C92.7306 59.0213 92.1813 59.1227 91.7333 59.24C91.2959 59.3573 90.9386 59.496 90.6613 59.656C90.3946 59.816 90.1973 60.0027 90.0693 60.216C89.9519 60.4187 89.8932 60.6427 89.8932 60.888C89.8932 61.336 90.0266 61.656 90.2933 61.848C90.5599 62.04 90.8853 62.136 91.2693 62.136ZM100.631 63V65.752H99.4949L99.3509 62.76V61.928H99.7349C99.8415 61.864 99.9429 61.7787 100.039 61.672C100.146 61.5547 100.242 61.3787 100.327 61.144C100.412 60.9093 100.498 60.5947 100.583 60.2C100.668 59.8053 100.748 59.2933 100.823 58.664L101.239 55.224H106.071V61.928H107.207V62.76L107.079 65.752H105.943V63H100.631ZM101.975 58.92C101.89 59.688 101.772 60.312 101.623 60.792C101.484 61.272 101.324 61.6507 101.143 61.928H104.759V56.296H102.279L101.975 58.92ZM112.027 63.192C111.504 63.192 111.013 63.1013 110.555 62.92C110.107 62.728 109.712 62.4613 109.371 62.12C109.04 61.768 108.779 61.3413 108.587 60.84C108.395 60.3387 108.299 59.768 108.299 59.128C108.299 58.488 108.395 57.9173 108.587 57.416C108.789 56.904 109.051 56.472 109.371 56.12C109.701 55.768 110.075 55.5013 110.491 55.32C110.907 55.128 111.339 55.032 111.786 55.032C112.277 55.032 112.715 55.1173 113.099 55.288C113.493 55.4587 113.819 55.704 114.075 56.024C114.341 56.344 114.544 56.728 114.683 57.176C114.821 57.624 114.891 58.1253 114.891 58.68C114.891 58.8187 114.885 58.9573 114.875 59.096C114.875 59.224 114.864 59.336 114.843 59.432H109.595C109.648 60.264 109.904 60.9253 110.363 61.416C110.832 61.896 111.44 62.136 112.187 62.136C112.56 62.136 112.901 62.0827 113.211 61.976C113.531 61.8587 113.835 61.7093 114.123 61.528L114.587 62.392C114.245 62.6053 113.867 62.792 113.451 62.952C113.035 63.112 112.56 63.192 112.027 63.192ZM109.579 58.488H113.739C113.739 57.6987 113.568 57.1013 113.227 56.696C112.896 56.28 112.427 56.072 111.819 56.072C111.541 56.072 111.275 56.1253 111.019 56.232C110.773 56.3387 110.549 56.4987 110.347 56.712C110.144 56.9147 109.973 57.1653 109.835 57.464C109.707 57.7627 109.621 58.104 109.579 58.488ZM116.812 63V55.224H118.092V58.456C118.092 58.872 118.076 59.3307 118.044 59.832C118.023 60.3227 117.996 60.8187 117.964 61.32H118.028C118.177 61.0747 118.348 60.7973 118.54 60.488C118.743 60.1787 118.913 59.9013 119.052 59.656L121.996 55.224H123.228V63H121.948V59.768C121.948 59.352 121.959 58.8987 121.98 58.408C122.012 57.9067 122.044 57.4 122.076 56.888H122.012C121.863 57.1333 121.687 57.416 121.484 57.736C121.292 58.0453 121.127 58.3173 120.988 58.552L118.028 63H116.812ZM120.06 53.832C119.612 53.832 119.233 53.7627 118.924 53.624C118.615 53.4853 118.359 53.304 118.156 53.08C117.953 52.8453 117.804 52.584 117.708 52.296C117.612 51.9973 117.559 51.6933 117.548 51.384H118.636C118.647 51.608 118.673 51.8267 118.716 52.04C118.769 52.2427 118.849 52.4187 118.956 52.568C119.073 52.7173 119.217 52.84 119.388 52.936C119.569 53.0213 119.793 53.064 120.06 53.064C120.327 53.064 120.545 53.0213 120.716 52.936C120.897 52.84 121.041 52.7173 121.148 52.568C121.265 52.4187 121.345 52.2427 121.388 52.04C121.441 51.8267 121.473 51.608 121.484 51.384H122.572C122.551 51.6933 122.492 51.9973 122.396 52.296C122.311 52.584 122.167 52.8453 121.964 53.08C121.761 53.304 121.505 53.4853 121.196 53.624C120.887 53.7627 120.508 53.832 120.06 53.832ZM128.931 63.192C128.419 63.192 127.939 63.1013 127.491 62.92C127.043 62.7387 126.654 62.4773 126.323 62.136C126.003 61.784 125.747 61.3573 125.555 60.856C125.374 60.344 125.283 59.768 125.283 59.128C125.283 58.4773 125.384 57.9013 125.587 57.4C125.79 56.888 126.062 56.456 126.403 56.104C126.744 55.752 127.139 55.4853 127.587 55.304C128.046 55.1227 128.526 55.032 129.027 55.032C129.539 55.032 129.976 55.1227 130.339 55.304C130.702 55.4853 131.022 55.6987 131.299 55.944L130.627 56.808C130.403 56.6053 130.163 56.44 129.907 56.312C129.662 56.184 129.384 56.12 129.075 56.12C128.723 56.12 128.398 56.1947 128.099 56.344C127.8 56.4827 127.544 56.6853 127.331 56.952C127.118 57.2187 126.947 57.5387 126.819 57.912C126.702 58.2747 126.643 58.68 126.643 59.128C126.643 59.576 126.702 59.9813 126.819 60.344C126.936 60.7067 127.096 61.0213 127.299 61.288C127.512 61.544 127.768 61.7467 128.067 61.896C128.366 62.0347 128.691 62.104 129.043 62.104C129.406 62.104 129.736 62.0293 130.035 61.88C130.344 61.72 130.622 61.5333 130.867 61.32L131.443 62.2C131.091 62.5093 130.702 62.7547 130.275 62.936C129.848 63.1067 129.4 63.192 128.931 63.192ZM134.712 63V56.296H132.104V55.224H138.632V56.296H136.024V63H134.712ZM140.359 63V55.224H143.351C143.778 55.224 144.167 55.2613 144.519 55.336C144.871 55.4107 145.17 55.528 145.415 55.688C145.671 55.8373 145.868 56.04 146.007 56.296C146.146 56.5413 146.215 56.84 146.215 57.192C146.215 57.6293 146.098 57.9867 145.863 58.264C145.639 58.5413 145.324 58.7387 144.919 58.856V58.904C145.143 58.9573 145.351 59.032 145.543 59.128C145.746 59.224 145.922 59.3467 146.071 59.496C146.22 59.6453 146.338 59.8267 146.423 60.04C146.508 60.2533 146.551 60.4987 146.551 60.776C146.551 61.16 146.471 61.4907 146.311 61.768C146.162 62.0453 145.948 62.28 145.671 62.472C145.404 62.6533 145.084 62.7867 144.711 62.872C144.338 62.9573 143.927 63 143.479 63H140.359ZM141.655 58.488H143.127C143.778 58.488 144.242 58.3867 144.519 58.184C144.796 57.9707 144.935 57.6827 144.935 57.32C144.935 56.9573 144.802 56.6747 144.535 56.472C144.268 56.2693 143.831 56.168 143.223 56.168H141.655V58.488ZM141.655 62.056H143.335C143.975 62.056 144.45 61.9387 144.759 61.704C145.079 61.4693 145.239 61.1333 145.239 60.696C145.239 60.3013 145.074 59.992 144.743 59.768C144.412 59.544 143.916 59.432 143.255 59.432H141.655V62.056ZM148.549 66.344C148.368 66.344 148.203 66.328 148.053 66.296C147.904 66.2747 147.765 66.2373 147.637 66.184L147.893 65.144C147.979 65.1653 148.075 65.1867 148.181 65.208C148.288 65.24 148.389 65.256 148.485 65.256C148.933 65.256 149.296 65.096 149.573 64.776C149.861 64.4667 150.085 64.072 150.245 63.592L150.421 63.016L147.301 55.224H148.661L150.245 59.528C150.363 59.8693 150.485 60.232 150.613 60.616C150.752 60.9893 150.88 61.3573 150.997 61.72H151.061C151.179 61.368 151.291 61 151.397 60.616C151.504 60.232 151.611 59.8693 151.717 59.528L153.109 55.224H154.389L151.461 63.64C151.323 64.024 151.168 64.3813 150.997 64.712C150.827 65.0427 150.624 65.3253 150.389 65.56C150.155 65.8053 149.888 65.9973 149.589 66.136C149.291 66.2747 148.944 66.344 148.549 66.344ZM158.98 63.192C158.457 63.192 157.966 63.1013 157.508 62.92C157.06 62.728 156.665 62.4613 156.324 62.12C155.993 61.768 155.732 61.3413 155.54 60.84C155.348 60.3387 155.252 59.768 155.252 59.128C155.252 58.488 155.348 57.9173 155.54 57.416C155.742 56.904 156.004 56.472 156.324 56.12C156.654 55.768 157.028 55.5013 157.444 55.32C157.86 55.128 158.292 55.032 158.74 55.032C159.23 55.032 159.668 55.1173 160.052 55.288C160.446 55.4587 160.772 55.704 161.028 56.024C161.294 56.344 161.497 56.728 161.636 57.176C161.774 57.624 161.844 58.1253 161.844 58.68C161.844 58.8187 161.838 58.9573 161.828 59.096C161.828 59.224 161.817 59.336 161.796 59.432H156.548C156.601 60.264 156.857 60.9253 157.316 61.416C157.785 61.896 158.393 62.136 159.14 62.136C159.513 62.136 159.854 62.0827 160.164 61.976C160.484 61.8587 160.788 61.7093 161.076 61.528L161.54 62.392C161.198 62.6053 160.82 62.792 160.404 62.952C159.988 63.112 159.513 63.192 158.98 63.192ZM156.532 58.488H160.692C160.692 57.6987 160.521 57.1013 160.18 56.696C159.849 56.28 159.38 56.072 158.772 56.072C158.494 56.072 158.228 56.1253 157.972 56.232C157.726 56.3387 157.502 56.4987 157.3 56.712C157.097 56.9147 156.926 57.1653 156.788 57.464C156.66 57.7627 156.574 58.104 156.532 58.488ZM165.321 63V56.296H162.713V55.224H169.241V56.296H166.633V63H165.321ZM174.443 63V65.752H173.307L173.163 62.76V61.928H173.547C173.654 61.864 173.755 61.7787 173.851 61.672C173.958 61.5547 174.054 61.3787 174.139 61.144C174.225 60.9093 174.31 60.5947 174.395 60.2C174.481 59.8053 174.561 59.2933 174.635 58.664L175.051 55.224H179.883V61.928H181.019V62.76L180.891 65.752H179.755V63H174.443ZM175.787 58.92C175.702 59.688 175.585 60.312 175.435 60.792C175.297 61.272 175.137 61.6507 174.955 61.928H178.571V56.296H176.091L175.787 58.92ZM185.711 63.192C185.231 63.192 184.772 63.1013 184.335 62.92C183.908 62.7387 183.53 62.4773 183.199 62.136C182.868 61.784 182.602 61.3573 182.399 60.856C182.207 60.344 182.111 59.768 182.111 59.128C182.111 58.4773 182.207 57.9013 182.399 57.4C182.602 56.888 182.868 56.456 183.199 56.104C183.53 55.752 183.908 55.4853 184.335 55.304C184.772 55.1227 185.231 55.032 185.711 55.032C186.191 55.032 186.644 55.1227 187.071 55.304C187.508 55.4853 187.892 55.752 188.223 56.104C188.554 56.456 188.815 56.888 189.007 57.4C189.21 57.9013 189.311 58.4773 189.311 59.128C189.311 59.768 189.21 60.344 189.007 60.856C188.815 61.3573 188.554 61.784 188.223 62.136C187.892 62.4773 187.508 62.7387 187.071 62.92C186.644 63.1013 186.191 63.192 185.711 63.192ZM185.711 62.104C186.042 62.104 186.346 62.0347 186.623 61.896C186.9 61.7467 187.135 61.544 187.327 61.288C187.53 61.0213 187.684 60.7067 187.791 60.344C187.898 59.9813 187.951 59.576 187.951 59.128C187.951 58.68 187.898 58.2747 187.791 57.912C187.684 57.5387 187.53 57.2187 187.327 56.952C187.135 56.6853 186.9 56.4827 186.623 56.344C186.346 56.1947 186.042 56.12 185.711 56.12C185.38 56.12 185.076 56.1947 184.799 56.344C184.522 56.4827 184.282 56.6853 184.079 56.952C183.887 57.2187 183.738 57.5387 183.631 57.912C183.524 58.2747 183.471 58.68 183.471 59.128C183.471 59.576 183.524 59.9813 183.631 60.344C183.738 60.7067 183.887 61.0213 184.079 61.288C184.282 61.544 184.522 61.7467 184.799 61.896C185.076 62.0347 185.38 62.104 185.711 62.104ZM197.026 63.192C196.621 63.192 196.247 63.1493 195.906 63.064C195.575 62.9893 195.271 62.888 194.994 62.76C194.717 62.6213 194.466 62.4667 194.242 62.296C194.029 62.1253 193.837 61.944 193.666 61.752L194.338 60.888C194.647 61.208 195.005 61.4907 195.41 61.736C195.826 61.9813 196.338 62.104 196.946 62.104C197.565 62.104 198.071 61.9387 198.466 61.608C198.861 61.2667 199.058 60.808 199.058 60.232C199.058 59.9333 198.999 59.6613 198.882 59.416C198.775 59.16 198.594 58.9413 198.338 58.76C198.082 58.5787 197.746 58.44 197.33 58.344C196.914 58.248 196.402 58.2 195.794 58.2V57.192C196.338 57.192 196.791 57.144 197.154 57.048C197.527 56.952 197.826 56.8187 198.05 56.648C198.285 56.4773 198.45 56.2747 198.546 56.04C198.642 55.8053 198.69 55.5547 198.69 55.288C198.69 54.7867 198.53 54.392 198.21 54.104C197.901 53.816 197.474 53.672 196.93 53.672C196.503 53.672 196.109 53.768 195.746 53.96C195.394 54.152 195.063 54.4027 194.754 54.712L194.05 53.88C194.445 53.5067 194.877 53.2027 195.346 52.968C195.826 52.7227 196.37 52.6 196.978 52.6C197.426 52.6 197.837 52.6587 198.21 52.776C198.583 52.8933 198.903 53.064 199.17 53.288C199.447 53.5013 199.661 53.768 199.81 54.088C199.959 54.408 200.034 54.776 200.034 55.192C200.034 55.8107 199.863 56.3173 199.522 56.712C199.181 57.1067 198.733 57.4107 198.178 57.624V57.688C198.487 57.7627 198.775 57.8747 199.042 58.024C199.309 58.1627 199.543 58.344 199.746 58.568C199.949 58.7813 200.103 59.032 200.21 59.32C200.327 59.608 200.386 59.928 200.386 60.28C200.386 60.728 200.295 61.1333 200.114 61.496C199.943 61.8587 199.703 62.168 199.394 62.424C199.095 62.6693 198.743 62.8613 198.338 63C197.933 63.128 197.495 63.192 197.026 63.192ZM202.467 63V61.912H204.803V54.392H202.947V53.544C203.416 53.4587 203.822 53.3573 204.163 53.24C204.515 53.112 204.83 52.9627 205.107 52.792H206.115V61.912H208.227V63H202.467ZM211.156 63.192C210.89 63.192 210.66 63.1013 210.468 62.92C210.287 62.728 210.196 62.488 210.196 62.2C210.196 61.8907 210.287 61.6453 210.468 61.464C210.66 61.272 210.89 61.176 211.156 61.176C211.412 61.176 211.631 61.272 211.812 61.464C212.004 61.6453 212.1 61.8907 212.1 62.2C212.1 62.488 212.004 62.728 211.812 62.92C211.631 63.1013 211.412 63.192 211.156 63.192ZM217.125 63.192C216.09 63.192 215.285 62.7333 214.709 61.816C214.133 60.8987 213.845 59.5813 213.845 57.864C213.845 56.1467 214.133 54.84 214.709 53.944C215.285 53.048 216.09 52.6 217.125 52.6C218.149 52.6 218.949 53.048 219.525 53.944C220.101 54.84 220.389 56.1467 220.389 57.864C220.389 59.5813 220.101 60.8987 219.525 61.816C218.949 62.7333 218.149 63.192 217.125 63.192ZM217.125 62.136C217.423 62.136 217.69 62.056 217.925 61.896C218.17 61.7253 218.378 61.4693 218.549 61.128C218.73 60.776 218.869 60.3333 218.965 59.8C219.061 59.256 219.109 58.6107 219.109 57.864C219.109 57.1173 219.061 56.4773 218.965 55.944C218.869 55.4107 218.73 54.9787 218.549 54.648C218.378 54.3067 218.17 54.056 217.925 53.896C217.69 53.736 217.423 53.656 217.125 53.656C216.826 53.656 216.554 53.736 216.309 53.896C216.063 54.056 215.85 54.3067 215.669 54.648C215.498 54.9787 215.365 55.4107 215.269 55.944C215.173 56.4773 215.125 57.1173 215.125 57.864C215.125 59.3573 215.306 60.4453 215.669 61.128C216.042 61.8 216.527 62.136 217.125 62.136ZM224.87 63.192C224.464 63.192 224.091 63.1493 223.75 63.064C223.419 62.9893 223.115 62.888 222.838 62.76C222.56 62.6213 222.31 62.4667 222.086 62.296C221.872 62.1253 221.68 61.944 221.51 61.752L222.182 60.888C222.491 61.208 222.848 61.4907 223.254 61.736C223.67 61.9813 224.182 62.104 224.79 62.104C225.408 62.104 225.915 61.9387 226.31 61.608C226.704 61.2667 226.902 60.808 226.902 60.232C226.902 59.9333 226.843 59.6613 226.726 59.416C226.619 59.16 226.438 58.9413 226.182 58.76C225.926 58.5787 225.59 58.44 225.174 58.344C224.758 58.248 224.246 58.2 223.638 58.2V57.192C224.182 57.192 224.635 57.144 224.998 57.048C225.371 56.952 225.67 56.8187 225.894 56.648C226.128 56.4773 226.294 56.2747 226.39 56.04C226.486 55.8053 226.534 55.5547 226.534 55.288C226.534 54.7867 226.374 54.392 226.054 54.104C225.744 53.816 225.318 53.672 224.774 53.672C224.347 53.672 223.952 53.768 223.59 53.96C223.238 54.152 222.907 54.4027 222.598 54.712L221.894 53.88C222.288 53.5067 222.72 53.2027 223.19 52.968C223.67 52.7227 224.214 52.6 224.822 52.6C225.27 52.6 225.68 52.6587 226.054 52.776C226.427 52.8933 226.747 53.064 227.014 53.288C227.291 53.5013 227.504 53.768 227.654 54.088C227.803 54.408 227.878 54.776 227.878 55.192C227.878 55.8107 227.707 56.3173 227.366 56.712C227.024 57.1067 226.576 57.4107 226.022 57.624V57.688C226.331 57.7627 226.619 57.8747 226.886 58.024C227.152 58.1627 227.387 58.344 227.59 58.568C227.792 58.7813 227.947 59.032 228.054 59.32C228.171 59.608 228.23 59.928 228.23 60.28C228.23 60.728 228.139 61.1333 227.958 61.496C227.787 61.8587 227.547 62.168 227.238 62.424C226.939 62.6693 226.587 62.8613 226.182 63C225.776 63.128 225.339 63.192 224.87 63.192ZM231.047 63.192C230.78 63.192 230.551 63.1013 230.359 62.92C230.178 62.728 230.087 62.488 230.087 62.2C230.087 61.8907 230.178 61.6453 230.359 61.464C230.551 61.272 230.78 61.176 231.047 61.176C231.303 61.176 231.522 61.272 231.703 61.464C231.895 61.6453 231.991 61.8907 231.991 62.2C231.991 62.488 231.895 62.728 231.703 62.92C231.522 63.1013 231.303 63.192 231.047 63.192ZM233.671 63V62.216C234.439 61.448 235.122 60.7547 235.719 60.136C236.317 59.5173 236.818 58.9467 237.223 58.424C237.629 57.8907 237.938 57.4053 238.151 56.968C238.365 56.52 238.471 56.088 238.471 55.672C238.471 55.0853 238.311 54.6053 237.991 54.232C237.671 53.8587 237.186 53.672 236.535 53.672C236.109 53.672 235.714 53.7947 235.351 54.04C234.989 54.2747 234.658 54.5627 234.359 54.904L233.607 54.152C234.034 53.6827 234.487 53.3093 234.967 53.032C235.447 52.744 236.023 52.6 236.695 52.6C237.645 52.6 238.391 52.8773 238.935 53.432C239.479 53.976 239.751 54.7013 239.751 55.608C239.751 56.088 239.645 56.5733 239.431 57.064C239.229 57.544 238.941 58.0453 238.567 58.568C238.205 59.08 237.767 59.6187 237.255 60.184C236.754 60.7387 236.199 61.3307 235.591 61.96C235.869 61.9387 236.157 61.9173 236.455 61.896C236.754 61.8747 237.037 61.864 237.303 61.864H240.263V63H233.671ZM244.968 63.192C243.934 63.192 243.128 62.7333 242.552 61.816C241.976 60.8987 241.688 59.5813 241.688 57.864C241.688 56.1467 241.976 54.84 242.552 53.944C243.128 53.048 243.934 52.6 244.968 52.6C245.992 52.6 246.792 53.048 247.368 53.944C247.944 54.84 248.232 56.1467 248.232 57.864C248.232 59.5813 247.944 60.8987 247.368 61.816C246.792 62.7333 245.992 63.192 244.968 63.192ZM244.968 62.136C245.267 62.136 245.534 62.056 245.768 61.896C246.014 61.7253 246.222 61.4693 246.392 61.128C246.574 60.776 246.712 60.3333 246.808 59.8C246.904 59.256 246.952 58.6107 246.952 57.864C246.952 57.1173 246.904 56.4773 246.808 55.944C246.712 55.4107 246.574 54.9787 246.392 54.648C246.222 54.3067 246.014 54.056 245.768 53.896C245.534 53.736 245.267 53.656 244.968 53.656C244.67 53.656 244.398 53.736 244.152 53.896C243.907 54.056 243.694 54.3067 243.512 54.648C243.342 54.9787 243.208 55.4107 243.112 55.944C243.016 56.4773 242.968 57.1173 242.968 57.864C242.968 59.3573 243.15 60.4453 243.512 61.128C243.886 61.8 244.371 62.136 244.968 62.136ZM249.578 63V62.216C250.346 61.448 251.028 60.7547 251.626 60.136C252.223 59.5173 252.724 58.9467 253.13 58.424C253.535 57.8907 253.844 57.4053 254.058 56.968C254.271 56.52 254.378 56.088 254.378 55.672C254.378 55.0853 254.218 54.6053 253.898 54.232C253.578 53.8587 253.092 53.672 252.442 53.672C252.015 53.672 251.62 53.7947 251.258 54.04C250.895 54.2747 250.564 54.5627 250.266 54.904L249.514 54.152C249.94 53.6827 250.394 53.3093 250.874 53.032C251.354 52.744 251.93 52.6 252.602 52.6C253.551 52.6 254.298 52.8773 254.842 53.432C255.386 53.976 255.658 54.7013 255.658 55.608C255.658 56.088 255.551 56.5733 255.338 57.064C255.135 57.544 254.847 58.0453 254.474 58.568C254.111 59.08 253.674 59.6187 253.161 60.184C252.66 60.7387 252.106 61.3307 251.498 61.96C251.775 61.9387 252.063 61.9173 252.362 61.896C252.66 61.8747 252.943 61.864 253.21 61.864H256.17V63H249.578ZM257.531 63V62.216C258.299 61.448 258.981 60.7547 259.579 60.136C260.176 59.5173 260.677 58.9467 261.083 58.424C261.488 57.8907 261.797 57.4053 262.011 56.968C262.224 56.52 262.331 56.088 262.331 55.672C262.331 55.0853 262.171 54.6053 261.851 54.232C261.531 53.8587 261.045 53.672 260.395 53.672C259.968 53.672 259.573 53.7947 259.211 54.04C258.848 54.2747 258.517 54.5627 258.219 54.904L257.467 54.152C257.893 53.6827 258.347 53.3093 258.827 53.032C259.307 52.744 259.883 52.6 260.555 52.6C261.504 52.6 262.251 52.8773 262.795 53.432C263.339 53.976 263.611 54.7013 263.611 55.608C263.611 56.088 263.504 56.5733 263.291 57.064C263.088 57.544 262.8 58.0453 262.427 58.568C262.064 59.08 261.627 59.6187 261.115 60.184C260.613 60.7387 260.059 61.3307 259.451 61.96C259.728 61.9387 260.016 61.9173 260.315 61.896C260.613 61.8747 260.896 61.864 261.163 61.864H264.123V63H257.531Z" fill="white"/>
<path d="M294.736 30V19.28C294.725 19.2907 294.603 19.3227 294.368 19.376C294.144 19.4293 293.888 19.4827 293.6 19.536C293.312 19.5893 293.056 19.6373 292.832 19.68C292.608 19.7227 292.491 19.744 292.48 19.744V18.448C292.661 18.4053 292.869 18.3467 293.104 18.272C293.349 18.1973 293.595 18.1067 293.84 18C294.096 17.8933 294.336 17.76 294.56 17.6C294.795 17.44 294.992 17.2533 295.152 17.04H296.448V30H294.736ZM299 30V28.784L302.296 23.648C302.541 23.264 302.765 22.9067 302.968 22.576C303.181 22.2453 303.352 21.8987 303.48 21.536C303.618 21.1627 303.688 20.736 303.688 20.256C303.688 19.6587 303.592 19.1893 303.4 18.848C303.208 18.5067 302.872 18.336 302.392 18.336C301.986 18.336 301.672 18.448 301.448 18.672C301.224 18.896 301.069 19.1893 300.984 19.552C300.898 19.9147 300.856 20.304 300.856 20.72V21.152H299.144V20.704C299.144 19.9253 299.245 19.2587 299.448 18.704C299.661 18.1387 299.997 17.7013 300.456 17.392C300.925 17.0827 301.544 16.928 302.312 16.928C303.357 16.928 304.136 17.2267 304.648 17.824C305.16 18.4107 305.416 19.2267 305.416 20.272C305.416 20.8267 305.346 21.312 305.208 21.728C305.08 22.144 304.909 22.5333 304.696 22.896C304.482 23.2587 304.248 23.632 303.992 24.016L301.016 28.56H305.112V30H299ZM309.904 30.144C309.232 30.144 308.656 30.0213 308.176 29.776C307.707 29.52 307.35 29.152 307.104 28.672C306.859 28.192 306.731 27.6107 306.72 26.928C306.72 26.9067 306.72 26.8853 306.72 26.864C306.72 26.832 306.72 26.8053 306.72 26.784H308.432C308.432 27.4027 308.534 27.8827 308.736 28.224C308.939 28.5547 309.334 28.72 309.92 28.72C310.24 28.72 310.507 28.624 310.72 28.432C310.934 28.2293 311.094 27.9253 311.2 27.52C311.307 27.104 311.36 26.5813 311.36 25.952V23.984C311.2 24.2507 310.96 24.4693 310.64 24.64C310.331 24.8 309.942 24.88 309.472 24.88C308.758 24.88 308.198 24.7253 307.792 24.416C307.387 24.096 307.099 23.6587 306.928 23.104C306.768 22.5387 306.688 21.8827 306.688 21.136C306.688 20.3467 306.795 19.6373 307.008 19.008C307.222 18.368 307.563 17.8613 308.032 17.488C308.512 17.1147 309.136 16.928 309.904 16.928C310.651 16.928 311.259 17.12 311.728 17.504C312.198 17.8773 312.539 18.384 312.752 19.024C312.976 19.664 313.088 20.3787 313.088 21.168V25.52C313.088 26.352 312.992 27.12 312.8 27.824C312.608 28.528 312.283 29.0933 311.824 29.52C311.366 29.936 310.726 30.144 309.904 30.144ZM309.904 23.584C310.278 23.584 310.582 23.4933 310.816 23.312C311.051 23.12 311.232 22.912 311.36 22.688V20.768C311.36 20.32 311.318 19.9147 311.232 19.552C311.147 19.1787 310.998 18.8853 310.784 18.672C310.571 18.448 310.278 18.336 309.904 18.336C309.531 18.336 309.232 18.448 309.008 18.672C308.795 18.896 308.64 19.1893 308.544 19.552C308.459 19.904 308.416 20.2933 308.416 20.72C308.416 21.232 308.438 21.7067 308.48 22.144C308.534 22.5813 308.662 22.9333 308.864 23.2C309.078 23.456 309.424 23.584 309.904 23.584ZM321.592 30.144C320.92 30.144 320.344 30.0213 319.864 29.776C319.395 29.52 319.037 29.152 318.792 28.672C318.547 28.192 318.419 27.6107 318.408 26.928C318.408 26.9067 318.408 26.8853 318.408 26.864C318.408 26.832 318.408 26.8053 318.408 26.784H320.12C320.12 27.4027 320.221 27.8827 320.424 28.224C320.627 28.5547 321.021 28.72 321.608 28.72C321.928 28.72 322.195 28.624 322.408 28.432C322.621 28.2293 322.781 27.9253 322.888 27.52C322.995 27.104 323.048 26.5813 323.048 25.952V23.984C322.888 24.2507 322.648 24.4693 322.328 24.64C322.019 24.8 321.629 24.88 321.16 24.88C320.445 24.88 319.885 24.7253 319.48 24.416C319.075 24.096 318.787 23.6587 318.616 23.104C318.456 22.5387 318.376 21.8827 318.376 21.136C318.376 20.3467 318.483 19.6373 318.696 19.008C318.909 18.368 319.251 17.8613 319.72 17.488C320.2 17.1147 320.824 16.928 321.592 16.928C322.339 16.928 322.947 17.12 323.416 17.504C323.885 17.8773 324.227 18.384 324.44 19.024C324.664 19.664 324.776 20.3787 324.776 21.168V25.52C324.776 26.352 324.68 27.12 324.488 27.824C324.296 28.528 323.971 29.0933 323.512 29.52C323.053 29.936 322.413 30.144 321.592 30.144ZM321.592 23.584C321.965 23.584 322.269 23.4933 322.504 23.312C322.739 23.12 322.92 22.912 323.048 22.688V20.768C323.048 20.32 323.005 19.9147 322.92 19.552C322.835 19.1787 322.685 18.8853 322.472 18.672C322.259 18.448 321.965 18.336 321.592 18.336C321.219 18.336 320.92 18.448 320.696 18.672C320.483 18.896 320.328 19.1893 320.232 19.552C320.147 19.904 320.104 20.2933 320.104 20.72C320.104 21.232 320.125 21.7067 320.168 22.144C320.221 22.5813 320.349 22.9333 320.552 23.2C320.765 23.456 321.112 23.584 321.592 23.584ZM329.847 30.144C329.111 30.144 328.503 29.9787 328.023 29.648C327.554 29.3173 327.202 28.864 326.967 28.288C326.743 27.712 326.631 27.056 326.631 26.32V20.736C326.631 19.9787 326.743 19.3173 326.967 18.752C327.191 18.176 327.538 17.728 328.007 17.408C328.487 17.088 329.1 16.928 329.847 16.928C330.594 16.928 331.202 17.088 331.671 17.408C332.14 17.728 332.487 18.176 332.711 18.752C332.935 19.3173 333.047 19.9787 333.047 20.736V26.32C333.047 27.0667 332.93 27.728 332.695 28.304C332.471 28.88 332.124 29.3333 331.655 29.664C331.186 29.984 330.583 30.144 329.847 30.144ZM329.847 28.736C330.252 28.736 330.556 28.6187 330.759 28.384C330.972 28.1493 331.116 27.8507 331.191 27.488C331.276 27.1147 331.319 26.7307 331.319 26.336V20.72C331.319 20.304 331.282 19.9147 331.207 19.552C331.132 19.1787 330.988 18.88 330.775 18.656C330.572 18.432 330.263 18.32 329.847 18.32C329.431 18.32 329.116 18.432 328.903 18.656C328.69 18.88 328.546 19.1787 328.471 19.552C328.396 19.9147 328.359 20.304 328.359 20.72V26.336C328.359 26.7307 328.396 27.1147 328.471 27.488C328.556 27.8507 328.706 28.1493 328.919 28.384C329.143 28.6187 329.452 28.736 329.847 28.736ZM338.113 30.144C337.377 30.144 336.769 29.9787 336.289 29.648C335.819 29.3173 335.467 28.864 335.233 28.288C335.009 27.712 334.897 27.056 334.897 26.32V20.736C334.897 19.9787 335.009 19.3173 335.233 18.752C335.457 18.176 335.803 17.728 336.273 17.408C336.753 17.088 337.366 16.928 338.113 16.928C338.859 16.928 339.467 17.088 339.937 17.408C340.406 17.728 340.753 18.176 340.977 18.752C341.201 19.3173 341.313 19.9787 341.313 20.736V26.32C341.313 27.0667 341.195 27.728 340.961 28.304C340.737 28.88 340.39 29.3333 339.921 29.664C339.451 29.984 338.849 30.144 338.113 30.144ZM338.113 28.736C338.518 28.736 338.822 28.6187 339.025 28.384C339.238 28.1493 339.382 27.8507 339.457 27.488C339.542 27.1147 339.585 26.7307 339.585 26.336V20.72C339.585 20.304 339.547 19.9147 339.473 19.552C339.398 19.1787 339.254 18.88 339.041 18.656C338.838 18.432 338.529 18.32 338.113 18.32C337.697 18.32 337.382 18.432 337.169 18.656C336.955 18.88 336.811 19.1787 336.737 19.552C336.662 19.9147 336.625 20.304 336.625 20.72V26.336C336.625 26.7307 336.662 27.1147 336.737 27.488C336.822 27.8507 336.971 28.1493 337.185 28.384C337.409 28.6187 337.718 28.736 338.113 28.736Z" fill="white"/>
<line x1="291.85" y1="30.5229" x2="342.85" y2="14.5229" stroke="white"/>
<defs>
<filter id="filter0_d_263_4" x="0" y="0" width="363" height="92.4734" filterUnits="userSpaceOnUse" color-interpolation-filters="sRGB">
<feFlood flood-opacity="0" result="BackgroundImageFix"/>
<feColorMatrix in="SourceAlpha" type="matrix" values="0 0 0 0 0 0 0 0 0 0 0 0 0 0 0 0 0 0 127 0" result="hardAlpha"/>
<feOffset dy="4"/>
<feGaussianBlur stdDeviation="1.5"/>
<feComposite in2="hardAlpha" operator="out"/>
<feColorMatrix type="matrix" values="0 0 0 0 0.0588235 0 0 0 0 0.0901961 0 0 0 0 0.133333 0 0 0 0.28 0"/>
<feBlend mode="normal" in2="BackgroundImageFix" result="effect1_dropShadow_263_4"/>
<feBlend mode="normal" in="SourceGraphic" in2="effect1_dropShadow_263_4" result="shape"/>
</filter>
<filter id="filter1_i_263_4" x="20.1816" y="36.842" width="15.2729" height="15.7894" filterUnits="userSpaceOnUse" color-interpolation-filters="sRGB">
<feFlood flood-opacity="0" result="BackgroundImageFix"/>
<feBlend mode="normal" in="SourceGraphic" in2="BackgroundImageFix" result="shape"/>
<feColorMatrix in="SourceAlpha" type="matrix" values="0 0 0 0 0 0 0 0 0 0 0 0 0 0 0 0 0 0 127 0" result="hardAlpha"/>
<feOffset dy="4"/>
<feGaussianBlur stdDeviation="2"/>
<feComposite in2="hardAlpha" operator="arithmetic" k2="-1" k3="1"/>
<feColorMatrix type="matrix" values="0 0 0 0 0.0588235 0 0 0 0 0.0901961 0 0 0 0 0.133333 0 0 0 0.29 0"/>
<feBlend mode="normal" in2="shape" result="effect1_innerShadow_263_4"/>
</filter>
</defs>
</svg>
