<svg width="45" height="45" viewBox="0 0 45 45" fill="none" xmlns="http://www.w3.org/2000/svg">
<circle cx="22.5" cy="22.5" r="21.5" stroke="#E1B793" stroke-width="2"/>
<path d="M21.125 24.6667V18C21.125 17.0833 20.2812 16.3333 19.25 16.3333H11.75V13H21.125V9.66667H16.4375V8H12.6875V9.66667H9.875C8.84375 9.66667 8 10.4167 8 11.3333V18C8 18.9167 8.84375 19.6667 9.875 19.6667H17.375V23H8V26.3333H12.6875V28H16.4375V26.3333H19.25C20.2812 26.3333 21.125 25.5833 21.125 24.6667ZM35.3563 23.8667L24.7438 33.2833L19.4375 28.5667L16.7937 30.9333L24.7438 38L38 26.2167L35.3563 23.8667Z" fill="#E1B793"/>
</svg>
