<svg width="203" height="95" viewBox="0 0 203 95" fill="none" xmlns="http://www.w3.org/2000/svg">
<g filter="url(#filter0_d_58_52)">
<path d="M32.3467 30.9208L188.961 0.820806L199.908 57.7784L43.2935 87.8784L5.76993 67.0868L32.3467 30.9208Z" fill="#C21919"/>
<path d="M38.0495 34.9681L39.3043 33.3346L39.7008 33.6392L40.2126 32.9731L41.0165 32.8186L40.9221 32.3276L42.9027 31.9469L42.9971 32.4379L44.9776 32.0573L44.8833 31.5663L46.8639 31.1856L46.9583 31.6766L48.9388 31.296L48.8445 30.805L50.8251 30.4243L50.9194 30.9153L52.9 30.5347L52.8057 30.0437L54.7863 29.663L54.8806 30.154L56.8612 29.7734L56.7669 29.2824L58.7475 28.9017L58.8418 29.3927L60.8224 29.0121L60.7281 28.521L62.7087 28.1404L62.803 28.6314L64.7836 28.2507L64.6893 27.7597L66.6699 27.3791L66.7642 27.8701L68.7448 27.4894L68.6505 26.9984L70.6311 26.6178L70.7254 27.1088L72.706 26.7281L72.6117 26.2371L74.5923 25.8565L74.6866 26.3475L76.6672 25.9668L76.5729 25.4758L78.5535 25.0951L78.6478 25.5862L80.6284 25.2055L80.5341 24.7145L82.5147 24.3338L82.609 24.8249L84.5896 24.4442L84.4952 23.9532L86.4758 23.5725L86.5702 24.0635L88.5508 23.6829L88.4564 23.1919L90.437 22.8112L90.5314 23.3022L92.512 22.9216L92.4176 22.4306L94.3982 22.0499L94.4926 22.5409L96.4732 22.1603L96.3788 21.6693L98.3594 21.2886L98.4538 21.7796L100.434 21.399L100.34 20.9079L102.321 20.5273L102.415 21.0183L104.396 20.6377L104.301 20.1466L106.282 19.766L106.376 20.257L108.357 19.8763L108.262 19.3853L110.243 19.0047L110.337 19.4957L112.318 19.115L112.224 18.624L114.204 18.2434L114.299 18.7344L116.279 18.3537L116.185 17.8627L118.165 17.4821L118.26 17.9731L120.24 17.5924L120.146 17.1014L122.127 16.7207L122.221 17.2118L124.202 16.8311L124.107 16.3401L126.088 15.9594L126.182 16.4504L128.163 16.0698L128.068 15.5788L130.049 15.1981L130.143 15.6891L132.124 15.3085L132.03 14.8175L134.01 14.4368L134.105 14.9278L136.085 14.5472L135.991 14.0562L137.971 13.6755L138.066 14.1665L140.046 13.7859L139.952 13.2949L141.933 12.9142L142.027 13.4052L144.008 13.0246L143.913 12.5335L145.894 12.1529L145.988 12.6439L147.969 12.2632L147.874 11.7722L149.855 11.3916L149.949 11.8826L151.93 11.5019L151.836 11.0109L153.816 10.6303L153.911 11.1213L155.891 10.7406L155.797 10.2496L157.777 9.86896L157.872 10.36L159.852 9.97932L159.758 9.4883L161.739 9.10765L161.833 9.59866L163.814 9.21801L163.719 8.72699L165.7 8.34634L165.794 8.83735L167.775 8.4567L167.68 7.96568L169.661 7.58503L169.755 8.07604L171.736 7.69539L171.642 7.20437L173.622 6.82372L173.717 7.31473L175.697 6.93408L175.603 6.44306L177.583 6.06241L177.678 6.55342L179.658 6.17277L179.564 5.68175L181.545 5.3011L181.639 5.79211L183.62 5.41146L183.525 4.92044L185.506 4.53979L185.6 5.0308L186.099 4.93485L186.194 5.42586L186.685 5.33149L187.062 7.29554L186.571 7.38991L186.949 9.35397L187.44 9.2596L187.817 11.2237L187.326 11.318L187.704 13.2821L188.195 13.1877L188.572 15.1518L188.081 15.2461L188.459 17.2102L188.95 17.1158L189.327 19.0799L188.836 19.1742L189.214 21.1383L189.705 21.0439L190.082 23.008L189.591 23.1024L189.969 25.0664L190.46 24.972L190.837 26.9361L190.346 27.0305L190.723 28.9945L191.215 28.9002L191.592 30.8642L191.101 30.9586L191.478 32.9226L191.969 32.8283L192.347 34.7923L191.856 34.8867L192.233 36.8507L192.724 36.7564L193.102 38.7204L192.611 38.8148L192.988 40.7789L193.479 40.6845L193.857 42.6485L193.366 42.7429L193.743 44.707L194.234 44.6126L194.612 46.5766L194.121 46.671L194.498 48.6351L194.989 48.5407L195.367 50.5048L194.876 50.5991L195.253 52.5632L195.744 52.4688L196.122 54.4329L195.631 54.5272L195.725 55.0182L195.226 55.1142L195.32 55.6052L193.34 55.9859L193.245 55.4949L191.265 55.8755L191.359 56.3665L189.378 56.7472L189.284 56.2562L187.303 56.6368L187.398 57.1278L185.417 57.5085L185.323 57.0175L183.342 57.3981L183.437 57.8892L181.456 58.2698L181.362 57.7788L179.381 58.1594L179.475 58.6505L177.495 59.0311L177.4 58.5401L175.42 58.9208L175.514 59.4118L173.534 59.7924L173.439 59.3014L171.459 59.6821L171.553 60.1731L169.572 60.5537L169.478 60.0627L167.497 60.4434L167.592 60.9344L165.611 61.315L165.517 60.824L163.536 61.2047L163.631 61.6957L161.65 62.0764L161.556 61.5853L159.575 61.966L159.669 62.457L157.689 62.8377L157.594 62.3467L155.614 62.7273L155.708 63.2183L153.728 63.599L153.633 63.108L151.653 63.4886L151.747 63.9796L149.766 64.3603L149.672 63.8693L147.691 64.2499L147.786 64.7409L145.805 65.1216L145.711 64.6306L143.73 65.0112L143.825 65.5022L141.844 65.8829L141.75 65.3919L139.769 65.7725L139.863 66.2636L137.883 66.6442L137.788 66.1532L135.808 66.5339L135.902 67.0249L133.922 67.4055L133.827 66.9145L131.847 67.2952L131.941 67.7862L129.96 68.1668L129.866 67.6758L127.885 68.0565L127.98 68.5475L125.999 68.9281L125.905 68.4371L123.924 68.8178L124.019 69.3088L122.038 69.6895L121.944 69.1984L119.963 69.5791L120.057 70.0701L118.077 70.4508L117.982 69.9597L116.002 70.3404L116.096 70.8314L114.116 71.2121L114.021 70.7211L112.041 71.1017L112.135 71.5927L110.154 71.9734L110.06 71.4824L108.079 71.863L108.174 72.354L106.193 72.7347L106.099 72.2437L104.118 72.6243L104.213 73.1153L102.232 73.496L102.138 73.005L100.157 73.3856L100.251 73.8767L98.2708 74.2573L98.1764 73.7663L96.1958 74.147L96.2902 74.638L94.3096 75.0186L94.2152 74.5276L92.2346 74.9083L92.329 75.3993L90.3484 75.7799L90.254 75.2889L88.2734 75.6696L88.3678 76.1606L86.3872 76.5412L86.2928 76.0502L84.3122 76.4309L84.4066 76.9219L82.426 77.3025L82.3316 76.8115L80.351 77.1922L80.4454 77.6832L78.4648 78.0639L78.3704 77.5728L76.3898 77.9535L76.4842 78.4445L74.5036 78.8252L74.4092 78.3342L72.4286 78.7148L72.523 79.2058L70.5424 79.5865L70.448 79.0955L68.4674 79.4761L68.5618 79.9671L66.5812 80.3478L66.4868 79.8568L64.5062 80.2374L64.6006 80.7284L62.62 81.1091L62.5257 80.6181L60.5451 80.9987L60.6394 81.4898L58.6588 81.8704L58.5645 81.3794L56.5839 81.76L56.6782 82.2511L54.6976 82.6317L54.6033 82.1407L52.6227 82.5214L52.717 83.0124L50.7364 83.393L50.6421 82.902L49.824 83.0592L49.1064 82.6811L48.8733 83.1234L47.1277 82.2036L47.3608 81.7613L45.6152 80.8414L45.3822 81.2838L43.6366 80.3639L43.8697 79.9216L42.1241 79.0018L41.891 79.4441L40.1454 78.5243L40.3785 78.0819L38.6329 77.1621L38.3998 77.6044L36.6542 76.6846L36.8873 76.2423L35.1417 75.3224L34.9086 75.7648L33.163 74.845L33.3961 74.4026L31.6505 73.4828L31.4174 73.9251L29.6719 73.0053L29.9049 72.5629L28.1594 71.6431L27.9263 72.0855L26.1807 71.1656L26.4138 70.7233L24.6682 69.8034L24.4351 70.2458L22.6895 69.326L22.9226 68.8836L21.177 67.9638L20.9439 68.4061L19.1983 67.4863L19.4314 67.044L17.6858 66.1241L17.4527 66.5665L15.7071 65.6466L15.9402 65.2043L15.5922 65.0209L15.8583 64.6746L15.4618 64.37L16.7166 62.7366L17.1131 63.0412L18.368 61.4077L17.9715 61.1031L19.2264 59.4697L19.6229 59.7743L20.8778 58.1408L20.4813 57.8362L21.7361 56.2028L22.1326 56.5074L23.3875 54.874L22.991 54.5694L24.2459 52.9359L24.6424 53.2405L25.8973 51.6071L25.5007 51.3025L26.7556 49.669L27.1521 49.9736L28.407 48.3402L28.0105 48.0356L29.2654 46.4022L29.6619 46.7068L30.9167 45.0733L30.5202 44.7687L31.7751 43.1353L32.1716 43.4399L33.4265 41.8064L33.03 41.5018L34.2848 39.8684L34.6814 40.173L35.9362 38.5396L35.5397 38.235L36.7946 36.6015L37.1911 36.9061L38.446 35.2727L38.0495 34.9681Z" stroke="white" stroke-dasharray="2 2"/>
<g filter="url(#filter1_i_58_52)">
<ellipse cx="18.6221" cy="63.0893" rx="4.11563" ry="4" transform="rotate(-10.8791 18.6221 63.0893)" fill="#ABA7A7"/>
</g>
</g>
<path d="M51.0151 68.2605C50.0095 68.4537 49.1768 68.402 48.5169 68.1052C47.857 67.8084 47.3289 67.3071 46.9326 66.6012C46.5519 65.8923 46.2635 65.0272 46.0672 64.0059L45.3062 60.0463C45.1099 59.025 45.0571 58.1146 45.1479 57.3151C45.2543 56.5126 45.559 55.8512 46.0618 55.331C46.5646 54.8107 47.3189 54.454 48.3245 54.2607C49.3301 54.0674 50.1549 54.1207 50.7991 54.4205C51.459 54.7173 51.9792 55.2201 52.3599 55.929C52.7562 56.6349 53.0525 57.4985 53.2488 58.5198L54.0098 62.4794C54.2061 63.5007 54.251 64.4126 54.1446 65.2151C54.0538 66.0146 53.757 66.6745 53.2542 67.1947C52.7671 67.712 52.0207 68.0672 51.0151 68.2605ZM50.6573 66.3985C51.1443 66.3049 51.455 66.0986 51.5892 65.7795C51.7391 65.4575 51.786 65.0656 51.7298 64.6039C51.6864 64.1234 51.6163 63.6318 51.5197 63.129L50.6998 58.8631C50.6001 58.3446 50.483 57.862 50.3483 57.4154C50.2293 56.9658 50.0404 56.6192 49.7818 56.3756C49.5359 56.1133 49.1694 56.029 48.6823 56.1226C48.1952 56.2162 47.8782 56.4319 47.7314 56.7697C47.5814 57.0918 47.5267 57.4852 47.5671 57.9499C47.6233 58.4116 47.7012 58.9017 47.8009 59.4202L48.6207 63.6862C48.7174 64.189 48.8267 64.673 48.9487 65.1384C49.0834 65.585 49.2801 65.9301 49.5387 66.1736C49.7973 66.4172 50.1702 66.4922 50.6573 66.3985ZM58.5914 66.6089L56.3356 54.8717L53.7902 55.3609L53.4278 53.4754L61.064 52.0078L61.4264 53.8933L58.8574 54.387L61.1132 66.1242L58.5914 66.6089ZM75.2532 63.6266C74.1062 63.847 73.1432 63.7958 72.3643 63.473C71.5854 63.1502 70.9588 62.6027 70.4845 61.8303C70.0229 61.0392 69.6833 60.078 69.4659 58.9467C69.3421 58.3025 69.2884 57.7263 69.3048 57.2181C69.3211 56.7098 69.3967 56.2554 69.5315 55.8548C69.679 55.4354 69.8685 55.065 70.1 54.7435C70.3442 54.4033 70.618 54.09 70.9214 53.8036C70.2113 53.5001 69.595 53.0483 69.0723 52.4482C68.5466 51.8324 68.1826 50.9981 67.9803 49.9453C67.7871 48.9397 67.7766 48.0375 67.9489 47.2386C68.1212 46.4397 68.4996 45.7805 69.084 45.2608C69.6811 44.7225 70.4903 44.3551 71.5117 44.1588C72.533 43.9625 73.405 44.0068 74.1277 44.2915C74.8631 44.5575 75.4589 45.0295 75.9151 45.7076C76.3713 46.3857 76.696 47.2275 76.8893 48.2331C77.0946 49.3015 77.0658 50.2113 76.8029 50.9625C76.5556 51.7106 76.1506 52.3587 75.588 52.9067C75.9759 53.0602 76.3385 53.2512 76.6757 53.4797C77.0255 53.6894 77.3388 53.9632 77.6156 54.3011C77.905 54.6202 78.1515 55.0127 78.3551 55.4787C78.5744 55.9416 78.746 56.4952 78.8698 57.1394C79.0872 58.2707 79.1204 59.2907 78.9692 60.1996C78.8307 61.0897 78.4596 61.8291 77.8558 62.4176C77.2677 63.0031 76.4002 63.4061 75.2532 63.6266ZM74.8682 61.6232C75.481 61.5054 75.9221 61.2577 76.1917 60.8801C76.4613 60.5024 76.5997 60.0359 76.607 59.4805C76.63 58.9221 76.5781 58.313 76.4513 57.6531C76.3365 57.056 76.1586 56.5118 75.9176 56.0205C75.6892 55.5104 75.3783 55.1221 74.985 54.8555C74.5886 54.5733 74.0997 54.488 73.5183 54.5998C72.937 54.7115 72.5051 54.9656 72.2229 55.3619C71.9563 55.7553 71.8037 56.2327 71.765 56.7941C71.7232 57.3398 71.7612 57.919 71.879 58.5318C72.0058 59.1917 72.1834 59.7767 72.4118 60.2868C72.6402 60.7969 72.9495 61.1773 73.3399 61.4282C73.746 61.676 74.2554 61.741 74.8682 61.6232ZM73.0563 52.1958C73.5875 52.0774 73.9564 51.8354 74.1632 51.4698C74.3856 51.1012 74.505 50.6628 74.5214 50.1545C74.5347 49.6306 74.4901 49.1015 74.3874 48.5673C74.2364 47.7817 73.9666 47.1411 73.5781 46.6455C73.1896 46.1499 72.6261 45.9731 71.8876 46.115C71.1491 46.257 70.6835 46.6316 70.4906 47.2389C70.2978 47.8462 70.2769 48.5427 70.4278 49.3283C70.5305 49.8625 70.6852 50.3705 70.8918 50.8521C71.0954 51.3181 71.3688 51.681 71.712 51.9409C72.071 52.1978 72.519 52.2827 73.0563 52.1958ZM86.8967 61.3888C85.9068 61.579 85.0236 61.5614 84.2471 61.3359C83.4832 61.0917 82.8527 60.6508 82.3554 60.0132C81.8581 59.3755 81.505 58.5555 81.296 57.5529C81.29 57.5215 81.2839 57.49 81.2779 57.4586C81.2688 57.4115 81.2613 57.3722 81.2553 57.3408L83.7771 56.8561C83.9523 57.7674 84.2374 58.4458 84.6326 58.8912C85.0247 59.3209 85.6529 59.4527 86.5171 59.2866C86.9885 59.196 87.3541 58.9791 87.614 58.6359C87.8709 58.277 88.0205 57.7839 88.0629 57.1566C88.1022 56.5136 88.0328 55.7286 87.8546 54.8016L87.2975 51.9026C87.1373 52.3407 86.8457 52.7308 86.4226 53.0728C86.0122 53.396 85.4614 53.6241 84.77 53.757C83.7173 53.9593 82.8486 53.89 82.164 53.5491C81.4763 53.1925 80.9282 52.6298 80.5198 51.8611C80.1241 51.0736 79.8205 50.13 79.6091 49.0301C79.3857 47.8674 79.342 46.7923 79.4781 45.8049C79.6111 44.8017 79.9705 43.9587 80.5561 43.2759C81.1575 42.5901 82.0238 42.1385 83.1551 41.9211C84.255 41.7097 85.205 41.8204 86.005 42.2531C86.8021 42.6702 87.4483 43.3199 87.9437 44.2023C88.4549 45.0816 88.8222 46.1026 89.0457 47.2653L90.2777 53.676C90.5133 54.9016 90.5893 56.0601 90.5058 57.1514C90.4223 58.2428 90.1031 59.1677 89.5482 59.926C88.9904 60.6687 88.1065 61.1562 86.8967 61.3888ZM85.0395 51.7256C85.5894 51.6199 86.0116 51.4003 86.3059 51.0668C86.5972 50.7175 86.8054 50.3598 86.9306 49.9936L86.387 47.1653C86.2602 46.5054 86.0826 45.9204 85.8542 45.4104C85.6228 44.8846 85.3198 44.4948 84.9451 44.2409C84.5675 43.9713 84.1037 43.8894 83.5537 43.9951C83.0038 44.1008 82.5956 44.3503 82.329 44.7437C82.0782 45.1341 81.9334 45.6099 81.8947 46.1713C81.8686 46.714 81.916 47.2996 82.0368 47.9281C82.1817 48.6823 82.3475 49.3755 82.5342 50.0076C82.7366 50.6367 83.0248 51.119 83.3988 51.4544C83.7855 51.7711 84.3324 51.8615 85.0395 51.7256ZM104.113 58.08C103.123 58.2702 102.24 58.2526 101.463 58.0271C100.699 57.7829 100.069 57.3419 99.5716 56.7043C99.0743 56.0667 98.7212 55.2467 98.5122 54.2441C98.5062 54.2126 98.5001 54.1812 98.4941 54.1498C98.485 54.1027 98.4775 54.0634 98.4714 54.032L100.993 53.5473C101.168 54.4586 101.454 55.137 101.849 55.5824C102.241 56.0121 102.869 56.1439 103.733 55.9778C104.205 55.8872 104.57 55.6703 104.83 55.3271C105.087 54.9682 105.237 54.4751 105.279 53.8478C105.318 53.2048 105.249 52.4198 105.071 51.4928L104.514 48.5938C104.353 49.0319 104.062 49.422 103.639 49.764C103.228 50.0872 102.678 50.3153 101.986 50.4482C100.933 50.6505 100.065 50.5812 99.3801 50.2403C98.6925 49.8837 98.1444 49.321 97.736 48.5523C97.3403 47.7648 97.0367 46.8211 96.8253 45.7213C96.6018 44.5586 96.5581 43.4835 96.6942 42.4961C96.8273 41.4929 97.1866 40.6499 97.7723 39.9671C98.3737 39.2813 99.24 38.8297 100.371 38.6122C101.471 38.4009 102.421 38.5116 103.221 38.9443C104.018 39.3614 104.664 40.0111 105.16 40.8935C105.671 41.7728 106.038 42.7938 106.262 43.9565L107.494 50.3672C107.729 51.5928 107.805 52.7513 107.722 53.8426C107.638 54.934 107.319 55.8589 106.764 56.6172C106.207 57.3599 105.323 57.8474 104.113 58.08ZM102.256 48.4168C102.806 48.3111 103.228 48.0915 103.522 47.758C103.813 47.4087 104.022 47.051 104.147 46.6848L103.603 43.8565C103.476 43.1966 103.299 42.6116 103.07 42.1015C102.839 41.5758 102.536 41.186 102.161 40.9321C101.784 40.6625 101.32 40.5806 100.77 40.6863C100.22 40.792 99.8117 41.0415 99.5452 41.4349C99.2944 41.8253 99.1496 42.3011 99.1108 42.8625C99.0848 43.4052 99.1322 43.9908 99.253 44.6193C99.3979 45.3735 99.5637 46.0666 99.7504 46.6988C99.9527 47.3279 100.241 47.8102 100.615 48.1456C101.002 48.4623 101.549 48.5527 102.256 48.4168ZM115.943 55.8063C114.953 55.9965 114.07 55.9789 113.294 55.7534C112.53 55.5092 111.899 55.0683 111.402 54.4306C110.905 53.793 110.552 52.973 110.343 51.9704C110.337 51.939 110.33 51.9075 110.324 51.8761C110.315 51.829 110.308 51.7897 110.302 51.7583L112.824 51.2736C112.999 52.1849 113.284 52.8633 113.679 53.3087C114.071 53.7384 114.699 53.8702 115.564 53.7041C116.035 53.6135 116.401 53.3966 116.661 53.0534C116.917 52.6945 117.067 52.2014 117.109 51.5741C117.149 50.9311 117.079 50.1461 116.901 49.2191L116.344 46.3201C116.184 46.7582 115.892 47.1483 115.469 47.4903C115.059 47.8135 114.508 48.0416 113.817 48.1745C112.764 48.3768 111.895 48.3075 111.21 47.9666C110.523 47.61 109.975 47.0473 109.566 46.2786C109.171 45.4911 108.867 44.5474 108.656 43.4476C108.432 42.2849 108.389 41.2098 108.525 40.2224C108.658 39.2192 109.017 38.3762 109.603 37.6934C110.204 37.0076 111.07 36.556 112.202 36.3386C113.302 36.1272 114.251 36.2379 115.052 36.6706C115.849 37.0877 116.495 37.7374 116.99 38.6198C117.501 39.4991 117.869 40.5201 118.092 41.6828L119.324 48.0935C119.56 49.3191 119.636 50.4776 119.552 51.5689C119.469 52.6603 119.15 53.5852 118.595 54.3435C118.037 55.0862 117.153 55.5737 115.943 55.8063ZM114.086 46.1431C114.636 46.0374 115.058 45.8178 115.352 45.4843C115.644 45.135 115.852 44.7773 115.977 44.4111L115.434 41.5828C115.307 40.9229 115.129 40.3379 114.901 39.8278C114.669 39.3021 114.366 38.9123 113.992 38.6584C113.614 38.3888 113.15 38.3069 112.6 38.4126C112.05 38.5183 111.642 38.7678 111.376 39.1612C111.125 39.5516 110.98 40.0274 110.941 40.5888C110.915 41.1315 110.963 41.7171 111.083 42.3456C111.228 43.0998 111.394 43.7929 111.581 44.4251C111.783 45.0542 112.071 45.5365 112.445 45.8719C112.832 46.1886 113.379 46.279 114.086 46.1431ZM128.104 53.4692C127.019 53.6775 126.077 53.6061 125.276 53.2549C124.491 52.9007 123.844 52.3326 123.336 51.5505C122.843 50.7655 122.492 49.8309 122.284 48.7467L120.703 40.5212C120.488 39.4057 120.466 38.3998 120.636 37.5036C120.803 36.5917 121.187 35.8337 121.787 35.2294C122.404 34.6221 123.262 34.2128 124.362 34.0014C125.462 33.79 126.403 33.8536 127.185 34.1921C127.967 34.5306 128.604 35.0924 129.097 35.8774C129.587 36.6468 129.939 37.5893 130.154 38.7048L131.735 46.9303C131.946 48.0302 131.96 49.0376 131.778 49.9525C131.611 50.8644 131.229 51.6303 130.631 52.2502C130.03 52.8545 129.188 53.2608 128.104 53.4692ZM127.705 51.3951C128.302 51.2804 128.717 51.0215 128.949 50.6184C129.196 50.2123 129.324 49.7316 129.331 49.1763C129.351 48.6022 129.305 48.0244 129.194 47.4431L127.604 39.1705C127.486 38.5577 127.321 37.9948 127.108 37.4817C126.893 36.9529 126.596 36.5537 126.218 36.2841C125.856 36.0115 125.369 35.9341 124.756 36.0519C124.143 36.1697 123.711 36.4237 123.461 36.8141C123.21 37.2045 123.082 37.6852 123.078 38.2563C123.071 38.8116 123.126 39.3957 123.244 40.0085L124.834 48.2811C124.945 48.8624 125.109 49.4175 125.325 49.9463C125.553 50.4564 125.858 50.854 126.238 51.1393C126.635 51.4216 127.124 51.5068 127.705 51.3951ZM142.325 50.516L140.069 38.7788L137.523 39.268L137.161 37.3826L144.797 35.9149L145.16 37.8004L142.591 38.2942L144.846 50.0314L142.325 50.516ZM148.94 49.2445L146.322 35.6218L151.814 34.5664L152.162 36.3812L149.193 36.952L151.462 48.7599L148.94 49.2445ZM155.187 48.044L156.656 27.9659L158.848 27.5446L157.355 47.6272L155.187 48.044ZM164.406 46.2722L161.929 32.6224L163.791 32.2645L168.416 40.0516L169.848 31.1004L171.71 30.7425L174.469 44.338L172.348 44.7457L170.786 36.6145L169.568 43.887L168.79 44.0365L164.973 37.7805L166.527 45.8646L164.406 46.2722ZM175.532 33.5517L175.256 32.114L177.567 28.3705C177.941 27.7771 178.229 27.2819 178.43 26.8849C178.643 26.4692 178.778 26.1093 178.833 25.8054C178.905 25.4984 178.913 25.2035 178.859 24.9207C178.768 24.4493 178.589 24.109 178.32 23.8999C178.049 23.6751 177.686 23.6064 177.23 23.694C176.633 23.8088 176.246 24.0867 176.07 24.5278C175.907 24.9502 175.897 25.5307 176.038 26.2692L174.177 26.627L174.113 26.297C173.98 25.6057 173.979 24.9624 174.109 24.3672C174.236 23.7562 174.519 23.2375 174.958 22.8109C175.413 22.3813 176.057 22.0864 176.89 21.9264C177.911 21.7301 178.767 21.8589 179.457 22.3128C180.144 22.751 180.581 23.4572 180.769 24.4314C180.92 25.217 180.864 25.9446 180.602 26.6141C180.352 27.2649 179.911 28.0665 179.28 29.0188L177.713 31.4217L182.073 30.5837L182.39 32.2335L175.532 33.5517Z" fill="white"/>
<defs>
<filter id="filter0_d_58_52" x="2.77002" y="0.820801" width="200.138" height="94.0576" filterUnits="userSpaceOnUse" color-interpolation-filters="sRGB">
<feFlood flood-opacity="0" result="BackgroundImageFix"/>
<feColorMatrix in="SourceAlpha" type="matrix" values="0 0 0 0 0 0 0 0 0 0 0 0 0 0 0 0 0 0 127 0" result="hardAlpha"/>
<feOffset dy="4"/>
<feGaussianBlur stdDeviation="1.5"/>
<feComposite in2="hardAlpha" operator="out"/>
<feColorMatrix type="matrix" values="0 0 0 0 0.0588235 0 0 0 0 0.0901961 0 0 0 0 0.133333 0 0 0 0.28 0"/>
<feBlend mode="normal" in2="BackgroundImageFix" result="effect1_dropShadow_58_52"/>
<feBlend mode="normal" in="SourceGraphic" in2="effect1_dropShadow_58_52" result="shape"/>
</filter>
<filter id="filter1_i_58_52" x="14.5098" y="59.0844" width="8.22461" height="12.0099" filterUnits="userSpaceOnUse" color-interpolation-filters="sRGB">
<feFlood flood-opacity="0" result="BackgroundImageFix"/>
<feBlend mode="normal" in="SourceGraphic" in2="BackgroundImageFix" result="shape"/>
<feColorMatrix in="SourceAlpha" type="matrix" values="0 0 0 0 0 0 0 0 0 0 0 0 0 0 0 0 0 0 127 0" result="hardAlpha"/>
<feOffset dy="4"/>
<feGaussianBlur stdDeviation="2"/>
<feComposite in2="hardAlpha" operator="arithmetic" k2="-1" k3="1"/>
<feColorMatrix type="matrix" values="0 0 0 0 0.0588235 0 0 0 0 0.0901961 0 0 0 0 0.133333 0 0 0 0.29 0"/>
<feBlend mode="normal" in2="shape" result="effect1_innerShadow_58_52"/>
</filter>
</defs>
</svg>
