<svg width="203" height="95" viewBox="0 0 203 95" fill="none" xmlns="http://www.w3.org/2000/svg">
<g filter="url(#filter0_d_58_52)">
<path d="M32.3467 30.9208L188.961 0.820805L199.908 57.7784L43.2935 87.8784L5.76993 67.0868L32.3467 30.9208Z" fill="#C21919"/>
<path d="M38.0495 34.9681L39.3043 33.3346L39.7008 33.6392L40.2126 32.9731L41.0165 32.8186L40.9221 32.3276L42.9027 31.9469L42.9971 32.4379L44.9776 32.0573L44.8833 31.5663L46.8639 31.1856L46.9583 31.6766L48.9388 31.296L48.8445 30.805L50.8251 30.4243L50.9194 30.9153L52.9 30.5347L52.8057 30.0437L54.7863 29.663L54.8806 30.154L56.8612 29.7734L56.7669 29.2824L58.7475 28.9017L58.8418 29.3927L60.8224 29.0121L60.7281 28.521L62.7087 28.1404L62.803 28.6314L64.7836 28.2507L64.6893 27.7597L66.6699 27.3791L66.7642 27.8701L68.7448 27.4894L68.6505 26.9984L70.6311 26.6178L70.7254 27.1088L72.706 26.7281L72.6117 26.2371L74.5923 25.8565L74.6866 26.3475L76.6672 25.9668L76.5729 25.4758L78.5535 25.0951L78.6478 25.5862L80.6284 25.2055L80.5341 24.7145L82.5147 24.3338L82.609 24.8249L84.5896 24.4442L84.4952 23.9532L86.4758 23.5725L86.5702 24.0635L88.5508 23.6829L88.4564 23.1919L90.437 22.8112L90.5314 23.3022L92.512 22.9216L92.4176 22.4306L94.3982 22.0499L94.4926 22.5409L96.4732 22.1603L96.3788 21.6693L98.3594 21.2886L98.4538 21.7796L100.434 21.399L100.34 20.9079L102.321 20.5273L102.415 21.0183L104.396 20.6376L104.301 20.1466L106.282 19.766L106.376 20.257L108.357 19.8763L108.262 19.3853L110.243 19.0047L110.337 19.4957L112.318 19.115L112.224 18.624L114.204 18.2434L114.299 18.7344L116.279 18.3537L116.185 17.8627L118.165 17.4821L118.26 17.9731L120.24 17.5924L120.146 17.1014L122.127 16.7207L122.221 17.2118L124.202 16.8311L124.107 16.3401L126.088 15.9594L126.182 16.4504L128.163 16.0698L128.068 15.5788L130.049 15.1981L130.143 15.6891L132.124 15.3085L132.03 14.8175L134.01 14.4368L134.105 14.9278L136.085 14.5472L135.991 14.0562L137.971 13.6755L138.066 14.1665L140.046 13.7859L139.952 13.2948L141.933 12.9142L142.027 13.4052L144.008 13.0246L143.913 12.5335L145.894 12.1529L145.988 12.6439L147.969 12.2632L147.874 11.7722L149.855 11.3916L149.949 11.8826L151.93 11.5019L151.836 11.0109L153.816 10.6303L153.911 11.1213L155.891 10.7406L155.797 10.2496L157.777 9.86896L157.872 10.36L159.852 9.97932L159.758 9.4883L161.739 9.10765L161.833 9.59866L163.814 9.21801L163.719 8.72699L165.7 8.34634L165.794 8.83735L167.775 8.4567L167.68 7.96568L169.661 7.58503L169.755 8.07604L171.736 7.69539L171.642 7.20437L173.622 6.82372L173.717 7.31473L175.697 6.93408L175.603 6.44306L177.583 6.06241L177.678 6.55342L179.658 6.17277L179.564 5.68175L181.545 5.3011L181.639 5.79211L183.62 5.41146L183.525 4.92044L185.506 4.53979L185.6 5.0308L186.099 4.93485L186.194 5.42586L186.685 5.33149L187.062 7.29554L186.571 7.38991L186.949 9.35397L187.44 9.2596L187.817 11.2237L187.326 11.318L187.704 13.2821L188.195 13.1877L188.572 15.1518L188.081 15.2461L188.459 17.2102L188.95 17.1158L189.327 19.0799L188.836 19.1742L189.214 21.1383L189.705 21.0439L190.082 23.008L189.591 23.1024L189.969 25.0664L190.46 24.972L190.837 26.9361L190.346 27.0305L190.723 28.9945L191.215 28.9002L191.592 30.8642L191.101 30.9586L191.478 32.9226L191.969 32.8283L192.347 34.7923L191.856 34.8867L192.233 36.8507L192.724 36.7564L193.102 38.7204L192.611 38.8148L192.988 40.7789L193.479 40.6845L193.857 42.6485L193.366 42.7429L193.743 44.707L194.234 44.6126L194.612 46.5766L194.121 46.671L194.498 48.6351L194.989 48.5407L195.367 50.5048L194.876 50.5991L195.253 52.5632L195.744 52.4688L196.122 54.4329L195.631 54.5272L195.725 55.0182L195.226 55.1142L195.32 55.6052L193.34 55.9859L193.245 55.4949L191.265 55.8755L191.359 56.3665L189.378 56.7472L189.284 56.2562L187.303 56.6368L187.398 57.1278L185.417 57.5085L185.323 57.0175L183.342 57.3981L183.437 57.8892L181.456 58.2698L181.362 57.7788L179.381 58.1594L179.475 58.6505L177.495 59.0311L177.4 58.5401L175.42 58.9208L175.514 59.4118L173.534 59.7924L173.439 59.3014L171.459 59.6821L171.553 60.1731L169.572 60.5537L169.478 60.0627L167.497 60.4434L167.592 60.9344L165.611 61.315L165.517 60.824L163.536 61.2047L163.631 61.6957L161.65 62.0764L161.556 61.5853L159.575 61.966L159.669 62.457L157.689 62.8377L157.594 62.3467L155.614 62.7273L155.708 63.2183L153.728 63.599L153.633 63.108L151.653 63.4886L151.747 63.9796L149.766 64.3603L149.672 63.8693L147.691 64.2499L147.786 64.7409L145.805 65.1216L145.711 64.6306L143.73 65.0112L143.825 65.5022L141.844 65.8829L141.75 65.3919L139.769 65.7725L139.863 66.2636L137.883 66.6442L137.788 66.1532L135.808 66.5339L135.902 67.0249L133.922 67.4055L133.827 66.9145L131.847 67.2952L131.941 67.7862L129.96 68.1668L129.866 67.6758L127.885 68.0565L127.98 68.5475L125.999 68.9281L125.905 68.4371L123.924 68.8178L124.019 69.3088L122.038 69.6895L121.944 69.1984L119.963 69.5791L120.057 70.0701L118.077 70.4508L117.982 69.9597L116.002 70.3404L116.096 70.8314L114.116 71.2121L114.021 70.7211L112.041 71.1017L112.135 71.5927L110.154 71.9734L110.06 71.4824L108.079 71.863L108.174 72.354L106.193 72.7347L106.099 72.2437L104.118 72.6243L104.213 73.1153L102.232 73.496L102.138 73.005L100.157 73.3856L100.251 73.8767L98.2708 74.2573L98.1764 73.7663L96.1958 74.147L96.2902 74.638L94.3096 75.0186L94.2152 74.5276L92.2346 74.9083L92.329 75.3993L90.3484 75.7799L90.254 75.2889L88.2734 75.6696L88.3678 76.1606L86.3872 76.5412L86.2928 76.0502L84.3122 76.4309L84.4066 76.9219L82.426 77.3025L82.3316 76.8115L80.351 77.1922L80.4454 77.6832L78.4648 78.0639L78.3704 77.5728L76.3898 77.9535L76.4842 78.4445L74.5036 78.8252L74.4092 78.3342L72.4286 78.7148L72.523 79.2058L70.5424 79.5865L70.448 79.0955L68.4674 79.4761L68.5618 79.9671L66.5812 80.3478L66.4868 79.8568L64.5062 80.2374L64.6006 80.7284L62.62 81.1091L62.5257 80.6181L60.5451 80.9987L60.6394 81.4898L58.6588 81.8704L58.5645 81.3794L56.5839 81.76L56.6782 82.2511L54.6976 82.6317L54.6033 82.1407L52.6227 82.5214L52.717 83.0124L50.7364 83.393L50.6421 82.902L49.824 83.0592L49.1064 82.6811L48.8733 83.1234L47.1277 82.2036L47.3608 81.7613L45.6152 80.8414L45.3822 81.2838L43.6366 80.3639L43.8697 79.9216L42.1241 79.0018L41.891 79.4441L40.1454 78.5243L40.3785 78.0819L38.6329 77.1621L38.3998 77.6044L36.6542 76.6846L36.8873 76.2423L35.1417 75.3224L34.9086 75.7648L33.163 74.845L33.3961 74.4026L31.6505 73.4828L31.4174 73.9251L29.6719 73.0053L29.9049 72.5629L28.1594 71.6431L27.9263 72.0855L26.1807 71.1656L26.4138 70.7233L24.6682 69.8034L24.4351 70.2458L22.6895 69.326L22.9226 68.8836L21.177 67.9638L20.9439 68.4061L19.1983 67.4863L19.4314 67.044L17.6858 66.1241L17.4527 66.5665L15.7071 65.6466L15.9402 65.2043L15.5922 65.0209L15.8583 64.6746L15.4618 64.37L16.7166 62.7366L17.1131 63.0412L18.368 61.4077L17.9715 61.1031L19.2264 59.4697L19.6229 59.7743L20.8778 58.1408L20.4813 57.8362L21.7361 56.2028L22.1326 56.5074L23.3875 54.874L22.991 54.5694L24.2459 52.9359L24.6424 53.2405L25.8973 51.6071L25.5007 51.3025L26.7556 49.669L27.1521 49.9736L28.407 48.3402L28.0105 48.0356L29.2654 46.4022L29.6619 46.7068L30.9167 45.0733L30.5202 44.7687L31.7751 43.1353L32.1716 43.4399L33.4265 41.8064L33.03 41.5018L34.2848 39.8684L34.6814 40.173L35.9362 38.5396L35.5397 38.235L36.7946 36.6015L37.1911 36.9061L38.446 35.2727L38.0495 34.9681Z" stroke="white" stroke-dasharray="2 2"/>
<g filter="url(#filter1_i_58_52)">
<ellipse cx="18.6221" cy="63.0893" rx="4.11563" ry="4" transform="rotate(-10.8791 18.6221 63.0893)" fill="#ABA7A7"/>
</g>
</g>
<path d="M51.0151 68.2605C50.0095 68.4537 49.1768 68.402 48.5169 68.1052C47.857 67.8084 47.3289 67.3071 46.9326 66.6012C46.5519 65.8923 46.2635 65.0272 46.0672 64.0059L45.3062 60.0463C45.1099 59.025 45.0571 58.1146 45.1479 57.3151C45.2543 56.5126 45.559 55.8512 46.0618 55.331C46.5646 54.8107 47.3189 54.454 48.3245 54.2607C49.3301 54.0674 50.1549 54.1207 50.7991 54.4205C51.459 54.7173 51.9792 55.2201 52.3599 55.929C52.7562 56.6349 53.0525 57.4985 53.2488 58.5198L54.0098 62.4794C54.2061 63.5007 54.251 64.4126 54.1446 65.2151C54.0538 66.0146 53.757 66.6745 53.2542 67.1947C52.7671 67.712 52.0207 68.0672 51.0151 68.2605ZM50.6573 66.3985C51.1443 66.3049 51.455 66.0986 51.5892 65.7795C51.7391 65.4575 51.786 65.0656 51.7298 64.6039C51.6864 64.1234 51.6163 63.6318 51.5197 63.129L50.6998 58.8631C50.6001 58.3446 50.483 57.862 50.3483 57.4154C50.2293 56.9658 50.0404 56.6192 49.7818 56.3756C49.5359 56.1133 49.1694 56.029 48.6823 56.1226C48.1952 56.2162 47.8782 56.4319 47.7314 56.7697C47.5814 57.0918 47.5267 57.4852 47.5671 57.9499C47.6233 58.4116 47.7012 58.9017 47.8009 59.4202L48.6207 63.6862C48.7174 64.189 48.8267 64.673 48.9487 65.1384C49.0834 65.585 49.2801 65.9301 49.5387 66.1736C49.7973 66.4172 50.1702 66.4922 50.6573 66.3985ZM58.5914 66.6089L56.3356 54.8717L53.7902 55.3609L53.4278 53.4754L61.064 52.0078L61.4264 53.8933L58.8574 54.387L61.1132 66.1242L58.5914 66.6089ZM75.4182 63.5948C74.3183 63.8062 73.3698 63.7034 72.5728 63.2863C71.7727 62.8535 71.1171 62.1975 70.606 61.3182C70.1075 60.4201 69.7466 59.3897 69.5231 58.227L68.2865 51.7927C68.0479 50.5515 67.9719 49.393 68.0585 48.3173C68.145 47.2417 68.4672 46.3325 69.0251 45.5899C69.5986 44.8442 70.4825 44.3566 71.6766 44.1271C72.6665 43.9369 73.534 43.9575 74.2791 44.1891C75.0399 44.4176 75.6674 44.8428 76.1617 45.4647C76.6717 46.0835 77.0296 46.8864 77.2356 47.8733C77.2416 47.9047 77.2507 47.9518 77.2628 48.0147C77.2875 48.0588 77.3044 48.1044 77.3135 48.1516L74.7681 48.6408C74.5899 47.7137 74.3048 47.0354 73.9126 46.6057C73.5205 46.176 72.908 46.0411 72.0752 46.2012C71.6196 46.2887 71.2555 46.5135 70.9829 46.8755C70.7073 47.2217 70.5404 47.71 70.4823 48.3403C70.44 48.9675 70.5094 49.7525 70.6906 50.6953L71.2477 53.5942C71.4236 53.1531 71.7168 52.7709 72.1271 52.4476C72.5502 52.1057 73.0995 51.8697 73.7752 51.7399C74.8279 51.5376 75.6966 51.6068 76.3812 51.9477C77.0659 52.2887 77.6139 52.8513 78.0254 53.6358C78.4338 54.4045 78.7452 55.3467 78.9596 56.4622C79.1801 57.6093 79.2238 58.6843 79.0907 59.6875C78.9576 60.6906 78.5998 61.5414 78.0172 62.24C77.4315 62.9228 76.5652 63.3744 75.4182 63.5948ZM75.015 61.4972C75.5807 61.3885 75.9904 61.1468 76.2443 60.7722C76.4951 60.3818 76.632 59.9075 76.6551 59.3491C76.6938 58.7877 76.6528 58.1927 76.532 57.5642C76.387 56.81 76.2134 56.1184 76.011 55.4893C75.8243 54.8571 75.5455 54.3812 75.1745 54.0615C74.8005 53.7261 74.2521 53.6278 73.5293 53.7667C73.1836 53.8331 72.8814 53.9564 72.6228 54.1364C72.3641 54.3165 72.1523 54.5283 71.9873 54.7718C71.8192 54.9996 71.6935 55.2356 71.6101 55.4797L72.1582 58.3315C72.282 58.9757 72.4596 59.5607 72.691 60.0865C72.9381 60.6093 73.2505 61.0054 73.6282 61.275C74.0028 61.5288 74.4651 61.6029 75.015 61.4972ZM86.9887 61.3711C85.9988 61.5613 85.1156 61.5437 84.3391 61.3182C83.5753 61.074 82.9448 60.6331 82.4475 59.9955C81.9502 59.3579 81.5971 58.5378 81.3881 57.5352C81.3821 57.5038 81.376 57.4723 81.37 57.4409C81.3609 57.3938 81.3534 57.3545 81.3473 57.3231L83.8692 56.8384C84.0443 57.7497 84.3295 58.4281 84.7246 58.8735C85.1168 59.3032 85.745 59.435 86.6092 59.2689C87.0805 59.1783 87.4462 58.9614 87.706 58.6182C87.9629 58.2593 88.1125 57.7662 88.1549 57.1389C88.1943 56.4959 88.1249 55.7109 87.9467 54.7839L87.3895 51.8849C87.2293 52.323 86.9377 52.7131 86.5147 53.0551C86.1043 53.3784 85.5534 53.6064 84.8621 53.7393C83.8094 53.9416 82.9407 53.8723 82.256 53.5314C81.5684 53.1748 81.0203 52.6121 80.6119 51.8434C80.2161 51.0559 79.9126 50.1123 79.7012 49.0124C79.4777 47.8497 79.434 46.7746 79.5701 45.7872C79.7032 44.784 80.0625 43.941 80.6482 43.2582C81.2496 42.5724 82.1159 42.1208 83.2472 41.9034C84.3471 41.692 85.297 41.8027 86.0971 42.2354C86.8941 42.6525 87.5404 43.3022 88.0358 44.1846C88.547 45.0639 88.9143 46.0849 89.1377 47.2476L90.3698 53.6583C90.6054 54.8839 90.6814 56.0424 90.5978 57.1337C90.5143 58.2251 90.1952 59.15 89.6403 59.9083C89.0824 60.651 88.1986 61.1386 86.9887 61.3711ZM85.1315 51.7079C85.6815 51.6022 86.1036 51.3826 86.398 51.0491C86.6893 50.6998 86.8975 50.3421 87.0226 49.9759L86.4791 47.1476C86.3522 46.4877 86.1746 45.9027 85.9463 45.3927C85.7149 44.8669 85.4119 44.4771 85.0372 44.2232C84.6595 43.9536 84.1957 43.8717 83.6458 43.9774C83.0959 44.0831 82.6876 44.3326 82.4211 44.726C82.1703 45.1164 82.0255 45.5922 81.9867 46.1536C81.9607 46.6963 82.0081 47.2819 82.1288 47.9104C82.2738 48.6646 82.4396 49.3578 82.6263 49.9899C82.8286 50.619 83.1168 51.1013 83.4909 51.4367C83.8776 51.7534 84.4245 51.8438 85.1315 51.7079ZM104.205 58.0623C103.215 58.2525 102.332 58.2349 101.555 58.0094C100.791 57.7652 100.161 57.3243 99.6636 56.6867C99.1664 56.049 98.8132 55.229 98.6043 54.2264C98.5982 54.195 98.5922 54.1635 98.5861 54.1321C98.5771 54.085 98.5695 54.0457 98.5635 54.0143L101.085 53.5296C101.26 54.4409 101.546 55.1193 101.941 55.5647C102.333 55.9944 102.961 56.1262 103.825 55.9601C104.297 55.8695 104.662 55.6526 104.922 55.3094C105.179 54.9505 105.329 54.4574 105.371 53.8301C105.41 53.1871 105.341 52.4021 105.163 51.4751L104.606 48.5761C104.446 49.0142 104.154 49.4043 103.731 49.7463C103.32 50.0695 102.77 50.2976 102.078 50.4305C101.026 50.6328 100.157 50.5635 99.4722 50.2226C98.7845 49.866 98.2365 49.3033 97.8281 48.5346C97.4323 47.7471 97.1288 46.8035 96.9174 45.7036C96.6939 44.5409 96.6502 43.4658 96.7863 42.4784C96.9194 41.4752 97.2787 40.6322 97.8644 39.9494C98.4657 39.2636 99.3321 38.812 100.463 38.5946C101.563 38.3832 102.513 38.4939 103.313 38.9266C104.11 39.3437 104.757 39.9934 105.252 40.8758C105.763 41.7551 106.13 42.7761 106.354 43.9388L107.586 50.3495C107.822 51.5751 107.898 52.7336 107.814 53.8249C107.731 54.9163 107.411 55.8412 106.856 56.5995C106.299 57.3422 105.415 57.8297 104.205 58.0623ZM102.348 48.3991C102.898 48.2934 103.32 48.0738 103.614 47.7403C103.905 47.391 104.114 47.0333 104.239 46.6671L103.695 43.8388C103.568 43.1789 103.391 42.5939 103.162 42.0838C102.931 41.5581 102.628 41.1683 102.253 40.9144C101.876 40.6448 101.412 40.5629 100.862 40.6686C100.312 40.7743 99.9038 41.0238 99.6373 41.4172C99.3864 41.8076 99.2416 42.2834 99.2029 42.8448C99.1769 43.3875 99.2242 43.9731 99.345 44.6016C99.49 45.3558 99.6558 46.049 99.8424 46.6811C100.045 47.3102 100.333 47.7925 100.707 48.1279C101.094 48.4446 101.641 48.535 102.348 48.3991ZM116.365 55.7252C115.281 55.9335 114.339 55.8621 113.538 55.5109C112.753 55.1567 112.106 54.5886 111.597 53.8065C111.104 53.0215 110.754 52.0869 110.545 51.0027L108.964 42.7773C108.75 41.6617 108.728 40.6558 108.898 39.7596C109.065 38.8477 109.448 38.0897 110.049 37.4854C110.666 36.8782 111.524 36.4688 112.624 36.2574C113.724 36.0461 114.664 36.1096 115.446 36.4481C116.228 36.7866 116.866 37.3484 117.359 38.1335C117.849 38.9028 118.201 39.8453 118.415 40.9608L119.996 49.1863C120.208 50.2862 120.222 51.2936 120.04 52.2085C119.873 53.1204 119.49 53.8863 118.893 54.5062C118.292 55.1105 117.449 55.5168 116.365 55.7252ZM115.967 53.6511C116.564 53.5364 116.978 53.2775 117.21 52.8744C117.458 52.4683 117.586 51.9876 117.593 51.4323C117.613 50.8582 117.567 50.2804 117.455 49.6991L115.866 41.4265C115.748 40.8137 115.583 40.2508 115.37 39.7377C115.154 39.2089 114.858 38.8097 114.48 38.5401C114.118 38.2675 113.631 38.1901 113.018 38.3079C112.405 38.4257 111.973 38.6798 111.722 39.0701C111.472 39.4605 111.344 39.9412 111.34 40.5123C111.332 41.0676 111.388 41.6517 111.505 42.2645L113.095 50.5371C113.207 51.1184 113.371 51.6735 113.586 52.2023C113.815 52.7124 114.119 53.11 114.5 53.3953C114.896 53.6776 115.385 53.7628 115.967 53.6511ZM128.541 53.3851C127.457 53.5935 126.514 53.5221 125.714 53.1709C124.929 52.8166 124.282 52.2485 123.773 51.4665C123.28 50.6814 122.929 49.7468 122.721 48.6627L121.14 40.4372C120.926 39.3216 120.903 38.3157 121.073 37.4196C121.24 36.5077 121.624 35.7496 122.225 35.1454C122.841 34.5381 123.699 34.1288 124.799 33.9174C125.899 33.706 126.84 33.7696 127.622 34.1081C128.404 34.4466 129.041 35.0083 129.534 35.7934C130.024 36.5627 130.377 37.5052 130.591 38.6208L132.172 46.8463C132.383 47.9461 132.398 48.9535 132.215 49.8684C132.048 50.7803 131.666 51.5462 131.068 52.1662C130.467 52.7704 129.625 53.1767 128.541 53.3851ZM128.142 51.3111C128.739 51.1963 129.154 50.9374 129.386 50.5344C129.634 50.1283 129.761 49.6476 129.769 49.0922C129.789 48.5181 129.743 47.9404 129.631 47.359L128.041 39.0864C127.923 38.4736 127.758 37.9107 127.545 37.3976C127.33 36.8688 127.033 36.4696 126.655 36.2001C126.294 35.9275 125.806 35.8501 125.193 35.9679C124.581 36.0856 124.149 36.3397 123.898 36.7301C123.647 37.1204 123.52 37.6011 123.515 38.1722C123.508 38.7276 123.563 39.3116 123.681 39.9244L125.271 48.197C125.383 48.7784 125.546 49.3335 125.762 49.8623C125.99 50.3723 126.295 50.77 126.676 51.0553C127.072 51.3375 127.561 51.4228 128.142 51.3111ZM142.762 50.432L140.506 38.6948L137.961 39.184L137.598 37.2985L145.235 35.8309L145.597 37.7164L143.028 38.2101L145.284 49.9473L142.762 50.432ZM149.378 49.1605L146.759 35.5378L152.251 34.4824L152.6 36.2972L149.63 36.8679L151.9 48.6758L149.378 49.1605ZM155.624 47.9599L157.093 27.8818L159.285 27.4606L157.793 47.5432L155.624 47.9599ZM164.843 46.1882L162.366 32.5383L164.228 32.1805L168.853 39.9675L170.285 31.0163L172.147 30.6585L174.907 44.254L172.786 44.6617L171.223 36.5305L170.006 43.8029L169.228 43.9524L165.41 37.6965L166.964 45.7805L164.843 46.1882ZM175.969 33.4676L175.693 32.0299L178.004 28.2865C178.379 27.6931 178.666 27.1979 178.867 26.8009C179.08 26.3851 179.215 26.0253 179.27 25.7213C179.342 25.4143 179.35 25.1194 179.296 24.8366C179.205 24.3652 179.026 24.025 178.758 23.8159C178.486 23.591 178.123 23.5224 177.667 23.61C177.07 23.7247 176.684 24.0027 176.508 24.4438C176.345 24.8662 176.334 25.4466 176.476 26.1851L174.614 26.543L174.55 26.213C174.418 25.5217 174.416 24.8784 174.546 24.2831C174.673 23.6722 174.956 23.1534 175.396 22.7268C175.851 22.2972 176.495 22.0024 177.327 21.8423C178.349 21.646 179.204 21.7749 179.895 22.2288C180.582 22.667 181.019 23.3732 181.206 24.3473C181.357 25.133 181.301 25.8605 181.039 26.5301C180.789 27.1809 180.349 27.9825 179.717 28.9348L178.15 31.3377L182.511 30.4997L182.828 32.1495L175.969 33.4676Z" fill="white"/>
<defs>
<filter id="filter0_d_58_52" x="2.77002" y="0.820801" width="200.138" height="94.0576" filterUnits="userSpaceOnUse" color-interpolation-filters="sRGB">
<feFlood flood-opacity="0" result="BackgroundImageFix"/>
<feColorMatrix in="SourceAlpha" type="matrix" values="0 0 0 0 0 0 0 0 0 0 0 0 0 0 0 0 0 0 127 0" result="hardAlpha"/>
<feOffset dy="4"/>
<feGaussianBlur stdDeviation="1.5"/>
<feComposite in2="hardAlpha" operator="out"/>
<feColorMatrix type="matrix" values="0 0 0 0 0.0588235 0 0 0 0 0.0901961 0 0 0 0 0.133333 0 0 0 0.28 0"/>
<feBlend mode="normal" in2="BackgroundImageFix" result="effect1_dropShadow_58_52"/>
<feBlend mode="normal" in="SourceGraphic" in2="effect1_dropShadow_58_52" result="shape"/>
</filter>
<filter id="filter1_i_58_52" x="14.5098" y="59.0844" width="8.22461" height="12.0099" filterUnits="userSpaceOnUse" color-interpolation-filters="sRGB">
<feFlood flood-opacity="0" result="BackgroundImageFix"/>
<feBlend mode="normal" in="SourceGraphic" in2="BackgroundImageFix" result="shape"/>
<feColorMatrix in="SourceAlpha" type="matrix" values="0 0 0 0 0 0 0 0 0 0 0 0 0 0 0 0 0 0 127 0" result="hardAlpha"/>
<feOffset dy="4"/>
<feGaussianBlur stdDeviation="2"/>
<feComposite in2="hardAlpha" operator="arithmetic" k2="-1" k3="1"/>
<feColorMatrix type="matrix" values="0 0 0 0 0.0588235 0 0 0 0 0.0901961 0 0 0 0 0.133333 0 0 0 0.29 0"/>
<feBlend mode="normal" in2="shape" result="effect1_innerShadow_58_52"/>
</filter>
</defs>
</svg>
