<svg width="203" height="95" viewBox="0 0 203 95" fill="none" xmlns="http://www.w3.org/2000/svg">
<g filter="url(#filter0_d_58_52)">
<path d="M32.3467 30.9208L188.961 0.820806L199.908 57.7784L43.2935 87.8784L5.76993 67.0868L32.3467 30.9208Z" fill="#C21919"/>
<path d="M38.0495 34.9681L39.3043 33.3346L39.7008 33.6392L40.2126 32.9731L41.0165 32.8186L40.9221 32.3276L42.9027 31.9469L42.9971 32.4379L44.9776 32.0573L44.8833 31.5663L46.8639 31.1856L46.9583 31.6766L48.9388 31.296L48.8445 30.805L50.8251 30.4243L50.9194 30.9153L52.9 30.5347L52.8057 30.0437L54.7863 29.663L54.8806 30.154L56.8612 29.7734L56.7669 29.2824L58.7475 28.9017L58.8418 29.3927L60.8224 29.0121L60.7281 28.521L62.7087 28.1404L62.803 28.6314L64.7836 28.2507L64.6893 27.7597L66.6699 27.3791L66.7642 27.8701L68.7448 27.4894L68.6505 26.9984L70.6311 26.6178L70.7254 27.1088L72.706 26.7281L72.6117 26.2371L74.5923 25.8565L74.6866 26.3475L76.6672 25.9668L76.5729 25.4758L78.5535 25.0951L78.6478 25.5862L80.6284 25.2055L80.5341 24.7145L82.5147 24.3338L82.609 24.8249L84.5896 24.4442L84.4952 23.9532L86.4758 23.5725L86.5702 24.0635L88.5508 23.6829L88.4564 23.1919L90.437 22.8112L90.5314 23.3022L92.512 22.9216L92.4176 22.4306L94.3982 22.0499L94.4926 22.5409L96.4732 22.1603L96.3788 21.6693L98.3594 21.2886L98.4538 21.7796L100.434 21.399L100.34 20.9079L102.321 20.5273L102.415 21.0183L104.396 20.6377L104.301 20.1466L106.282 19.766L106.376 20.257L108.357 19.8763L108.262 19.3853L110.243 19.0047L110.337 19.4957L112.318 19.115L112.224 18.624L114.204 18.2434L114.299 18.7344L116.279 18.3537L116.185 17.8627L118.165 17.4821L118.26 17.9731L120.24 17.5924L120.146 17.1014L122.127 16.7207L122.221 17.2118L124.202 16.8311L124.107 16.3401L126.088 15.9594L126.182 16.4504L128.163 16.0698L128.068 15.5788L130.049 15.1981L130.143 15.6891L132.124 15.3085L132.03 14.8175L134.01 14.4368L134.105 14.9278L136.085 14.5472L135.991 14.0562L137.971 13.6755L138.066 14.1665L140.046 13.7859L139.952 13.2949L141.933 12.9142L142.027 13.4052L144.008 13.0246L143.913 12.5335L145.894 12.1529L145.988 12.6439L147.969 12.2632L147.874 11.7722L149.855 11.3916L149.949 11.8826L151.93 11.5019L151.836 11.0109L153.816 10.6303L153.911 11.1213L155.891 10.7406L155.797 10.2496L157.777 9.86896L157.872 10.36L159.852 9.97932L159.758 9.4883L161.739 9.10765L161.833 9.59866L163.814 9.21801L163.719 8.72699L165.7 8.34634L165.794 8.83735L167.775 8.4567L167.68 7.96568L169.661 7.58503L169.755 8.07604L171.736 7.69539L171.642 7.20437L173.622 6.82372L173.717 7.31473L175.697 6.93408L175.603 6.44306L177.583 6.06241L177.678 6.55342L179.658 6.17277L179.564 5.68175L181.545 5.3011L181.639 5.79211L183.62 5.41146L183.525 4.92044L185.506 4.53979L185.6 5.0308L186.099 4.93485L186.194 5.42586L186.685 5.33149L187.062 7.29554L186.571 7.38991L186.949 9.35397L187.44 9.2596L187.817 11.2237L187.326 11.318L187.704 13.2821L188.195 13.1877L188.572 15.1518L188.081 15.2461L188.459 17.2102L188.95 17.1158L189.327 19.0799L188.836 19.1742L189.214 21.1383L189.705 21.0439L190.082 23.008L189.591 23.1024L189.969 25.0664L190.46 24.972L190.837 26.9361L190.346 27.0305L190.723 28.9945L191.215 28.9002L191.592 30.8642L191.101 30.9586L191.478 32.9226L191.969 32.8283L192.347 34.7923L191.856 34.8867L192.233 36.8507L192.724 36.7564L193.102 38.7204L192.611 38.8148L192.988 40.7789L193.479 40.6845L193.857 42.6485L193.366 42.7429L193.743 44.707L194.234 44.6126L194.612 46.5766L194.121 46.671L194.498 48.6351L194.989 48.5407L195.367 50.5048L194.876 50.5991L195.253 52.5632L195.744 52.4688L196.122 54.4329L195.631 54.5272L195.725 55.0182L195.226 55.1142L195.32 55.6052L193.34 55.9859L193.245 55.4949L191.265 55.8755L191.359 56.3665L189.378 56.7472L189.284 56.2562L187.303 56.6368L187.398 57.1278L185.417 57.5085L185.323 57.0175L183.342 57.3981L183.437 57.8892L181.456 58.2698L181.362 57.7788L179.381 58.1594L179.475 58.6505L177.495 59.0311L177.4 58.5401L175.42 58.9208L175.514 59.4118L173.534 59.7924L173.439 59.3014L171.459 59.6821L171.553 60.1731L169.572 60.5537L169.478 60.0627L167.497 60.4434L167.592 60.9344L165.611 61.315L165.517 60.824L163.536 61.2047L163.631 61.6957L161.65 62.0764L161.556 61.5853L159.575 61.966L159.669 62.457L157.689 62.8377L157.594 62.3467L155.614 62.7273L155.708 63.2183L153.728 63.599L153.633 63.108L151.653 63.4886L151.747 63.9796L149.766 64.3603L149.672 63.8693L147.691 64.2499L147.786 64.7409L145.805 65.1216L145.711 64.6306L143.73 65.0112L143.825 65.5022L141.844 65.8829L141.75 65.3919L139.769 65.7725L139.863 66.2636L137.883 66.6442L137.788 66.1532L135.808 66.5339L135.902 67.0249L133.922 67.4055L133.827 66.9145L131.847 67.2952L131.941 67.7862L129.96 68.1668L129.866 67.6758L127.885 68.0565L127.98 68.5475L125.999 68.9281L125.905 68.4371L123.924 68.8178L124.019 69.3088L122.038 69.6895L121.944 69.1984L119.963 69.5791L120.057 70.0701L118.077 70.4508L117.982 69.9597L116.002 70.3404L116.096 70.8314L114.116 71.2121L114.021 70.7211L112.041 71.1017L112.135 71.5927L110.154 71.9734L110.06 71.4824L108.079 71.863L108.174 72.354L106.193 72.7347L106.099 72.2437L104.118 72.6243L104.213 73.1153L102.232 73.496L102.138 73.005L100.157 73.3856L100.251 73.8767L98.2708 74.2573L98.1764 73.7663L96.1958 74.147L96.2902 74.638L94.3096 75.0186L94.2152 74.5276L92.2346 74.9083L92.329 75.3993L90.3484 75.7799L90.254 75.2889L88.2734 75.6696L88.3678 76.1606L86.3872 76.5412L86.2928 76.0502L84.3122 76.4309L84.4066 76.9219L82.426 77.3025L82.3316 76.8115L80.351 77.1922L80.4454 77.6832L78.4648 78.0639L78.3704 77.5728L76.3898 77.9535L76.4842 78.4445L74.5036 78.8252L74.4092 78.3342L72.4286 78.7148L72.523 79.2058L70.5424 79.5865L70.448 79.0955L68.4674 79.4761L68.5618 79.9671L66.5812 80.3478L66.4868 79.8568L64.5062 80.2374L64.6006 80.7284L62.62 81.1091L62.5257 80.6181L60.5451 80.9987L60.6394 81.4898L58.6588 81.8704L58.5645 81.3794L56.5839 81.76L56.6782 82.2511L54.6976 82.6317L54.6033 82.1407L52.6227 82.5214L52.717 83.0124L50.7364 83.393L50.6421 82.902L49.824 83.0592L49.1064 82.6811L48.8733 83.1234L47.1277 82.2036L47.3608 81.7613L45.6152 80.8414L45.3822 81.2838L43.6366 80.3639L43.8697 79.9216L42.1241 79.0018L41.891 79.4441L40.1454 78.5243L40.3785 78.0819L38.6329 77.1621L38.3998 77.6044L36.6542 76.6846L36.8873 76.2423L35.1417 75.3224L34.9086 75.7648L33.163 74.845L33.3961 74.4026L31.6505 73.4828L31.4174 73.9251L29.6719 73.0053L29.9049 72.5629L28.1594 71.6431L27.9263 72.0855L26.1807 71.1656L26.4138 70.7233L24.6682 69.8034L24.4351 70.2458L22.6895 69.326L22.9226 68.8836L21.177 67.9638L20.9439 68.4061L19.1983 67.4863L19.4314 67.044L17.6858 66.1241L17.4527 66.5665L15.7071 65.6466L15.9402 65.2043L15.5922 65.0209L15.8583 64.6746L15.4618 64.37L16.7166 62.7366L17.1131 63.0412L18.368 61.4077L17.9715 61.1031L19.2264 59.4697L19.6229 59.7743L20.8778 58.1408L20.4813 57.8362L21.7361 56.2028L22.1326 56.5074L23.3875 54.874L22.991 54.5694L24.2459 52.9359L24.6424 53.2405L25.8973 51.6071L25.5007 51.3025L26.7556 49.669L27.1521 49.9736L28.407 48.3402L28.0105 48.0356L29.2654 46.4022L29.6619 46.7068L30.9167 45.0733L30.5202 44.7687L31.7751 43.1353L32.1716 43.4399L33.4265 41.8064L33.03 41.5018L34.2848 39.8684L34.6814 40.173L35.9362 38.5396L35.5397 38.235L36.7946 36.6015L37.1911 36.9061L38.446 35.2727L38.0495 34.9681Z" stroke="white" stroke-dasharray="2 2"/>
<g filter="url(#filter1_i_58_52)">
<ellipse cx="18.6221" cy="63.0893" rx="4.11563" ry="4" transform="rotate(-10.8791 18.6221 63.0893)" fill="#ABA7A7"/>
</g>
</g>
<path d="M51.0151 68.2605C50.0095 68.4537 49.1768 68.402 48.5169 68.1052C47.857 67.8084 47.3289 67.3071 46.9326 66.6012C46.5519 65.8923 46.2635 65.0272 46.0672 64.0059L45.3062 60.0463C45.1099 59.025 45.0571 58.1146 45.1479 57.3151C45.2543 56.5126 45.559 55.8512 46.0618 55.331C46.5646 54.8107 47.3189 54.454 48.3245 54.2607C49.3301 54.0674 50.1549 54.1207 50.7991 54.4205C51.459 54.7173 51.9792 55.2201 52.3599 55.929C52.7562 56.6349 53.0525 57.4985 53.2488 58.5198L54.0098 62.4794C54.2061 63.5007 54.251 64.4126 54.1446 65.2151C54.0538 66.0146 53.757 66.6745 53.2542 67.1947C52.7671 67.712 52.0207 68.0672 51.0151 68.2605ZM50.6573 66.3985C51.1443 66.3049 51.455 66.0986 51.5892 65.7795C51.7391 65.4575 51.786 65.0656 51.7298 64.6039C51.6864 64.1234 51.6163 63.6318 51.5197 63.129L50.6998 58.8631C50.6001 58.3446 50.483 57.862 50.3483 57.4154C50.2293 56.9658 50.0404 56.6192 49.7818 56.3756C49.5359 56.1133 49.1694 56.029 48.6823 56.1226C48.1952 56.2162 47.8782 56.4319 47.7314 56.7697C47.5814 57.0918 47.5267 57.4852 47.5671 57.9499C47.6233 58.4116 47.7012 58.9017 47.8009 59.4202L48.6207 63.6862C48.7174 64.189 48.8267 64.673 48.9487 65.1384C49.0834 65.585 49.2801 65.9301 49.5387 66.1736C49.7973 66.4172 50.1702 66.4922 50.6573 66.3985ZM58.5914 66.6089L56.3356 54.8717L53.7902 55.3609L53.4278 53.4754L61.064 52.0078L61.4264 53.8933L58.8574 54.387L61.1132 66.1242L58.5914 66.6089ZM73.3505 63.7723L70.3156 47.9813C70.3029 48 70.1313 48.0819 69.8007 48.2269C69.4858 48.3688 69.1238 48.5199 68.7147 48.68C68.3056 48.8401 67.9421 48.9833 67.6242 49.1095C67.3063 49.2358 67.1395 49.3004 67.1238 49.3035L66.7569 47.3944C67.0119 47.2802 67.3017 47.1349 67.6262 46.9585C67.9665 46.779 68.3022 46.576 68.6334 46.3494C68.9803 46.1198 69.2961 45.8555 69.5807 45.5564C69.8811 45.2543 70.1189 44.9234 70.2942 44.5639L72.2033 44.197L75.8723 63.2876L73.3505 63.7723ZM82.6951 61.9763L79.6602 46.1853C79.6475 46.2041 79.4759 46.2859 79.1453 46.4309C78.8304 46.5729 78.4684 46.7239 78.0593 46.884C77.6502 47.0441 77.2867 47.1873 76.9688 47.3136C76.6509 47.4398 76.4841 47.5045 76.4684 47.5075L76.1015 45.5984C76.3565 45.4843 76.6463 45.3389 76.9708 45.1625C77.3111 44.9831 77.6468 44.7801 77.978 44.5535C78.3249 44.3239 78.6407 44.0595 78.9253 43.7604C79.2257 43.4583 79.4635 43.1275 79.6388 42.7679L81.5479 42.401L85.217 61.4916L82.6951 61.9763ZM93.8246 60.0573C92.8347 60.2475 91.9515 60.2299 91.175 60.0044C90.4111 59.7602 89.7806 59.3193 89.2833 58.6817C88.786 58.0441 88.4329 57.224 88.2239 56.2214C88.2179 56.19 88.2118 56.1585 88.2058 56.1271C88.1967 56.08 88.1892 56.0407 88.1832 56.0093L90.705 55.5246C90.8802 56.4359 91.1653 57.1143 91.5605 57.5597C91.9526 57.9894 92.5808 58.1212 93.445 57.9551C93.9164 57.8646 94.282 57.6476 94.5419 57.3044C94.7988 56.9455 94.9484 56.4524 94.9907 55.8251C95.0301 55.1821 94.9607 54.3971 94.7825 53.4701L94.2254 50.5711C94.0652 51.0093 93.7736 51.3993 93.3505 51.7413C92.9401 52.0646 92.3893 52.2926 91.6979 52.4255C90.6452 52.6278 89.7765 52.5585 89.0919 52.2176C88.4042 51.861 87.8561 51.2983 87.4477 50.5296C87.052 49.7421 86.7484 48.7985 86.537 47.6986C86.3136 46.5359 86.2699 45.4608 86.406 44.4734C86.539 43.4702 86.8984 42.6273 87.484 41.9444C88.0854 41.2586 88.9517 40.807 90.083 40.5896C91.1829 40.3782 92.1329 40.4889 92.9329 40.9217C93.73 41.3387 94.3762 41.9884 94.8716 42.8708C95.3828 43.7501 95.7501 44.7711 95.9736 45.9339L97.2056 52.3445C97.4412 53.5701 97.5172 54.7286 97.4337 55.82C97.3502 56.9113 97.031 57.8362 96.4761 58.5945C95.9183 59.3372 95.0344 59.8248 93.8246 60.0573ZM91.9674 50.3941C92.5173 50.2884 92.9395 50.0688 93.2338 49.7353C93.5251 49.386 93.7333 49.0283 93.8585 48.6621L93.3149 45.8338C93.1881 45.1739 93.0105 44.5889 92.7821 44.0789C92.5507 43.5531 92.2477 43.1633 91.873 42.9094C91.4954 42.6399 91.0316 42.5579 90.4816 42.6636C89.9317 42.7693 89.5235 43.0188 89.2569 43.4122C89.0061 43.8026 88.8613 44.2785 88.8226 44.8399C88.7965 45.3825 88.8439 45.9681 88.9647 46.5966C89.1096 47.3508 89.2754 48.044 89.4621 48.6761C89.6645 49.3052 89.9527 49.7875 90.3267 50.1229C90.7134 50.4396 91.2603 50.53 91.9674 50.3941ZM111.041 56.7485C110.051 56.9387 109.168 56.9211 108.391 56.6956C107.627 56.4514 106.997 56.0105 106.499 55.3729C106.002 54.7353 105.649 53.9152 105.44 52.9126C105.434 52.8812 105.428 52.8497 105.422 52.8183C105.413 52.7712 105.405 52.7319 105.399 52.7005L107.921 52.2158C108.096 53.1271 108.381 53.8055 108.777 54.2509C109.169 54.6806 109.797 54.8124 110.661 54.6463C111.133 54.5557 111.498 54.3388 111.758 53.9956C112.015 53.6367 112.165 53.1436 112.207 52.5163C112.246 51.8733 112.177 51.0883 111.999 50.1613L111.442 47.2623C111.281 47.7004 110.99 48.0905 110.567 48.4325C110.156 48.7558 109.605 48.9838 108.914 49.1167C107.861 49.319 106.993 49.2497 106.308 48.9088C105.62 48.5522 105.072 47.9895 104.664 47.2208C104.268 46.4333 103.965 45.4897 103.753 44.3898C103.53 43.2271 103.486 42.152 103.622 41.1646C103.755 40.1614 104.115 39.3184 104.7 38.6356C105.302 37.9498 106.168 37.4982 107.299 37.2808C108.399 37.0694 109.349 37.1801 110.149 37.6129C110.946 38.0299 111.592 38.6796 112.088 39.562C112.599 40.4413 112.966 41.4623 113.19 42.625L114.422 49.0357C114.657 50.2613 114.733 51.4198 114.65 52.5111C114.566 53.6025 114.247 54.5274 113.692 55.2857C113.134 56.0284 112.251 56.516 111.041 56.7485ZM109.184 47.0853C109.733 46.9796 110.156 46.76 110.45 46.4265C110.741 46.0772 110.95 45.7195 111.075 45.3533L110.531 42.525C110.404 41.8651 110.227 41.2801 109.998 40.7701C109.767 40.2443 109.464 39.8545 109.089 39.6006C108.712 39.331 108.248 39.2491 107.698 39.3548C107.148 39.4605 106.74 39.71 106.473 40.1034C106.222 40.4938 106.077 40.9696 106.039 41.531C106.013 42.0737 106.06 42.6593 106.181 43.2878C106.326 44.042 106.492 44.7352 106.678 45.3673C106.881 45.9964 107.169 46.4787 107.543 46.8141C107.93 47.1308 108.476 47.2212 109.184 47.0853ZM123.201 54.4114C122.117 54.6197 121.174 54.5483 120.374 54.1971C119.589 53.8429 118.942 53.2748 118.433 52.4927C117.94 51.7077 117.59 50.7731 117.381 49.6889L115.8 41.4635C115.586 40.3479 115.564 39.342 115.734 38.4458C115.9 37.5339 116.284 36.7759 116.885 36.1716C117.501 35.5644 118.36 35.155 119.46 34.9436C120.559 34.7323 121.5 34.7958 122.282 35.1343C123.064 35.4728 123.702 36.0346 124.195 36.8197C124.685 37.589 125.037 38.5315 125.251 39.647L126.832 47.8725C127.044 48.9724 127.058 49.9798 126.875 50.8947C126.708 51.8066 126.326 52.5725 125.728 53.1924C125.128 53.7967 124.285 54.203 123.201 54.4114ZM122.802 52.3373C123.4 52.2226 123.814 51.9637 124.046 51.5606C124.294 51.1545 124.422 50.6738 124.429 50.1185C124.449 49.5444 124.403 48.9667 124.291 48.3853L122.701 40.1127C122.584 39.4999 122.418 38.937 122.206 38.4239C121.99 37.8951 121.693 37.4959 121.316 37.2263C120.954 36.9538 120.466 36.8764 119.854 36.9941C119.241 37.1119 118.809 37.366 118.558 37.7563C118.307 38.1467 118.18 38.6274 118.175 39.1985C118.168 39.7538 118.223 40.3379 118.341 40.9507L119.931 49.2233C120.043 49.8046 120.207 50.3597 120.422 50.8885C120.651 51.3986 120.955 51.7963 121.336 52.0815C121.732 52.3638 122.221 52.4491 122.802 52.3373ZM135.377 52.0713C134.293 52.2797 133.35 52.2083 132.549 51.8571C131.764 51.5029 131.118 50.9347 130.609 50.1527C130.116 49.3676 129.765 48.433 129.557 47.3489L127.976 39.1234C127.761 38.0078 127.739 37.0019 127.909 36.1058C128.076 35.1939 128.46 34.4358 129.061 33.8316C129.677 33.2243 130.535 32.815 131.635 32.6036C132.735 32.3922 133.676 32.4558 134.458 32.7943C135.24 33.1328 135.877 33.6946 136.37 34.4796C136.86 35.249 137.213 36.1914 137.427 37.307L139.008 45.5325C139.219 46.6323 139.234 47.6397 139.051 48.5546C138.884 49.4665 138.502 50.2324 137.904 50.8524C137.303 51.4566 136.461 51.8629 135.377 52.0713ZM134.978 49.9973C135.575 49.8825 135.99 49.6236 136.222 49.2206C136.47 48.8145 136.597 48.3338 136.604 47.7784C136.625 47.2043 136.579 46.6266 136.467 46.0452L134.877 37.7726C134.759 37.1599 134.594 36.5969 134.381 36.0838C134.166 35.555 133.869 35.1559 133.491 34.8863C133.129 34.6137 132.642 34.5363 132.029 34.6541C131.416 34.7718 130.985 35.0259 130.734 35.4163C130.483 35.8066 130.355 36.2873 130.351 36.8584C130.344 37.4138 130.399 37.9978 130.517 38.6106L132.107 46.8832C132.218 47.4646 132.382 48.0197 132.598 48.5485C132.826 49.0585 133.131 49.4562 133.511 49.7415C133.908 50.0237 134.397 50.109 134.978 49.9973ZM149.598 49.1182L147.342 37.381L144.796 37.8702L144.434 35.9847L152.07 34.5171L152.433 36.4026L149.864 36.8963L152.12 48.6335L149.598 49.1182ZM156.213 47.8467L153.595 34.224L159.087 33.1686L159.436 34.9834L156.466 35.5541L158.735 47.362L156.213 47.8467ZM162.46 46.6461L163.929 26.568L166.121 26.1468L164.628 46.2294L162.46 46.6461ZM171.679 44.8744L169.202 31.2245L171.064 30.8667L175.689 38.6538L177.121 29.7025L178.983 29.3447L181.743 42.9402L179.621 43.3479L178.059 35.2167L176.841 42.4891L176.064 42.6386L172.246 36.3827L173.8 44.4667L171.679 44.8744ZM182.805 32.1538L182.529 30.7161L184.84 26.9727C185.214 26.3793 185.502 25.8841 185.703 25.4871C185.916 25.0713 186.051 24.7115 186.106 24.4075C186.178 24.1005 186.186 23.8056 186.132 23.5228C186.041 23.0514 185.862 22.7112 185.593 22.5021C185.322 22.2772 184.959 22.2086 184.503 22.2962C183.906 22.4109 183.519 22.6889 183.344 23.13C183.18 23.5524 183.17 24.1328 183.312 24.8713L181.45 25.2292L181.386 24.8992C181.253 24.2079 181.252 23.5646 181.382 22.9693C181.509 22.3584 181.792 21.8396 182.232 21.413C182.687 20.9834 183.331 20.6886 184.163 20.5285C185.185 20.3322 186.04 20.4611 186.73 20.915C187.417 21.3532 187.855 22.0594 188.042 23.0335C188.193 23.8192 188.137 24.5467 187.875 25.2163C187.625 25.8671 187.184 26.6687 186.553 27.621L184.986 30.0239L189.346 29.1859L189.663 30.8357L182.805 32.1538Z" fill="white"/>
<defs>
<filter id="filter0_d_58_52" x="2.77002" y="0.820801" width="200.138" height="94.0576" filterUnits="userSpaceOnUse" color-interpolation-filters="sRGB">
<feFlood flood-opacity="0" result="BackgroundImageFix"/>
<feColorMatrix in="SourceAlpha" type="matrix" values="0 0 0 0 0 0 0 0 0 0 0 0 0 0 0 0 0 0 127 0" result="hardAlpha"/>
<feOffset dy="4"/>
<feGaussianBlur stdDeviation="1.5"/>
<feComposite in2="hardAlpha" operator="out"/>
<feColorMatrix type="matrix" values="0 0 0 0 0.0588235 0 0 0 0 0.0901961 0 0 0 0 0.133333 0 0 0 0.28 0"/>
<feBlend mode="normal" in2="BackgroundImageFix" result="effect1_dropShadow_58_52"/>
<feBlend mode="normal" in="SourceGraphic" in2="effect1_dropShadow_58_52" result="shape"/>
</filter>
<filter id="filter1_i_58_52" x="14.5098" y="59.0844" width="8.22461" height="12.0099" filterUnits="userSpaceOnUse" color-interpolation-filters="sRGB">
<feFlood flood-opacity="0" result="BackgroundImageFix"/>
<feBlend mode="normal" in="SourceGraphic" in2="BackgroundImageFix" result="shape"/>
<feColorMatrix in="SourceAlpha" type="matrix" values="0 0 0 0 0 0 0 0 0 0 0 0 0 0 0 0 0 0 127 0" result="hardAlpha"/>
<feOffset dy="4"/>
<feGaussianBlur stdDeviation="2"/>
<feComposite in2="hardAlpha" operator="arithmetic" k2="-1" k3="1"/>
<feColorMatrix type="matrix" values="0 0 0 0 0.0588235 0 0 0 0 0.0901961 0 0 0 0 0.133333 0 0 0 0.29 0"/>
<feBlend mode="normal" in2="shape" result="effect1_innerShadow_58_52"/>
</filter>
</defs>
</svg>
