<svg width="198" height="94" viewBox="0 0 198 94" fill="none" xmlns="http://www.w3.org/2000/svg">
<g filter="url(#filter0_d_47_9)">
<path d="M31.4249 29.2542L183.639 -0.000180334L194.586 56.9574L42.3717 86.2118L5.7565 65.2456L31.4249 29.2542Z" fill="#C21919"/>
<path d="M36.9943 33.3271L38.2067 31.7018L38.6074 32.0008L39.0977 31.3436L39.8964 31.1901L39.802 30.6991L41.7804 30.3188L41.8748 30.8098L43.8532 30.4296L43.7588 29.9386L45.7373 29.5583L45.8316 30.0494L47.8101 29.6691L47.7157 29.1781L49.6941 28.7979L49.7885 29.2889L51.7669 28.9086L51.6725 28.4176L53.651 28.0374L53.7453 28.5284L55.7238 28.1482L55.6294 27.6572L57.6078 27.2769L57.7022 27.7679L59.6806 27.3877L59.5862 26.8967L61.5647 26.5165L61.659 27.0075L63.6375 26.6272L63.5431 26.1362L65.5215 25.756L65.6159 26.247L67.5943 25.8668L67.4999 25.3757L69.4784 24.9955L69.5727 25.4865L71.5512 25.1063L71.4568 24.6153L73.4352 24.235L73.5296 24.726L75.508 24.3458L75.4136 23.8548L77.3921 23.4746L77.4864 23.9656L79.4649 23.5853L79.3705 23.0943L81.3489 22.7141L81.4433 23.2051L83.4217 22.8249L83.3273 22.3338L85.3058 21.9536L85.4001 22.4446L87.3786 22.0644L87.2842 21.5734L89.2626 21.1931L89.357 21.6841L91.3354 21.3039L91.241 20.8129L93.2195 20.4327L93.3138 20.9237L95.2923 20.5434L95.1979 20.0524L97.1763 19.6722L97.2707 20.1632L99.2491 19.783L99.1547 19.2919L101.133 18.9117L101.228 19.4027L103.206 19.0225L103.112 18.5315L105.09 18.1512L105.184 18.6422L107.163 18.262L107.068 17.771L109.047 17.3908L109.141 17.8818L111.12 17.5015L111.025 17.0105L113.004 16.6303L113.098 17.1213L115.077 16.7411L114.982 16.25L116.961 15.8698L117.055 16.3608L119.033 15.9806L118.939 15.4896L120.917 15.1093L121.012 15.6003L122.99 15.2201L122.896 14.7291L124.874 14.3489L124.969 14.8399L126.947 14.4596L126.853 13.9686L128.831 13.5884L128.925 14.0794L130.904 13.6992L130.81 13.2081L132.788 12.8279L132.882 13.3189L134.861 12.9387L134.766 12.4477L136.745 12.0674L136.839 12.5585L138.818 12.1782L138.723 11.6872L140.702 11.307L140.796 11.798L142.774 11.4177L142.68 10.9267L144.659 10.5465L144.753 11.0375L146.731 10.6573L146.637 10.1663L148.615 9.78602L148.71 10.277L150.688 9.89679L150.594 9.40578L152.572 9.02554L152.667 9.51656L154.645 9.13632L154.551 8.64531L156.529 8.26507L156.623 8.75608L158.602 8.37584L158.507 7.88483L160.486 7.50459L160.58 7.99561L162.559 7.61537L162.464 7.12436L164.443 6.74412L164.537 7.23514L166.516 6.8549L166.421 6.36389L168.4 5.98365L168.494 6.47466L170.472 6.09442L170.378 5.60341L172.356 5.22317L172.451 5.71419L174.429 5.33395L174.335 4.84294L176.313 4.4627L176.408 4.95371L178.386 4.57348L178.292 4.08246L180.27 3.70223L180.365 4.19324L180.863 4.09749L180.957 4.58851L181.448 4.49414L181.826 6.45819L181.335 6.55256L181.712 8.51662L182.203 8.42225L182.581 10.3863L182.09 10.4807L182.467 12.4447L182.958 12.3504L183.335 14.3144L182.844 14.4088L183.222 16.3728L183.713 16.2785L184.09 18.2425L183.599 18.3369L183.977 20.3009L184.468 20.2066L184.845 22.1706L184.354 22.265L184.732 24.2291L185.223 24.1347L185.6 26.0987L185.109 26.1931L185.487 28.1572L185.978 28.0628L186.355 30.0269L185.864 30.1212L186.242 32.0853L186.733 31.9909L187.11 33.955L186.619 34.0493L186.997 36.0134L187.488 35.919L187.865 37.8831L187.374 37.9774L187.752 39.9415L188.243 39.8471L188.62 41.8112L188.129 41.9056L188.507 43.8696L188.998 43.7752L189.375 45.7393L188.884 45.8337L189.262 47.7977L189.753 47.7033L190.13 49.6674L189.639 49.7618L190.016 51.7258L190.508 51.6315L190.885 53.5955L190.394 53.6899L190.488 54.1809L189.99 54.2766L190.085 54.7676L188.106 55.1479L188.012 54.6569L186.033 55.0371L186.128 55.5281L184.149 55.9084L184.055 55.4173L182.077 55.7976L182.171 56.2886L180.192 56.6688L180.098 56.1778L178.12 56.5581L178.214 57.0491L176.236 57.4293L176.141 56.9383L174.163 57.3185L174.257 57.8095L172.279 58.1898L172.184 57.6988L170.206 58.079L170.3 58.57L168.322 58.9503L168.228 58.4592L166.249 58.8395L166.343 59.3305L164.365 59.7107L164.271 59.2197L162.292 59.6L162.387 60.091L160.408 60.4712L160.314 59.9802L158.335 60.3604L158.43 60.8514L156.451 61.2317L156.357 60.7407L154.379 61.1209L154.473 61.6119L152.495 61.9921L152.4 61.5011L150.422 61.8814L150.516 62.3724L148.538 62.7526L148.443 62.2616L146.465 62.6418L146.559 63.1329L144.581 63.5131L144.486 63.0221L142.508 63.4023L142.602 63.8933L140.624 64.2736L140.53 63.7826L138.551 64.1628L138.646 64.6538L136.667 65.034L136.573 64.543L134.594 64.9233L134.689 65.4143L132.71 65.7945L132.616 65.3035L130.637 65.6837L130.732 66.1748L128.753 66.555L128.659 66.064L126.681 66.4442L126.775 66.9352L124.797 67.3155L124.702 66.8245L122.724 67.2047L122.818 67.6957L120.84 68.0759L120.745 67.5849L118.767 67.9652L118.861 68.4562L116.883 68.8364L116.788 68.3454L114.81 68.7256L114.904 69.2167L112.926 69.5969L112.832 69.1059L110.853 69.4861L110.948 69.9771L108.969 70.3574L108.875 69.8664L106.896 70.2466L106.991 70.7376L105.012 71.1178L104.918 70.6268L102.94 71.0071L103.034 71.4981L101.055 71.8783L100.961 71.3873L98.9827 71.7675L99.077 72.2586L97.0986 72.6388L97.0042 72.1478L95.0258 72.528L95.1202 73.019L93.1417 73.3993L93.0474 72.9082L91.069 73.2885L91.1633 73.7795L89.1849 74.1597L89.0905 73.6687L87.1121 74.049L87.2065 74.54L85.228 74.9202L85.1337 74.4292L83.1553 74.8094L83.2496 75.3004L81.2712 75.6807L81.1768 75.1897L79.1984 75.5699L79.2928 76.0609L77.3144 76.4412L77.22 75.9501L75.2416 76.3304L75.3359 76.8214L73.3575 77.2016L73.2631 76.7106L71.2847 77.0909L71.3791 77.5819L69.4007 77.9621L69.3063 77.4711L67.3279 77.8513L67.4222 78.3423L65.4438 78.7226L65.3494 78.2316L63.371 78.6118L63.4654 79.1028L61.487 79.4831L61.3926 78.992L59.4142 79.3723L59.5085 79.8633L57.5301 80.2435L57.4357 79.7525L55.4573 80.1328L55.5517 80.6238L53.5733 81.004L53.4789 80.513L51.5005 80.8932L51.5948 81.3842L49.6164 81.7645L49.5221 81.2735L48.709 81.4297L48.0149 81.0515L47.7757 81.4906L46.0726 80.5626L46.3118 80.1235L44.6087 79.1955L44.3695 79.6346L42.6664 78.7066L42.9057 78.2675L41.2026 77.3395L40.9633 77.7786L39.2602 76.8506L39.4995 76.4115L37.7964 75.4835L37.5572 75.9226L35.8541 74.9946L36.0933 74.5555L34.3902 73.6275L34.151 74.0666L32.4479 73.1386L32.6872 72.6995L30.9841 71.7715L30.7448 72.2106L29.0417 71.2826L29.281 70.8435L27.5779 69.9155L27.3387 70.3546L25.6356 69.4266L25.8748 68.9875L24.1717 68.0595L23.9325 68.4986L22.2294 67.5706L22.4687 67.1315L20.7656 66.2035L20.5263 66.6426L18.8232 65.7146L19.0625 65.2755L17.3594 64.3475L17.1202 64.7866L15.4171 63.8586L15.6563 63.4195L15.3111 63.2314L15.5725 62.8809L15.1717 62.5819L16.3841 60.9567L16.7849 61.2556L17.9972 59.6304L17.5965 59.3314L18.8088 57.7061L19.2096 58.0051L20.422 56.3798L20.0212 56.0809L21.2335 54.4556L21.6343 54.7545L22.8467 53.1293L22.4459 52.8303L23.6583 51.205L24.0591 51.504L25.2714 49.8787L24.8706 49.5798L26.083 47.9545L26.4838 48.2535L27.6962 46.6282L27.2954 46.3292L28.5077 44.704L28.9085 45.0029L30.1209 43.3777L29.7201 43.0787L30.9325 41.4534L31.3333 41.7524L32.5456 40.1271L32.1448 39.8282L33.3572 38.2029L33.758 38.5018L34.9703 36.8766L34.5696 36.5776L35.7819 34.9523L36.1827 35.2513L37.3951 33.626L36.9943 33.3271Z" stroke="white" stroke-dasharray="2 2"/>
<g filter="url(#filter1_i_47_9)">
<circle cx="18.2397" cy="61.319" r="4" transform="rotate(-10.8791 18.2397 61.319)" fill="#ABA7A7"/>
</g>
</g>
<path d="M49.9228 66.6266C48.9172 66.8198 48.0845 66.7681 47.4246 66.4713C46.7647 66.1745 46.2366 65.6732 45.8403 64.9673C45.4596 64.2584 45.1712 63.3933 44.9749 62.372L44.2139 58.4124C44.0176 57.3911 43.9648 56.4807 44.0556 55.6812C44.162 54.8787 44.4667 54.2173 44.9695 53.6971C45.4724 53.1768 46.2266 52.82 47.2322 52.6268C48.2378 52.4335 49.0627 52.4868 49.7068 52.7866C50.3667 53.0834 50.8869 53.5862 51.2676 54.2951C51.6639 55.001 51.9603 55.8646 52.1565 56.8859L52.9175 60.8454C53.1138 61.8668 53.1587 62.7787 53.0523 63.5812C52.9616 64.3807 52.6648 65.0406 52.1619 65.5608C51.6748 66.078 50.9284 66.4333 49.9228 66.6266ZM49.565 64.7646C50.0521 64.671 50.3627 64.4647 50.4969 64.1456C50.6468 63.8235 50.6937 63.4317 50.6375 62.97C50.5941 62.4895 50.524 61.9979 50.4274 61.4951L49.6075 57.2292C49.5079 56.7107 49.3907 56.2281 49.256 55.7815C49.137 55.3319 48.9482 54.9853 48.6895 54.7417C48.4436 54.4794 48.0771 54.3951 47.59 54.4887C47.1029 54.5823 46.786 54.798 46.6391 55.1358C46.4892 55.4579 46.4344 55.8513 46.4749 56.316C46.531 56.7777 46.6089 57.2678 46.7086 57.7863L47.5284 62.0523C47.6251 62.5551 47.7344 63.0391 47.8564 63.5045C47.9911 63.9511 48.1878 64.2961 48.4464 64.5397C48.705 64.7833 49.0779 64.8583 49.565 64.7646ZM57.4991 64.975L55.2433 53.2378L52.6979 53.727L52.3355 51.8415L59.9717 50.3739L60.3341 52.2593L57.7651 52.7531L60.0209 64.4903L57.4991 64.975ZM74.3259 61.9609C73.226 62.1723 72.2776 62.0695 71.4805 61.6524C70.6805 61.2196 70.0249 60.5636 69.5137 59.6843C69.0152 58.7862 68.6543 57.7558 68.4308 56.5931L67.1942 50.1588C66.9556 48.9176 66.8796 47.7591 66.9662 46.6834C67.0527 45.6077 67.3749 44.6986 67.9328 43.956C68.5063 43.2103 69.3902 42.7227 70.5844 42.4932C71.5742 42.303 72.4417 42.3236 73.1868 42.5551C73.9476 42.7837 74.5751 43.2089 75.0694 43.8308C75.5794 44.4496 75.9373 45.2525 76.1433 46.2394C76.1493 46.2708 76.1584 46.3179 76.1705 46.3808C76.1952 46.4249 76.2122 46.4705 76.2212 46.5177L73.6758 47.0069C73.4976 46.0798 73.2125 45.4015 72.8203 44.9717C72.4282 44.542 71.8157 44.4072 70.983 44.5673C70.5273 44.6548 70.1632 44.8796 69.8906 45.2415C69.615 45.5878 69.4481 46.0761 69.3901 46.7063C69.3477 47.3336 69.4171 48.1186 69.5983 49.0614L70.1554 51.9603C70.3313 51.5192 70.6245 51.137 71.0348 50.8137C71.4579 50.4717 72.0072 50.2358 72.6829 50.106C73.7356 49.9036 74.6043 49.9729 75.2889 50.3138C75.9736 50.6547 76.5216 51.2174 76.9331 52.0019C77.3415 52.7706 77.6529 53.7128 77.8673 54.8283C78.0878 55.9753 78.1315 57.0504 77.9984 58.0536C77.8654 59.0567 77.5075 59.9075 76.9249 60.6061C76.3392 61.2889 75.4729 61.7405 74.3259 61.9609ZM73.9227 59.8633C74.4884 59.7546 74.8981 59.5129 75.152 59.1383C75.4028 58.7479 75.5398 58.2736 75.5628 57.7152C75.6015 57.1538 75.5605 56.5588 75.4397 55.9303C75.2948 55.1761 75.1211 54.4845 74.9187 53.8554C74.7321 53.2232 74.4532 52.7473 74.0822 52.4276C73.7082 52.0922 73.1598 51.9939 72.437 52.1328C72.0913 52.1992 71.7892 52.3225 71.5305 52.5025C71.2718 52.6826 71.06 52.8944 70.895 53.1379C70.727 53.3657 70.6012 53.6017 70.5178 53.8458L71.0659 56.6976C71.1897 57.3418 71.3673 57.9268 71.5987 58.4526C71.8458 58.9754 72.1582 59.3715 72.5359 59.6411C72.9105 59.8949 73.3728 59.969 73.9227 59.8633ZM85.8964 59.7372C84.9066 59.9274 84.0234 59.9098 83.2468 59.6843C82.483 59.4401 81.8525 58.9992 81.3552 58.3615C80.8579 57.7239 80.5048 56.9039 80.2958 55.9013C80.2898 55.8699 80.2837 55.8384 80.2777 55.807C80.2686 55.7599 80.2611 55.7206 80.255 55.6892L82.7769 55.2045C82.952 56.1158 83.2372 56.7942 83.6324 57.2396C84.0245 57.6693 84.6527 57.8011 85.5169 57.635C85.9882 57.5444 86.3539 57.3275 86.6138 56.9843C86.8706 56.6254 87.0203 56.1323 87.0626 55.505C87.102 54.862 87.0326 54.077 86.8544 53.15L86.2973 50.251C86.1371 50.6891 85.8454 51.0792 85.4224 51.4212C85.012 51.7444 84.4612 51.9725 83.7698 52.1054C82.7171 52.3077 81.8484 52.2384 81.1637 51.8975C80.4761 51.5409 79.928 50.9782 79.5196 50.2095C79.1239 49.422 78.8203 48.4784 78.6089 47.3785C78.3855 46.2158 78.3418 45.1407 78.4778 44.1533C78.6109 43.1501 78.9703 42.3071 79.5559 41.6243C80.1573 40.9385 81.0236 40.4869 82.1549 40.2695C83.2548 40.0581 84.2047 40.1688 85.0048 40.6015C85.8018 41.0186 86.4481 41.6683 86.9435 42.5507C87.4547 43.43 87.822 44.451 88.0454 45.6137L89.2775 52.0244C89.5131 53.25 89.5891 54.4085 89.5056 55.4998C89.422 56.5912 89.1029 57.5161 88.548 58.2744C87.9902 59.0171 87.1063 59.5046 85.8964 59.7372ZM84.0393 50.074C84.5892 49.9683 85.0113 49.7487 85.3057 49.4152C85.597 49.0659 85.8052 48.7082 85.9303 48.342L85.3868 45.5137C85.26 44.8538 85.0823 44.2688 84.854 43.7587C84.6226 43.233 84.3196 42.8432 83.9449 42.5893C83.5673 42.3197 83.1035 42.2378 82.5535 42.3435C82.0036 42.4492 81.5953 42.6987 81.3288 43.0921C81.078 43.4825 80.9332 43.9583 80.8944 44.5197C80.8684 45.0624 80.9158 45.648 81.0366 46.2765C81.1815 47.0307 81.3473 47.7238 81.534 48.356C81.7364 48.9851 82.0246 49.4674 82.3986 49.8028C82.7853 50.1195 83.3322 50.2099 84.0393 50.074ZM103.113 56.4284C102.123 56.6186 101.24 56.601 100.463 56.3755C99.6992 56.1313 99.0686 55.6903 98.5714 55.0527C98.0741 54.4151 97.721 53.595 97.512 52.5925C97.5059 52.561 97.4999 52.5296 97.4939 52.4982C97.4848 52.4511 97.4772 52.4118 97.4712 52.3804L99.9931 51.8957C100.168 52.807 100.453 53.4854 100.849 53.9308C101.241 54.3605 101.869 54.4923 102.733 54.3262C103.204 54.2356 103.57 54.0187 103.83 53.6755C104.087 53.3166 104.236 52.8235 104.279 52.1962C104.318 51.5532 104.249 50.7682 104.071 49.8412L103.513 46.9422C103.353 47.3803 103.062 47.7704 102.639 48.1124C102.228 48.4356 101.677 48.6637 100.986 48.7966C99.9333 48.9989 99.0646 48.9296 98.3799 48.5887C97.6922 48.2321 97.1442 47.6694 96.7358 46.9007C96.34 46.1132 96.0365 45.1695 95.8251 44.0697C95.6016 42.907 95.5579 41.8319 95.694 40.8444C95.8271 39.8413 96.1864 38.9983 96.7721 38.3155C97.3734 37.6297 98.2398 37.1781 99.3711 36.9606C100.471 36.7493 101.421 36.86 102.221 37.2927C103.018 37.7098 103.664 38.3595 104.16 39.2419C104.671 40.1212 105.038 41.1422 105.262 42.3049L106.494 48.7156C106.729 49.9412 106.805 51.0996 106.722 52.191C106.638 53.2824 106.319 54.2073 105.764 54.9656C105.206 55.7083 104.322 56.1958 103.113 56.4284ZM101.255 46.7652C101.805 46.6595 102.228 46.4399 102.522 46.1063C102.813 45.7571 103.021 45.3994 103.147 45.0332L102.603 42.2049C102.476 41.545 102.299 40.96 102.07 40.4499C101.839 39.9242 101.536 39.5343 101.161 39.2805C100.783 39.0109 100.32 38.929 99.7697 39.0347C99.2198 39.1404 98.8115 39.3899 98.545 39.7833C98.2941 40.1736 98.1494 40.6495 98.1106 41.2109C98.0846 41.7536 98.1319 42.3392 98.2527 42.9677C98.3977 43.7219 98.5635 44.415 98.7501 45.0472C98.9525 45.6763 99.2407 46.1586 99.6148 46.494C100.001 46.8107 100.548 46.9011 101.255 46.7652ZM114.943 54.1547C113.953 54.3449 113.07 54.3273 112.293 54.1018C111.53 53.8576 110.899 53.4166 110.402 52.779C109.904 52.1414 109.551 51.3213 109.342 50.3188C109.336 50.2873 109.33 50.2559 109.324 50.2245C109.315 50.1774 109.308 50.1381 109.302 50.1067L111.823 49.622C111.999 50.5333 112.284 51.2117 112.679 51.6571C113.071 52.0868 113.699 52.2186 114.563 52.0525C115.035 51.9619 115.4 51.745 115.66 51.4018C115.917 51.0429 116.067 50.5498 116.109 49.9225C116.149 49.2795 116.079 48.4945 115.901 47.5675L115.344 44.6685C115.184 45.1066 114.892 45.4967 114.469 45.8387C114.059 46.1619 113.508 46.39 112.816 46.5229C111.764 46.7252 110.895 46.6559 110.21 46.315C109.523 45.9584 108.975 45.3957 108.566 44.627C108.17 43.8395 107.867 42.8958 107.655 41.796C107.432 40.6333 107.388 39.5582 107.524 38.5707C107.657 37.5676 108.017 36.7246 108.602 36.0418C109.204 35.356 110.07 34.9044 111.201 34.6869C112.301 34.4756 113.251 34.5863 114.051 35.019C114.848 35.4361 115.495 36.0858 115.99 36.9682C116.501 37.8475 116.869 38.8685 117.092 40.0312L118.324 46.4419C118.56 47.6675 118.636 48.8259 118.552 49.9173C118.469 51.0087 118.149 51.9336 117.595 52.6919C117.037 53.4346 116.153 53.9221 114.943 54.1547ZM113.086 44.4915C113.636 44.3858 114.058 44.1662 114.352 43.8326C114.644 43.4834 114.852 43.1257 114.977 42.7595L114.433 39.9312C114.306 39.2713 114.129 38.6863 113.901 38.1762C113.669 37.6505 113.366 37.2606 112.991 37.0068C112.614 36.7372 112.15 36.6553 111.6 36.761C111.05 36.8667 110.642 37.1162 110.375 37.5096C110.124 37.9 109.98 38.3758 109.941 38.9372C109.915 39.4799 109.962 40.0655 110.083 40.694C110.228 41.4482 110.394 42.1413 110.581 42.7735C110.783 43.4026 111.071 43.8849 111.445 44.2203C111.832 44.537 112.379 44.6274 113.086 44.4915ZM127.103 51.8175C126.019 52.0259 125.077 51.9545 124.276 51.6033C123.491 51.2491 122.844 50.681 122.335 49.8989C121.842 49.1139 121.492 48.1793 121.283 47.0951L119.703 38.8696C119.488 37.7541 119.466 36.7482 119.636 35.852C119.803 34.9401 120.187 34.1821 120.787 33.5778C121.404 32.9705 122.262 32.5612 123.362 32.3498C124.462 32.1384 125.403 32.202 126.184 32.5405C126.966 32.879 127.604 33.4408 128.097 34.2258C128.587 34.9952 128.939 35.9376 129.154 37.0532L130.734 45.2787C130.946 46.3786 130.96 47.386 130.778 48.3009C130.611 49.2127 130.228 49.9787 129.631 50.5986C129.03 51.2029 128.187 51.6092 127.103 51.8175ZM126.705 49.7435C127.302 49.6288 127.716 49.3698 127.948 48.9668C128.196 48.5607 128.324 48.08 128.331 47.5247C128.351 46.9506 128.305 46.3728 128.194 45.7915L126.604 37.5189C126.486 36.9061 126.321 36.3432 126.108 35.8301C125.892 35.3013 125.596 34.9021 125.218 34.6325C124.856 34.3599 124.369 34.2825 123.756 34.4003C123.143 34.5181 122.711 34.7721 122.46 35.1625C122.21 35.5529 122.082 36.0336 122.078 36.6046C122.07 37.16 122.126 37.7441 122.243 38.3569L123.833 46.6295C123.945 47.2108 124.109 47.7659 124.324 48.2947C124.553 48.8048 124.857 49.2024 125.238 49.4877C125.634 49.77 126.123 49.8552 126.705 49.7435ZM141.324 48.8644L139.069 37.1272L136.523 37.6164L136.161 35.7309L143.797 34.2633L144.159 36.1488L141.59 36.6426L143.846 48.3797L141.324 48.8644ZM147.94 47.5929L145.322 33.9702L150.813 32.9148L151.162 34.7296L148.193 35.3003L150.462 47.1082L147.94 47.5929ZM154.187 46.3924L155.656 26.3143L157.848 25.893L156.355 45.9756L154.187 46.3924ZM163.405 44.6206L160.929 30.9708L162.791 30.6129L167.415 38.4L168.848 29.4488L170.71 29.0909L173.469 42.6864L171.348 43.0941L169.785 34.9629L168.568 42.2354L167.79 42.3849L163.973 36.1289L165.527 44.213L163.405 44.6206ZM174.532 31.9001L174.255 30.4624L176.566 26.7189C176.941 26.1255 177.229 25.6303 177.429 25.2333C177.643 24.8176 177.777 24.4577 177.833 24.1538C177.904 23.8468 177.913 23.5519 177.858 23.2691C177.768 22.7977 177.588 22.4574 177.32 22.2483C177.049 22.0235 176.685 21.9548 176.23 22.0424C175.633 22.1572 175.246 22.4351 175.07 22.8762C174.907 23.2986 174.896 23.8791 175.038 24.6176L173.176 24.9754L173.113 24.6454C172.98 23.9541 172.979 23.3108 173.109 22.7156C173.236 22.1046 173.519 21.5859 173.958 21.1593C174.413 20.7297 175.057 20.4348 175.89 20.2748C176.911 20.0785 177.767 20.2073 178.457 20.6612C179.144 21.0994 179.581 21.8056 179.768 22.7798C179.919 23.5654 179.864 24.293 179.601 24.9625C179.352 25.6133 178.911 26.4149 178.279 27.3672L176.713 29.7701L181.073 28.9321L181.39 30.5819L174.532 31.9001Z" fill="white"/>
<defs>
<filter id="filter0_d_47_9" x="2.75659" y="-0.000183105" width="194.829" height="93.2119" filterUnits="userSpaceOnUse" color-interpolation-filters="sRGB">
<feFlood flood-opacity="0" result="BackgroundImageFix"/>
<feColorMatrix in="SourceAlpha" type="matrix" values="0 0 0 0 0 0 0 0 0 0 0 0 0 0 0 0 0 0 127 0" result="hardAlpha"/>
<feOffset dy="4"/>
<feGaussianBlur stdDeviation="1.5"/>
<feComposite in2="hardAlpha" operator="out"/>
<feColorMatrix type="matrix" values="0 0 0 0 0.0588235 0 0 0 0 0.0901961 0 0 0 0 0.133333 0 0 0 0.28 0"/>
<feBlend mode="normal" in2="BackgroundImageFix" result="effect1_dropShadow_47_9"/>
<feBlend mode="normal" in="SourceGraphic" in2="effect1_dropShadow_47_9" result="shape"/>
</filter>
<filter id="filter1_i_47_9" x="14.239" y="57.3182" width="8.00146" height="12.0015" filterUnits="userSpaceOnUse" color-interpolation-filters="sRGB">
<feFlood flood-opacity="0" result="BackgroundImageFix"/>
<feBlend mode="normal" in="SourceGraphic" in2="BackgroundImageFix" result="shape"/>
<feColorMatrix in="SourceAlpha" type="matrix" values="0 0 0 0 0 0 0 0 0 0 0 0 0 0 0 0 0 0 127 0" result="hardAlpha"/>
<feOffset dy="4"/>
<feGaussianBlur stdDeviation="2"/>
<feComposite in2="hardAlpha" operator="arithmetic" k2="-1" k3="1"/>
<feColorMatrix type="matrix" values="0 0 0 0 0.0588235 0 0 0 0 0.0901961 0 0 0 0 0.133333 0 0 0 0.29 0"/>
<feBlend mode="normal" in2="shape" result="effect1_innerShadow_47_9"/>
</filter>
</defs>
</svg>
