<svg width="203" height="95" viewBox="0 0 203 95" fill="none" xmlns="http://www.w3.org/2000/svg">
<g filter="url(#filter0_d_58_52)">
<path d="M32.3467 30.9208L188.961 0.820805L199.908 57.7784L43.2935 87.8784L5.76993 67.0868L32.3467 30.9208Z" fill="#C21919"/>
<path d="M38.0495 34.9681L39.3043 33.3346L39.7008 33.6392L40.2126 32.9731L41.0165 32.8186L40.9221 32.3276L42.9027 31.9469L42.9971 32.4379L44.9776 32.0573L44.8833 31.5663L46.8639 31.1856L46.9583 31.6766L48.9388 31.296L48.8445 30.805L50.8251 30.4243L50.9194 30.9153L52.9 30.5347L52.8057 30.0437L54.7863 29.663L54.8806 30.154L56.8612 29.7734L56.7669 29.2824L58.7475 28.9017L58.8418 29.3927L60.8224 29.0121L60.7281 28.521L62.7087 28.1404L62.803 28.6314L64.7836 28.2507L64.6893 27.7597L66.6699 27.3791L66.7642 27.8701L68.7448 27.4894L68.6505 26.9984L70.6311 26.6178L70.7254 27.1088L72.706 26.7281L72.6117 26.2371L74.5923 25.8565L74.6866 26.3475L76.6672 25.9668L76.5729 25.4758L78.5535 25.0951L78.6478 25.5862L80.6284 25.2055L80.5341 24.7145L82.5147 24.3338L82.609 24.8249L84.5896 24.4442L84.4952 23.9532L86.4758 23.5725L86.5702 24.0635L88.5508 23.6829L88.4564 23.1919L90.437 22.8112L90.5314 23.3022L92.512 22.9216L92.4176 22.4306L94.3982 22.0499L94.4926 22.5409L96.4732 22.1603L96.3788 21.6693L98.3594 21.2886L98.4538 21.7796L100.434 21.399L100.34 20.9079L102.321 20.5273L102.415 21.0183L104.396 20.6376L104.301 20.1466L106.282 19.766L106.376 20.257L108.357 19.8763L108.262 19.3853L110.243 19.0047L110.337 19.4957L112.318 19.115L112.224 18.624L114.204 18.2434L114.299 18.7344L116.279 18.3537L116.185 17.8627L118.165 17.4821L118.26 17.9731L120.24 17.5924L120.146 17.1014L122.127 16.7207L122.221 17.2118L124.202 16.8311L124.107 16.3401L126.088 15.9594L126.182 16.4504L128.163 16.0698L128.068 15.5788L130.049 15.1981L130.143 15.6891L132.124 15.3085L132.03 14.8175L134.01 14.4368L134.105 14.9278L136.085 14.5472L135.991 14.0562L137.971 13.6755L138.066 14.1665L140.046 13.7859L139.952 13.2948L141.933 12.9142L142.027 13.4052L144.008 13.0246L143.913 12.5335L145.894 12.1529L145.988 12.6439L147.969 12.2632L147.874 11.7722L149.855 11.3916L149.949 11.8826L151.93 11.5019L151.836 11.0109L153.816 10.6303L153.911 11.1213L155.891 10.7406L155.797 10.2496L157.777 9.86896L157.872 10.36L159.852 9.97932L159.758 9.4883L161.739 9.10765L161.833 9.59866L163.814 9.21801L163.719 8.72699L165.7 8.34634L165.794 8.83735L167.775 8.4567L167.68 7.96568L169.661 7.58503L169.755 8.07604L171.736 7.69539L171.642 7.20437L173.622 6.82372L173.717 7.31473L175.697 6.93408L175.603 6.44306L177.583 6.06241L177.678 6.55342L179.658 6.17277L179.564 5.68175L181.545 5.3011L181.639 5.79211L183.62 5.41146L183.525 4.92044L185.506 4.53979L185.6 5.0308L186.099 4.93485L186.194 5.42586L186.685 5.33149L187.062 7.29554L186.571 7.38991L186.949 9.35397L187.44 9.2596L187.817 11.2237L187.326 11.318L187.704 13.2821L188.195 13.1877L188.572 15.1518L188.081 15.2461L188.459 17.2102L188.95 17.1158L189.327 19.0799L188.836 19.1742L189.214 21.1383L189.705 21.0439L190.082 23.008L189.591 23.1024L189.969 25.0664L190.46 24.972L190.837 26.9361L190.346 27.0305L190.723 28.9945L191.215 28.9002L191.592 30.8642L191.101 30.9586L191.478 32.9226L191.969 32.8283L192.347 34.7923L191.856 34.8867L192.233 36.8507L192.724 36.7564L193.102 38.7204L192.611 38.8148L192.988 40.7789L193.479 40.6845L193.857 42.6485L193.366 42.7429L193.743 44.707L194.234 44.6126L194.612 46.5766L194.121 46.671L194.498 48.6351L194.989 48.5407L195.367 50.5048L194.876 50.5991L195.253 52.5632L195.744 52.4688L196.122 54.4329L195.631 54.5272L195.725 55.0182L195.226 55.1142L195.32 55.6052L193.34 55.9859L193.245 55.4949L191.265 55.8755L191.359 56.3665L189.378 56.7472L189.284 56.2562L187.303 56.6368L187.398 57.1278L185.417 57.5085L185.323 57.0175L183.342 57.3981L183.437 57.8892L181.456 58.2698L181.362 57.7788L179.381 58.1594L179.475 58.6505L177.495 59.0311L177.4 58.5401L175.42 58.9208L175.514 59.4118L173.534 59.7924L173.439 59.3014L171.459 59.6821L171.553 60.1731L169.572 60.5537L169.478 60.0627L167.497 60.4434L167.592 60.9344L165.611 61.315L165.517 60.824L163.536 61.2047L163.631 61.6957L161.65 62.0764L161.556 61.5853L159.575 61.966L159.669 62.457L157.689 62.8377L157.594 62.3467L155.614 62.7273L155.708 63.2183L153.728 63.599L153.633 63.108L151.653 63.4886L151.747 63.9796L149.766 64.3603L149.672 63.8693L147.691 64.2499L147.786 64.7409L145.805 65.1216L145.711 64.6306L143.73 65.0112L143.825 65.5022L141.844 65.8829L141.75 65.3919L139.769 65.7725L139.863 66.2636L137.883 66.6442L137.788 66.1532L135.808 66.5339L135.902 67.0249L133.922 67.4055L133.827 66.9145L131.847 67.2952L131.941 67.7862L129.96 68.1668L129.866 67.6758L127.885 68.0565L127.98 68.5475L125.999 68.9281L125.905 68.4371L123.924 68.8178L124.019 69.3088L122.038 69.6895L121.944 69.1984L119.963 69.5791L120.057 70.0701L118.077 70.4508L117.982 69.9597L116.002 70.3404L116.096 70.8314L114.116 71.2121L114.021 70.7211L112.041 71.1017L112.135 71.5927L110.154 71.9734L110.06 71.4824L108.079 71.863L108.174 72.354L106.193 72.7347L106.099 72.2437L104.118 72.6243L104.213 73.1153L102.232 73.496L102.138 73.005L100.157 73.3856L100.251 73.8767L98.2708 74.2573L98.1764 73.7663L96.1958 74.147L96.2902 74.638L94.3096 75.0186L94.2152 74.5276L92.2346 74.9083L92.329 75.3993L90.3484 75.7799L90.254 75.2889L88.2734 75.6696L88.3678 76.1606L86.3872 76.5412L86.2928 76.0502L84.3122 76.4309L84.4066 76.9219L82.426 77.3025L82.3316 76.8115L80.351 77.1922L80.4454 77.6832L78.4648 78.0639L78.3704 77.5728L76.3898 77.9535L76.4842 78.4445L74.5036 78.8252L74.4092 78.3342L72.4286 78.7148L72.523 79.2058L70.5424 79.5865L70.448 79.0955L68.4674 79.4761L68.5618 79.9671L66.5812 80.3478L66.4868 79.8568L64.5062 80.2374L64.6006 80.7284L62.62 81.1091L62.5257 80.6181L60.5451 80.9987L60.6394 81.4898L58.6588 81.8704L58.5645 81.3794L56.5839 81.76L56.6782 82.2511L54.6976 82.6317L54.6033 82.1407L52.6227 82.5214L52.717 83.0124L50.7364 83.393L50.6421 82.902L49.824 83.0592L49.1064 82.6811L48.8733 83.1234L47.1277 82.2036L47.3608 81.7613L45.6152 80.8414L45.3822 81.2838L43.6366 80.3639L43.8697 79.9216L42.1241 79.0018L41.891 79.4441L40.1454 78.5243L40.3785 78.0819L38.6329 77.1621L38.3998 77.6044L36.6542 76.6846L36.8873 76.2423L35.1417 75.3224L34.9086 75.7648L33.163 74.845L33.3961 74.4026L31.6505 73.4828L31.4174 73.9251L29.6719 73.0053L29.9049 72.5629L28.1594 71.6431L27.9263 72.0855L26.1807 71.1656L26.4138 70.7233L24.6682 69.8034L24.4351 70.2458L22.6895 69.326L22.9226 68.8836L21.177 67.9638L20.9439 68.4061L19.1983 67.4863L19.4314 67.044L17.6858 66.1241L17.4527 66.5665L15.7071 65.6466L15.9402 65.2043L15.5922 65.0209L15.8583 64.6746L15.4618 64.37L16.7166 62.7366L17.1131 63.0412L18.368 61.4077L17.9715 61.1031L19.2264 59.4697L19.6229 59.7743L20.8778 58.1408L20.4813 57.8362L21.7361 56.2028L22.1326 56.5074L23.3875 54.874L22.991 54.5694L24.2459 52.9359L24.6424 53.2405L25.8973 51.6071L25.5007 51.3025L26.7556 49.669L27.1521 49.9736L28.407 48.3402L28.0105 48.0356L29.2654 46.4022L29.6619 46.7068L30.9167 45.0733L30.5202 44.7687L31.7751 43.1353L32.1716 43.4399L33.4265 41.8064L33.03 41.5018L34.2848 39.8684L34.6814 40.173L35.9362 38.5396L35.5397 38.235L36.7946 36.6015L37.1911 36.9061L38.446 35.2727L38.0495 34.9681Z" stroke="white" stroke-dasharray="2 2"/>
<g filter="url(#filter1_i_58_52)">
<ellipse cx="18.6221" cy="63.0893" rx="4.11563" ry="4" transform="rotate(-10.8791 18.6221 63.0893)" fill="#ABA7A7"/>
</g>
</g>
<path d="M51.0151 68.2605C50.0095 68.4537 49.1768 68.402 48.5169 68.1052C47.857 67.8084 47.3289 67.3071 46.9326 66.6012C46.5519 65.8923 46.2635 65.0272 46.0672 64.0059L45.3062 60.0463C45.1099 59.025 45.0571 58.1146 45.1479 57.3151C45.2543 56.5126 45.559 55.8512 46.0618 55.331C46.5646 54.8107 47.3189 54.454 48.3245 54.2607C49.3301 54.0674 50.1549 54.1207 50.7991 54.4205C51.459 54.7173 51.9792 55.2201 52.3599 55.929C52.7562 56.6349 53.0525 57.4985 53.2488 58.5198L54.0098 62.4794C54.2061 63.5007 54.251 64.4126 54.1446 65.2151C54.0538 66.0146 53.757 66.6745 53.2542 67.1947C52.7671 67.712 52.0207 68.0672 51.0151 68.2605ZM50.6573 66.3985C51.1443 66.3049 51.455 66.0986 51.5892 65.7795C51.7391 65.4575 51.786 65.0656 51.7298 64.6039C51.6864 64.1234 51.6163 63.6318 51.5197 63.129L50.6998 58.8631C50.6001 58.3446 50.483 57.862 50.3483 57.4154C50.2293 56.9658 50.0404 56.6192 49.7818 56.3756C49.5359 56.1133 49.1694 56.029 48.6823 56.1226C48.1952 56.2162 47.8782 56.4319 47.7314 56.7697C47.5814 57.0918 47.5267 57.4852 47.5671 57.9499C47.6233 58.4116 47.7012 58.9017 47.8009 59.4202L48.6207 63.6862C48.7174 64.189 48.8267 64.673 48.9487 65.1384C49.0834 65.585 49.2801 65.9301 49.5387 66.1736C49.7973 66.4172 50.1702 66.4922 50.6573 66.3985ZM58.5914 66.6089L56.3356 54.8717L53.7902 55.3609L53.4278 53.4754L61.064 52.0078L61.4264 53.8933L58.8574 54.387L61.1132 66.1242L58.5914 66.6089ZM71.5121 64.1256L71.6646 46.3534L66.5502 47.3364L66.1697 45.3566L73.806 43.889L74.0415 45.1145L73.9397 63.659L71.5121 64.1256ZM84.2268 61.9019C83.2369 62.0921 82.3537 62.0745 81.5772 61.849C80.8134 61.6048 80.1828 61.1639 79.6855 60.5263C79.1882 59.8887 78.8351 59.0686 78.6261 58.066C78.6201 58.0346 78.6141 58.0032 78.608 57.9717C78.599 57.9246 78.5914 57.8853 78.5854 57.8539L81.1072 57.3692C81.2824 58.2805 81.5675 58.9589 81.9627 59.4043C82.3548 59.834 82.983 59.9659 83.8472 59.7998C84.3186 59.7092 84.6842 59.4923 84.9441 59.149C85.201 58.7901 85.3506 58.297 85.393 57.6697C85.4323 57.0268 85.3629 56.2417 85.1847 55.3147L84.6276 52.4158C84.4674 52.8539 84.1758 53.2439 83.7527 53.5859C83.3424 53.9092 82.7915 54.1372 82.1001 54.2701C81.0474 54.4724 80.1787 54.4032 79.4941 54.0622C78.8064 53.7056 78.2584 53.1429 77.8499 52.3742C77.4542 51.5868 77.1506 50.6431 76.9392 49.5432C76.7158 48.3805 76.6721 47.3054 76.8082 46.318C76.9412 45.3148 77.3006 44.4719 77.8862 43.7891C78.4876 43.1032 79.3539 42.6516 80.4852 42.4342C81.5851 42.2228 82.5351 42.3335 83.3351 42.7663C84.1322 43.1833 84.7784 43.833 85.2739 44.7154C85.785 45.5947 86.1523 46.6158 86.3758 47.7785L87.6079 54.1891C87.8434 55.4147 87.9194 56.5732 87.8359 57.6646C87.7524 58.7559 87.4332 59.6808 86.8784 60.4392C86.3205 61.1818 85.4366 61.6694 84.2268 61.9019ZM82.3696 52.2388C82.9195 52.1331 83.3417 51.9134 83.636 51.5799C83.9273 51.2306 84.1355 50.8729 84.2607 50.5067L83.7171 47.6785C83.5903 47.0185 83.4127 46.4335 83.1843 45.9235C82.9529 45.3977 82.6499 45.0079 82.2753 44.754C81.8976 44.4845 81.4338 44.4025 80.8839 44.5082C80.3339 44.6139 79.9257 44.8635 79.6591 45.2568C79.4083 45.6472 79.2635 46.1231 79.2248 46.6845C79.1987 47.2271 79.2461 47.8127 79.3669 48.4412C79.5118 49.1954 79.6776 49.8886 79.8643 50.5207C80.0667 51.1498 80.3549 51.6321 80.7289 51.9675C81.1156 52.2842 81.6625 52.3746 82.3696 52.2388ZM101.443 58.5931C100.453 58.7833 99.5699 58.7657 98.7933 58.5402C98.0295 58.296 97.399 57.8551 96.9017 57.2175C96.4044 56.5799 96.0513 55.7598 95.8423 54.7572C95.8363 54.7258 95.8302 54.6944 95.8242 54.6629C95.8151 54.6158 95.8076 54.5765 95.8015 54.5451L98.3234 54.0604C98.4985 54.9717 98.7837 55.6501 99.1789 56.0955C99.571 56.5252 100.199 56.657 101.063 56.491C101.535 56.4004 101.9 56.1835 102.16 55.8402C102.417 55.4813 102.567 54.9882 102.609 54.3609C102.648 53.7179 102.579 52.9329 102.401 52.0059L101.844 49.107C101.684 49.5451 101.392 49.9351 100.969 50.2771C100.559 50.6004 100.008 50.8284 99.3163 50.9613C98.2636 51.1636 97.3949 51.0943 96.7102 50.7534C96.0226 50.3968 95.4745 49.8341 95.0661 49.0654C94.6704 48.2779 94.3668 47.3343 94.1554 46.2344C93.932 45.0717 93.8883 43.9966 94.0243 43.0092C94.1574 42.006 94.5168 41.1631 95.1024 40.4803C95.7038 39.7944 96.5701 39.3428 97.7014 39.1254C98.8013 38.914 99.7512 39.0247 100.551 39.4575C101.348 39.8745 101.995 40.5242 102.49 41.4066C103.001 42.2859 103.368 43.3069 103.592 44.4697L104.824 50.8803C105.06 52.1059 105.136 53.2644 105.052 54.3558C104.969 55.4471 104.649 56.372 104.095 57.1304C103.537 57.873 102.653 58.3606 101.443 58.5931ZM99.5858 48.9299C100.136 48.8243 100.558 48.6046 100.852 48.2711C101.143 47.9218 101.352 47.5641 101.477 47.1979L100.933 44.3697C100.806 43.7097 100.629 43.1247 100.4 42.6147C100.169 42.0889 99.8661 41.6991 99.4914 41.4452C99.1138 41.1757 98.65 41.0937 98.1 41.1994C97.5501 41.3051 97.1418 41.5547 96.8753 41.948C96.6245 42.3384 96.4797 42.8143 96.4409 43.3757C96.4149 43.9183 96.4623 44.5039 96.5831 45.1324C96.728 45.8866 96.8938 46.5798 97.0805 47.2119C97.2829 47.841 97.5711 48.3233 97.9451 48.6587C98.3318 48.9754 98.8787 49.0658 99.5858 48.9299ZM113.603 56.256C112.519 56.4643 111.577 56.3929 110.776 56.0417C109.991 55.6875 109.344 55.1194 108.835 54.3374C108.342 53.5523 107.992 52.6177 107.783 51.5335L106.203 43.3081C105.988 42.1925 105.966 41.1866 106.136 40.2904C106.303 39.3786 106.686 38.6205 107.287 38.0162C107.904 37.409 108.762 36.9997 109.862 36.7883C110.962 36.5769 111.903 36.6404 112.684 36.9789C113.466 37.3174 114.104 37.8792 114.597 38.6643C115.087 39.4336 115.439 40.3761 115.654 41.4917L117.234 49.7171C117.446 50.817 117.46 51.8244 117.278 52.7393C117.111 53.6512 116.728 54.4171 116.131 55.0371C115.53 55.6413 114.687 56.0476 113.603 56.256ZM113.205 54.1819C113.802 54.0672 114.216 53.8083 114.448 53.4052C114.696 52.9992 114.824 52.5184 114.831 51.9631C114.851 51.389 114.805 50.8113 114.694 50.2299L113.104 41.9573C112.986 41.3445 112.821 40.7816 112.608 40.2685C112.392 39.7397 112.096 39.3405 111.718 39.071C111.356 38.7984 110.869 38.721 110.256 38.8387C109.643 38.9565 109.211 39.2106 108.96 39.6009C108.71 39.9913 108.582 40.472 108.578 41.0431C108.57 41.5984 108.626 42.1825 108.743 42.7953L110.333 51.0679C110.445 51.6493 110.609 52.2043 110.824 52.7331C111.053 53.2432 111.357 53.6409 111.738 53.9261C112.134 54.2084 112.623 54.2937 113.205 54.1819ZM125.779 53.9159C124.695 54.1243 123.752 54.0529 122.952 53.7017C122.167 53.3475 121.52 52.7793 121.011 51.9973C120.518 51.2123 120.167 50.2776 119.959 49.1935L118.378 40.968C118.164 39.8524 118.141 38.8466 118.311 37.9504C118.478 37.0385 118.862 36.2804 119.463 35.6762C120.079 35.0689 120.937 34.6596 122.037 34.4482C123.137 34.2368 124.078 34.3004 124.86 34.6389C125.642 34.9774 126.279 35.5392 126.773 36.3242C127.263 37.0936 127.615 38.036 127.829 39.1516L129.41 47.3771C129.621 48.4769 129.636 49.4843 129.453 50.3992C129.286 51.3111 128.904 52.0771 128.306 52.697C127.705 53.3013 126.863 53.7076 125.779 53.9159ZM125.38 51.8419C125.977 51.7271 126.392 51.4682 126.624 51.0652C126.872 50.6591 126.999 50.1784 127.007 49.623C127.027 49.0489 126.981 48.4712 126.869 47.8899L125.279 39.6173C125.161 39.0045 124.996 38.4415 124.784 37.9284C124.568 37.3997 124.271 37.0005 123.894 36.7309C123.532 36.4583 123.044 36.3809 122.431 36.4987C121.819 36.6165 121.387 36.8705 121.136 37.2609C120.885 37.6512 120.758 38.132 120.753 38.703C120.746 39.2584 120.801 39.8425 120.919 40.4552L122.509 48.7278C122.621 49.3092 122.784 49.8643 123 50.3931C123.228 50.9031 123.533 51.3008 123.914 51.5861C124.31 51.8684 124.799 51.9536 125.38 51.8419ZM140 50.9628L137.744 39.2256L135.199 39.7148L134.836 37.8293L142.473 36.3617L142.835 38.2472L140.266 38.7409L142.522 50.4781L140 50.9628ZM146.616 49.6913L143.998 36.0686L149.489 35.0132L149.838 36.828L146.868 37.3987L149.138 49.2066L146.616 49.6913ZM152.862 48.4908L154.331 28.4127L156.523 27.9914L155.031 48.074L152.862 48.4908ZM162.081 46.719L159.604 33.0691L161.466 32.7113L166.091 40.4984L167.523 31.5472L169.385 31.1893L172.145 44.7848L170.024 45.1925L168.461 37.0613L167.244 44.3338L166.466 44.4832L162.648 38.2273L164.202 46.3113L162.081 46.719ZM173.207 33.9984L172.931 32.5608L175.242 28.8173C175.617 28.2239 175.904 27.7287 176.105 27.3317C176.318 26.916 176.453 26.5561 176.509 26.2521C176.58 25.9452 176.588 25.6503 176.534 25.3674C176.443 24.8961 176.264 24.5558 175.996 24.3467C175.724 24.1219 175.361 24.0532 174.905 24.1408C174.308 24.2556 173.922 24.5335 173.746 24.9746C173.583 25.397 173.572 25.9775 173.714 26.7159L171.852 27.0738L171.789 26.7438C171.656 26.0525 171.654 25.4092 171.784 24.814C171.911 24.203 172.194 23.6842 172.634 23.2576C173.089 22.828 173.733 22.5332 174.566 22.3732C175.587 22.1769 176.443 22.3057 177.133 22.7596C177.82 23.1978 178.257 23.904 178.444 24.8782C178.595 25.6638 178.539 26.3914 178.277 27.0609C178.027 27.7117 177.587 28.5133 176.955 29.4656L175.388 31.8685L179.749 31.0305L180.066 32.6803L173.207 33.9984Z" fill="white"/>
<defs>
<filter id="filter0_d_58_52" x="2.77002" y="0.820801" width="200.138" height="94.0576" filterUnits="userSpaceOnUse" color-interpolation-filters="sRGB">
<feFlood flood-opacity="0" result="BackgroundImageFix"/>
<feColorMatrix in="SourceAlpha" type="matrix" values="0 0 0 0 0 0 0 0 0 0 0 0 0 0 0 0 0 0 127 0" result="hardAlpha"/>
<feOffset dy="4"/>
<feGaussianBlur stdDeviation="1.5"/>
<feComposite in2="hardAlpha" operator="out"/>
<feColorMatrix type="matrix" values="0 0 0 0 0.0588235 0 0 0 0 0.0901961 0 0 0 0 0.133333 0 0 0 0.28 0"/>
<feBlend mode="normal" in2="BackgroundImageFix" result="effect1_dropShadow_58_52"/>
<feBlend mode="normal" in="SourceGraphic" in2="effect1_dropShadow_58_52" result="shape"/>
</filter>
<filter id="filter1_i_58_52" x="14.5098" y="59.0844" width="8.22461" height="12.0099" filterUnits="userSpaceOnUse" color-interpolation-filters="sRGB">
<feFlood flood-opacity="0" result="BackgroundImageFix"/>
<feBlend mode="normal" in="SourceGraphic" in2="BackgroundImageFix" result="shape"/>
<feColorMatrix in="SourceAlpha" type="matrix" values="0 0 0 0 0 0 0 0 0 0 0 0 0 0 0 0 0 0 127 0" result="hardAlpha"/>
<feOffset dy="4"/>
<feGaussianBlur stdDeviation="2"/>
<feComposite in2="hardAlpha" operator="arithmetic" k2="-1" k3="1"/>
<feColorMatrix type="matrix" values="0 0 0 0 0.0588235 0 0 0 0 0.0901961 0 0 0 0 0.133333 0 0 0 0.29 0"/>
<feBlend mode="normal" in2="shape" result="effect1_innerShadow_58_52"/>
</filter>
</defs>
</svg>
