<svg width="335" height="153" viewBox="0 0 335 153" fill="none" xmlns="http://www.w3.org/2000/svg">
<g filter="url(#filter0_d_58_58)">
<path d="M53.6425 49.9371L313.473 -0.000222224L331.181 92.1379L71.3507 142.075L9.31207 108.699L53.6425 49.9371Z" fill="#C21919"/>
<path d="M64.357 54.807L65.5879 53.2456L65.9805 53.5551L66.4807 52.9207L67.2785 52.7674L67.1841 52.2764L69.145 51.8995L69.2394 52.3905L71.2004 52.0136L71.106 51.5226L73.0669 51.1458L73.1613 51.6368L75.1222 51.2599L75.0279 50.7689L76.9888 50.392L77.0832 50.883L79.0441 50.5061L78.9497 50.0151L80.9107 49.6383L81.0051 50.1293L82.966 49.7524L82.8716 49.2614L84.8326 48.8845L84.9269 49.3755L86.8879 48.9986L86.7935 48.5076L88.7544 48.1307L88.8488 48.6218L90.8097 48.2449L90.7154 47.7539L92.6763 47.377L92.7707 47.868L94.7316 47.4911L94.6373 47.0001L96.5982 46.6232L96.6925 47.1143L98.6535 46.7374L98.5591 46.2464L100.52 45.8695L100.614 46.3605L102.575 45.9836L102.481 45.4926L104.442 45.1157L104.536 45.6068L106.497 45.2299L106.403 44.7389L108.364 44.362L108.458 44.853L110.419 44.4761L110.325 43.9851L112.286 43.6082L112.38 44.0992L114.341 43.7224L114.247 43.2314L116.208 42.8545L116.302 43.3455L118.263 42.9686L118.169 42.4776L120.129 42.1007L120.224 42.5917L122.185 42.2149L122.09 41.7239L124.051 41.347L124.146 41.838L126.107 41.4611L126.012 40.9701L127.973 40.5932L128.068 41.0842L130.028 40.7074L129.934 40.2163L131.895 39.8395L131.989 40.3305L133.95 39.9536L133.856 39.4626L135.817 39.0857L135.911 39.5767L137.872 39.1999L137.778 38.7088L139.739 38.332L139.833 38.823L141.794 38.4461L141.7 37.9551L143.661 37.5782L143.755 38.0692L145.716 37.6924L145.622 37.2013L147.583 36.8245L147.677 37.3155L149.638 36.9386L149.544 36.4476L151.504 36.0707L151.599 36.5617L153.56 36.1848L153.465 35.6938L155.426 35.317L155.521 35.808L157.482 35.4311L157.387 34.9401L159.348 34.5632L159.443 35.0542L161.404 34.6773L161.309 34.1863L163.27 33.8095L163.364 34.3005L165.325 33.9236L165.231 33.4326L167.192 33.0557L167.286 33.5467L169.247 33.1698L169.153 32.6788L171.114 32.3019L171.208 32.793L173.169 32.4161L173.075 31.9251L175.036 31.5482L175.13 32.0392L177.091 31.6623L176.997 31.1713L178.958 30.7944L179.052 31.2855L181.013 30.9086L180.919 30.4176L182.879 30.0407L182.974 30.5317L184.935 30.1548L184.84 29.6638L186.801 29.2869L186.896 29.7779L188.857 29.4011L188.762 28.9101L190.723 28.5332L190.818 29.0242L192.779 28.6473L192.684 28.1563L194.645 27.7794L194.74 28.2704L196.7 27.8936L196.606 27.4025L198.567 27.0257L198.661 27.5167L200.622 27.1398L200.528 26.6488L202.489 26.2719L202.583 26.7629L204.544 26.386L204.45 25.895L206.411 25.5182L206.505 26.0092L208.466 25.6323L208.372 25.1413L210.333 24.7644L210.427 25.2554L212.388 24.8785L212.294 24.3875L214.255 24.0106L214.349 24.5017L216.31 24.1248L216.216 23.6338L218.176 23.2569L218.271 23.7479L220.232 23.371L220.137 22.88L222.098 22.5031L222.193 22.9941L224.154 22.6173L224.059 22.1263L226.02 21.7494L226.115 22.2404L228.076 21.8635L227.981 21.3725L229.942 20.9956L230.037 21.4866L231.997 21.1098L231.903 20.6187L233.864 20.2419L233.958 20.7329L235.919 20.356L235.825 19.865L237.786 19.4881L237.88 19.9791L239.841 19.6022L239.747 19.1112L241.708 18.7344L241.802 19.2254L243.763 18.8485L243.669 18.3575L245.63 17.9806L245.724 18.4716L247.685 18.0947L247.591 17.6037L249.552 17.2268L249.646 17.7179L251.607 17.341L251.513 16.85L253.474 16.4731L253.568 16.9641L255.529 16.5872L255.434 16.0962L257.395 15.7193L257.49 16.2103L259.451 15.8335L259.356 15.3425L261.317 14.9656L261.412 15.4566L263.373 15.0797L263.278 14.5887L265.239 14.2118L265.334 14.7028L267.294 14.326L267.2 13.8349L269.161 13.4581L269.255 13.9491L271.216 13.5722L271.122 13.0812L273.083 12.7043L273.177 13.1953L275.138 12.8184L275.044 12.3274L277.005 11.9506L277.099 12.4416L279.06 12.0647L278.966 11.5737L280.927 11.1968L281.021 11.6878L282.982 11.3109L282.888 10.8199L284.849 10.443L284.943 10.9341L286.904 10.5572L286.81 10.0662L288.771 9.68929L288.865 10.1803L290.826 9.80343L290.731 9.31242L292.692 8.93554L292.787 9.42655L294.748 9.04967L294.653 8.55866L296.614 8.18178L296.709 8.67279L298.67 8.29592L298.575 7.8049L300.536 7.42803L300.631 7.91904L302.591 7.54217L302.497 7.05115L304.458 6.67427L304.552 7.16528L306.513 6.78841L306.419 6.29739L308.38 5.92052L308.474 6.41153L308.964 6.31746L309.058 6.80985L309.549 6.71548L309.927 8.6823L309.436 8.77667L309.814 10.7435L310.305 10.6491L310.683 12.616L310.192 12.7103L310.57 14.6772L311.061 14.5828L311.439 16.5496L310.948 16.644L311.326 18.6108L311.817 18.5164L312.195 20.4833L311.704 20.5776L312.082 22.5445L312.573 22.4501L312.952 24.4169L312.46 24.5113L312.839 26.4781L313.33 26.3837L313.708 28.3506L313.217 28.4449L313.595 30.4118L314.086 30.3174L314.464 32.2842L313.973 32.3786L314.351 34.3454L314.842 34.251L315.22 36.2179L314.729 36.3122L315.107 38.2791L315.598 38.1847L315.976 40.1515L315.485 40.2459L315.863 42.2127L316.354 42.1183L316.732 44.0852L316.241 44.1795L316.619 46.1463L317.11 46.052L317.488 48.0188L316.997 48.1132L317.375 50.08L317.866 49.9856L318.244 51.9525L317.753 52.0468L318.131 54.0136L318.622 53.9193L319 55.8861L318.509 55.9805L318.887 57.9473L319.378 57.8529L319.756 59.8197L319.265 59.9141L319.643 61.8809L320.134 61.7866L320.512 63.7534L320.021 63.8478L320.399 65.8146L320.89 65.7202L321.268 67.6871L320.777 67.7814L321.155 69.7482L321.646 69.6539L322.024 71.6207L321.533 71.7151L321.911 73.6819L322.402 73.5875L322.78 75.5543L322.289 75.6487L322.667 77.6155L323.158 77.5212L323.536 79.488L323.045 79.5824L323.423 81.5492L323.914 81.4548L324.292 83.4216L323.801 83.516L324.179 85.4828L324.67 85.3885L325.048 87.3553L324.557 87.4497L324.651 87.9421L324.162 88.0362L324.256 88.5272L322.295 88.9041L322.201 88.4131L320.24 88.7899L320.334 89.281L318.373 89.6578L318.279 89.1668L316.318 89.5437L316.412 90.0347L314.451 90.4116L314.357 89.9206L312.396 90.2974L312.49 90.7885L310.529 91.1653L310.435 90.6743L308.474 91.0512L308.568 91.5422L306.608 91.9191L306.513 91.4281L304.552 91.805L304.647 92.296L302.686 92.6728L302.591 92.1818L300.63 92.5587L300.725 93.0497L298.764 93.4266L298.669 92.9356L296.708 93.3125L296.803 93.8035L294.842 94.1803L294.748 93.6893L292.787 94.0662L292.881 94.5572L290.92 94.9341L290.826 94.4431L288.865 94.82L288.959 95.311L286.998 95.6879L286.904 95.1968L284.943 95.5737L285.037 96.0647L283.076 96.4416L282.982 95.9506L281.021 96.3275L281.115 96.8185L279.154 97.1954L279.06 96.7043L277.099 97.0812L277.193 97.5722L275.233 97.9491L275.138 97.4581L273.177 97.835L273.272 98.326L271.311 98.7029L271.216 98.2119L269.255 98.5887L269.35 99.0797L267.389 99.4566L267.294 98.9656L265.333 99.3425L265.428 99.8335L263.467 100.21L263.373 99.7194L261.412 100.096L261.506 100.587L259.545 100.964L259.451 100.473L257.49 100.85L257.584 101.341L255.623 101.718L255.529 101.227L253.568 101.604L253.662 102.095L251.701 102.472L251.607 101.981L249.646 102.357L249.74 102.849L247.779 103.225L247.685 102.734L245.724 103.111L245.818 103.602L243.858 103.979L243.763 103.488L241.802 103.865L241.897 104.356L239.936 104.733L239.841 104.242L237.88 104.619L237.975 105.11L236.014 105.487L235.919 104.996L233.958 105.373L234.053 105.864L232.092 106.24L231.998 105.749L230.037 106.126L230.131 106.617L228.17 106.994L228.076 106.503L226.115 106.88L226.209 107.371L224.248 107.748L224.154 107.257L222.193 107.634L222.287 108.125L220.326 108.502L220.232 108.011L218.271 108.388L218.365 108.879L216.404 109.255L216.31 108.764L214.349 109.141L214.443 109.632L212.483 110.009L212.388 109.518L210.427 109.895L210.522 110.386L208.561 110.763L208.466 110.272L206.505 110.649L206.6 111.14L204.639 111.517L204.544 111.026L202.583 111.403L202.678 111.894L200.717 112.27L200.622 111.779L198.662 112.156L198.756 112.647L196.795 113.024L196.701 112.533L194.74 112.91L194.834 113.401L192.873 113.778L192.779 113.287L190.818 113.664L190.912 114.155L188.951 114.532L188.857 114.041L186.896 114.418L186.99 114.909L185.029 115.285L184.935 114.794L182.974 115.171L183.068 115.662L181.107 116.039L181.013 115.548L179.052 115.925L179.146 116.416L177.186 116.793L177.091 116.302L175.13 116.679L175.225 117.17L173.264 117.547L173.169 117.056L171.208 117.433L171.303 117.924L169.342 118.3L169.247 117.809L167.286 118.186L167.381 118.677L165.42 119.054L165.325 118.563L163.365 118.94L163.459 119.431L161.498 119.808L161.404 119.317L159.443 119.694L159.537 120.185L157.576 120.562L157.482 120.071L155.521 120.448L155.615 120.939L153.654 121.315L153.56 120.824L151.599 121.201L151.693 121.692L149.732 122.069L149.638 121.578L147.677 121.955L147.771 122.446L145.81 122.823L145.716 122.332L143.755 122.709L143.849 123.2L141.888 123.577L141.794 123.086L139.833 123.463L139.928 123.954L137.967 124.331L137.872 123.839L135.911 124.216L136.006 124.707L134.045 125.084L133.95 124.593L131.989 124.97L132.084 125.461L130.123 125.838L130.028 125.347L128.067 125.724L128.162 126.215L126.201 126.592L126.107 126.101L124.146 126.478L124.24 126.969L122.279 127.346L122.185 126.855L120.224 127.231L120.318 127.722L118.357 128.099L118.263 127.608L116.302 127.985L116.396 128.476L114.435 128.853L114.341 128.362L112.38 128.739L112.474 129.23L110.513 129.607L110.419 129.116L108.458 129.493L108.552 129.984L106.591 130.361L106.497 129.87L104.536 130.246L104.631 130.737L102.67 131.114L102.575 130.623L100.614 131L100.709 131.491L98.7477 131.868L98.6533 131.377L96.6924 131.754L96.7867 132.245L94.8258 132.622L94.7314 132.131L92.7705 132.508L92.8649 132.999L90.9039 133.376L90.8095 132.885L88.8486 133.261L88.943 133.752L86.982 134.129L86.8877 133.638L84.9267 134.015L85.0211 134.506L83.0601 134.883L82.9658 134.392L82.1542 134.548L81.4053 134.165L81.1777 134.61L79.3737 133.688L79.6013 133.243L77.7973 132.32L77.5697 132.765L75.7657 131.843L75.9933 131.398L74.1893 130.475L73.9617 130.92L72.1577 129.998L72.3854 129.553L70.5814 128.63L70.3537 129.075L68.5497 128.153L68.7774 127.708L66.9734 126.785L66.7457 127.231L64.9417 126.308L65.1694 125.863L63.3654 124.94L63.1378 125.386L61.3338 124.463L61.5614 124.018L59.7574 123.096L59.5298 123.541L57.7258 122.618L57.9534 122.173L56.1494 121.251L55.9218 121.696L54.1178 120.773L54.3454 120.328L52.5414 119.406L52.3138 119.851L50.5098 118.928L50.7375 118.483L48.9335 117.561L48.7058 118.006L46.9018 117.083L47.1295 116.638L45.3255 115.716L45.0978 116.161L43.2938 115.239L43.5215 114.793L41.7175 113.871L41.4899 114.316L39.6859 113.394L39.9135 112.948L38.1095 112.026L37.8819 112.471L36.0779 111.549L36.3055 111.103L34.5015 110.181L34.2739 110.626L32.4699 109.704L32.6975 109.259L30.8935 108.336L30.6659 108.781L28.8619 107.859L29.0895 107.414L27.2856 106.491L27.0579 106.936L25.2539 106.014L25.4816 105.569L25.1212 105.384L25.3601 105.081L24.9674 104.772L26.1983 103.211L26.591 103.52L27.8219 101.959L27.4292 101.649L28.6602 100.088L29.0528 100.397L30.2837 98.8359L29.8911 98.5263L31.122 96.9649L31.5147 97.2745L32.7456 95.7131L32.3529 95.4035L33.5839 93.8421L33.9765 94.1516L35.2074 92.5902L34.8148 92.2807L36.0457 90.7193L36.4384 91.0288L37.6693 89.4674L37.2766 89.1579L38.5076 87.5965L38.9002 87.906L40.1311 86.3446L39.7385 86.0351L40.9694 84.4737L41.3621 84.7832L42.593 83.2218L42.2003 82.9123L43.4313 81.3509L43.8239 81.6604L45.0548 80.099L44.6622 79.7895L45.8931 78.2281L46.2858 78.5376L47.5167 76.9762L47.124 76.6667L48.3549 75.1052L48.7476 75.4148L49.9785 73.8534L49.5859 73.5438L50.8168 71.9824L51.2095 72.292L52.4404 70.7306L52.0477 70.421L53.2786 68.8596L53.6713 69.1692L54.9022 67.6078L54.5096 67.2982L55.7405 65.7368L56.1331 66.0464L57.3641 64.485L56.9714 64.1754L58.2023 62.614L58.595 62.9236L59.8259 61.3622L59.4333 61.0526L60.6642 59.4912L61.0568 59.8008L62.2878 58.2393L61.8951 57.9298L63.126 56.3684L63.5187 56.6779L64.7496 55.1165L64.357 54.807Z" stroke="white" stroke-dasharray="2 2"/>
<g filter="url(#filter1_i_58_58)">
<ellipse cx="30.6468" cy="102.128" rx="6.82803" ry="6.47065" transform="rotate(-10.8791 30.6468 102.128)" fill="#ABA7A7"/>
</g>
</g>
<path d="M153.174 81.9505C152.185 82.1408 151.301 82.1231 150.525 81.8977C149.761 81.6534 149.13 81.2125 148.633 80.5749C148.136 79.9373 147.783 79.1172 147.574 78.1146C147.568 78.0832 147.562 78.0518 147.556 78.0204C147.547 77.9732 147.539 77.9339 147.533 77.9025L150.055 77.4178C150.23 78.3292 150.515 79.0075 150.91 79.453C151.303 79.8827 151.931 80.0145 152.795 79.8484C153.266 79.7578 153.632 79.5409 153.892 79.1977C154.149 78.8387 154.298 78.3456 154.341 77.7184C154.38 77.0754 154.311 76.2904 154.132 75.3633L153.575 72.4644C153.415 72.9025 153.123 73.2925 152.7 73.6345C152.29 73.9578 151.739 74.1859 151.048 74.3187C149.995 74.5211 149.126 74.4518 148.442 74.1109C147.754 73.7542 147.206 73.1916 146.798 72.4228C146.402 71.6354 146.098 70.6917 145.887 69.5918C145.663 68.4291 145.62 67.354 145.756 66.3666C145.889 65.3635 146.248 64.5205 146.834 63.8377C147.435 63.1519 148.302 62.7002 149.433 62.4828C150.533 62.2714 151.483 62.3821 152.283 62.8149C153.08 63.232 153.726 63.8817 154.222 64.764C154.733 65.6433 155.1 66.6644 155.323 67.8271L156.556 74.2378C156.791 75.4633 156.867 76.6218 156.784 77.7132C156.7 78.8046 156.381 79.7294 155.826 80.4878C155.268 81.2304 154.384 81.718 153.174 81.9505ZM151.317 72.2874C151.867 72.1817 152.289 71.9621 152.584 71.6285C152.875 71.2793 153.083 70.9215 153.208 70.5553L152.665 67.7271C152.538 67.0672 152.36 66.4822 152.132 65.9721C151.901 65.4463 151.598 65.0565 151.223 64.8027C150.845 64.5331 150.381 64.4512 149.832 64.5569C149.282 64.6625 148.873 64.9121 148.607 65.3055C148.356 65.6958 148.211 66.1717 148.172 66.7331C148.146 67.2758 148.194 67.8613 148.315 68.4898C148.46 69.244 148.625 69.9372 148.812 70.5693C149.014 71.1984 149.303 71.6807 149.677 72.0162C150.063 72.3329 150.61 72.4233 151.317 72.2874ZM165.005 79.6768C164.015 79.8671 163.132 79.8494 162.355 79.624C161.591 79.3797 160.961 78.9388 160.464 78.3012C159.966 77.6636 159.613 76.8435 159.404 75.8409C159.398 75.8095 159.392 75.7781 159.386 75.7467C159.377 75.6995 159.369 75.6602 159.363 75.6288L161.885 75.1441C162.06 76.0555 162.346 76.7338 162.741 77.1793C163.133 77.609 163.761 77.7408 164.625 77.5747C165.097 77.4841 165.462 77.2672 165.722 76.924C165.979 76.565 166.129 76.0719 166.171 75.4447C166.21 74.8017 166.141 74.0167 165.963 73.0896L165.406 70.1907C165.245 70.6288 164.954 71.0188 164.531 71.3608C164.12 71.6841 163.57 71.9122 162.878 72.045C161.825 72.2474 160.957 72.1781 160.272 71.8372C159.584 71.4805 159.036 70.9179 158.628 70.1491C158.232 69.3617 157.929 68.418 157.717 67.3181C157.494 66.1554 157.45 65.0803 157.586 64.0929C157.719 63.0898 158.079 62.2468 158.664 61.564C159.266 60.8782 160.132 60.4265 161.263 60.2091C162.363 59.9977 163.313 60.1084 164.113 60.5412C164.91 60.9583 165.556 61.608 166.052 62.4903C166.563 63.3696 166.93 64.3907 167.154 65.5534L168.386 71.9641C168.621 73.1896 168.697 74.3481 168.614 75.4395C168.53 76.5309 168.211 77.4557 167.656 78.2141C167.099 78.9567 166.215 79.4443 165.005 79.6768ZM163.148 70.0137C163.698 69.908 164.12 69.6884 164.414 69.3548C164.705 69.0056 164.914 68.6478 165.039 68.2816L164.495 65.4534C164.368 64.7935 164.191 64.2085 163.962 63.6984C163.731 63.1726 163.428 62.7828 163.053 62.529C162.676 62.2594 162.212 62.1775 161.662 62.2832C161.112 62.3888 160.704 62.6384 160.437 63.0318C160.186 63.4221 160.042 63.898 160.003 64.4594C159.977 65.0021 160.024 65.5876 160.145 66.2161C160.29 66.9703 160.456 67.6635 160.642 68.2956C160.845 68.9247 161.133 69.407 161.507 69.7425C161.894 70.0592 162.441 70.1496 163.148 70.0137ZM182.221 76.368C181.231 76.5583 180.348 76.5406 179.571 76.3151C178.808 76.0709 178.177 75.63 177.68 74.9924C177.182 74.3548 176.829 73.5347 176.62 72.5321C176.614 72.5007 176.608 72.4693 176.602 72.4379C176.593 72.3907 176.586 72.3514 176.58 72.32L179.101 71.8353C179.277 72.7467 179.562 73.425 179.957 73.8704C180.349 74.3002 180.977 74.432 181.841 74.2659C182.313 74.1753 182.678 73.9584 182.938 73.6152C183.195 73.2562 183.345 72.7631 183.387 72.1359C183.427 71.4929 183.357 70.7079 183.179 69.7808L182.622 66.8819C182.462 67.32 182.17 67.71 181.747 68.052C181.337 68.3753 180.786 68.6034 180.094 68.7362C179.042 68.9386 178.173 68.8693 177.488 68.5284C176.801 68.1717 176.253 67.6091 175.844 66.8403C175.448 66.0529 175.145 65.1092 174.933 64.0093C174.71 62.8466 174.666 61.7715 174.802 60.7841C174.935 59.781 175.295 58.938 175.88 58.2552C176.482 57.5694 177.348 57.1177 178.479 56.9003C179.579 56.6889 180.529 56.7996 181.329 57.2324C182.126 57.6495 182.773 58.2992 183.268 59.1815C183.779 60.0608 184.147 61.0819 184.37 62.2446L185.602 68.6553C185.838 69.8808 185.914 71.0393 185.83 72.1307C185.747 73.2221 185.427 74.1469 184.873 74.9053C184.315 75.6479 183.431 76.1355 182.221 76.368ZM180.364 66.7049C180.914 66.5992 181.336 66.3796 181.63 66.046C181.922 65.6967 182.13 65.339 182.255 64.9728L181.711 62.1446C181.585 61.4847 181.407 60.8997 181.179 60.3896C180.947 59.8638 180.644 59.474 180.269 59.2202C179.892 58.9506 179.428 58.8687 178.878 58.9743C178.328 59.08 177.92 59.3296 177.653 59.723C177.403 60.1133 177.258 60.5892 177.219 61.1506C177.193 61.6933 177.24 62.2788 177.361 62.9073C177.506 63.6615 177.672 64.3547 177.859 64.9868C178.061 65.6159 178.349 66.0982 178.723 66.4336C179.11 66.7504 179.657 66.8408 180.364 66.7049ZM194.381 74.0309C193.297 74.2393 192.355 74.1679 191.554 73.8167C190.769 73.4624 190.122 72.8943 189.614 72.1123C189.12 71.3272 188.77 70.3926 188.561 69.3085L186.981 61.083C186.766 59.9674 186.744 58.9615 186.914 58.0654C187.081 57.1535 187.465 56.3954 188.065 55.7912C188.682 55.1839 189.54 54.7746 190.64 54.5632C191.74 54.3518 192.681 54.4154 193.463 54.7539C194.244 55.0924 194.882 55.6541 195.375 56.4392C195.865 57.2085 196.217 58.151 196.432 59.2666L198.012 67.4921C198.224 68.5919 198.238 69.5993 198.056 70.5142C197.889 71.4261 197.506 72.192 196.909 72.812C196.308 73.4162 195.465 73.8225 194.381 74.0309ZM193.983 71.9569C194.58 71.8421 194.994 71.5832 195.226 71.1802C195.474 70.7741 195.602 70.2934 195.609 69.738C195.629 69.1639 195.583 68.5862 195.472 68.0048L193.882 59.7322C193.764 59.1194 193.599 58.5565 193.386 58.0434C193.17 57.5146 192.874 57.1154 192.496 56.8459C192.134 56.5733 191.647 56.4959 191.034 56.6137C190.421 56.7314 189.989 56.9855 189.738 57.3759C189.488 57.7662 189.36 58.2469 189.356 58.818C189.348 59.3734 189.404 59.9574 189.521 60.5702L191.111 68.8428C191.223 69.4242 191.387 69.9793 191.602 70.5081C191.831 71.0181 192.135 71.4158 192.516 71.7011C192.912 71.9833 193.401 72.0686 193.983 71.9569ZM206.557 71.6909C205.473 71.8992 204.53 71.8278 203.73 71.4766C202.945 71.1224 202.298 70.5543 201.789 69.7722C201.296 68.9872 200.945 68.0526 200.737 66.9684L199.156 58.7429C198.942 57.6274 198.92 56.6215 199.089 55.7253C199.256 54.8134 199.64 54.0554 200.241 53.4511C200.857 52.8438 201.716 52.4345 202.815 52.2231C203.915 52.0117 204.856 52.0753 205.638 52.4138C206.42 52.7523 207.058 53.3141 207.551 54.0991C208.041 54.8685 208.393 55.811 208.607 56.9265L210.188 65.152C210.399 66.2519 210.414 67.2593 210.231 68.1742C210.064 69.0861 209.682 69.852 209.084 70.4719C208.484 71.0762 207.641 71.4825 206.557 71.6909ZM206.158 69.6168C206.755 69.5021 207.17 69.2432 207.402 68.8401C207.65 68.434 207.777 67.9533 207.785 67.398C207.805 66.8239 207.759 66.2461 207.647 65.6648L206.057 57.3922C205.939 56.7794 205.774 56.2165 205.562 55.7034C205.346 55.1746 205.049 54.7754 204.672 54.5058C204.31 54.2332 203.822 54.1558 203.209 54.2736C202.597 54.3914 202.165 54.6454 201.914 55.0358C201.663 55.4262 201.536 55.9069 201.531 56.478C201.524 57.0333 201.579 57.6174 201.697 58.2302L203.287 66.5028C203.399 67.0841 203.562 67.6392 203.778 68.168C204.006 68.6781 204.311 69.0757 204.692 69.361C205.088 69.6433 205.577 69.7285 206.158 69.6168ZM220.778 68.7377L218.522 57.0005L215.977 57.4897L215.614 55.6043L223.251 54.1366L223.613 56.0221L221.044 56.5159L223.3 68.2531L220.778 68.7377ZM227.394 67.4662L224.776 53.8435L230.267 52.7881L230.616 54.6029L227.646 55.1737L229.916 66.9816L227.394 67.4662ZM233.64 66.2657L235.109 46.1876L237.301 45.7663L235.809 65.8489L233.64 66.2657ZM242.859 64.4939L240.382 50.8441L242.244 50.4862L246.869 58.2733L248.301 49.3221L250.163 48.9642L252.923 62.5597L250.802 62.9674L249.239 54.8362L248.022 62.1087L247.244 62.2582L243.427 56.0022L244.98 64.0863L242.859 64.4939ZM253.985 51.7734L253.709 50.3357L256.02 46.5922C256.395 45.9988 256.682 45.5036 256.883 45.1066C257.096 44.6909 257.231 44.331 257.287 44.0271C257.358 43.7201 257.366 43.4252 257.312 43.1424C257.221 42.671 257.042 42.3307 256.774 42.1216C256.502 41.8968 256.139 41.8281 255.683 41.9157C255.086 42.0305 254.7 42.3084 254.524 42.7495C254.361 43.1719 254.35 43.7524 254.492 44.4909L252.63 44.8487L252.567 44.5187C252.434 43.8274 252.432 43.1841 252.562 42.5889C252.689 41.9779 252.972 41.4592 253.412 41.0326C253.867 40.603 254.511 40.3081 255.344 40.1481C256.365 39.9518 257.221 40.0806 257.911 40.5345C258.598 40.9727 259.035 41.6789 259.222 42.6531C259.373 43.4387 259.317 44.1663 259.055 44.8358C258.805 45.4866 258.365 46.2882 257.733 47.2405L256.166 49.6434L260.527 48.8054L260.844 50.4552L253.985 51.7734Z" fill="white"/>
<path d="M72.2799 90.8992L72.1746 92.3858L75.4506 91.7561L74.8253 90.41C74.4574 89.6823 74.0882 88.906 73.7179 88.0811C73.3475 87.2562 72.9832 86.4627 72.625 85.7006L72.5307 85.7187C72.4992 86.572 72.4643 87.4504 72.4261 88.3538C72.4007 89.2385 72.3519 90.087 72.2799 90.8992ZM68.2125 99.7458L70.0672 83.455L74.2388 82.6532L82.0002 97.096L78.3235 97.8026L76.6786 94.3306L71.9885 95.232L71.7478 99.0664L68.2125 99.7458ZM83.6793 96.7733L80.7259 81.4065L84.1905 80.7406L85.3501 86.7742L87.047 86.4481L88.3709 82.5277C88.5698 81.9518 88.7774 81.4639 88.9938 81.0639C89.2229 80.6451 89.4813 80.294 89.769 80.0106C90.0567 79.7272 90.3721 79.5037 90.7154 79.3399C91.0587 79.1762 91.4503 79.0521 91.8902 78.9675C92.1102 78.9252 92.3332 78.8987 92.5592 78.8878C92.8009 78.874 93.0158 78.8897 93.2037 78.935L93.2405 82.1784C93.1057 82.1554 92.9755 82.156 92.8498 82.1801C92.7211 82.1886 92.6174 82.2004 92.5389 82.2155C92.1932 82.2819 91.9128 82.4336 91.6976 82.6704C91.4982 82.9043 91.2942 83.3264 91.0856 83.9367L90.003 87.0775L96.5713 94.2955L92.9182 94.9976L87.5861 89.2527L85.8891 89.5789L87.1439 96.1074L83.6793 96.7733ZM98.3406 93.9555L95.3873 78.5887L98.8519 77.9228L101.244 90.3671L106.099 89.434L103.707 76.9897L107.172 76.3238L109.563 88.7681L111.449 88.4057L111.865 90.574L112.556 95.818L109.445 96.4159L108.593 91.985L98.3406 93.9555ZM113.992 90.9474L111.038 75.5807L114.479 74.9193L115.521 80.3401C115.696 81.2515 115.826 82.2205 115.909 83.2472C115.992 84.274 116.073 85.2034 116.151 86.0355L116.246 86.0174L117.106 82.3572L119.664 73.9228L123.341 73.2162L126.295 88.5829L122.877 89.2398L121.831 83.7954C121.656 82.8841 121.522 81.9323 121.429 80.94C121.351 79.9447 121.27 79.0152 121.186 78.1517L121.092 78.1698L120.226 81.8064L117.668 90.2408L113.992 90.9474ZM137.343 86.4595L136.279 80.9209L134.558 81.2515L132.347 87.4198L128.387 88.1808L131.159 81.3672C130.212 81.1906 129.393 80.7859 128.702 80.1532C128.01 79.5204 127.549 78.6069 127.319 77.4127C127.144 76.5014 127.155 75.7092 127.351 75.036C127.548 74.3628 127.879 73.7942 128.343 73.3301C128.821 72.8473 129.398 72.4594 130.075 72.1664C130.767 71.8704 131.522 71.6439 132.339 71.4868L137.878 70.4223L140.831 85.7891L137.343 86.4595ZM133.981 78.5031L135.749 78.1633L134.92 73.8503L133.152 74.19C132.225 74.3682 131.554 74.6518 131.14 75.0409C130.726 75.4301 130.592 76.0017 130.737 76.7559C131.03 78.28 132.111 78.8624 133.981 78.5031Z" fill="#FAFF00"/>
<path d="M76.0556 122.601L74.5879 114.965L75.8764 114.717L77.1417 121.301L80.567 120.642L79.3017 114.059L80.5901 113.811L81.8554 120.395L82.971 120.18L83.128 120.997L83.567 123.96L82.4514 124.174L81.932 121.472L76.0556 122.601ZM87.8873 120.523C87.374 120.621 86.8751 120.625 86.3904 120.533C85.9142 120.429 85.4763 120.242 85.0767 119.971C84.6856 119.688 84.3484 119.318 84.0652 118.862C83.7821 118.406 83.5801 117.864 83.4593 117.235C83.3385 116.607 83.3251 116.028 83.419 115.5C83.5214 114.959 83.6965 114.485 83.9443 114.079C84.2026 113.671 84.5189 113.339 84.8932 113.082C85.2655 112.815 85.6716 112.639 86.1115 112.555C86.5934 112.462 87.039 112.463 87.4483 112.558C87.868 112.652 88.2338 112.831 88.5456 113.097C88.8679 113.361 89.1394 113.7 89.3601 114.113C89.5809 114.527 89.7436 115.007 89.8483 115.551C89.8744 115.687 89.8954 115.825 89.9111 115.963C89.9352 116.088 89.9459 116.2 89.943 116.299L84.7894 117.289C84.9988 118.096 85.375 118.697 85.918 119.093C86.4695 119.475 87.1119 119.596 87.8451 119.455C88.2118 119.385 88.5369 119.268 88.8205 119.105C89.1126 118.929 89.383 118.725 89.6316 118.493L90.2503 119.254C89.9554 119.528 89.6187 119.783 89.2404 120.018C88.8621 120.254 88.4111 120.422 87.8873 120.523ZM84.5955 116.365L88.6807 115.58C88.5317 114.805 88.2514 114.251 87.8397 113.917C87.4365 113.571 86.9363 113.455 86.3392 113.57C86.0669 113.622 85.8151 113.725 85.5838 113.878C85.363 114.029 85.1732 114.228 85.0145 114.476C84.8537 114.713 84.7334 114.992 84.6536 115.311C84.5843 115.629 84.5649 115.98 84.5955 116.365ZM92.5506 119.431L91.0829 111.795L92.3714 111.547L92.9663 114.642L96.643 113.936L96.0481 110.84L97.3365 110.593L98.8041 118.229L97.5157 118.477L96.8634 115.083L93.1867 115.789L93.839 119.183L92.5506 119.431ZM103.169 117.586C102.531 117.708 101.96 117.622 101.458 117.328C100.967 117.031 100.654 116.537 100.522 115.846C100.361 115.008 100.61 114.298 101.269 113.715C101.926 113.121 103.054 112.579 104.654 112.086C104.608 111.846 104.537 111.615 104.44 111.395C104.354 111.172 104.236 110.983 104.086 110.827C103.937 110.671 103.747 110.561 103.518 110.496C103.297 110.419 103.029 110.411 102.715 110.472C102.275 110.556 101.877 110.719 101.522 110.962C101.166 111.204 100.857 111.459 100.593 111.726L99.9184 110.927C100.23 110.629 100.623 110.325 101.096 110.017C101.567 109.698 102.111 109.48 102.729 109.361C103.662 109.182 104.393 109.34 104.922 109.835C105.45 110.321 105.805 111.04 105.989 111.993L106.889 116.675L105.82 116.881L105.535 115.99L105.488 115.999C105.18 116.374 104.837 116.711 104.46 117.012C104.082 117.302 103.651 117.493 103.169 117.586ZM103.347 116.476C103.714 116.406 104.043 116.255 104.336 116.025C104.626 115.785 104.923 115.462 105.225 115.056L104.817 112.935C104.195 113.142 103.674 113.345 103.256 113.545C102.849 113.742 102.524 113.946 102.282 114.155C102.05 114.363 101.892 114.583 101.806 114.817C101.73 115.038 101.714 115.269 101.76 115.51C101.845 115.95 102.036 116.239 102.334 116.377C102.633 116.516 102.97 116.549 103.347 116.476ZM112.704 115.558L113.223 118.26L112.108 118.475L111.401 115.564L111.244 114.746L111.622 114.674C111.714 114.591 111.798 114.488 111.872 114.365C111.954 114.23 112.015 114.039 112.055 113.792C112.094 113.546 112.119 113.221 112.128 112.817C112.137 112.413 112.119 111.895 112.074 111.263L111.833 107.807L116.578 106.895L117.844 113.478L118.959 113.264L119.116 114.081L119.555 117.043L118.44 117.258L117.92 114.555L112.704 115.558ZM113.254 111.297C113.315 112.068 113.317 112.703 113.261 113.202C113.216 113.7 113.13 114.102 113.004 114.408L116.555 113.726L115.492 108.195L113.057 108.663L113.254 111.297ZM123.931 113.595C123.418 113.694 122.919 113.698 122.434 113.606C121.958 113.502 121.52 113.315 121.12 113.044C120.729 112.761 120.392 112.391 120.109 111.935C119.826 111.479 119.624 110.937 119.503 110.308C119.382 109.68 119.369 109.101 119.462 108.572C119.565 108.031 119.74 107.558 119.988 107.152C120.246 106.744 120.562 106.411 120.937 106.155C121.309 105.888 121.715 105.712 122.155 105.627C122.637 105.535 123.082 105.536 123.492 105.631C123.912 105.724 124.277 105.904 124.589 106.17C124.911 106.434 125.183 106.772 125.404 107.186C125.624 107.6 125.787 108.079 125.892 108.624C125.918 108.76 125.939 108.897 125.955 109.035C125.979 109.161 125.989 109.273 125.987 109.371L120.833 110.362C121.042 111.169 121.418 111.77 121.961 112.165C122.513 112.548 123.155 112.669 123.889 112.528C124.255 112.458 124.58 112.341 124.864 112.178C125.156 112.002 125.426 111.798 125.675 111.566L126.294 112.327C125.999 112.601 125.662 112.855 125.284 113.091C124.906 113.327 124.455 113.495 123.931 113.595ZM120.639 109.438L124.724 108.653C124.575 107.878 124.295 107.323 123.883 106.99C123.48 106.644 122.98 106.528 122.383 106.643C122.11 106.695 121.859 106.798 121.627 106.951C121.406 107.102 121.217 107.301 121.058 107.549C120.897 107.786 120.777 108.065 120.697 108.384C120.628 108.702 120.608 109.053 120.639 109.438ZM128.594 112.504L127.126 104.867L128.383 104.626L128.993 107.8C129.072 108.208 129.143 108.662 129.206 109.16C129.278 109.646 129.345 110.138 129.408 110.636L129.471 110.624C129.571 110.355 129.687 110.051 129.817 109.711C129.958 109.369 130.073 109.064 130.163 108.797L132.217 103.889L133.427 103.656L134.895 111.293L133.638 111.534L133.028 108.36C132.949 107.952 132.874 107.505 132.802 107.019C132.739 106.52 132.675 106.017 132.61 105.508L132.547 105.52C132.447 105.789 132.327 106.1 132.189 106.452C132.058 106.792 131.947 107.091 131.855 107.347L129.788 112.274L128.594 112.504ZM130.053 102.887C129.613 102.972 129.228 102.975 128.898 102.898C128.569 102.82 128.283 102.69 128.042 102.508C127.798 102.316 127.602 102.088 127.454 101.823C127.303 101.548 127.193 101.259 127.124 100.958L128.193 100.752C128.246 100.97 128.313 101.18 128.395 101.381C128.486 101.57 128.598 101.728 128.731 101.854C128.874 101.979 129.039 102.072 129.224 102.134C129.418 102.184 129.646 102.184 129.908 102.133C130.17 102.083 130.377 102 130.528 101.884C130.688 101.755 130.807 101.608 130.883 101.441C130.97 101.272 131.016 101.084 131.019 100.877C131.031 100.657 131.022 100.437 130.99 100.215L132.058 100.009C132.096 100.317 132.095 100.627 132.057 100.938C132.028 101.237 131.936 101.521 131.781 101.79C131.624 102.048 131.407 102.274 131.13 102.469C130.852 102.663 130.493 102.803 130.053 102.887ZM140.531 110.405C140.029 110.502 139.54 110.503 139.066 110.41C138.592 110.316 138.16 110.133 137.771 109.86C137.39 109.575 137.058 109.204 136.775 108.748C136.5 108.279 136.303 107.731 136.182 107.102C136.059 106.463 136.05 105.879 136.154 105.348C136.257 104.807 136.442 104.332 136.711 103.921C136.98 103.511 137.317 103.175 137.723 102.912C138.139 102.648 138.593 102.468 139.086 102.373C139.588 102.277 140.035 102.283 140.425 102.393C140.816 102.503 141.17 102.652 141.489 102.84L140.992 103.816C140.734 103.659 140.467 103.542 140.191 103.464C139.926 103.385 139.642 103.374 139.338 103.433C138.992 103.499 138.687 103.634 138.422 103.837C138.155 104.03 137.942 104.277 137.782 104.579C137.623 104.881 137.516 105.228 137.461 105.618C137.414 105.997 137.433 106.406 137.517 106.846C137.602 107.286 137.736 107.673 137.92 108.007C138.103 108.341 138.32 108.62 138.569 108.843C138.827 109.054 139.117 109.205 139.438 109.295C139.758 109.375 140.09 109.382 140.436 109.315C140.792 109.247 141.103 109.111 141.368 108.908C141.641 108.693 141.879 108.457 142.079 108.201L142.811 108.957C142.524 109.327 142.188 109.641 141.803 109.9C141.416 110.148 140.992 110.316 140.531 110.405ZM146.172 109.125L144.907 102.542L142.345 103.034L142.143 101.981L148.554 100.749L148.756 101.802L146.195 102.294L147.46 108.878L146.172 109.125ZM151.718 108.059L150.25 100.423L153.188 99.8585C153.607 99.778 153.997 99.7412 154.356 99.7481C154.716 99.7549 155.032 99.8138 155.303 99.9246C155.582 100.023 155.814 100.185 155.999 100.41C156.181 100.625 156.306 100.905 156.372 101.251C156.455 101.68 156.407 102.053 156.229 102.37C156.061 102.684 155.79 102.938 155.414 103.129L155.423 103.176C155.653 103.187 155.871 103.221 156.078 103.279C156.295 103.335 156.491 103.422 156.666 103.54C156.841 103.659 156.99 103.815 157.114 104.008C157.238 104.202 157.326 104.434 157.379 104.707C157.451 105.084 157.435 105.424 157.33 105.726C157.236 106.027 157.071 106.297 156.835 106.538C156.607 106.767 156.318 106.958 155.967 107.112C155.617 107.267 155.222 107.386 154.782 107.471L151.718 108.059ZM152.139 103.384L153.584 103.106C154.223 102.983 154.66 102.796 154.894 102.545C155.126 102.283 155.208 101.974 155.139 101.618C155.071 101.262 154.887 101.009 154.587 100.861C154.286 100.712 153.838 100.695 153.241 100.81L151.701 101.106L152.139 103.384ZM152.812 106.888L154.462 106.571C155.091 106.45 155.535 106.245 155.794 105.956C156.064 105.665 156.158 105.305 156.075 104.876C156.001 104.488 155.78 104.216 155.413 104.058C155.046 103.901 154.538 103.884 153.888 104.009L152.317 104.311L152.812 106.888ZM160.392 109.798C160.214 109.832 160.049 109.847 159.896 109.844C159.745 109.851 159.602 109.841 159.466 109.813L159.521 108.743C159.609 108.748 159.708 108.751 159.816 108.751C159.927 108.763 160.03 108.759 160.124 108.741C160.564 108.657 160.89 108.431 161.102 108.064C161.326 107.706 161.472 107.276 161.538 106.775L161.602 106.176L157.068 99.1129L158.403 98.8562L160.771 102.784C160.951 103.097 161.14 103.43 161.338 103.783C161.545 104.123 161.74 104.461 161.923 104.795L161.986 104.783C162.035 104.415 162.076 104.032 162.108 103.635C162.14 103.238 162.176 102.861 162.217 102.506L162.771 98.0167L164.028 97.7751L162.741 106.593C162.678 106.996 162.593 107.376 162.488 107.733C162.383 108.09 162.237 108.406 162.051 108.68C161.867 108.966 161.641 109.204 161.374 109.397C161.107 109.59 160.78 109.723 160.392 109.798ZM170.04 104.734C169.527 104.832 169.028 104.836 168.543 104.744C168.067 104.64 167.629 104.453 167.229 104.182C166.838 103.899 166.501 103.529 166.218 103.073C165.935 102.617 165.733 102.075 165.612 101.446C165.491 100.818 165.478 100.239 165.572 99.7106C165.674 99.1696 165.849 98.696 166.097 98.29C166.355 97.8819 166.672 97.5495 167.046 97.293C167.418 97.0259 167.824 96.8501 168.264 96.7655C168.746 96.6729 169.192 96.6742 169.601 96.7693C170.021 96.8624 170.387 97.0419 170.698 97.3079C171.021 97.5718 171.292 97.9106 171.513 98.3244C171.734 98.7382 171.896 99.2174 172.001 99.7621C172.027 99.8983 172.048 100.035 172.064 100.174C172.088 100.299 172.099 100.411 172.096 100.51L166.942 101.5C167.152 102.307 167.528 102.908 168.071 103.304C168.622 103.686 169.265 103.807 169.998 103.666C170.364 103.596 170.69 103.479 170.973 103.316C171.265 103.14 171.536 102.936 171.784 102.704L172.403 103.465C172.108 103.739 171.771 103.993 171.393 104.229C171.015 104.465 170.564 104.633 170.04 104.734ZM166.748 100.576L170.833 99.791C170.684 99.0159 170.404 98.4615 169.992 98.1278C169.589 97.7817 169.089 97.666 168.492 97.7808C168.22 97.8331 167.968 97.9358 167.737 98.0889C167.516 98.24 167.326 98.4394 167.167 98.6871C167.006 98.9244 166.886 99.2028 166.806 99.5222C166.737 99.8397 166.718 100.191 166.748 100.576ZM176.231 103.348L174.966 96.7647L172.405 97.2569L172.202 96.2042L178.613 94.9721L178.815 96.0248L176.254 96.5171L177.52 103.101L176.231 103.348ZM185.19 101.626L185.709 104.329L184.593 104.543L183.887 101.632L183.73 100.815L184.107 100.743C184.2 100.66 184.283 100.557 184.358 100.434C184.44 100.299 184.501 100.108 184.541 99.8612C184.58 99.6146 184.605 99.2895 184.614 98.8858C184.623 98.4821 184.605 97.9642 184.56 97.3321L184.319 93.8754L189.064 92.9635L190.33 99.547L191.445 99.3326L191.602 100.15L192.041 103.112L190.926 103.326L190.406 100.624L185.19 101.626ZM185.739 97.3661C185.801 98.1364 185.803 98.7713 185.747 99.2709C185.701 99.7684 185.616 100.17 185.49 100.477L189.041 99.7946L187.978 94.2638L185.543 94.7319L185.739 97.3661ZM196.291 99.6884C195.82 99.779 195.352 99.7765 194.888 99.681C194.435 99.5834 194.014 99.3982 193.625 99.1254C193.234 98.8422 192.891 98.4735 192.598 98.0194C192.312 97.5529 192.109 97.0054 191.989 96.3769C191.866 95.7379 191.851 95.1541 191.945 94.6256C192.048 94.0845 192.228 93.6099 192.486 93.2019C192.745 92.7938 193.066 92.4604 193.451 92.2018C193.846 91.9412 194.28 91.7656 194.751 91.675C195.222 91.5844 195.685 91.5879 196.138 91.6854C196.601 91.781 197.029 91.9704 197.42 92.2536C197.811 92.5369 198.149 92.9118 198.435 93.3784C198.728 93.8325 198.936 94.379 199.059 95.0179C199.18 95.6464 199.189 96.2312 199.087 96.7723C198.993 97.3008 198.817 97.7691 198.559 98.1772C198.298 98.5748 197.97 98.904 197.575 99.1646C197.19 99.4232 196.762 99.5978 196.291 99.6884ZM196.086 98.6199C196.41 98.5575 196.696 98.432 196.942 98.2435C197.186 98.0445 197.378 97.8012 197.519 97.5136C197.667 97.2135 197.76 96.8753 197.796 96.499C197.832 96.1227 197.808 95.7146 197.724 95.2746C197.639 94.8347 197.51 94.4467 197.337 94.1107C197.162 93.7642 196.95 93.4791 196.7 93.2555C196.461 93.0299 196.193 92.8751 195.894 92.7913C195.594 92.697 195.281 92.6811 194.956 92.7435C194.632 92.8059 194.347 92.9366 194.103 93.1356C193.857 93.3241 193.659 93.5684 193.511 93.8685C193.372 94.1666 193.286 94.5091 193.252 94.8958C193.216 95.2721 193.24 95.6802 193.324 96.1202C193.409 96.5601 193.538 96.9481 193.711 97.2841C193.884 97.6201 194.09 97.901 194.329 98.1266C194.576 98.3397 194.85 98.4935 195.151 98.5878C195.449 98.6716 195.761 98.6823 196.086 98.6199ZM204.287 97.9561L204.139 97.1862C204.748 96.2871 205.288 95.4774 205.757 94.7571C206.227 94.0368 206.612 93.3817 206.911 92.792C207.209 92.1917 207.421 91.6567 207.548 91.187C207.673 90.7068 207.696 90.2624 207.617 89.8539C207.507 89.2778 207.259 88.8366 206.874 88.5304C206.49 88.2241 205.978 88.1324 205.339 88.2552C204.92 88.3358 204.555 88.5307 204.245 88.8401C203.934 89.139 203.663 89.4842 203.434 89.8758L202.554 89.2792C202.884 88.7378 203.259 88.2856 203.678 87.9227C204.095 87.5493 204.634 87.2991 205.294 87.1723C206.226 86.9931 207.011 87.1245 207.65 87.5666C208.287 87.9981 208.691 88.6591 208.862 89.5495C208.953 90.0208 208.94 90.5176 208.823 91.0397C208.714 91.5493 208.526 92.096 208.258 92.6797C207.999 93.251 207.671 93.8625 207.275 94.5143C206.887 95.1536 206.454 95.8397 205.976 96.5724C206.244 96.4991 206.523 96.4238 206.812 96.3465C207.102 96.2692 207.377 96.2054 207.639 96.155L210.546 95.5964L210.76 96.712L204.287 97.9561ZM212.097 96.4551L211.949 95.6852C212.558 94.786 213.098 93.9763 213.568 93.256C214.037 92.5357 214.422 91.8807 214.721 91.2909C215.019 90.6907 215.231 90.1557 215.358 89.6859C215.483 89.2057 215.506 88.7614 215.428 88.3528C215.317 87.7767 215.069 87.3355 214.684 87.0293C214.3 86.7231 213.788 86.6314 213.149 86.7542C212.73 86.8347 212.366 87.0297 212.056 87.339C211.744 87.6379 211.473 87.9832 211.245 88.3747L210.364 87.7782C210.695 87.2367 211.069 86.7846 211.488 86.4216C211.905 86.0482 212.444 85.7981 213.104 85.6712C214.036 85.4921 214.822 85.6235 215.461 86.0655C216.097 86.4971 216.501 87.158 216.673 88.0484C216.763 88.5198 216.75 89.0165 216.633 89.5386C216.525 90.0483 216.336 90.5949 216.068 91.1787C215.809 91.7499 215.481 92.3614 215.085 93.0132C214.697 93.6526 214.264 94.3386 213.786 95.0714C214.054 94.9981 214.333 94.9228 214.623 94.8455C214.912 94.7681 215.187 94.7043 215.449 94.654L218.356 94.0953L218.57 95.2109L212.097 96.4551ZM221.279 94.8859C221.017 94.9362 220.775 94.8905 220.552 94.7486C220.338 94.5943 220.203 94.3757 220.149 94.0929C220.091 93.7891 220.133 93.5311 220.277 93.3188C220.429 93.094 220.637 92.9564 220.898 92.9061C221.15 92.8578 221.383 92.9108 221.597 93.0651C221.82 93.207 221.96 93.4298 222.019 93.7335C222.073 94.0164 222.024 94.2702 221.872 94.495C221.728 94.7073 221.53 94.8376 221.279 94.8859ZM227.14 93.7594C226.124 93.9547 225.247 93.6563 224.508 92.8641C223.769 92.072 223.238 90.8327 222.913 89.1462C222.589 87.4598 222.625 86.1222 223.022 85.1336C223.419 84.145 224.125 83.5531 225.141 83.3578C226.147 83.1645 227.017 83.4535 227.751 84.2247C228.486 84.9958 229.016 86.2247 229.34 87.9111C229.664 89.5976 229.63 90.9456 229.237 91.9552C228.845 92.9647 228.146 93.5662 227.14 93.7594ZM226.941 92.7224C227.234 92.666 227.481 92.5371 227.681 92.3357C227.89 92.1218 228.046 91.8312 228.149 91.4638C228.261 91.0839 228.313 90.623 228.307 90.0811C228.298 89.5288 228.224 88.886 228.083 88.1527C227.942 87.4195 227.774 86.8 227.579 86.2944C227.384 85.7888 227.166 85.3907 226.926 85.1002C226.694 84.7972 226.442 84.5903 226.171 84.4795C225.911 84.3667 225.634 84.3384 225.34 84.3948C225.047 84.4512 224.795 84.5811 224.584 84.7845C224.373 84.9879 224.211 85.2744 224.098 85.6438C223.992 86.0007 223.943 86.4501 223.949 86.992C223.956 87.5339 224.029 88.1714 224.17 88.9047C224.452 90.3712 224.836 91.4054 225.321 92.0073C225.814 92.5968 226.354 92.8351 226.941 92.7224ZM235.778 91.9037L235.247 89.1383L230.737 90.005L230.574 89.1566L233.632 81.9215L235.077 81.6437L236.273 87.8658L237.64 87.6031L237.839 88.6401L236.472 88.9028L237.004 91.6682L235.778 91.9037ZM231.905 88.7053L235.047 88.1013L234.489 85.1945C234.436 84.9222 234.38 84.6017 234.32 84.233C234.269 83.8519 234.227 83.5232 234.196 83.2468L234.133 83.2589C234.054 83.524 233.968 83.7848 233.876 84.0414C233.784 84.298 233.688 84.5609 233.588 84.83L231.905 88.7053ZM240.812 91.1318C240.55 91.1821 240.308 91.1364 240.085 90.9945C239.871 90.8402 239.736 90.6216 239.682 90.3388C239.624 90.035 239.666 89.777 239.81 89.5647C239.963 89.3399 240.17 89.2023 240.432 89.152C240.683 89.1037 240.916 89.1567 241.13 89.311C241.353 89.4529 241.493 89.6757 241.552 89.9794C241.606 90.2623 241.557 90.5161 241.405 90.7409C241.261 90.9531 241.063 91.0835 240.812 91.1318ZM243.353 90.4479L243.205 89.678C243.814 88.7788 244.354 87.9691 244.824 87.2488C245.294 86.5286 245.678 85.8735 245.978 85.2838C246.275 84.6835 246.487 84.1485 246.614 83.6788C246.739 83.1986 246.762 82.7542 246.684 82.3457C246.573 81.7695 246.325 81.3284 245.941 81.0221C245.556 80.7159 245.044 80.6242 244.405 80.747C243.986 80.8275 243.622 81.0225 243.312 81.3319C243 81.6308 242.73 81.976 242.501 82.3676L241.62 81.771C241.951 81.2296 242.325 80.7774 242.744 80.4145C243.161 80.041 243.7 79.7909 244.36 79.6641C245.292 79.4849 246.078 79.6163 246.717 80.0584C247.353 80.4899 247.758 81.1509 247.929 82.0412C248.019 82.5126 248.006 83.0093 247.889 83.5315C247.781 84.0411 247.593 84.5878 247.325 85.1715C247.065 85.7427 246.737 86.3543 246.341 87.0061C245.954 87.6454 245.521 88.3314 245.042 89.0642C245.311 88.9909 245.589 88.9156 245.879 88.8383C246.168 88.761 246.443 88.6972 246.705 88.6468L249.612 88.0882L249.827 89.2037L243.353 90.4479ZM254.483 88.5043C253.467 88.6995 252.59 88.4011 251.851 87.609C251.112 86.8168 250.581 85.5775 250.257 83.8911C249.933 82.2046 249.969 80.8671 250.365 79.8785C250.762 78.8899 251.468 78.2979 252.484 78.1026C253.49 77.9094 254.36 78.1983 255.095 78.9695C255.83 79.7407 256.359 80.9695 256.683 82.656C257.007 84.3424 256.973 85.6905 256.581 86.7C256.188 87.7096 255.489 88.311 254.483 88.5043ZM254.284 87.4672C254.577 87.4109 254.824 87.282 255.024 87.0806C255.233 86.8667 255.389 86.576 255.492 86.2086C255.604 85.8287 255.656 85.3678 255.65 84.8259C255.642 84.2736 255.567 83.6308 255.426 82.8976C255.285 82.1643 255.117 81.5449 254.922 81.0392C254.727 80.5336 254.51 80.1356 254.269 79.8451C254.037 79.5421 253.786 79.3352 253.514 79.2243C253.254 79.1115 252.977 79.0833 252.684 79.1396C252.39 79.196 252.138 79.3259 251.928 79.5293C251.717 79.7328 251.555 80.0192 251.441 80.3886C251.336 80.7456 251.286 81.195 251.293 81.7368C251.299 82.2787 251.373 82.9162 251.514 83.6495C251.796 85.116 252.179 86.1502 252.664 86.7522C253.157 87.3416 253.697 87.58 254.284 87.4672ZM258.973 87.4458L258.825 86.6759C259.435 85.7767 259.974 84.967 260.444 84.2467C260.914 83.5264 261.299 82.8714 261.598 82.2816C261.895 81.6814 262.107 81.1464 262.234 80.6767C262.359 80.1965 262.383 79.7521 262.304 79.3436C262.193 78.7674 261.946 78.3263 261.561 78.02C261.176 77.7138 260.664 77.6221 260.025 77.7449C259.606 77.8254 259.242 78.0204 258.932 78.3298C258.62 78.6286 258.35 78.9739 258.121 79.3655L257.241 78.7689C257.571 78.2275 257.946 77.7753 258.365 77.4123C258.782 77.0389 259.32 76.7888 259.98 76.662C260.912 76.4828 261.698 76.6142 262.337 77.0562C262.974 77.4878 263.378 78.1488 263.549 79.0391C263.64 79.5105 263.626 80.0072 263.51 80.5294C263.401 81.039 263.213 81.5857 262.945 82.1694C262.685 82.7406 262.358 83.3522 261.962 84.004C261.574 84.6433 261.141 85.3293 260.663 86.0621C260.931 85.9888 261.21 85.9135 261.499 85.8362C261.788 85.7589 262.064 85.695 262.326 85.6447L265.233 85.0861L265.447 86.2016L258.973 87.4458ZM266.784 85.9447L266.636 85.1748C267.245 84.2757 267.784 83.466 268.254 82.7457C268.724 82.0254 269.109 81.3704 269.408 80.7806C269.705 80.1803 269.918 79.6453 270.045 79.1756C270.17 78.6954 270.193 78.251 270.114 77.8425C270.004 77.2664 269.756 76.8252 269.371 76.519C268.986 76.2128 268.475 76.121 267.836 76.2438C267.417 76.3244 267.052 76.5193 266.742 76.8287C266.43 77.1276 266.16 77.4728 265.931 77.8644L265.051 77.2678C265.381 76.7264 265.756 76.2742 266.175 75.9113C266.592 75.5379 267.13 75.2877 267.79 75.1609C268.723 74.9817 269.508 75.1132 270.147 75.5552C270.784 75.9867 271.188 76.6477 271.359 77.5381C271.45 78.0094 271.437 78.5062 271.32 79.0283C271.211 79.5379 271.023 80.0846 270.755 80.6683C270.496 81.2396 270.168 81.8511 269.772 82.5029C269.384 83.1422 268.951 83.8283 268.473 84.5611C268.741 84.4878 269.02 84.4125 269.309 84.3351C269.598 84.2578 269.874 84.194 270.136 84.1437L273.043 83.585L273.257 84.7006L266.784 85.9447Z" fill="white"/>
<path d="M257.273 36.205L255.25 25.6777C255.241 25.6902 255.127 25.7448 254.906 25.8415C254.697 25.9361 254.455 26.0368 254.182 26.1435C253.91 26.2503 253.667 26.3457 253.455 26.4299C253.243 26.5141 253.132 26.5572 253.122 26.5592L252.877 25.2865C253.047 25.2104 253.24 25.1135 253.457 24.9959C253.684 24.8763 253.907 24.7409 254.128 24.5899C254.359 24.4368 254.57 24.2605 254.76 24.0611C254.96 23.8597 255.119 23.6392 255.235 23.3995L256.508 23.1548L258.954 35.8819L257.273 36.205ZM261.46 35.4002L261.231 34.2061L263.498 28.5403C263.666 28.1169 263.819 27.7237 263.956 27.3607C264.103 26.9957 264.205 26.6231 264.262 26.2428C264.328 25.85 264.315 25.4179 264.225 24.9465C264.112 24.3599 263.929 23.9171 263.676 23.6182C263.423 23.3192 263.061 23.215 262.59 23.3057C262.192 23.3822 261.904 23.5515 261.726 23.8138C261.548 24.076 261.452 24.3933 261.436 24.7656C261.421 25.1378 261.453 25.5282 261.531 25.9367L261.613 26.361L259.932 26.6841L259.847 26.2442C259.7 25.4795 259.674 24.8057 259.768 24.2227C259.871 23.6273 260.118 23.1344 260.51 22.744C260.913 22.3517 261.491 22.083 262.245 21.9381C263.272 21.7408 264.093 21.8871 264.708 22.377C265.322 22.8565 265.727 23.6095 265.925 24.6361C266.029 25.1808 266.053 25.6705 265.995 26.1052C265.948 26.5378 265.854 26.9524 265.713 27.3488C265.572 27.7452 265.412 28.1561 265.233 28.5815L263.168 33.6056L267.191 32.8325L267.462 34.2466L261.46 35.4002ZM272.196 33.4834C271.536 33.6102 270.947 33.5985 270.43 33.4481C269.92 33.2853 269.5 32.9914 269.169 32.5663C268.837 32.1413 268.602 31.5945 268.462 30.9262C268.458 30.9052 268.454 30.8843 268.45 30.8633C268.444 30.8319 268.439 30.8057 268.435 30.7848L270.116 30.4616C270.233 31.0692 270.423 31.5214 270.687 31.8183C270.948 32.1048 271.367 32.1927 271.943 32.0819C272.257 32.0215 272.501 31.8769 272.674 31.6481C272.845 31.4088 272.945 31.0801 272.973 30.6619C273 30.2333 272.953 29.7099 272.835 29.0919L272.463 27.1593C272.356 27.4513 272.162 27.7114 271.88 27.9394C271.606 28.1549 271.239 28.3069 270.778 28.3955C270.076 28.5304 269.497 28.4842 269.041 28.257C268.582 28.0192 268.217 27.6441 267.945 27.1316C267.681 26.6067 267.478 25.9776 267.338 25.2443C267.189 24.4692 267.159 23.7525 267.25 23.0942C267.339 22.4254 267.578 21.8634 267.969 21.4082C268.37 20.951 268.947 20.6499 269.701 20.5049C270.435 20.364 271.068 20.4378 271.601 20.7263C272.133 21.0043 272.564 21.4375 272.894 22.0257C273.235 22.6119 273.48 23.2926 273.629 24.0677L274.45 28.3415C274.607 29.1585 274.658 29.9309 274.602 30.6584C274.546 31.386 274.334 32.0026 273.964 32.5082C273.592 33.0033 273.003 33.3283 272.196 33.4834ZM270.958 27.0413C271.324 26.9708 271.606 26.8244 271.802 26.602C271.996 26.3692 272.135 26.1307 272.219 25.8866L271.856 24.0011C271.772 23.5611 271.653 23.1711 271.501 22.8311C271.347 22.4806 271.145 22.2207 270.895 22.0515C270.643 21.8718 270.334 21.8172 269.967 21.8876C269.601 21.9581 269.328 22.1245 269.151 22.3867C268.984 22.6469 268.887 22.9642 268.861 23.3385C268.844 23.7002 268.875 24.0906 268.956 24.5096C269.053 25.0124 269.163 25.4745 269.288 25.896C269.423 26.3154 269.615 26.6369 269.864 26.8605C270.122 27.0716 270.486 27.1319 270.958 27.0413ZM283.673 31.2773C283.014 31.4042 282.425 31.3924 281.907 31.2421C281.398 31.0793 280.977 30.7854 280.646 30.3603C280.314 29.9352 280.079 29.3885 279.94 28.7201C279.936 28.6992 279.932 28.6782 279.928 28.6573C279.922 28.6258 279.916 28.5997 279.912 28.5787L281.594 28.2556C281.71 28.8631 281.901 29.3154 282.164 29.6123C282.425 29.8988 282.844 29.9866 283.42 29.8759C283.735 29.8155 283.978 29.6709 284.152 29.4421C284.323 29.2028 284.423 28.874 284.451 28.4559C284.477 28.0272 284.431 27.5039 284.312 26.8859L283.941 24.9532C283.834 25.2453 283.639 25.5053 283.357 25.7333C283.084 25.9488 282.717 26.1009 282.256 26.1895C281.554 26.3244 280.975 26.2782 280.518 26.0509C280.06 25.8132 279.694 25.4381 279.422 24.9256C279.158 24.4006 278.956 23.7715 278.815 23.0383C278.666 22.2631 278.637 21.5464 278.728 20.8881C278.816 20.2194 279.056 19.6574 279.446 19.2022C279.847 18.7449 280.425 18.4438 281.179 18.2989C281.912 18.1579 282.545 18.2317 283.079 18.5202C283.61 18.7983 284.041 19.2314 284.371 19.8196C284.712 20.4059 284.957 21.0865 285.106 21.8617L285.927 26.1355C286.084 26.9525 286.135 27.7248 286.079 28.4524C286.024 29.18 285.811 29.7966 285.441 30.3021C285.069 30.7972 284.48 31.1223 283.673 31.2773ZM282.435 24.8352C282.802 24.7648 283.083 24.6184 283.279 24.396C283.474 24.1631 283.613 23.9247 283.696 23.6805L283.334 21.795C283.249 21.3551 283.131 20.9651 282.978 20.6251C282.824 20.2745 282.622 20.0147 282.372 19.8454C282.12 19.6657 281.811 19.6111 281.445 19.6816C281.078 19.752 280.806 19.9184 280.628 20.1807C280.461 20.4409 280.364 20.7582 280.339 21.1324C280.321 21.4942 280.353 21.8846 280.433 22.3036C280.53 22.8064 280.641 23.2685 280.765 23.6899C280.9 24.1093 281.092 24.4308 281.341 24.6544C281.599 24.8656 281.964 24.9258 282.435 24.8352ZM291.78 29.7191C291.058 29.858 290.429 29.8104 289.895 29.5763C289.372 29.3402 288.941 28.9614 288.602 28.4401C288.273 27.9167 288.039 27.2937 287.9 26.5709L286.846 21.0873C286.703 20.3435 286.689 19.673 286.802 19.0755C286.913 18.4676 287.169 17.9622 287.569 17.5594C287.98 17.1545 288.552 16.8816 289.286 16.7407C290.019 16.5997 290.646 16.6421 291.168 16.8678C291.689 17.0934 292.114 17.4679 292.443 17.9913C292.769 18.5042 293.004 19.1325 293.147 19.8762L294.201 25.3599C294.342 26.0931 294.352 26.7647 294.23 27.3746C294.119 27.9826 293.864 28.4932 293.465 28.9065C293.065 29.3093 292.503 29.5802 291.78 29.7191ZM291.515 28.3364C291.913 28.2599 292.189 28.0873 292.344 27.8186C292.509 27.5479 292.594 27.2274 292.599 26.8572C292.612 26.4745 292.582 26.0893 292.507 25.7017L291.447 20.1867C291.369 19.7782 291.258 19.4029 291.117 19.0608C290.973 18.7083 290.775 18.4422 290.523 18.2625C290.282 18.0807 289.957 18.0291 289.548 18.1077C289.14 18.1862 288.852 18.3556 288.685 18.6158C288.518 18.876 288.433 19.1965 288.43 19.5772C288.425 19.9475 288.462 20.3369 288.54 20.7454L289.6 26.2604C289.675 26.648 289.784 27.0181 289.928 27.3706C290.08 27.7106 290.283 27.9757 290.537 28.1659C290.801 28.3541 291.127 28.4109 291.515 28.3364ZM299.897 28.159C299.175 28.2979 298.546 28.2503 298.013 28.0162C297.489 27.78 297.058 27.4013 296.719 26.8799C296.39 26.3566 296.156 25.7335 296.017 25.0107L294.963 19.5271C294.82 18.7834 294.806 18.1128 294.919 17.5153C295.03 16.9074 295.286 16.402 295.686 15.9992C296.097 15.5944 296.67 15.3215 297.403 15.1805C298.136 15.0396 298.763 15.082 299.285 15.3076C299.806 15.5333 300.231 15.9078 300.56 16.4312C300.886 16.944 301.121 17.5723 301.264 18.3161L302.318 23.7997C302.459 24.5329 302.469 25.2045 302.347 25.8145C302.236 26.4224 301.981 26.933 301.582 27.3463C301.182 27.7492 300.62 28.02 299.897 28.159ZM299.632 26.7763C300.03 26.6998 300.306 26.5272 300.461 26.2585C300.626 25.9877 300.711 25.6673 300.716 25.297C300.729 24.9143 300.699 24.5291 300.624 24.1416L299.564 18.6265C299.486 18.218 299.375 17.8427 299.234 17.5007C299.09 17.1481 298.892 16.882 298.64 16.7023C298.399 16.5206 298.074 16.469 297.666 16.5475C297.257 16.626 296.969 16.7954 296.802 17.0556C296.635 17.3159 296.55 17.6364 296.547 18.0171C296.542 18.3873 296.579 18.7767 296.657 19.1852L297.717 24.7003C297.792 25.0879 297.901 25.4579 298.045 25.8104C298.197 26.1505 298.4 26.4156 298.654 26.6058C298.918 26.7939 299.244 26.8508 299.632 26.7763Z" fill="white"/>
<line x1="254.538" y1="37.2632" x2="301.601" y2="11.9245" stroke="white"/>
<defs>
<filter id="filter0_d_58_58" x="6.31201" y="-0.000213623" width="327.869" height="149.075" filterUnits="userSpaceOnUse" color-interpolation-filters="sRGB">
<feFlood flood-opacity="0" result="BackgroundImageFix"/>
<feColorMatrix in="SourceAlpha" type="matrix" values="0 0 0 0 0 0 0 0 0 0 0 0 0 0 0 0 0 0 127 0" result="hardAlpha"/>
<feOffset dy="4"/>
<feGaussianBlur stdDeviation="1.5"/>
<feComposite in2="hardAlpha" operator="out"/>
<feColorMatrix type="matrix" values="0 0 0 0 0.0588235 0 0 0 0 0.0901961 0 0 0 0 0.133333 0 0 0 0.28 0"/>
<feBlend mode="normal" in2="BackgroundImageFix" result="effect1_dropShadow_58_58"/>
<feBlend mode="normal" in="SourceGraphic" in2="effect1_dropShadow_58_58" result="shape"/>
</filter>
<filter id="filter1_i_58_58" x="23.8301" y="95.6426" width="13.6335" height="16.97" filterUnits="userSpaceOnUse" color-interpolation-filters="sRGB">
<feFlood flood-opacity="0" result="BackgroundImageFix"/>
<feBlend mode="normal" in="SourceGraphic" in2="BackgroundImageFix" result="shape"/>
<feColorMatrix in="SourceAlpha" type="matrix" values="0 0 0 0 0 0 0 0 0 0 0 0 0 0 0 0 0 0 127 0" result="hardAlpha"/>
<feOffset dy="4"/>
<feGaussianBlur stdDeviation="2"/>
<feComposite in2="hardAlpha" operator="arithmetic" k2="-1" k3="1"/>
<feColorMatrix type="matrix" values="0 0 0 0 0.0588235 0 0 0 0 0.0901961 0 0 0 0 0.133333 0 0 0 0.29 0"/>
<feBlend mode="normal" in2="shape" result="effect1_innerShadow_58_58"/>
</filter>
</defs>
</svg>
