<svg width="274" height="128" viewBox="0 0 274 128" fill="none" xmlns="http://www.w3.org/2000/svg">
<g filter="url(#filter0_d_269_2)">
<path d="M44.8485 41.1104L258.626 0.121603L273.584 77.721L59.8065 118.71L8.57969 90.3791L44.8485 41.1104Z" fill="#C21919"/>
<path d="M53.3686 45.6714L54.5918 44.082L54.9883 44.387L55.4843 43.7425L56.2788 43.5902L56.1842 43.0992L58.1455 42.7231L58.2402 43.2141L60.2015 42.838L60.1069 42.3471L62.0682 41.971L62.1629 42.462L64.1242 42.0859L64.0296 41.5949L65.991 41.2189L66.0856 41.7098L68.047 41.3338L67.9523 40.8428L69.9137 40.4668L70.0083 40.9577L71.9697 40.5817L71.875 40.0907L73.8364 39.7146L73.931 40.2056L75.8924 39.8295L75.7978 39.3386L77.7591 38.9625L77.8538 39.4535L79.8151 39.0774L79.7205 38.5864L81.6818 38.2104L81.7765 38.7013L83.7378 38.3253L83.6432 37.8343L85.6045 37.4583L85.6992 37.9492L87.6605 37.5732L87.5659 37.0822L89.5273 36.7061L89.6219 37.1971L91.5833 36.821L91.4886 36.3301L93.45 35.954L93.5446 36.445L95.506 36.0689L95.4113 35.5779L97.3727 35.2019L97.4673 35.6928L99.4287 35.3168L99.3341 34.8258L101.295 34.4498L101.39 34.9407L103.351 34.5647L103.257 34.0737L105.218 33.6976L105.313 34.1886L107.274 33.8125L107.179 33.3216L109.141 32.9455L109.235 33.4365L111.197 33.0604L111.102 32.5694L113.064 32.1934L113.158 32.6843L115.12 32.3083L115.025 31.8173L116.986 31.4413L117.081 31.9322L119.042 31.5562L118.948 31.0652L120.909 30.6891L121.004 31.1801L122.965 30.804L122.87 30.3131L124.832 29.937L124.926 30.428L126.888 30.0519L126.793 29.5609L128.754 29.1849L128.849 29.6758L130.81 29.2998L130.716 28.8088L132.677 28.4328L132.772 28.9237L134.733 28.5477L134.639 28.0567L136.6 27.6806L136.695 28.1716L138.656 27.7955L138.561 27.3046L140.523 26.9285L140.617 27.4195L142.579 27.0434L142.484 26.5524L144.445 26.1764L144.54 26.6673L146.501 26.2913L146.407 25.8003L148.368 25.4242L148.463 25.9152L150.424 25.5391L150.329 25.0482L152.291 24.6721L152.385 25.1631L154.347 24.787L154.252 24.2961L156.214 23.92L156.308 24.4109L158.27 24.0349L158.175 23.5439L160.136 23.1679L160.231 23.6588L162.192 23.2828L162.098 22.7918L164.059 22.4157L164.154 22.9067L166.115 22.5306L166.02 22.0397L167.982 21.6636L168.076 22.1546L170.038 21.7785L169.943 21.2875L171.904 20.9115L171.999 21.4024L173.96 21.0264L173.866 20.5354L175.827 20.1593L175.922 20.6503L177.883 20.2742L177.789 19.7833L179.75 19.4072L179.845 19.8982L181.806 19.5221L181.711 19.0312L183.673 18.6551L183.767 19.1461L185.729 18.77L185.634 18.279L187.595 17.903L187.69 18.3939L189.651 18.0179L189.557 17.5269L191.518 17.1508L191.613 17.6418L193.574 17.2657L193.48 16.7748L195.441 16.3987L195.536 16.8897L197.497 16.5136L197.402 16.0226L199.364 15.6466L199.458 16.1375L201.42 15.7615L201.325 15.2705L203.286 14.8945L203.381 15.3854L205.342 15.0094L205.248 14.5184L207.209 14.1423L207.304 14.6333L209.265 14.2572L209.17 13.7663L211.132 13.3902L211.226 13.8812L213.188 13.5051L213.093 13.0141L215.054 12.6381L215.149 13.129L217.11 12.753L217.016 12.262L218.977 11.8859L219.072 12.3769L221.033 12.0008L220.939 11.5099L222.9 11.1338L222.995 11.6248L224.956 11.2487L224.861 10.7578L226.823 10.3817L226.917 10.8727L228.879 10.4966L228.784 10.0056L230.745 9.62957L230.84 10.1205L232.801 9.74447L232.707 9.2535L234.668 8.87744L234.763 9.3684L236.724 8.99234L236.629 8.50138L238.591 8.12531L238.685 8.61627L240.647 8.24021L240.552 7.74925L242.514 7.37319L242.608 7.86415L244.57 7.48808L244.475 6.99712L246.436 6.62106L246.531 7.11202L248.492 6.73596L248.398 6.245L250.359 5.86893L250.454 6.35989L252.415 5.98383L252.32 5.49287L254.282 5.11681L254.376 5.60777L254.866 5.51389L254.958 5.9892L255.449 5.89505L255.821 7.8276L255.33 7.92175L255.703 9.8543L256.194 9.76015L256.566 11.6927L256.075 11.7868L256.448 13.7194L256.939 13.6252L257.311 15.5578L256.82 15.652L257.193 17.5845L257.684 17.4904L258.056 19.4229L257.565 19.5171L257.938 21.4496L258.429 21.3555L258.801 23.288L258.31 23.3822L258.683 25.3147L259.174 25.2206L259.546 27.1531L259.055 27.2473L259.428 29.1798L259.919 29.0857L260.291 31.0182L259.8 31.1124L260.173 33.0449L260.664 32.9508L261.036 34.8833L260.545 34.9775L260.918 36.91L261.409 36.8159L261.781 38.7484L261.29 38.8426L261.663 40.7751L262.154 40.681L262.526 42.6135L262.035 42.7077L262.408 44.6402L262.899 44.5461L263.272 46.4786L262.78 46.5728L263.153 48.5053L263.644 48.4112L264.017 50.3437L263.526 50.4379L263.898 52.3704L264.389 52.2763L264.762 54.2088L264.271 54.303L264.643 56.2356L265.134 56.1414L265.507 58.0739L265.016 58.1681L265.388 60.1006L265.879 60.0065L266.252 61.939L265.761 62.0332L266.133 63.9658L266.624 63.8716L266.997 65.8042L266.506 65.8983L266.878 67.8309L267.369 67.7367L267.742 69.6693L267.251 69.7634L267.623 71.696L268.114 71.6018L268.487 73.5344L267.996 73.6285L268.087 74.1038L267.598 74.1977L267.692 74.6887L265.731 75.0647L265.636 74.5738L263.675 74.9498L263.77 75.4408L261.808 75.8169L261.714 75.3259L259.752 75.702L259.847 76.1929L257.885 76.569L257.791 76.078L255.829 76.4541L255.924 76.9451L253.963 77.3211L253.868 76.8302L251.907 77.2062L252.001 77.6972L250.04 78.0732L249.945 77.5823L247.984 77.9583L248.079 78.4493L246.117 78.8254L246.023 78.3344L244.061 78.7105L244.156 79.2014L242.195 79.5775L242.1 79.0865L240.139 79.4626L240.233 79.9536L238.272 80.3296L238.177 79.8387L236.216 80.2147L236.311 80.7057L234.349 81.0818L234.255 80.5908L232.293 80.9669L232.388 81.4578L230.426 81.8339L230.332 81.3429L228.37 81.719L228.465 82.2099L226.504 82.586L226.409 82.095L224.448 82.4711L224.542 82.9621L222.581 83.3381L222.486 82.8472L220.525 83.2232L220.62 83.7142L218.658 84.0903L218.564 83.5993L216.602 83.9754L216.697 84.4663L214.736 84.8424L214.641 84.3514L212.68 84.7275L212.774 85.2184L210.813 85.5945L210.718 85.1035L208.757 85.4796L208.851 85.9706L206.89 86.3466L206.795 85.8557L204.834 86.2317L204.929 86.7227L202.967 87.0988L202.873 86.6078L200.911 86.9839L201.006 87.4748L199.045 87.8509L198.95 87.3599L196.989 87.736L197.083 88.2269L195.122 88.603L195.027 88.112L193.066 88.4881L193.161 88.9791L191.199 89.3551L191.105 88.8642L189.143 89.2402L189.238 89.7312L187.277 90.1073L187.182 89.6163L185.221 89.9924L185.315 90.4833L183.354 90.8594L183.259 90.3684L181.298 90.7445L181.392 91.2355L179.431 91.6115L179.336 91.1206L177.375 91.4966L177.47 91.9876L175.508 92.3636L175.414 91.8727L173.452 92.2487L173.547 92.7397L171.586 93.1158L171.491 92.6248L169.53 93.0009L169.624 93.4918L167.663 93.8679L167.568 93.3769L165.607 93.753L165.701 94.244L163.74 94.62L163.645 94.1291L161.684 94.5051L161.779 94.9961L159.817 95.3722L159.723 94.8812L157.761 95.2573L157.856 95.7482L155.895 96.1243L155.8 95.6333L153.839 96.0094L153.933 96.5003L151.972 96.8764L151.877 96.3854L149.916 96.7615L150.011 97.2525L148.049 97.6285L147.955 97.1376L145.993 97.5136L146.088 98.0046L144.126 98.3807L144.032 97.8897L142.07 98.2658L142.165 98.7567L140.204 99.1328L140.109 98.6418L138.148 99.0179L138.242 99.5089L136.281 99.8849L136.186 99.394L134.225 99.77L134.32 100.261L132.358 100.637L132.264 100.146L130.302 100.522L130.397 101.013L128.436 101.389L128.341 100.898L126.38 101.274L126.474 101.765L124.513 102.141L124.418 101.65L122.457 102.026L122.551 102.517L120.59 102.893L120.495 102.402L118.534 102.779L118.629 103.269L116.667 103.646L116.573 103.155L114.611 103.531L114.706 104.022L112.745 104.398L112.65 103.907L110.689 104.283L110.783 104.774L108.822 105.15L108.727 104.659L106.766 105.035L106.861 105.526L104.899 105.902L104.805 105.411L102.843 105.787L102.938 106.278L100.976 106.654L100.882 106.163L98.9205 106.539L99.0151 107.03L97.0537 107.406L96.9591 106.915L94.9977 107.291L95.0924 107.782L93.131 108.158L93.0364 107.667L91.075 108.043L91.1697 108.534L89.2083 108.91L89.1136 108.419L87.1523 108.796L87.2469 109.287L85.2856 109.663L85.1909 109.172L83.2296 109.548L83.3242 110.039L81.3628 110.415L81.2682 109.924L79.3068 110.3L79.4015 110.791L77.4401 111.167L77.3455 110.676L75.3841 111.052L75.4787 111.543L73.5174 111.919L73.4227 111.428L71.4614 111.804L71.556 112.295L69.5947 112.671L69.5 112.18L68.6914 112.335L67.9299 111.935L67.6974 112.377L65.8643 111.413L66.0968 110.971L64.2637 110.006L64.0312 110.449L62.1981 109.485L62.4306 109.042L60.5975 108.078L60.365 108.521L58.5318 107.556L58.7644 107.114L56.9313 106.15L56.6987 106.592L54.8656 105.628L55.0982 105.186L53.265 104.222L53.0325 104.664L51.1994 103.7L51.4319 103.257L49.5988 102.293L49.3663 102.736L47.5332 101.772L47.7657 101.329L45.9326 100.365L45.7 100.807L43.8669 99.8433L44.0995 99.4009L42.2664 98.4368L42.0338 98.8792L40.2007 97.915L40.4332 97.4727L38.6001 96.5085L38.3676 96.9509L36.5345 95.9868L36.767 95.5444L34.9339 94.5803L34.7014 95.0226L32.8682 94.0585L33.1008 93.6161L31.2677 92.652L31.0351 93.0944L29.202 92.1302L29.4346 91.6879L27.6014 90.7237L27.3689 91.1661L25.5358 90.202L25.7683 89.7596L23.9352 88.7955L23.7027 89.2378L21.8696 88.2737L22.1021 87.8313L21.7117 87.626L21.9611 87.302L21.5646 86.9969L22.7878 85.4075L23.1843 85.7125L24.4075 84.1231L24.0111 83.818L25.2343 82.2286L25.6308 82.5336L26.854 80.9442L26.4575 80.6391L27.6807 79.0497L28.0772 79.3547L29.3004 77.7653L28.904 77.4603L30.1272 75.8708L30.5237 76.1759L31.7469 74.5864L31.3504 74.2814L32.5737 72.6919L32.9701 72.997L34.1934 71.4075L33.7969 71.1025L35.0201 69.513L35.4166 69.8181L36.6398 68.2286L36.2434 67.9236L37.4666 66.3342L37.8631 66.6392L39.0863 65.0498L38.6898 64.7447L39.913 63.1553L40.3095 63.4603L41.5327 61.8709L41.1363 61.5658L42.3595 59.9764L42.756 60.2814L43.9792 58.692L43.5827 58.3869L44.8059 56.7975L45.2024 57.1026L46.4257 55.5131L46.0292 55.2081L47.2524 53.6186L47.6489 53.9237L48.8721 52.3342L48.4756 52.0292L49.6989 50.4397L50.0953 50.7448L51.3186 49.1553L50.9221 48.8503L52.1453 47.2609L52.5418 47.5659L53.765 45.9765L53.3686 45.6714Z" stroke="white" stroke-dasharray="2 2"/>
<g filter="url(#filter1_i_269_2)">
<ellipse cx="27.7878" cy="84.4834" rx="6.06057" ry="5.89472" transform="rotate(-10.8791 27.7878 84.4834)" fill="#ABA7A7"/>
</g>
</g>
<path d="M122.992 64.8781C122.249 65.0208 121.587 65.0075 121.004 64.8384C120.432 64.6553 119.959 64.3246 119.586 63.8464C119.213 63.3682 118.948 62.7531 118.791 62.0012C118.787 61.9776 118.782 61.954 118.778 61.9305C118.771 61.8951 118.765 61.8656 118.761 61.8421L120.652 61.4786C120.783 62.1621 120.997 62.6708 121.294 63.0049C121.588 63.3272 122.059 63.426 122.707 63.3015C123.06 63.2335 123.335 63.0708 123.53 62.8134C123.722 62.5442 123.834 62.1744 123.866 61.704C123.896 61.2217 123.844 60.633 123.71 59.9377L123.292 57.7635C123.172 58.0921 122.953 58.3846 122.636 58.6411C122.328 58.8835 121.915 59.0546 121.397 59.1542C120.607 59.306 119.956 59.254 119.442 58.9983C118.926 58.7309 118.515 58.3089 118.209 57.7323C117.912 57.1417 117.684 56.434 117.526 55.6091C117.358 54.737 117.326 53.9307 117.428 53.1901C117.527 52.4378 117.797 51.8056 118.236 51.2934C118.687 50.7791 119.337 50.4404 120.185 50.2773C121.01 50.1188 121.723 50.2018 122.323 50.5264C122.921 50.8392 123.405 51.3264 123.777 51.9882C124.16 52.6477 124.436 53.4135 124.603 54.2855L125.527 59.0935C125.704 60.0127 125.761 60.8815 125.698 61.7001C125.636 62.5186 125.396 63.2123 124.98 63.781C124.562 64.338 123.899 64.7037 122.992 64.8781ZM121.599 57.6307C122.011 57.5514 122.328 57.3867 122.548 57.1366C122.767 56.8746 122.923 56.6063 123.017 56.3317L122.609 54.2105C122.514 53.7156 122.381 53.2768 122.21 52.8943C122.036 52.4999 121.809 52.2076 121.528 52.0172C121.245 51.815 120.897 51.7536 120.484 51.8328C120.072 51.9121 119.766 52.0992 119.566 52.3943C119.378 52.687 119.269 53.044 119.24 53.465C119.221 53.872 119.256 54.3112 119.347 54.7826C119.455 55.3482 119.58 55.8681 119.72 56.3422C119.872 56.814 120.088 57.1757 120.368 57.4273C120.658 57.6648 121.068 57.7326 121.599 57.6307ZM131.864 63.1728C131.122 63.3155 130.46 63.3023 129.877 63.1331C129.304 62.95 128.831 62.6193 128.458 62.1411C128.085 61.6629 127.821 61.0478 127.664 60.2959C127.659 60.2723 127.655 60.2487 127.65 60.2252C127.643 60.1898 127.638 60.1604 127.633 60.1368L129.525 59.7733C129.656 60.4568 129.87 60.9656 130.166 61.2996C130.46 61.6219 130.932 61.7208 131.58 61.5962C131.933 61.5283 132.207 61.3656 132.402 61.1082C132.595 60.839 132.707 60.4691 132.739 59.9987C132.769 59.5164 132.716 58.9277 132.583 58.2324L132.165 56.0582C132.045 56.3868 131.826 56.6793 131.509 56.9358C131.201 57.1783 130.788 57.3493 130.269 57.449C129.48 57.6007 128.828 57.5487 128.315 57.2931C127.799 57.0256 127.388 56.6036 127.082 56.027C126.785 55.4364 126.557 54.7287 126.399 53.9038C126.231 53.0317 126.198 52.2254 126.3 51.4849C126.4 50.7325 126.67 50.1003 127.109 49.5882C127.56 49.0738 128.21 48.7351 129.058 48.572C129.883 48.4135 130.596 48.4965 131.196 48.8211C131.793 49.1339 132.278 49.6212 132.65 50.2829C133.033 50.9424 133.308 51.7082 133.476 52.5802L134.4 57.3882C134.577 58.3074 134.634 59.1763 134.571 59.9948C134.509 60.8133 134.269 61.507 133.853 62.0757C133.435 62.6327 132.772 62.9984 131.864 63.1728ZM130.471 55.9254C130.884 55.8462 131.201 55.6815 131.421 55.4313C131.64 55.1693 131.796 54.9011 131.89 54.6264L131.482 52.5052C131.387 52.0103 131.254 51.5715 131.082 51.189C130.909 50.7947 130.682 50.5023 130.401 50.3119C130.117 50.1097 129.77 50.0483 129.357 50.1275C128.945 50.2068 128.639 50.394 128.439 50.689C128.25 50.9818 128.142 51.3387 128.113 51.7597C128.093 52.1667 128.129 52.6059 128.219 53.0773C128.328 53.6429 128.453 54.1628 128.592 54.6369C128.744 55.1087 128.96 55.4705 129.241 55.722C129.531 55.9596 129.941 56.0274 130.471 55.9254ZM144.776 60.6912C144.034 60.8339 143.372 60.8207 142.789 60.6515C142.216 60.4684 141.743 60.1377 141.371 59.6595C140.998 59.1813 140.733 58.5662 140.576 57.8143C140.571 57.7907 140.567 57.7671 140.562 57.7436C140.556 57.7082 140.55 57.6788 140.545 57.6552L142.437 57.2917C142.568 57.9752 142.782 58.484 143.078 58.818C143.373 59.1403 143.844 59.2392 144.492 59.1146C144.845 59.0466 145.12 58.884 145.314 58.6266C145.507 58.3574 145.619 57.9875 145.651 57.5171C145.681 57.0348 145.629 56.4461 145.495 55.7508L145.077 53.5766C144.957 53.9052 144.738 54.1977 144.421 54.4542C144.113 54.6967 143.7 54.8677 143.182 54.9674C142.392 55.1191 141.74 55.0671 141.227 54.8115C140.711 54.544 140.3 54.122 139.994 53.5454C139.697 52.9548 139.469 52.2471 139.311 51.4222C139.143 50.5501 139.11 49.7438 139.213 49.0033C139.312 48.2509 139.582 47.6187 140.021 47.1066C140.472 46.5922 141.122 46.2535 141.97 46.0904C142.795 45.9319 143.508 46.0149 144.108 46.3395C144.706 46.6523 145.19 47.1396 145.562 47.8013C145.945 48.4608 146.221 49.2266 146.388 50.0986L147.312 54.9066C147.489 55.8258 147.546 56.6947 147.483 57.5132C147.421 58.3317 147.181 59.0254 146.765 59.5941C146.347 60.1511 145.684 60.5168 144.776 60.6912ZM143.384 53.4438C143.796 53.3646 144.113 53.1998 144.333 52.9497C144.552 52.6877 144.708 52.4194 144.802 52.1448L144.394 50.0236C144.299 49.5287 144.166 49.0899 143.995 48.7074C143.821 48.3131 143.594 48.0207 143.313 47.8303C143.03 47.6281 142.682 47.5667 142.269 47.6459C141.857 47.7252 141.551 47.9124 141.351 48.2074C141.163 48.5002 141.054 48.8571 141.025 49.2781C141.005 49.6851 141.041 50.1243 141.132 50.5957C141.24 51.1613 141.365 51.6812 141.505 52.1553C141.656 52.6271 141.873 52.9888 142.153 53.2404C142.443 53.4779 142.853 53.5458 143.384 53.4438ZM153.897 58.9384C153.084 59.0946 152.377 59.0411 151.776 58.7777C151.188 58.512 150.702 58.0859 150.321 57.4994C149.951 56.9106 149.688 56.2097 149.532 55.3965L148.346 49.2274C148.185 48.3907 148.169 47.6363 148.296 46.9642C148.421 46.2803 148.709 45.7117 149.16 45.2586C149.622 44.8031 150.266 44.4961 151.091 44.3376C151.915 44.179 152.621 44.2267 153.208 44.4806C153.794 44.7345 154.272 45.1558 154.642 45.7446C155.009 46.3216 155.274 47.0284 155.434 47.8651L156.62 54.0342C156.779 54.8591 156.789 55.6147 156.652 56.3008C156.527 56.9848 156.241 57.5592 155.792 58.0242C155.342 58.4774 154.71 58.7821 153.897 58.9384ZM153.598 57.3828C154.046 57.2968 154.357 57.1026 154.531 56.8003C154.716 56.4957 154.812 56.1352 154.818 55.7187C154.833 55.2881 154.798 54.8548 154.714 54.4188L153.522 48.2144C153.434 47.7548 153.31 47.3326 153.15 46.9478C152.988 46.5512 152.766 46.2518 152.483 46.0496C152.211 45.8452 151.846 45.7871 151.386 45.8754C150.927 45.9638 150.603 46.1543 150.415 46.4471C150.226 46.7398 150.131 47.1004 150.128 47.5287C150.122 47.9452 150.163 48.3833 150.252 48.8429L151.444 55.0473C151.528 55.4833 151.651 55.8996 151.813 56.2962C151.984 56.6788 152.212 56.977 152.498 57.191C152.795 57.4027 153.162 57.4666 153.598 57.3828ZM163.028 57.1833C162.215 57.3396 161.508 57.286 160.908 57.0226C160.319 56.757 159.834 56.3309 159.453 55.7444C159.083 55.1556 158.82 54.4546 158.663 53.6415L157.478 47.4724C157.317 46.6357 157.3 45.8813 157.428 45.2092C157.553 44.5253 157.841 43.9567 158.291 43.5035C158.754 43.0481 159.397 42.7411 160.222 42.5825C161.047 42.424 161.753 42.4717 162.339 42.7255C162.926 42.9794 163.404 43.4008 163.774 43.9895C164.141 44.5666 164.405 45.2734 164.566 46.1101L165.752 52.2792C165.91 53.1041 165.921 53.8596 165.784 54.5458C165.659 55.2297 165.372 55.8042 164.924 56.2691C164.473 56.7223 163.842 57.027 163.028 57.1833ZM162.729 55.6278C163.177 55.5417 163.488 55.3476 163.662 55.0453C163.848 54.7407 163.944 54.3802 163.949 53.9637C163.964 53.5331 163.93 53.0998 163.846 52.6638L162.654 46.4593C162.565 45.9997 162.441 45.5775 162.282 45.1927C162.12 44.7961 161.898 44.4967 161.614 44.2946C161.343 44.0901 160.977 44.0321 160.518 44.1204C160.058 44.2087 159.734 44.3993 159.546 44.692C159.358 44.9848 159.262 45.3453 159.259 45.7736C159.254 46.1902 159.295 46.6282 159.384 47.0878L160.576 53.2923C160.66 53.7283 160.783 54.1446 160.944 54.5412C161.116 54.9237 161.344 55.222 161.629 55.436C161.927 55.6476 162.293 55.7116 162.729 55.6278ZM173.694 54.9685L172.002 46.1656L170.093 46.5325L169.822 45.1184L175.549 44.0177L175.82 45.4318L173.894 45.8021L175.586 54.605L173.694 54.9685ZM178.656 54.0149L176.692 43.7978L180.811 43.0063L181.073 44.3674L178.845 44.7954L180.547 53.6513L178.656 54.0149ZM183.341 53.1144L184.443 38.0559L186.087 37.7399L184.967 52.8019L183.341 53.1144ZM190.255 51.7856L188.397 41.5482L189.794 41.2798L193.263 47.1202L194.337 40.4067L195.733 40.1384L197.803 50.335L196.212 50.6407L195.04 44.5424L194.127 49.9967L193.544 50.1088L190.681 45.4168L191.846 51.4799L190.255 51.7856ZM198.6 42.2452L198.392 41.1669L200.126 38.3594C200.407 37.9143 200.623 37.5429 200.773 37.2452C200.933 36.9333 201.034 36.6635 201.076 36.4355C201.129 36.2052 201.136 35.9841 201.095 35.772C201.027 35.4184 200.892 35.1632 200.691 35.0064C200.488 34.8378 200.215 34.7863 199.873 34.852C199.425 34.938 199.136 35.1465 199.004 35.4773C198.881 35.7941 198.873 36.2295 198.98 36.7833L197.583 37.0517L197.536 36.8042C197.436 36.2857 197.435 35.8033 197.532 35.3568C197.628 34.8986 197.84 34.5096 198.17 34.1896C198.511 33.8674 198.994 33.6463 199.618 33.5262C200.384 33.379 201.026 33.4756 201.544 33.8161C202.059 34.1447 202.387 34.6744 202.527 35.405C202.641 35.9942 202.599 36.5399 202.402 37.0421C202.215 37.5302 201.884 38.1313 201.411 38.8456L200.236 40.6477L203.506 40.0192L203.744 41.2566L198.6 42.2452Z" fill="white"/>
<path d="M51.3418 72.0615L51.2628 73.1765L53.7198 72.7042L53.2508 71.6946C52.9749 71.1489 52.698 70.5667 52.4202 69.948C52.1425 69.3293 51.8693 68.7342 51.6005 68.1626L51.5298 68.1762C51.5062 68.8161 51.4801 69.4749 51.4514 70.1525C51.4323 70.816 51.3958 71.4524 51.3418 72.0615ZM48.2912 78.6965L49.6822 66.4784L52.8109 65.8771L58.632 76.7091L55.8744 77.2391L54.6408 74.6351L51.1232 75.3112L50.9427 78.1869L48.2912 78.6965ZM59.8913 76.4671L57.6763 64.942L60.2747 64.4426L61.1444 68.9678L62.4171 68.7232L63.41 65.7829C63.5592 65.351 63.7149 64.9851 63.8772 64.685C64.049 64.371 64.2428 64.1077 64.4586 63.8951C64.6743 63.6826 64.9109 63.5149 65.1684 63.3921C65.4258 63.2693 65.7195 63.1762 66.0495 63.1128C66.2145 63.0811 66.3817 63.0611 66.5512 63.053C66.7325 63.0426 66.8937 63.0544 67.0346 63.0884L67.0622 65.5209C66.9611 65.5037 66.8635 65.5041 66.7692 65.5222C66.6727 65.5286 66.5949 65.5374 66.536 65.5487C66.2767 65.5986 66.0664 65.7123 65.9051 65.89C65.7555 66.0653 65.6025 66.3819 65.4461 66.8397L64.6341 69.1952L69.5603 74.6088L66.8205 75.1353L62.8214 70.8267L61.5487 71.0713L62.4897 75.9677L59.8913 76.4671ZM70.8873 74.3537L68.6723 62.8287L71.2707 62.3293L73.0645 71.6624L76.7058 70.9626L74.9121 61.6294L77.5105 61.13L79.3043 70.4632L80.7184 70.1914L81.031 71.8177L81.5486 75.7507L79.2153 76.1991L78.5766 72.8759L70.8873 74.3537ZM82.6256 72.0977L80.4106 60.5727L82.9913 60.0766L83.7727 64.1422C83.9041 64.8257 84.001 65.5525 84.0635 66.3226C84.1259 67.0926 84.1866 67.7897 84.2454 68.4138L84.3161 68.4002L84.9616 65.655L86.8802 59.3292L89.6377 58.7993L91.8527 70.3243L89.2896 70.817L88.5049 66.7337C88.3735 66.0502 88.273 65.3363 88.2033 64.5921C88.1453 63.8456 88.0847 63.1486 88.0213 62.5009L87.9506 62.5145L87.3017 65.242L85.3831 71.5677L82.6256 72.0977ZM100.139 68.7318L99.3408 64.5778L98.0504 64.8258L96.3917 69.452L93.4221 70.0227L95.5009 64.9125C94.7912 64.7801 94.1769 64.4766 93.658 64.002C93.1391 63.5274 92.7936 62.8423 92.6214 61.9467C92.4901 61.2632 92.4981 60.669 92.6454 60.1641C92.7928 59.6592 93.0408 59.2328 93.3893 58.8847C93.7474 58.5226 94.1803 58.2317 94.6879 58.012C95.2074 57.7899 95.7735 57.62 96.3863 57.5023L100.54 56.7039L102.755 68.229L100.139 68.7318ZM97.6176 62.7644L98.9433 62.5096L98.3216 59.2748L96.9959 59.5296C96.3006 59.6633 95.7977 59.876 95.4872 60.1678C95.1767 60.4597 95.0758 60.8884 95.1845 61.4541C95.4042 62.5972 96.2152 63.034 97.6176 62.7644Z" fill="#FAFF00"/>
<path d="M58.3661 100.38L57.9116 98.0158L52.7697 99.004L51.4855 92.3223L52.6129 92.1056L53.72 97.8662L56.7172 97.2902L55.61 91.5296L56.7374 91.3129L57.8445 97.0735L58.8207 96.8859L58.9581 97.6008L59.3422 100.193L58.3661 100.38ZM63.1225 97.1854C62.5267 97.2999 61.9595 97.2663 61.4209 97.0847C60.8805 96.8939 60.418 96.5646 60.0335 96.0968C59.649 95.629 59.3871 95.033 59.2479 94.3089C59.107 93.5757 59.1284 92.9205 59.3121 92.3435C59.505 91.7647 59.8033 91.2892 60.207 90.917C60.6107 90.5448 61.0645 90.3102 61.5687 90.2133C62.4211 90.0495 63.131 90.2077 63.6985 90.6879C64.2752 91.1663 64.6551 91.8821 64.8383 92.8353C64.8612 92.9545 64.8795 93.0745 64.8932 93.1954C64.9144 93.3054 64.9237 93.4034 64.9212 93.4894L60.4118 94.3561C60.5932 95.0531 60.9215 95.5745 61.3967 95.9203C61.881 96.2645 62.444 96.3749 63.0856 96.2515C63.4064 96.1899 63.6908 96.0877 63.939 95.945C64.1946 95.7913 64.4312 95.6128 64.6487 95.4094L65.1901 96.0752C64.9412 96.3131 64.6466 96.536 64.3064 96.744C63.9754 96.9502 63.5807 97.0973 63.1225 97.1854ZM60.2421 93.5476L63.8167 92.8606C63.6863 92.1824 63.441 91.6973 63.0808 91.4053C62.728 91.1025 62.2903 91.0013 61.7679 91.1017C61.3005 91.1915 60.9141 91.4559 60.6087 91.8947C60.3108 92.3226 60.1886 92.8736 60.2421 93.5476ZM67.2028 96.2301L65.9186 89.5484L67.046 89.3317L67.5665 92.0401L70.7837 91.4218L70.2631 88.7134L71.3905 88.4967L72.6747 95.1784L71.5473 95.3951L70.9766 92.4255L67.7594 93.0438L68.3302 96.0134L67.2028 96.2301ZM76.4944 94.6154C75.9353 94.7228 75.4361 94.6477 74.9969 94.39C74.5651 94.1213 74.292 93.6891 74.1775 93.0933C74.0365 92.3601 74.2545 91.7384 74.8312 91.2284C75.4154 90.7075 76.4029 90.2326 77.7936 89.8037C77.739 89.5196 77.6458 89.2571 77.514 89.0163C77.3913 88.7738 77.2142 88.594 76.9826 88.4769C76.7584 88.3489 76.463 88.3202 76.0964 88.3906C75.7114 88.4646 75.3635 88.6075 75.0525 88.8193C74.7416 89.0312 74.4708 89.2543 74.2403 89.4887L73.6497 88.7896C73.9226 88.528 74.266 88.2625 74.6798 87.9928C75.1011 87.7123 75.5776 87.5209 76.1092 87.4187C76.9249 87.262 77.5645 87.4004 78.0281 87.834C78.4898 88.2585 78.8008 88.8878 78.9611 89.7219L79.7485 93.8189L78.8136 93.9986L78.5642 93.2197L78.5229 93.2276C78.2606 93.5441 77.9601 93.8347 77.6213 94.0994C77.2916 94.3624 76.916 94.5344 76.4944 94.6154ZM76.6499 93.6446C76.9707 93.5829 77.2582 93.4469 77.5124 93.2365C77.7666 93.026 78.0268 92.7479 78.293 92.4021L77.9363 90.5461C76.8537 90.8967 76.1142 91.2527 75.718 91.614C75.3308 91.9735 75.1787 92.3687 75.2615 92.7994C75.3337 93.1752 75.5011 93.4282 75.7637 93.5583C76.0246 93.6792 76.32 93.708 76.6499 93.6446ZM85.3179 89.1132C85.3714 89.7872 85.3736 90.3427 85.3246 90.7799C85.2847 91.2152 85.2098 91.567 85.0997 91.8353L88.2069 91.2381L87.2768 86.3987L85.1458 86.8082L85.3179 89.1132ZM84.8368 92.841L85.2913 95.2057L84.3152 95.3933L83.6973 92.8461L83.5599 92.1312L83.8899 92.0678C84.0041 91.9698 84.0967 91.8332 84.1675 91.658C84.2458 91.4719 84.2993 91.1813 84.3279 90.7861C84.3547 90.3818 84.3407 89.8142 84.2857 89.0834L84.0751 86.0588L88.2271 85.2609L89.3343 91.0214L90.3104 90.8338L90.4478 91.5487L90.8319 94.1408L89.8558 94.3284L89.4013 91.9637L84.8368 92.841ZM94.6605 91.124C94.0647 91.2385 93.4976 91.205 92.9589 91.0234C92.4185 90.8326 91.9561 90.5033 91.5715 90.0354C91.187 89.5676 90.9251 88.9717 90.786 88.2476C90.6451 87.5143 90.6665 86.8592 90.8502 86.2821C91.0431 85.7033 91.3414 85.2278 91.745 84.8556C92.1487 84.4834 92.6026 84.2489 93.1067 84.152C93.9591 83.9881 94.669 84.1463 95.2365 84.6265C95.8132 85.1049 96.1931 85.8208 96.3763 86.774C96.3992 86.8931 96.4176 87.0132 96.4313 87.1341C96.4524 87.2441 96.4618 87.3421 96.4593 87.4281L91.9498 88.2948C92.1313 88.9917 92.4596 89.5131 92.9347 89.859C93.4191 90.2031 93.982 90.3135 94.6236 90.1902C94.9444 90.1285 95.2289 90.0263 95.4771 89.8836C95.7327 89.7299 95.9692 89.5514 96.1867 89.348L96.7281 90.0138C96.4792 90.2517 96.1847 90.4747 95.8445 90.6826C95.5134 90.8888 95.1188 91.0359 94.6605 91.124ZM91.7802 87.4863L95.3547 86.7993C95.2244 86.121 94.9791 85.6359 94.6189 85.344C94.266 85.0411 93.8284 84.9399 93.3059 85.0403C92.8385 85.1302 92.4521 85.3945 92.1468 85.8334C91.8489 86.2613 91.7267 86.8122 91.7802 87.4863ZM98.7409 90.1687L97.4567 83.487L98.5566 83.2756L99.0903 86.0528C99.159 86.4103 99.221 86.807 99.2763 87.2431C99.339 87.6682 99.398 88.0988 99.4533 88.5349L99.5083 88.5243C99.5961 88.2889 99.6969 88.0224 99.8108 87.7249C99.9321 87.4164 100.033 87.1499 100.113 86.9254L101.911 82.6309L102.97 82.4274L104.254 89.1091L103.154 89.3205L102.62 86.5434C102.552 86.1859 102.485 85.79 102.421 85.3557C102.365 84.9196 102.31 84.4836 102.255 84.0475L102.2 84.0581C102.119 84.2826 102.018 84.5491 101.897 84.8576C101.776 85.166 101.675 85.4325 101.595 85.657L99.7857 89.9679L98.7409 90.1687ZM100.018 81.7545C99.5045 81.8532 99.0726 81.8316 98.7222 81.6899C98.381 81.5463 98.1063 81.3283 97.898 81.0357C97.6897 80.7431 97.542 80.4198 97.455 80.0658L98.3898 79.8862C98.4839 80.2768 98.6453 80.5974 98.8741 80.8481C99.1028 81.0987 99.4418 81.1809 99.8909 81.0946C100.349 81.0065 100.638 80.8037 100.758 80.4861C100.877 80.1685 100.904 79.8117 100.837 79.4158L101.772 79.2362C101.822 79.5971 101.805 79.9521 101.72 80.3011C101.635 80.6501 101.456 80.9553 101.183 81.2169C100.919 81.4766 100.531 81.6559 100.018 81.7545ZM109.186 88.3323C108.599 88.4451 108.041 88.4098 107.512 88.2264C106.982 88.043 106.53 87.7165 106.155 87.2469C105.779 86.7774 105.521 86.1759 105.38 85.4427C105.236 84.6911 105.26 84.0259 105.453 83.4471C105.655 82.8665 105.972 82.3921 106.405 82.0238C106.847 81.6537 107.353 81.414 107.921 81.3048C108.361 81.2202 108.752 81.2259 109.093 81.3218C109.444 81.416 109.754 81.5465 110.024 81.7132L109.589 82.5666C109.363 82.4295 109.13 82.327 108.888 82.2593C108.657 82.1899 108.408 82.1807 108.142 82.2318C107.739 82.3093 107.398 82.4888 107.119 82.7705C106.848 83.0412 106.659 83.3912 106.551 83.8205C106.451 84.239 106.45 84.7048 106.549 85.2181C106.695 85.9788 107.002 86.5614 107.469 86.9658C107.944 87.3592 108.488 87.497 109.103 87.3789C109.414 87.319 109.691 87.1994 109.932 87.02C110.171 86.8314 110.374 86.6261 110.54 86.404L111.181 87.0651C110.929 87.389 110.635 87.6641 110.299 87.8904C109.96 88.1075 109.589 88.2548 109.186 88.3323ZM114.121 87.2127L113.014 81.4521L110.773 81.8828L110.596 80.9617L116.206 79.8836L116.383 80.8048L114.142 81.2355L115.249 86.996L114.121 87.2127ZM118.974 86.2801L117.69 79.5983L120.261 79.1042C120.994 78.9633 121.611 78.9826 122.111 79.1621C122.619 79.3306 122.931 79.7174 123.047 80.3223C123.117 80.6889 123.075 81.0154 122.921 81.3016C122.775 81.5769 122.537 81.7984 122.208 81.9662L122.216 82.0074C122.609 82.0268 122.967 82.1339 123.29 82.3285C123.622 82.5214 123.834 82.8607 123.927 83.3465C124.054 84.0064 123.9 84.5397 123.465 84.9465C123.028 85.3441 122.425 85.6168 121.655 85.7648L118.974 86.2801ZM119.343 82.189L120.607 81.9459C121.167 81.8384 121.548 81.6747 121.753 81.4548C121.956 81.2257 122.028 80.9553 121.968 80.6437C121.908 80.3321 121.742 80.1121 121.471 79.9837C121.208 79.8536 120.82 79.8379 120.307 79.9365L118.959 80.1955L119.343 82.189ZM119.932 85.2549L121.375 84.9774C121.925 84.8717 122.314 84.6925 122.541 84.4398C122.775 84.1761 122.857 83.861 122.787 83.4944C122.722 83.1553 122.529 82.9168 122.207 82.7789C121.886 82.641 121.442 82.6267 120.873 82.7359L119.498 83.0001L119.932 85.2549ZM126.564 87.8009C126.418 87.829 126.273 87.8426 126.13 87.8415C125.996 87.8387 125.871 87.8295 125.754 87.814L125.802 86.8781C125.879 86.8823 125.965 86.8848 126.06 86.8855C126.157 86.8954 126.247 86.8924 126.33 86.8765C126.705 86.8043 126.991 86.6069 127.185 86.2844C127.382 85.971 127.509 85.5949 127.567 85.156L127.623 84.632L123.655 78.4518L124.824 78.2272L126.896 81.664C127.051 81.9287 127.216 82.2155 127.389 82.5243C127.572 82.8314 127.743 83.131 127.904 83.4233L127.959 83.4127C128.002 83.0909 128.037 82.7562 128.065 82.4086C128.094 82.061 128.125 81.7318 128.161 81.4209L128.646 77.4927L129.746 77.2813L128.62 84.9965C128.549 85.4664 128.436 85.8966 128.283 86.2872C128.14 86.676 127.927 87.002 127.645 87.2653C127.373 87.536 127.013 87.7145 126.564 87.8009ZM135.006 83.3699C134.41 83.4844 133.843 83.4509 133.305 83.2693C132.764 83.0785 132.302 82.7492 131.917 82.2814C131.533 81.8135 131.271 81.2176 131.132 80.4935C130.991 79.7602 131.012 79.1051 131.196 78.528C131.389 77.9492 131.687 77.4737 132.091 77.1015C132.494 76.7293 132.948 76.4948 133.452 76.3979C134.305 76.234 135.015 76.3922 135.582 76.8724C136.159 77.3508 136.539 78.0667 136.722 79.0199C136.745 79.139 136.763 79.2591 136.777 79.38C136.798 79.49 136.807 79.588 136.805 79.674L132.295 80.5407C132.477 81.2376 132.805 81.759 133.28 82.1049C133.765 82.449 134.328 82.5594 134.969 82.4361C135.29 82.3744 135.574 82.2722 135.823 82.1295C136.078 81.9758 136.315 81.7973 136.532 81.5939L137.074 82.2597C136.825 82.4976 136.53 82.7206 136.19 82.9285C135.859 83.1347 135.464 83.2818 135.006 83.3699ZM132.126 79.7322L135.7 79.0452C135.57 78.3669 135.325 77.8818 134.964 77.5899C134.612 77.287 134.174 77.1858 133.652 77.2862C133.184 77.3761 132.798 77.6404 132.492 78.0793C132.194 78.5072 132.072 79.0581 132.126 79.7322ZM140.423 82.1577L139.316 76.3971L137.075 76.8278L136.898 75.9067L142.507 74.8286L142.684 75.7498L140.444 76.1805L141.551 81.941L140.423 82.1577ZM148.743 76.9234C148.797 77.5974 148.799 78.1529 148.75 78.5901C148.71 79.0254 148.635 79.3772 148.525 79.6455L151.632 79.0483L150.702 74.2089L148.571 74.6184L148.743 76.9234ZM148.262 80.6512L148.716 83.0159L147.74 83.2035L147.123 80.6563L146.985 79.9414L147.315 79.878C147.429 79.78 147.522 79.6434 147.593 79.4682C147.671 79.2821 147.724 78.9915 147.753 78.5963C147.78 78.192 147.766 77.6244 147.711 76.8936L147.5 73.869L151.652 73.0711L152.759 78.8316L153.736 78.644L153.873 79.3589L154.257 81.951L153.281 82.1386L152.826 79.7739L148.262 80.6512ZM157.976 78.9553C157.435 79.0593 156.9 79.0196 156.37 78.8362C155.85 78.6511 155.393 78.3255 154.999 77.8594C154.615 77.3916 154.352 76.791 154.211 76.0578C154.067 75.3062 154.086 74.6419 154.27 74.0648C154.463 73.486 154.767 73.0142 155.181 72.6494C155.605 72.2829 156.087 72.0476 156.628 71.9437C157.178 71.838 157.713 71.8777 158.233 72.0628C158.754 72.248 159.206 72.5744 159.591 73.0423C159.984 73.5083 160.253 74.1172 160.398 74.8687C160.539 75.602 160.513 76.258 160.32 76.8368C160.136 77.4139 159.837 77.8848 159.422 78.2496C159.008 78.6144 158.526 78.8497 157.976 78.9553ZM157.796 78.0205C158.373 77.9095 158.791 77.5868 159.05 77.0524C159.316 76.5071 159.376 75.8541 159.229 75.0933C159.081 74.3234 158.783 73.7345 158.334 73.3266C157.894 72.9169 157.385 72.7676 156.808 72.8786C156.24 72.9878 155.822 73.315 155.557 73.8604C155.291 74.4057 155.232 75.0633 155.38 75.8332C155.526 76.5939 155.824 77.1783 156.273 77.5862C156.72 77.9849 157.228 78.1297 157.796 78.0205ZM167.698 77.0867C167.002 77.2206 166.396 77.2087 165.881 77.0511C165.364 76.8843 164.928 76.6687 164.573 76.4043L165.008 75.5509C165.327 75.7748 165.685 75.9577 166.083 76.0999C166.481 76.242 166.937 76.2637 167.45 76.165C167.982 76.0629 168.389 75.8326 168.672 75.4741C168.954 75.1156 169.049 74.6935 168.956 74.2077C168.889 73.8594 168.739 73.5746 168.506 73.3532C168.281 73.1208 167.948 72.971 167.507 72.9036C167.076 72.8344 166.512 72.8668 165.815 73.0007L165.649 72.1345C166.272 72.0148 166.748 71.8472 167.078 71.6318C167.416 71.4147 167.639 71.1675 167.748 70.89C167.856 70.6126 167.881 70.3227 167.823 70.0202C167.74 69.5894 167.537 69.2767 167.215 69.0821C166.902 68.8857 166.511 68.8325 166.044 68.9223C165.677 68.9928 165.354 69.1404 165.074 69.3653C164.803 69.5884 164.56 69.8584 164.346 70.1753L163.603 69.5766C163.881 69.1907 164.206 68.8572 164.58 68.5763C164.952 68.2862 165.395 68.0919 165.908 67.9932C166.669 67.847 167.334 67.9234 167.905 68.2224C168.474 68.5122 168.826 69.01 168.962 69.7158C169.064 70.2474 169.001 70.7109 168.773 71.1064C168.545 71.5019 168.21 71.8371 167.769 72.112L167.779 72.167C168.334 72.184 168.831 72.3498 169.272 72.6642C169.711 72.9696 169.988 73.4247 170.105 74.0296C170.203 74.5429 170.16 75.0121 169.976 75.4372C169.792 75.8623 169.499 76.218 169.098 76.5042C168.706 76.7886 168.239 76.9828 167.698 77.0867ZM174.711 75.739C173.831 75.9081 173.063 75.6469 172.408 74.9556C171.76 74.2533 171.295 73.1689 171.013 71.7024C170.729 70.2268 170.761 69.0564 171.108 68.1914C171.464 67.3246 172.082 66.8066 172.962 66.6375C173.833 66.4702 174.589 66.7239 175.232 67.3987C175.884 68.0717 176.352 69.146 176.636 70.6217C176.918 72.0882 176.883 73.2686 176.532 74.1629C176.189 75.0463 175.582 75.5716 174.711 75.739ZM174.537 74.8316C175.05 74.7329 175.407 74.3649 175.608 73.7276C175.806 73.0811 175.783 72.1163 175.536 70.8331C175.289 69.5499 174.956 68.6587 174.537 68.1595C174.117 67.6511 173.649 67.4463 173.136 67.5449C172.623 67.6436 172.26 68.0078 172.049 68.6378C171.845 69.2568 171.866 70.2078 172.113 71.491C172.359 72.7742 172.695 73.6792 173.119 74.2059C173.551 74.7216 174.023 74.9302 174.537 74.8316ZM179.84 74.7532C179.611 74.7972 179.399 74.7572 179.204 74.6331C179.017 74.498 178.899 74.3068 178.851 74.0593C178.8 73.7935 178.838 73.5677 178.964 73.382C179.097 73.1853 179.278 73.0649 179.507 73.0209C179.727 72.9786 179.931 73.025 180.118 73.16C180.313 73.2841 180.436 73.4791 180.487 73.7449C180.535 73.9924 180.492 74.2144 180.359 74.4111C180.233 74.5969 180.06 74.7109 179.84 74.7532ZM184.969 73.7675C184.089 73.9366 183.321 73.6755 182.665 72.9842C182.017 72.2819 181.552 71.1975 181.27 69.731C180.987 68.2553 181.018 67.085 181.365 66.22C181.721 65.3532 182.339 64.8352 183.219 64.6661C184.09 64.4988 184.847 64.7525 185.49 65.4273C186.142 66.1003 186.61 67.1746 186.893 68.6503C187.175 70.1168 187.141 71.2972 186.79 72.1915C186.446 73.0748 185.839 73.6002 184.969 73.7675ZM184.794 72.8601C185.307 72.7615 185.664 72.3935 185.865 71.7562C186.064 71.1097 186.04 70.1449 185.794 68.8617C185.547 67.5785 185.214 66.6873 184.795 66.1881C184.374 65.6797 183.907 65.4748 183.394 65.5735C182.881 65.6721 182.518 66.0364 182.307 66.6663C182.102 67.2853 182.124 68.2364 182.37 69.5196C182.617 70.8028 182.952 71.7077 183.377 72.2344C183.808 72.7502 184.281 72.9588 184.794 72.8601ZM189.138 69.3452L191.888 68.8167L191.399 66.2732C191.353 66.0349 191.307 65.749 191.262 65.4156C191.217 65.0821 191.177 64.7999 191.142 64.569L191.087 64.5795C191.018 64.8115 190.943 65.0397 190.863 65.2643C190.782 65.4888 190.698 65.7188 190.61 65.9543L189.138 69.3452ZM192.527 72.1438L192.062 69.7241L188.116 70.4824L187.973 69.74L190.649 63.4093L191.914 63.1662L192.96 68.6106L194.156 68.3807L194.33 69.2881L193.134 69.518L193.599 71.9377L192.527 72.1438ZM196.932 71.4683C196.702 71.5124 196.49 71.4723 196.296 71.3482C196.108 71.2132 195.99 71.0219 195.943 70.7745C195.892 70.5087 195.929 70.2829 196.055 70.0971C196.188 69.9004 196.37 69.7801 196.599 69.736C196.819 69.6938 197.022 69.7401 197.21 69.8752C197.405 69.9993 197.528 70.1942 197.579 70.46C197.627 70.7075 197.584 70.9296 197.45 71.1263C197.325 71.312 197.152 71.4261 196.932 71.4683ZM199.155 70.8699L199.026 70.1963C199.736 69.1473 200.335 68.2338 200.823 67.4559C201.308 66.6687 201.66 65.9786 201.879 65.3853C202.096 64.7829 202.159 64.2479 202.069 63.7805C201.972 63.2764 201.756 62.8904 201.419 62.6224C201.082 62.3545 200.635 62.2742 200.075 62.3817C199.709 62.4521 199.39 62.6227 199.119 62.8934C198.846 63.1549 198.609 63.457 198.409 63.7996L197.639 63.2777C197.928 62.8039 198.256 62.4083 198.622 62.0907C198.996 61.7622 199.468 61.5433 200.036 61.4341C200.852 61.2773 201.539 61.3923 202.098 61.7791C202.655 62.1567 203.009 62.735 203.159 63.5141C203.264 64.064 203.216 64.6531 203.014 65.2813C202.819 65.8985 202.511 66.5707 202.09 67.2979C201.676 68.0142 201.19 68.8013 200.633 69.6592C200.868 69.5951 201.112 69.5292 201.365 69.4615C201.618 69.3939 201.859 69.338 202.088 69.294L204.632 68.8052L204.819 69.7813L199.155 70.8699ZM208.894 69.1693C208.014 69.3384 207.246 69.0772 206.591 68.3859C205.943 67.6836 205.478 66.5992 205.196 65.1327C204.912 63.6571 204.944 62.4867 205.291 61.6217C205.647 60.7549 206.265 60.2369 207.145 60.0678C208.016 59.9005 208.772 60.1542 209.415 60.829C210.067 61.502 210.535 62.5764 210.819 64.052C211.101 65.5185 211.066 66.6989 210.715 67.5932C210.372 68.4766 209.765 69.0019 208.894 69.1693ZM208.72 68.2619C209.233 68.1632 209.59 67.7952 209.791 67.1579C209.989 66.5114 209.966 65.5466 209.719 64.2634C209.472 62.9802 209.139 62.089 208.72 61.5898C208.3 61.0814 207.832 60.8766 207.319 60.9752C206.806 61.0739 206.443 61.4382 206.232 62.0681C206.028 62.6871 206.049 63.6382 206.296 64.9213C206.542 66.2045 206.878 67.1095 207.302 67.6362C207.734 68.1519 208.206 68.3605 208.72 68.2619ZM212.823 68.2431L212.693 67.5694C213.404 66.5204 214.003 65.607 214.49 64.829C214.976 64.0419 215.328 63.3517 215.547 62.7584C215.763 62.156 215.827 61.6211 215.737 61.1536C215.64 60.6495 215.424 60.2635 215.087 59.9956C214.75 59.7276 214.302 59.6474 213.743 59.7548C213.377 59.8253 213.058 59.9959 212.787 60.2666C212.514 60.5281 212.277 60.8302 212.077 61.1728L211.307 60.6508C211.596 60.1771 211.924 59.7814 212.29 59.4638C212.664 59.1353 213.135 58.9165 213.704 58.8073C214.519 58.6505 215.207 58.7655 215.766 59.1522C216.323 59.5298 216.677 60.1082 216.826 60.8873C216.932 61.4372 216.884 62.0262 216.681 62.6544C216.486 63.2716 216.178 63.9439 215.757 64.671C215.344 65.3873 214.858 66.1744 214.301 67.0324C214.536 66.9682 214.78 66.9024 215.033 66.8347C215.286 66.767 215.527 66.7112 215.756 66.6672L218.3 66.1783L218.487 67.1545L212.823 68.2431ZM219.657 66.9297L219.527 66.256C220.238 65.207 220.837 64.2935 221.324 63.5156C221.81 62.7285 222.162 62.0383 222.381 61.445C222.597 60.8426 222.661 60.3077 222.571 59.8402C222.474 59.3361 222.257 58.9501 221.921 58.6821C221.584 58.4142 221.136 58.3339 220.577 58.4414C220.211 58.5119 219.892 58.6824 219.621 58.9531C219.348 59.2147 219.111 59.5168 218.911 59.8594L218.141 59.3374C218.43 58.8636 218.758 58.468 219.124 58.1504C219.498 57.8219 219.969 57.603 220.538 57.4938C221.353 57.3371 222.041 57.452 222.6 57.8388C223.157 58.2164 223.511 58.7948 223.66 59.5738C223.766 60.1238 223.718 60.7128 223.515 61.341C223.32 61.9582 223.012 62.6304 222.591 63.3576C222.178 64.0739 221.692 64.861 221.135 65.719C221.37 65.6548 221.614 65.5889 221.867 65.5213C222.12 65.4536 222.361 65.3978 222.59 65.3537L225.133 64.8649L225.321 65.841L219.657 66.9297Z" fill="white"/>
<path d="M212.56 34.3252L210.789 25.1139C210.782 25.1248 210.682 25.1725 210.489 25.2571C210.305 25.3399 210.094 25.4281 209.855 25.5214C209.617 25.6148 209.405 25.6984 209.219 25.772C209.034 25.8457 208.937 25.8834 208.927 25.8852L208.713 24.7715C208.862 24.7049 209.031 24.6202 209.22 24.5172C209.419 24.4126 209.615 24.2941 209.808 24.162C210.01 24.028 210.195 23.8738 210.361 23.6993C210.536 23.5231 210.675 23.3301 210.777 23.1204L211.89 22.9063L214.031 34.0425L212.56 34.3252ZM216.223 33.6211L216.023 32.5762L218.007 27.6186C218.154 27.2481 218.287 26.9041 218.407 26.5865C218.536 26.2671 218.625 25.941 218.675 25.6083C218.733 25.2646 218.722 24.8865 218.642 24.474C218.544 23.9608 218.384 23.5733 218.162 23.3118C217.941 23.0502 217.624 22.959 217.212 23.0383C216.863 23.1052 216.612 23.2534 216.456 23.4829C216.301 23.7124 216.216 23.99 216.203 24.3157C216.189 24.6414 216.217 24.983 216.286 25.3405L216.357 25.7117L214.886 25.9944L214.812 25.6095C214.683 24.9404 214.66 24.3508 214.743 23.8407C214.833 23.3197 215.049 22.8884 215.392 22.5469C215.744 22.2036 216.251 21.9685 216.91 21.8416C217.809 21.669 218.527 21.797 219.066 22.2257C219.603 22.6453 219.957 23.3042 220.13 24.2024C220.222 24.679 220.242 25.1075 220.192 25.4879C220.15 25.8665 220.068 26.2292 219.945 26.576C219.821 26.9229 219.681 27.2825 219.525 27.6547L217.718 32.0507L221.238 31.3743L221.475 32.6116L216.223 33.6211ZM225.617 31.9438C225.04 32.0548 224.525 32.0445 224.072 31.913C223.626 31.7705 223.258 31.5133 222.968 31.1414C222.678 30.7695 222.472 30.2911 222.35 29.7062C222.347 29.6879 222.343 29.6696 222.34 29.6512C222.334 29.6238 222.33 29.6008 222.326 29.5825L223.798 29.2998C223.9 29.8314 224.066 30.2271 224.297 30.4869C224.525 30.7376 224.892 30.8144 225.396 30.7176C225.671 30.6647 225.884 30.5382 226.036 30.338C226.186 30.1286 226.273 29.8409 226.298 29.475C226.32 29.0999 226.28 28.642 226.176 28.1013L225.851 26.4102C225.758 26.6658 225.587 26.8933 225.341 27.0928C225.101 27.2814 224.78 27.4144 224.377 27.4919C223.763 27.61 223.256 27.5696 222.856 27.3707C222.455 27.1627 222.136 26.8345 221.897 26.386C221.667 25.9267 221.489 25.3762 221.366 24.7346C221.236 24.0564 221.21 23.4292 221.29 22.8532C221.367 22.2681 221.577 21.7763 221.918 21.378C222.269 20.978 222.775 20.7145 223.435 20.5877C224.076 20.4643 224.63 20.5289 225.097 20.7814C225.562 21.0246 225.939 21.4036 226.228 21.9183C226.526 22.4313 226.74 23.0269 226.871 23.7051L227.59 27.4447C227.727 28.1596 227.771 28.8353 227.723 29.472C227.674 30.1086 227.488 30.6481 227.164 31.0905C226.839 31.5237 226.323 31.8081 225.617 31.9438ZM224.534 26.307C224.855 26.2453 225.101 26.1172 225.273 25.9226C225.443 25.7189 225.564 25.5102 225.637 25.2966L225.32 23.6468C225.246 23.2618 225.142 22.9206 225.009 22.6231C224.874 22.3164 224.697 22.089 224.479 21.9409C224.258 21.7836 223.988 21.7359 223.667 21.7975C223.346 21.8592 223.108 22.0047 222.953 22.2342C222.806 22.4619 222.722 22.7395 222.699 23.067C222.684 23.3836 222.712 23.7252 222.782 24.0918C222.867 24.5317 222.964 24.9361 223.072 25.3048C223.19 25.6718 223.359 25.9531 223.577 26.1488C223.802 26.3335 224.121 26.3863 224.534 26.307ZM235.66 30.0135C235.083 30.1245 234.567 30.1142 234.114 29.9827C233.669 29.8402 233.301 29.583 233.011 29.2111C232.721 28.8392 232.515 28.3608 232.393 27.776C232.389 27.7576 232.386 27.7393 232.382 27.721C232.377 27.6935 232.373 27.6705 232.369 27.6522L233.84 27.3695C233.942 27.9011 234.109 28.2968 234.339 28.5566C234.568 28.8073 234.934 28.8842 235.439 28.7873C235.714 28.7344 235.927 28.6079 236.078 28.4077C236.228 28.1983 236.316 27.9106 236.34 27.5447C236.363 27.1697 236.323 26.7117 236.219 26.171L235.894 24.4799C235.8 24.7355 235.63 24.963 235.383 25.1625C235.144 25.3511 234.823 25.4841 234.419 25.5616C233.805 25.6797 233.299 25.6393 232.899 25.4404C232.498 25.2324 232.178 24.9042 231.94 24.4557C231.709 23.9964 231.532 23.4459 231.409 22.8043C231.279 22.1261 231.253 21.499 231.332 20.923C231.41 20.3378 231.62 19.846 231.961 19.4477C232.312 19.0477 232.817 18.7842 233.477 18.6574C234.119 18.5341 234.673 18.5986 235.14 18.8511C235.605 19.0943 235.982 19.4733 236.271 19.988C236.569 20.501 236.783 21.0966 236.913 21.7748L237.632 25.5144C237.77 26.2293 237.814 26.9051 237.765 27.5417C237.717 28.1783 237.53 28.7178 237.207 29.1602C236.881 29.5934 236.366 29.8779 235.66 30.0135ZM234.577 24.3767C234.897 24.315 235.144 24.1869 235.315 23.9923C235.485 23.7886 235.607 23.5799 235.68 23.3663L235.363 21.7165C235.289 21.3315 235.185 20.9903 235.052 20.6928C234.917 20.3861 234.74 20.1587 234.521 20.0106C234.301 19.8534 234.031 19.8056 233.71 19.8672C233.389 19.9289 233.151 20.0745 232.995 20.3039C232.849 20.5316 232.765 20.8092 232.742 21.1367C232.727 21.4533 232.755 21.7949 232.825 22.1615C232.91 22.6014 233.006 23.0058 233.115 23.3745C233.233 23.7415 233.401 24.0228 233.62 24.2185C233.845 24.4032 234.164 24.456 234.577 24.3767ZM242.754 28.6501C242.121 28.7716 241.571 28.73 241.104 28.5251C240.646 28.3185 240.269 27.9871 239.972 27.5309C239.685 27.073 239.48 26.5278 239.359 25.8954L238.436 21.0972C238.311 20.4464 238.298 19.8597 238.397 19.3369C238.495 18.805 238.719 18.3628 239.069 18.0103C239.429 17.656 239.929 17.4173 240.571 17.2939C241.212 17.1706 241.761 17.2077 242.217 17.4051C242.674 17.6026 243.045 17.9303 243.333 18.3882C243.619 18.837 243.824 19.3868 243.949 20.0375L244.872 24.8357C244.995 25.4773 245.003 26.065 244.897 26.5986C244.8 27.1306 244.576 27.5774 244.228 27.939C243.877 28.2915 243.386 28.5285 242.754 28.6501ZM242.521 27.4402C242.869 27.3733 243.111 27.2223 243.247 26.9871C243.391 26.7503 243.465 26.4698 243.47 26.1459C243.481 25.811 243.455 25.474 243.389 25.1349L242.462 20.3092C242.393 19.9517 242.297 19.6234 242.173 19.3241C242.047 19.0156 241.874 18.7827 241.654 18.6255C241.442 18.4665 241.158 18.4213 240.801 18.4901C240.443 18.5588 240.191 18.707 240.045 18.9347C239.899 19.1624 239.824 19.4428 239.822 19.7759C239.818 20.0999 239.85 20.4406 239.918 20.7981L240.846 25.6237C240.911 25.9629 241.007 26.2866 241.133 26.5951C241.266 26.8926 241.443 27.1246 241.665 27.291C241.897 27.4557 242.182 27.5054 242.521 27.4402ZM249.856 27.2849C249.224 27.4065 248.674 27.3648 248.207 27.16C247.749 26.9534 247.371 26.622 247.075 26.1658C246.787 25.7078 246.583 25.1627 246.461 24.5302L245.539 19.7321C245.414 19.0813 245.401 18.4945 245.5 17.9718C245.597 17.4398 245.821 16.9976 246.171 16.6451C246.531 16.2909 247.032 16.0521 247.673 15.9288C248.315 15.8055 248.864 15.8426 249.32 16.04C249.776 16.2375 250.148 16.5652 250.435 17.0231C250.721 17.4719 250.927 18.0217 251.052 18.6724L251.974 23.4706C252.097 24.1122 252.106 24.6998 251.999 25.2335C251.902 25.7654 251.679 26.2122 251.33 26.5739C250.98 26.9264 250.488 27.1634 249.856 27.2849ZM249.623 26.0751C249.972 26.0081 250.214 25.8571 250.349 25.622C250.493 25.3851 250.568 25.1047 250.572 24.7807C250.584 24.4459 250.557 24.1088 250.492 23.7697L249.564 18.9441C249.496 18.5866 249.399 18.2582 249.275 17.9589C249.149 17.6505 248.976 17.4176 248.756 17.2604C248.545 17.1014 248.261 17.0562 247.903 17.1249C247.546 17.1936 247.294 17.3418 247.147 17.5695C247.001 17.7972 246.927 18.0777 246.924 18.4108C246.92 18.7348 246.952 19.0755 247.021 19.4329L247.948 24.2586C248.014 24.5977 248.109 24.9215 248.235 25.23C248.368 25.5275 248.546 25.7595 248.768 25.9259C248.999 26.0905 249.284 26.1403 249.623 26.0751Z" fill="white"/>
<line y1="-0.5" x2="50.4013" y2="-0.5" transform="matrix(0.871309 -0.490735 0.458085 0.888908 210.775 37.7232)" stroke="white"/>
<defs>
<filter id="filter0_d_269_2" x="5.57959" y="0.121582" width="271.004" height="125.588" filterUnits="userSpaceOnUse" color-interpolation-filters="sRGB">
<feFlood flood-opacity="0" result="BackgroundImageFix"/>
<feColorMatrix in="SourceAlpha" type="matrix" values="0 0 0 0 0 0 0 0 0 0 0 0 0 0 0 0 0 0 127 0" result="hardAlpha"/>
<feOffset dy="4"/>
<feGaussianBlur stdDeviation="1.5"/>
<feComposite in2="hardAlpha" operator="out"/>
<feColorMatrix type="matrix" values="0 0 0 0 0.0588235 0 0 0 0 0.0901961 0 0 0 0 0.133333 0 0 0 0.28 0"/>
<feBlend mode="normal" in2="BackgroundImageFix" result="effect1_dropShadow_269_2"/>
<feBlend mode="normal" in="SourceGraphic" in2="effect1_dropShadow_269_2" result="shape"/>
</filter>
<filter id="filter1_i_269_2" x="21.7319" y="78.5815" width="12.1118" height="15.8036" filterUnits="userSpaceOnUse" color-interpolation-filters="sRGB">
<feFlood flood-opacity="0" result="BackgroundImageFix"/>
<feBlend mode="normal" in="SourceGraphic" in2="BackgroundImageFix" result="shape"/>
<feColorMatrix in="SourceAlpha" type="matrix" values="0 0 0 0 0 0 0 0 0 0 0 0 0 0 0 0 0 0 127 0" result="hardAlpha"/>
<feOffset dy="4"/>
<feGaussianBlur stdDeviation="2"/>
<feComposite in2="hardAlpha" operator="arithmetic" k2="-1" k3="1"/>
<feColorMatrix type="matrix" values="0 0 0 0 0.0588235 0 0 0 0 0.0901961 0 0 0 0 0.133333 0 0 0 0.29 0"/>
<feBlend mode="normal" in2="shape" result="effect1_innerShadow_269_2"/>
</filter>
</defs>
</svg>
