<svg width="198" height="94" viewBox="0 0 198 94" fill="none" xmlns="http://www.w3.org/2000/svg">
<g filter="url(#filter0_d_47_9)">
<path d="M31.4249 29.2542L183.639 -0.000180334L194.586 56.9574L42.3717 86.2118L5.7565 65.2456L31.4249 29.2542Z" fill="#C21919"/>
<path d="M36.9943 33.3271L38.2067 31.7018L38.6074 32.0008L39.0977 31.3436L39.8964 31.1901L39.802 30.6991L41.7804 30.3188L41.8748 30.8098L43.8532 30.4296L43.7588 29.9386L45.7373 29.5583L45.8316 30.0494L47.8101 29.6691L47.7157 29.1781L49.6941 28.7979L49.7885 29.2889L51.7669 28.9086L51.6725 28.4176L53.651 28.0374L53.7453 28.5284L55.7238 28.1482L55.6294 27.6572L57.6078 27.2769L57.7022 27.7679L59.6806 27.3877L59.5862 26.8967L61.5647 26.5165L61.659 27.0075L63.6375 26.6272L63.5431 26.1362L65.5215 25.756L65.6159 26.247L67.5943 25.8668L67.4999 25.3757L69.4784 24.9955L69.5727 25.4865L71.5512 25.1063L71.4568 24.6153L73.4352 24.235L73.5296 24.726L75.508 24.3458L75.4136 23.8548L77.3921 23.4746L77.4864 23.9656L79.4649 23.5853L79.3705 23.0943L81.3489 22.7141L81.4433 23.2051L83.4217 22.8249L83.3273 22.3338L85.3058 21.9536L85.4001 22.4446L87.3786 22.0644L87.2842 21.5734L89.2626 21.1931L89.357 21.6841L91.3354 21.3039L91.241 20.8129L93.2195 20.4327L93.3138 20.9237L95.2923 20.5434L95.1979 20.0524L97.1763 19.6722L97.2707 20.1632L99.2491 19.783L99.1547 19.2919L101.133 18.9117L101.228 19.4027L103.206 19.0225L103.112 18.5315L105.09 18.1512L105.184 18.6422L107.163 18.262L107.068 17.771L109.047 17.3908L109.141 17.8818L111.12 17.5015L111.025 17.0105L113.004 16.6303L113.098 17.1213L115.077 16.7411L114.982 16.25L116.961 15.8698L117.055 16.3608L119.033 15.9806L118.939 15.4896L120.917 15.1093L121.012 15.6003L122.99 15.2201L122.896 14.7291L124.874 14.3489L124.969 14.8399L126.947 14.4596L126.853 13.9686L128.831 13.5884L128.925 14.0794L130.904 13.6992L130.81 13.2081L132.788 12.8279L132.882 13.3189L134.861 12.9387L134.766 12.4477L136.745 12.0674L136.839 12.5585L138.818 12.1782L138.723 11.6872L140.702 11.307L140.796 11.798L142.774 11.4177L142.68 10.9267L144.659 10.5465L144.753 11.0375L146.731 10.6573L146.637 10.1663L148.615 9.78602L148.71 10.277L150.688 9.89679L150.594 9.40578L152.572 9.02554L152.667 9.51656L154.645 9.13632L154.551 8.64531L156.529 8.26507L156.623 8.75608L158.602 8.37584L158.507 7.88483L160.486 7.50459L160.58 7.99561L162.559 7.61537L162.464 7.12436L164.443 6.74412L164.537 7.23514L166.516 6.8549L166.421 6.36389L168.4 5.98365L168.494 6.47466L170.472 6.09442L170.378 5.60341L172.356 5.22317L172.451 5.71419L174.429 5.33395L174.335 4.84294L176.313 4.4627L176.408 4.95371L178.386 4.57348L178.292 4.08246L180.27 3.70223L180.365 4.19324L180.863 4.09749L180.957 4.58851L181.448 4.49414L181.826 6.45819L181.335 6.55256L181.712 8.51662L182.203 8.42225L182.581 10.3863L182.09 10.4807L182.467 12.4447L182.958 12.3504L183.335 14.3144L182.844 14.4088L183.222 16.3728L183.713 16.2785L184.09 18.2425L183.599 18.3369L183.977 20.3009L184.468 20.2066L184.845 22.1706L184.354 22.265L184.732 24.2291L185.223 24.1347L185.6 26.0987L185.109 26.1931L185.487 28.1572L185.978 28.0628L186.355 30.0269L185.864 30.1212L186.242 32.0853L186.733 31.9909L187.11 33.955L186.619 34.0493L186.997 36.0134L187.488 35.919L187.865 37.8831L187.374 37.9774L187.752 39.9415L188.243 39.8471L188.62 41.8112L188.129 41.9056L188.507 43.8696L188.998 43.7752L189.375 45.7393L188.884 45.8337L189.262 47.7977L189.753 47.7033L190.13 49.6674L189.639 49.7618L190.016 51.7258L190.508 51.6315L190.885 53.5955L190.394 53.6899L190.488 54.1809L189.99 54.2766L190.085 54.7676L188.106 55.1479L188.012 54.6569L186.033 55.0371L186.128 55.5281L184.149 55.9084L184.055 55.4173L182.077 55.7976L182.171 56.2886L180.192 56.6688L180.098 56.1778L178.12 56.5581L178.214 57.0491L176.236 57.4293L176.141 56.9383L174.163 57.3185L174.257 57.8095L172.279 58.1898L172.184 57.6988L170.206 58.079L170.3 58.57L168.322 58.9503L168.228 58.4592L166.249 58.8395L166.343 59.3305L164.365 59.7107L164.271 59.2197L162.292 59.6L162.387 60.091L160.408 60.4712L160.314 59.9802L158.335 60.3604L158.43 60.8514L156.451 61.2317L156.357 60.7407L154.379 61.1209L154.473 61.6119L152.495 61.9921L152.4 61.5011L150.422 61.8814L150.516 62.3724L148.538 62.7526L148.443 62.2616L146.465 62.6418L146.559 63.1329L144.581 63.5131L144.486 63.0221L142.508 63.4023L142.602 63.8933L140.624 64.2736L140.53 63.7826L138.551 64.1628L138.646 64.6538L136.667 65.034L136.573 64.543L134.594 64.9233L134.689 65.4143L132.71 65.7945L132.616 65.3035L130.637 65.6837L130.732 66.1748L128.753 66.555L128.659 66.064L126.681 66.4442L126.775 66.9352L124.797 67.3155L124.702 66.8245L122.724 67.2047L122.818 67.6957L120.84 68.0759L120.745 67.5849L118.767 67.9652L118.861 68.4562L116.883 68.8364L116.788 68.3454L114.81 68.7256L114.904 69.2167L112.926 69.5969L112.832 69.1059L110.853 69.4861L110.948 69.9771L108.969 70.3574L108.875 69.8664L106.896 70.2466L106.991 70.7376L105.012 71.1178L104.918 70.6268L102.94 71.0071L103.034 71.4981L101.055 71.8783L100.961 71.3873L98.9827 71.7675L99.077 72.2586L97.0986 72.6388L97.0042 72.1478L95.0258 72.528L95.1202 73.019L93.1417 73.3993L93.0474 72.9082L91.069 73.2885L91.1633 73.7795L89.1849 74.1597L89.0905 73.6687L87.1121 74.049L87.2065 74.54L85.228 74.9202L85.1337 74.4292L83.1553 74.8094L83.2496 75.3004L81.2712 75.6807L81.1768 75.1897L79.1984 75.5699L79.2928 76.0609L77.3144 76.4412L77.22 75.9501L75.2416 76.3304L75.3359 76.8214L73.3575 77.2016L73.2631 76.7106L71.2847 77.0909L71.3791 77.5819L69.4007 77.9621L69.3063 77.4711L67.3279 77.8513L67.4222 78.3423L65.4438 78.7226L65.3494 78.2316L63.371 78.6118L63.4654 79.1028L61.487 79.4831L61.3926 78.992L59.4142 79.3723L59.5085 79.8633L57.5301 80.2435L57.4357 79.7525L55.4573 80.1328L55.5517 80.6238L53.5733 81.004L53.4789 80.513L51.5005 80.8932L51.5948 81.3842L49.6164 81.7645L49.5221 81.2735L48.709 81.4297L48.0149 81.0515L47.7757 81.4906L46.0726 80.5626L46.3118 80.1235L44.6087 79.1955L44.3695 79.6346L42.6664 78.7066L42.9057 78.2675L41.2026 77.3395L40.9633 77.7786L39.2602 76.8506L39.4995 76.4115L37.7964 75.4835L37.5572 75.9226L35.8541 74.9946L36.0933 74.5555L34.3902 73.6275L34.151 74.0666L32.4479 73.1386L32.6872 72.6995L30.9841 71.7715L30.7448 72.2106L29.0417 71.2826L29.281 70.8435L27.5779 69.9155L27.3387 70.3546L25.6356 69.4266L25.8748 68.9875L24.1717 68.0595L23.9325 68.4986L22.2294 67.5706L22.4687 67.1315L20.7656 66.2035L20.5263 66.6426L18.8232 65.7146L19.0625 65.2755L17.3594 64.3475L17.1202 64.7866L15.4171 63.8586L15.6563 63.4195L15.3111 63.2314L15.5725 62.8809L15.1717 62.5819L16.3841 60.9567L16.7849 61.2556L17.9972 59.6304L17.5965 59.3314L18.8088 57.7061L19.2096 58.0051L20.422 56.3798L20.0212 56.0809L21.2335 54.4556L21.6343 54.7545L22.8467 53.1293L22.4459 52.8303L23.6583 51.205L24.0591 51.504L25.2714 49.8787L24.8706 49.5798L26.083 47.9545L26.4838 48.2535L27.6962 46.6282L27.2954 46.3292L28.5077 44.704L28.9085 45.0029L30.1209 43.3777L29.7201 43.0787L30.9325 41.4534L31.3333 41.7524L32.5456 40.1271L32.1448 39.8282L33.3572 38.2029L33.758 38.5018L34.9703 36.8766L34.5696 36.5776L35.7819 34.9523L36.1827 35.2513L37.3951 33.626L36.9943 33.3271Z" stroke="white" stroke-dasharray="2 2"/>
<g filter="url(#filter1_i_47_9)">
<circle cx="18.2397" cy="61.319" r="4" transform="rotate(-10.8791 18.2397 61.319)" fill="#ABA7A7"/>
</g>
</g>
<path d="M49.9228 66.6266C48.9172 66.8198 48.0845 66.7681 47.4246 66.4713C46.7647 66.1745 46.2366 65.6732 45.8403 64.9673C45.4596 64.2584 45.1712 63.3933 44.9749 62.372L44.2139 58.4124C44.0176 57.3911 43.9648 56.4807 44.0556 55.6812C44.162 54.8787 44.4667 54.2173 44.9695 53.6971C45.4724 53.1768 46.2266 52.82 47.2322 52.6268C48.2378 52.4335 49.0627 52.4868 49.7068 52.7866C50.3667 53.0834 50.8869 53.5862 51.2676 54.2951C51.6639 55.001 51.9603 55.8646 52.1565 56.8859L52.9175 60.8454C53.1138 61.8668 53.1587 62.7787 53.0523 63.5812C52.9616 64.3807 52.6648 65.0406 52.1619 65.5608C51.6748 66.078 50.9284 66.4333 49.9228 66.6266ZM49.565 64.7646C50.0521 64.671 50.3627 64.4647 50.4969 64.1456C50.6468 63.8235 50.6937 63.4317 50.6375 62.97C50.5941 62.4895 50.524 61.9979 50.4274 61.4951L49.6075 57.2292C49.5079 56.7107 49.3907 56.2281 49.256 55.7815C49.137 55.3319 48.9482 54.9853 48.6895 54.7417C48.4436 54.4794 48.0771 54.3951 47.59 54.4887C47.1029 54.5823 46.786 54.798 46.6391 55.1358C46.4892 55.4579 46.4344 55.8513 46.4749 56.316C46.531 56.7777 46.6089 57.2678 46.7086 57.7863L47.5284 62.0523C47.6251 62.5551 47.7344 63.0391 47.8564 63.5045C47.9911 63.9511 48.1878 64.2961 48.4464 64.5397C48.705 64.7833 49.0779 64.8583 49.565 64.7646ZM57.4991 64.975L55.2433 53.2378L52.6979 53.727L52.3355 51.8415L59.9717 50.3739L60.3341 52.2593L57.7651 52.7531L60.0209 64.4903L57.4991 64.975ZM74.3259 61.9609C73.226 62.1723 72.2776 62.0695 71.4805 61.6524C70.6805 61.2196 70.0249 60.5636 69.5137 59.6843C69.0152 58.7862 68.6543 57.7558 68.4308 56.5931L67.1942 50.1588C66.9556 48.9176 66.8796 47.7591 66.9662 46.6834C67.0527 45.6077 67.3749 44.6986 67.9328 43.956C68.5063 43.2103 69.3902 42.7227 70.5844 42.4932C71.5742 42.303 72.4417 42.3236 73.1868 42.5551C73.9476 42.7837 74.5751 43.2089 75.0694 43.8308C75.5794 44.4496 75.9373 45.2525 76.1433 46.2394C76.1493 46.2708 76.1584 46.3179 76.1705 46.3808C76.1952 46.4249 76.2122 46.4705 76.2212 46.5177L73.6758 47.0069C73.4976 46.0798 73.2125 45.4015 72.8203 44.9717C72.4282 44.542 71.8157 44.4072 70.983 44.5673C70.5273 44.6548 70.1632 44.8796 69.8906 45.2415C69.615 45.5878 69.4481 46.0761 69.3901 46.7063C69.3477 47.3336 69.4171 48.1186 69.5983 49.0614L70.1554 51.9603C70.3313 51.5192 70.6245 51.137 71.0348 50.8137C71.4579 50.4717 72.0072 50.2358 72.6829 50.106C73.7356 49.9036 74.6043 49.9729 75.2889 50.3138C75.9736 50.6547 76.5216 51.2174 76.9331 52.0019C77.3415 52.7706 77.6529 53.7128 77.8673 54.8283C78.0878 55.9753 78.1315 57.0504 77.9984 58.0536C77.8654 59.0567 77.5075 59.9075 76.9249 60.6061C76.3392 61.2889 75.4729 61.7405 74.3259 61.9609ZM73.9227 59.8633C74.4884 59.7546 74.8981 59.5129 75.152 59.1383C75.4028 58.7479 75.5398 58.2736 75.5628 57.7152C75.6015 57.1538 75.5605 56.5588 75.4397 55.9303C75.2948 55.1761 75.1211 54.4845 74.9187 53.8554C74.7321 53.2232 74.4532 52.7473 74.0822 52.4276C73.7082 52.0922 73.1598 51.9939 72.437 52.1328C72.0913 52.1992 71.7892 52.3225 71.5305 52.5025C71.2718 52.6826 71.06 52.8944 70.895 53.1379C70.727 53.3657 70.6012 53.6017 70.5178 53.8458L71.0659 56.6976C71.1897 57.3418 71.3673 57.9268 71.5987 58.4526C71.8458 58.9754 72.1582 59.3715 72.5359 59.6411C72.9105 59.8949 73.3728 59.969 73.9227 59.8633ZM85.8964 59.7372C84.9066 59.9274 84.0234 59.9098 83.2468 59.6843C82.483 59.4401 81.8525 58.9992 81.3552 58.3615C80.8579 57.7239 80.5048 56.9039 80.2958 55.9013C80.2898 55.8699 80.2837 55.8384 80.2777 55.807C80.2686 55.7599 80.2611 55.7206 80.255 55.6892L82.7769 55.2045C82.952 56.1158 83.2372 56.7942 83.6324 57.2396C84.0245 57.6693 84.6527 57.8011 85.5169 57.635C85.9882 57.5444 86.3539 57.3275 86.6138 56.9843C86.8706 56.6254 87.0203 56.1323 87.0626 55.505C87.102 54.862 87.0326 54.077 86.8544 53.15L86.2973 50.251C86.1371 50.6891 85.8454 51.0792 85.4224 51.4212C85.012 51.7444 84.4612 51.9725 83.7698 52.1054C82.7171 52.3077 81.8484 52.2384 81.1637 51.8975C80.4761 51.5409 79.928 50.9782 79.5196 50.2095C79.1239 49.422 78.8203 48.4784 78.6089 47.3785C78.3855 46.2158 78.3418 45.1407 78.4778 44.1533C78.6109 43.1501 78.9703 42.3071 79.5559 41.6243C80.1573 40.9385 81.0236 40.4869 82.1549 40.2695C83.2548 40.0581 84.2047 40.1688 85.0048 40.6015C85.8018 41.0186 86.4481 41.6683 86.9435 42.5507C87.4547 43.43 87.822 44.451 88.0454 45.6137L89.2775 52.0244C89.5131 53.25 89.5891 54.4085 89.5056 55.4998C89.422 56.5912 89.1029 57.5161 88.548 58.2744C87.9902 59.0171 87.1063 59.5046 85.8964 59.7372ZM84.0393 50.074C84.5892 49.9683 85.0113 49.7487 85.3057 49.4152C85.597 49.0659 85.8052 48.7082 85.9303 48.342L85.3868 45.5137C85.26 44.8538 85.0823 44.2688 84.854 43.7587C84.6226 43.233 84.3196 42.8432 83.9449 42.5893C83.5673 42.3197 83.1035 42.2378 82.5535 42.3435C82.0036 42.4492 81.5953 42.6987 81.3288 43.0921C81.078 43.4825 80.9332 43.9583 80.8944 44.5197C80.8684 45.0624 80.9158 45.648 81.0366 46.2765C81.1815 47.0307 81.3473 47.7238 81.534 48.356C81.7364 48.9851 82.0246 49.4674 82.3986 49.8028C82.7853 50.1195 83.3322 50.2099 84.0393 50.074ZM103.113 56.4284C102.123 56.6186 101.24 56.601 100.463 56.3755C99.6992 56.1313 99.0686 55.6903 98.5714 55.0527C98.0741 54.4151 97.721 53.595 97.512 52.5925C97.5059 52.561 97.4999 52.5296 97.4939 52.4982C97.4848 52.4511 97.4772 52.4118 97.4712 52.3804L99.9931 51.8957C100.168 52.807 100.453 53.4854 100.849 53.9308C101.241 54.3605 101.869 54.4923 102.733 54.3262C103.204 54.2356 103.57 54.0187 103.83 53.6755C104.087 53.3166 104.236 52.8235 104.279 52.1962C104.318 51.5532 104.249 50.7682 104.071 49.8412L103.513 46.9422C103.353 47.3803 103.062 47.7704 102.639 48.1124C102.228 48.4356 101.677 48.6637 100.986 48.7966C99.9333 48.9989 99.0646 48.9296 98.3799 48.5887C97.6922 48.2321 97.1442 47.6694 96.7358 46.9007C96.34 46.1132 96.0365 45.1695 95.8251 44.0697C95.6016 42.907 95.5579 41.8319 95.694 40.8444C95.8271 39.8413 96.1864 38.9983 96.7721 38.3155C97.3734 37.6297 98.2398 37.1781 99.3711 36.9606C100.471 36.7493 101.421 36.86 102.221 37.2927C103.018 37.7098 103.664 38.3595 104.16 39.2419C104.671 40.1212 105.038 41.1422 105.262 42.3049L106.494 48.7156C106.729 49.9412 106.805 51.0996 106.722 52.191C106.638 53.2824 106.319 54.2073 105.764 54.9656C105.206 55.7083 104.322 56.1958 103.113 56.4284ZM101.255 46.7652C101.805 46.6595 102.228 46.4399 102.522 46.1063C102.813 45.7571 103.021 45.3994 103.147 45.0332L102.603 42.2049C102.476 41.545 102.299 40.96 102.07 40.4499C101.839 39.9242 101.536 39.5343 101.161 39.2805C100.783 39.0109 100.32 38.929 99.7697 39.0347C99.2198 39.1404 98.8115 39.3899 98.545 39.7833C98.2941 40.1736 98.1494 40.6495 98.1106 41.2109C98.0846 41.7536 98.1319 42.3392 98.2527 42.9677C98.3977 43.7219 98.5635 44.415 98.7501 45.0472C98.9525 45.6763 99.2407 46.1586 99.6148 46.494C100.001 46.8107 100.548 46.9011 101.255 46.7652ZM115.273 54.0912C114.189 54.2996 113.246 54.2282 112.446 53.877C111.661 53.5228 111.014 52.9547 110.505 52.1726C110.012 51.3876 109.661 50.453 109.453 49.3688L107.872 41.1433C107.658 40.0278 107.636 39.0219 107.805 38.1257C107.972 37.2138 108.356 36.4557 108.957 35.8515C109.573 35.2442 110.432 34.8349 111.531 34.6235C112.631 34.4121 113.572 34.4757 114.354 34.8142C115.136 35.1527 115.774 35.7145 116.267 36.4995C116.757 37.2689 117.109 38.2113 117.323 39.3269L118.904 47.5524C119.115 48.6523 119.13 49.6597 118.947 50.5746C118.78 51.4864 118.398 52.2524 117.8 52.8723C117.2 53.4766 116.357 53.8829 115.273 54.0912ZM114.874 52.0172C115.471 51.9024 115.886 51.6435 116.118 51.2405C116.366 50.8344 116.493 50.3537 116.501 49.7984C116.521 49.2243 116.475 48.6465 116.363 48.0652L114.773 39.7926C114.655 39.1798 114.49 38.6168 114.278 38.1038C114.062 37.575 113.765 37.1758 113.388 36.9062C113.026 36.6336 112.538 36.5562 111.925 36.674C111.313 36.7918 110.881 37.0458 110.63 37.4362C110.379 37.8266 110.252 38.3073 110.247 38.8783C110.24 39.4337 110.295 40.0178 110.413 40.6306L112.003 48.9032C112.115 49.4845 112.278 50.0396 112.494 50.5684C112.722 51.0785 113.027 51.4761 113.408 51.7614C113.804 52.0437 114.293 52.1289 114.874 52.0172ZM127.449 51.7512C126.364 51.9596 125.422 51.8881 124.621 51.5369C123.836 51.1827 123.189 50.6146 122.681 49.8326C122.188 49.0475 121.837 48.1129 121.629 47.0288L120.048 38.8033C119.833 37.6877 119.811 36.6818 119.981 35.7857C120.148 34.8738 120.532 34.1157 121.133 33.5115C121.749 32.9042 122.607 32.4949 123.707 32.2835C124.807 32.0721 125.748 32.1356 126.53 32.4742C127.312 32.8127 127.949 33.3744 128.442 34.1595C128.932 34.9288 129.284 35.8713 129.499 36.9869L131.08 45.2123C131.291 46.3122 131.305 47.3196 131.123 48.2345C130.956 49.1464 130.574 49.9123 129.976 50.5323C129.375 51.1365 128.533 51.5428 127.449 51.7512ZM127.05 49.6771C127.647 49.5624 128.062 49.3035 128.294 48.9004C128.542 48.4944 128.669 48.0137 128.676 47.4583C128.696 46.8842 128.651 46.3065 128.539 45.7251L126.949 37.4525C126.831 36.8397 126.666 36.2768 126.453 35.7637C126.238 35.2349 125.941 34.8357 125.563 34.5662C125.201 34.2936 124.714 34.2162 124.101 34.334C123.488 34.4517 123.056 34.7058 122.806 35.0961C122.555 35.4865 122.427 35.9672 122.423 36.5383C122.416 37.0937 122.471 37.6777 122.589 38.2905L124.179 46.5631C124.29 47.1445 124.454 47.6996 124.67 48.2283C124.898 48.7384 125.203 49.1361 125.583 49.4214C125.98 49.7036 126.469 49.7889 127.05 49.6771ZM141.67 48.7981L139.414 37.0609L136.868 37.5501L136.506 35.6646L144.142 34.197L144.505 36.0825L141.936 36.5762L144.191 48.3134L141.67 48.7981ZM148.285 47.5266L145.667 33.9039L151.159 32.8485L151.507 34.6632L148.538 35.234L150.807 47.0419L148.285 47.5266ZM154.532 46.326L156.001 26.2479L158.193 25.8267L156.7 45.9093L154.532 46.326ZM163.751 44.5543L161.274 30.9044L163.136 30.5466L167.761 38.3336L169.193 29.3824L171.055 29.0246L173.814 42.6201L171.693 43.0278L170.131 34.8966L168.913 42.169L168.135 42.3185L164.318 36.0625L165.872 44.1466L163.751 44.5543ZM174.877 31.8337L174.601 30.396L176.912 26.6526C177.286 26.0592 177.574 25.564 177.775 25.167C177.988 24.7512 178.123 24.3914 178.178 24.0874C178.25 23.7804 178.258 23.4855 178.204 23.2027C178.113 22.7313 177.934 22.3911 177.665 22.182C177.394 21.9571 177.031 21.8885 176.575 21.9761C175.978 22.0908 175.591 22.3688 175.415 22.8099C175.252 23.2323 175.242 23.8127 175.384 24.5512L173.522 24.9091L173.458 24.5791C173.325 23.8877 173.324 23.2445 173.454 22.6492C173.581 22.0383 173.864 21.5195 174.303 21.0929C174.758 20.6633 175.402 20.3685 176.235 20.2084C177.256 20.0121 178.112 20.1409 178.802 20.5949C179.489 21.0331 179.926 21.7392 180.114 22.7134C180.265 23.499 180.209 24.2266 179.947 24.8962C179.697 25.547 179.256 26.3486 178.625 27.3009L177.058 29.7038L181.418 28.8658L181.735 30.5156L174.877 31.8337Z" fill="white"/>
<defs>
<filter id="filter0_d_47_9" x="2.75659" y="-0.000183105" width="194.829" height="93.2119" filterUnits="userSpaceOnUse" color-interpolation-filters="sRGB">
<feFlood flood-opacity="0" result="BackgroundImageFix"/>
<feColorMatrix in="SourceAlpha" type="matrix" values="0 0 0 0 0 0 0 0 0 0 0 0 0 0 0 0 0 0 127 0" result="hardAlpha"/>
<feOffset dy="4"/>
<feGaussianBlur stdDeviation="1.5"/>
<feComposite in2="hardAlpha" operator="out"/>
<feColorMatrix type="matrix" values="0 0 0 0 0.0588235 0 0 0 0 0.0901961 0 0 0 0 0.133333 0 0 0 0.28 0"/>
<feBlend mode="normal" in2="BackgroundImageFix" result="effect1_dropShadow_47_9"/>
<feBlend mode="normal" in="SourceGraphic" in2="effect1_dropShadow_47_9" result="shape"/>
</filter>
<filter id="filter1_i_47_9" x="14.239" y="57.3182" width="8.00146" height="12.0015" filterUnits="userSpaceOnUse" color-interpolation-filters="sRGB">
<feFlood flood-opacity="0" result="BackgroundImageFix"/>
<feBlend mode="normal" in="SourceGraphic" in2="BackgroundImageFix" result="shape"/>
<feColorMatrix in="SourceAlpha" type="matrix" values="0 0 0 0 0 0 0 0 0 0 0 0 0 0 0 0 0 0 127 0" result="hardAlpha"/>
<feOffset dy="4"/>
<feGaussianBlur stdDeviation="2"/>
<feComposite in2="hardAlpha" operator="arithmetic" k2="-1" k3="1"/>
<feColorMatrix type="matrix" values="0 0 0 0 0.0588235 0 0 0 0 0.0901961 0 0 0 0 0.133333 0 0 0 0.29 0"/>
<feBlend mode="normal" in2="shape" result="effect1_innerShadow_47_9"/>
</filter>
</defs>
</svg>
