<svg width="274" height="128" viewBox="0 0 274 128" fill="none" xmlns="http://www.w3.org/2000/svg">
<g filter="url(#filter0_d_269_2)">
<path d="M44.8485 41.1104L258.626 0.121601L273.584 77.721L59.8065 118.71L8.57969 90.3791L44.8485 41.1104Z" fill="#C21919"/>
<path d="M53.3686 45.6714L54.5918 44.082L54.9883 44.387L55.4843 43.7425L56.2788 43.5902L56.1842 43.0992L58.1455 42.7231L58.2402 43.2141L60.2015 42.838L60.1069 42.3471L62.0682 41.971L62.1629 42.462L64.1242 42.0859L64.0296 41.5949L65.991 41.2189L66.0856 41.7098L68.047 41.3338L67.9523 40.8428L69.9137 40.4668L70.0083 40.9577L71.9697 40.5817L71.875 40.0907L73.8364 39.7146L73.931 40.2056L75.8924 39.8295L75.7978 39.3386L77.7591 38.9625L77.8538 39.4535L79.8151 39.0774L79.7205 38.5864L81.6818 38.2104L81.7765 38.7013L83.7378 38.3253L83.6432 37.8343L85.6045 37.4583L85.6992 37.9492L87.6605 37.5732L87.5659 37.0822L89.5273 36.7061L89.6219 37.1971L91.5833 36.821L91.4886 36.3301L93.45 35.954L93.5446 36.445L95.506 36.0689L95.4113 35.5779L97.3727 35.2019L97.4673 35.6928L99.4287 35.3168L99.3341 34.8258L101.295 34.4498L101.39 34.9407L103.351 34.5647L103.257 34.0737L105.218 33.6976L105.313 34.1886L107.274 33.8125L107.179 33.3216L109.141 32.9455L109.235 33.4365L111.197 33.0604L111.102 32.5694L113.064 32.1934L113.158 32.6843L115.12 32.3083L115.025 31.8173L116.986 31.4413L117.081 31.9322L119.042 31.5562L118.948 31.0652L120.909 30.6891L121.004 31.1801L122.965 30.804L122.87 30.3131L124.832 29.937L124.926 30.428L126.888 30.0519L126.793 29.5609L128.754 29.1849L128.849 29.6758L130.81 29.2998L130.716 28.8088L132.677 28.4328L132.772 28.9237L134.733 28.5477L134.639 28.0567L136.6 27.6806L136.695 28.1716L138.656 27.7955L138.561 27.3046L140.523 26.9285L140.617 27.4195L142.579 27.0434L142.484 26.5524L144.445 26.1764L144.54 26.6673L146.501 26.2913L146.407 25.8003L148.368 25.4242L148.463 25.9152L150.424 25.5391L150.329 25.0482L152.291 24.6721L152.385 25.1631L154.347 24.787L154.252 24.2961L156.214 23.92L156.308 24.4109L158.27 24.0349L158.175 23.5439L160.136 23.1679L160.231 23.6588L162.192 23.2828L162.098 22.7918L164.059 22.4157L164.154 22.9067L166.115 22.5306L166.02 22.0397L167.982 21.6636L168.076 22.1546L170.038 21.7785L169.943 21.2875L171.904 20.9115L171.999 21.4024L173.96 21.0264L173.866 20.5354L175.827 20.1593L175.922 20.6503L177.883 20.2742L177.789 19.7833L179.75 19.4072L179.845 19.8982L181.806 19.5221L181.711 19.0312L183.673 18.6551L183.767 19.1461L185.729 18.77L185.634 18.279L187.595 17.903L187.69 18.3939L189.651 18.0179L189.557 17.5269L191.518 17.1508L191.613 17.6418L193.574 17.2657L193.48 16.7748L195.441 16.3987L195.536 16.8897L197.497 16.5136L197.402 16.0226L199.364 15.6466L199.458 16.1375L201.42 15.7615L201.325 15.2705L203.286 14.8945L203.381 15.3854L205.342 15.0094L205.248 14.5184L207.209 14.1423L207.304 14.6333L209.265 14.2572L209.17 13.7663L211.132 13.3902L211.226 13.8812L213.188 13.5051L213.093 13.0141L215.054 12.6381L215.149 13.129L217.11 12.753L217.016 12.262L218.977 11.8859L219.072 12.3769L221.033 12.0008L220.939 11.5099L222.9 11.1338L222.995 11.6248L224.956 11.2487L224.861 10.7578L226.823 10.3817L226.917 10.8727L228.879 10.4966L228.784 10.0056L230.745 9.62957L230.84 10.1205L232.801 9.74447L232.707 9.2535L234.668 8.87744L234.763 9.3684L236.724 8.99234L236.629 8.50138L238.591 8.12531L238.685 8.61627L240.647 8.24021L240.552 7.74925L242.514 7.37318L242.608 7.86415L244.57 7.48808L244.475 6.99712L246.436 6.62106L246.531 7.11202L248.492 6.73596L248.398 6.24499L250.359 5.86893L250.454 6.35989L252.415 5.98383L252.32 5.49287L254.282 5.1168L254.376 5.60776L254.866 5.51389L254.958 5.9892L255.449 5.89505L255.821 7.8276L255.33 7.92175L255.703 9.8543L256.194 9.76015L256.566 11.6927L256.075 11.7868L256.448 13.7194L256.939 13.6252L257.311 15.5578L256.82 15.652L257.193 17.5845L257.684 17.4904L258.056 19.4229L257.565 19.5171L257.938 21.4496L258.429 21.3555L258.801 23.288L258.31 23.3822L258.683 25.3147L259.174 25.2206L259.546 27.1531L259.055 27.2473L259.428 29.1798L259.919 29.0857L260.291 31.0182L259.8 31.1124L260.173 33.0449L260.664 32.9508L261.036 34.8833L260.545 34.9775L260.918 36.91L261.409 36.8159L261.781 38.7484L261.29 38.8426L261.663 40.7751L262.154 40.681L262.526 42.6135L262.035 42.7077L262.408 44.6402L262.899 44.5461L263.272 46.4786L262.78 46.5728L263.153 48.5053L263.644 48.4112L264.017 50.3437L263.526 50.4379L263.898 52.3704L264.389 52.2763L264.762 54.2088L264.271 54.303L264.643 56.2355L265.134 56.1414L265.507 58.0739L265.016 58.1681L265.388 60.1006L265.879 60.0065L266.252 61.939L265.761 62.0332L266.133 63.9658L266.624 63.8716L266.997 65.8042L266.506 65.8983L266.878 67.8309L267.369 67.7367L267.742 69.6693L267.251 69.7634L267.623 71.696L268.114 71.6018L268.487 73.5344L267.996 73.6285L268.087 74.1038L267.598 74.1977L267.692 74.6887L265.731 75.0647L265.636 74.5738L263.675 74.9498L263.77 75.4408L261.808 75.8169L261.714 75.3259L259.752 75.702L259.847 76.1929L257.885 76.569L257.791 76.078L255.829 76.4541L255.924 76.9451L253.963 77.3211L253.868 76.8302L251.907 77.2062L252.001 77.6972L250.04 78.0732L249.945 77.5823L247.984 77.9583L248.079 78.4493L246.117 78.8254L246.023 78.3344L244.061 78.7105L244.156 79.2014L242.195 79.5775L242.1 79.0865L240.139 79.4626L240.233 79.9536L238.272 80.3296L238.177 79.8387L236.216 80.2147L236.311 80.7057L234.349 81.0817L234.255 80.5908L232.293 80.9669L232.388 81.4578L230.426 81.8339L230.332 81.3429L228.37 81.719L228.465 82.2099L226.504 82.586L226.409 82.095L224.448 82.4711L224.542 82.9621L222.581 83.3381L222.486 82.8472L220.525 83.2232L220.62 83.7142L218.658 84.0902L218.564 83.5993L216.602 83.9754L216.697 84.4663L214.736 84.8424L214.641 84.3514L212.68 84.7275L212.774 85.2184L210.813 85.5945L210.718 85.1035L208.757 85.4796L208.851 85.9706L206.89 86.3466L206.795 85.8557L204.834 86.2317L204.929 86.7227L202.967 87.0987L202.873 86.6078L200.911 86.9839L201.006 87.4748L199.045 87.8509L198.95 87.3599L196.989 87.736L197.083 88.2269L195.122 88.603L195.027 88.112L193.066 88.4881L193.161 88.9791L191.199 89.3551L191.105 88.8642L189.143 89.2402L189.238 89.7312L187.277 90.1073L187.182 89.6163L185.221 89.9924L185.315 90.4833L183.354 90.8594L183.259 90.3684L181.298 90.7445L181.392 91.2355L179.431 91.6115L179.336 91.1206L177.375 91.4966L177.47 91.9876L175.508 92.3636L175.414 91.8727L173.452 92.2487L173.547 92.7397L171.586 93.1158L171.491 92.6248L169.53 93.0009L169.624 93.4918L167.663 93.8679L167.568 93.3769L165.607 93.753L165.701 94.244L163.74 94.62L163.645 94.1291L161.684 94.5051L161.779 94.9961L159.817 95.3722L159.723 94.8812L157.761 95.2573L157.856 95.7482L155.895 96.1243L155.8 95.6333L153.839 96.0094L153.933 96.5003L151.972 96.8764L151.877 96.3854L149.916 96.7615L150.011 97.2525L148.049 97.6285L147.955 97.1376L145.993 97.5136L146.088 98.0046L144.126 98.3807L144.032 97.8897L142.07 98.2658L142.165 98.7567L140.204 99.1328L140.109 98.6418L138.148 99.0179L138.242 99.5089L136.281 99.8849L136.186 99.394L134.225 99.77L134.32 100.261L132.358 100.637L132.264 100.146L130.302 100.522L130.397 101.013L128.436 101.389L128.341 100.898L126.38 101.274L126.474 101.765L124.513 102.141L124.418 101.65L122.457 102.026L122.551 102.517L120.59 102.893L120.495 102.402L118.534 102.779L118.629 103.269L116.667 103.646L116.573 103.155L114.611 103.531L114.706 104.022L112.745 104.398L112.65 103.907L110.689 104.283L110.783 104.774L108.822 105.15L108.727 104.659L106.766 105.035L106.861 105.526L104.899 105.902L104.805 105.411L102.843 105.787L102.938 106.278L100.976 106.654L100.882 106.163L98.9205 106.539L99.0151 107.03L97.0537 107.406L96.9591 106.915L94.9977 107.291L95.0924 107.782L93.131 108.158L93.0364 107.667L91.075 108.043L91.1697 108.534L89.2083 108.91L89.1137 108.419L87.1523 108.796L87.2469 109.287L85.2856 109.663L85.1909 109.172L83.2296 109.548L83.3242 110.039L81.3628 110.415L81.2682 109.924L79.3068 110.3L79.4015 110.791L77.4401 111.167L77.3455 110.676L75.3841 111.052L75.4787 111.543L73.5174 111.919L73.4227 111.428L71.4614 111.804L71.556 112.295L69.5947 112.671L69.5 112.18L68.6914 112.335L67.9299 111.935L67.6974 112.377L65.8643 111.413L66.0968 110.971L64.2637 110.006L64.0312 110.449L62.1981 109.485L62.4306 109.042L60.5975 108.078L60.365 108.521L58.5318 107.556L58.7644 107.114L56.9313 106.15L56.6987 106.592L54.8656 105.628L55.0982 105.186L53.265 104.222L53.0325 104.664L51.1994 103.7L51.4319 103.257L49.5988 102.293L49.3663 102.736L47.5332 101.772L47.7657 101.329L45.9326 100.365L45.7 100.807L43.8669 99.8433L44.0995 99.4009L42.2664 98.4368L42.0338 98.8792L40.2007 97.915L40.4332 97.4727L38.6001 96.5085L38.3676 96.9509L36.5345 95.9868L36.767 95.5444L34.9339 94.5803L34.7014 95.0226L32.8682 94.0585L33.1008 93.6161L31.2677 92.652L31.0351 93.0944L29.202 92.1302L29.4345 91.6879L27.6014 90.7237L27.3689 91.1661L25.5358 90.202L25.7683 89.7596L23.9352 88.7955L23.7027 89.2378L21.8696 88.2737L22.1021 87.8313L21.7117 87.626L21.9611 87.302L21.5646 86.9969L22.7878 85.4075L23.1843 85.7125L24.4075 84.1231L24.0111 83.818L25.2343 82.2286L25.6308 82.5336L26.854 80.9442L26.4575 80.6391L27.6807 79.0497L28.0772 79.3547L29.3004 77.7653L28.904 77.4603L30.1272 75.8708L30.5237 76.1759L31.7469 74.5864L31.3504 74.2814L32.5737 72.6919L32.9701 72.997L34.1934 71.4075L33.7969 71.1025L35.0201 69.513L35.4166 69.8181L36.6398 68.2286L36.2434 67.9236L37.4666 66.3342L37.8631 66.6392L39.0863 65.0498L38.6898 64.7447L39.913 63.1553L40.3095 63.4603L41.5327 61.8709L41.1363 61.5658L42.3595 59.9764L42.756 60.2814L43.9792 58.692L43.5827 58.3869L44.8059 56.7975L45.2024 57.1026L46.4257 55.5131L46.0292 55.2081L47.2524 53.6186L47.6489 53.9237L48.8721 52.3342L48.4756 52.0292L49.6989 50.4397L50.0953 50.7448L51.3186 49.1553L50.9221 48.8503L52.1453 47.2609L52.5418 47.5659L53.765 45.9765L53.3686 45.6714Z" stroke="white" stroke-dasharray="2 2"/>
<g filter="url(#filter1_i_269_2)">
<ellipse cx="27.7878" cy="84.4834" rx="6.06057" ry="5.89472" transform="rotate(-10.8791 27.7878 84.4834)" fill="#ABA7A7"/>
</g>
</g>
<path d="M120.274 65.2354L120.389 51.9062L116.553 52.6434L116.267 51.1586L121.995 50.0579L122.171 50.9771L122.095 64.8855L120.274 65.2354ZM129.81 63.5676C129.068 63.7103 128.405 63.6971 127.823 63.528C127.25 63.3448 126.777 63.0141 126.404 62.5359C126.031 62.0577 125.766 61.4426 125.61 60.6907C125.605 60.6671 125.601 60.6435 125.596 60.62C125.589 60.5846 125.584 60.5552 125.579 60.5316L127.47 60.1681C127.602 60.8516 127.816 61.3604 128.112 61.6944C128.406 62.0167 128.877 62.1156 129.525 61.991C129.879 61.9231 130.153 61.7604 130.348 61.503C130.541 61.2338 130.653 60.8639 130.685 60.3935C130.714 59.9112 130.662 59.3225 130.529 58.6272L130.111 56.453C129.991 56.7816 129.772 57.0741 129.455 57.3306C129.147 57.5731 128.734 57.7441 128.215 57.8438C127.426 57.9955 126.774 57.9435 126.261 57.6879C125.745 57.4204 125.334 56.9984 125.028 56.4218C124.731 55.8312 124.503 55.1235 124.344 54.2986C124.177 53.4265 124.144 52.6202 124.246 51.8797C124.346 51.1273 124.616 50.4951 125.055 49.983C125.506 49.4686 126.156 49.1299 127.004 48.9668C127.829 48.8083 128.541 48.8913 129.141 49.2159C129.739 49.5287 130.224 50.016 130.595 50.6777C130.979 51.3372 131.254 52.103 131.422 52.975L132.346 57.783C132.523 58.7022 132.58 59.5711 132.517 60.3896C132.454 61.2081 132.215 61.9018 131.799 62.4705C131.38 63.0275 130.718 63.3932 129.81 63.5676ZM128.417 56.3202C128.83 56.241 129.146 56.0763 129.367 55.8261C129.586 55.5642 129.742 55.2959 129.836 55.0212L129.428 52.9C129.333 52.4051 129.2 51.9663 129.028 51.5838C128.855 51.1895 128.627 50.8971 128.347 50.7067C128.063 50.5045 127.715 50.4431 127.303 50.5223C126.891 50.6016 126.584 50.7888 126.384 51.0838C126.196 51.3766 126.088 51.7335 126.059 52.1545C126.039 52.5615 126.075 53.0007 126.165 53.4721C126.274 54.0377 126.398 54.5576 126.538 55.0317C126.69 55.5035 126.906 55.8653 127.187 56.1168C127.477 56.3544 127.887 56.4222 128.417 56.3202ZM142.722 61.086C141.98 61.2287 141.317 61.2155 140.735 61.0463C140.162 60.8632 139.689 60.5325 139.316 60.0543C138.943 59.5761 138.679 58.961 138.522 58.2091C138.517 58.1855 138.513 58.1619 138.508 58.1384C138.501 58.103 138.496 58.0736 138.491 58.05L140.383 57.6865C140.514 58.37 140.728 58.8788 141.024 59.2128C141.318 59.5351 141.789 59.634 142.438 59.5094C142.791 59.4414 143.065 59.2788 143.26 59.0214C143.453 58.7522 143.565 58.3823 143.597 57.9119C143.626 57.4296 143.574 56.8409 143.441 56.1456L143.023 53.9714C142.903 54.3 142.684 54.5925 142.367 54.849C142.059 55.0915 141.646 55.2625 141.127 55.3622C140.338 55.5139 139.686 55.4619 139.173 55.2063C138.657 54.9388 138.246 54.5168 137.94 53.9402C137.643 53.3496 137.415 52.6419 137.257 51.817C137.089 50.9449 137.056 50.1386 137.158 49.3981C137.258 48.6457 137.528 48.0135 137.967 47.5014C138.418 46.987 139.068 46.6483 139.916 46.4852C140.741 46.3267 141.453 46.4097 142.054 46.7343C142.651 47.0471 143.136 47.5344 143.508 48.1961C143.891 48.8556 144.166 49.6214 144.334 50.4934L145.258 55.3014C145.435 56.2206 145.492 57.0895 145.429 57.908C145.366 58.7265 145.127 59.4202 144.711 59.9889C144.293 60.5459 143.63 60.9116 142.722 61.086ZM141.329 53.8386C141.742 53.7594 142.058 53.5947 142.279 53.3445C142.498 53.0825 142.654 52.8142 142.748 52.5396L142.34 50.4184C142.245 49.9235 142.112 49.4847 141.94 49.1022C141.767 48.7079 141.54 48.4155 141.259 48.2251C140.975 48.0229 140.628 47.9615 140.215 48.0407C139.803 48.12 139.496 48.3072 139.297 48.6022C139.108 48.895 139 49.2519 138.971 49.6729C138.951 50.0799 138.987 50.5191 139.077 50.9905C139.186 51.5561 139.31 52.076 139.45 52.5501C139.602 53.0219 139.818 53.3836 140.099 53.6352C140.389 53.8727 140.799 53.9406 141.329 53.8386ZM151.843 59.3332C151.029 59.4894 150.323 59.4359 149.722 59.1725C149.133 58.9068 148.648 58.4807 148.267 57.8942C147.897 57.3054 147.634 56.6045 147.478 55.7913L146.292 49.6222C146.131 48.7855 146.114 48.0311 146.242 47.359C146.367 46.6751 146.655 46.1065 147.105 45.6534C147.568 45.1979 148.211 44.8909 149.036 44.7324C149.861 44.5738 150.567 44.6215 151.153 44.8754C151.74 45.1293 152.218 45.5506 152.588 46.1394C152.955 46.7164 153.219 47.4232 153.38 48.2599L154.566 54.429C154.724 55.2539 154.735 56.0095 154.598 56.6956C154.473 57.3796 154.186 57.954 153.738 58.419C153.287 58.8722 152.656 59.1769 151.843 59.3332ZM151.544 57.7776C151.991 57.6916 152.302 57.4974 152.476 57.1951C152.662 56.8906 152.758 56.53 152.763 56.1135C152.778 55.6829 152.744 55.2496 152.66 54.8136L151.468 48.6092C151.379 48.1496 151.256 47.7274 151.096 47.3426C150.934 46.946 150.712 46.6466 150.429 46.4444C150.157 46.24 149.792 46.1819 149.332 46.2702C148.872 46.3586 148.548 46.5491 148.36 46.8419C148.172 47.1346 148.077 47.4952 148.073 47.9235C148.068 48.34 148.109 48.7781 148.198 49.2377L149.39 55.4421C149.474 55.8781 149.597 56.2944 149.758 56.691C149.93 57.0736 150.158 57.3718 150.444 57.5858C150.741 57.7975 151.108 57.8614 151.544 57.7776ZM160.974 57.5781C160.161 57.7344 159.454 57.6808 158.854 57.4174C158.265 57.1518 157.78 56.7257 157.398 56.1392C157.029 55.5504 156.766 54.8494 156.609 54.0363L155.424 47.8672C155.263 47.0305 155.246 46.2761 155.374 45.604C155.499 44.9201 155.787 44.3515 156.237 43.8983C156.7 43.4429 157.343 43.1359 158.168 42.9773C158.993 42.8188 159.699 42.8665 160.285 43.1203C160.872 43.3742 161.35 43.7956 161.719 44.3843C162.087 44.9614 162.351 45.6682 162.512 46.5049L163.698 52.674C163.856 53.4989 163.867 54.2544 163.73 54.9406C163.605 55.6245 163.318 56.199 162.87 56.6639C162.419 57.1171 161.787 57.4218 160.974 57.5781ZM160.675 56.0226C161.123 55.9365 161.434 55.7424 161.608 55.4401C161.794 55.1355 161.89 54.775 161.895 54.3585C161.91 53.9279 161.876 53.4946 161.792 53.0586L160.599 46.8541C160.511 46.3945 160.387 45.9723 160.228 45.5875C160.066 45.1909 159.843 44.8915 159.56 44.6894C159.289 44.4849 158.923 44.4269 158.464 44.5152C158.004 44.6035 157.68 44.7941 157.492 45.0868C157.304 45.3796 157.208 45.7401 157.205 46.1684C157.2 46.585 157.241 47.023 157.329 47.4826L158.522 53.6871C158.606 54.1231 158.728 54.5394 158.89 54.936C159.061 55.3185 159.29 55.6168 159.575 55.8308C159.873 56.0424 160.239 56.1064 160.675 56.0226ZM171.64 55.3633L169.948 46.5604L168.039 46.9273L167.767 45.5132L173.494 44.4125L173.766 45.8266L171.84 46.1969L173.531 54.9998L171.64 55.3633ZM176.602 54.4097L174.638 44.1926L178.757 43.4011L179.018 44.7622L176.791 45.1902L178.493 54.0461L176.602 54.4097ZM181.287 53.5092L182.388 38.4507L184.032 38.1347L182.913 53.1967L181.287 53.5092ZM188.201 52.1804L186.343 41.943L187.74 41.6746L191.208 47.515L192.283 40.8015L193.679 40.5332L195.749 50.7298L194.158 51.0355L192.986 44.9372L192.073 50.3915L191.489 50.5036L188.626 45.8116L189.792 51.8747L188.201 52.1804ZM196.545 42.64L196.338 41.5617L198.071 38.7542C198.353 38.3091 198.568 37.9377 198.719 37.64C198.879 37.3281 198.98 37.0583 199.021 36.8303C199.075 36.6 199.081 36.3789 199.041 36.1668C198.973 35.8132 198.838 35.558 198.637 35.4012C198.433 35.2326 198.161 35.1811 197.819 35.2468C197.371 35.3328 197.081 35.5413 196.949 35.8721C196.827 36.1889 196.819 36.6243 196.925 37.1781L195.529 37.4465L195.481 37.199C195.382 36.6805 195.381 36.1981 195.478 35.7516C195.573 35.2934 195.786 34.9044 196.115 34.5844C196.457 34.2622 196.94 34.0411 197.564 33.921C198.33 33.7738 198.972 33.8704 199.489 34.2109C200.005 34.5395 200.333 35.0692 200.473 35.7998C200.586 36.389 200.545 36.9347 200.348 37.4369C200.161 37.925 199.83 38.5261 199.356 39.2404L198.181 41.0425L201.452 40.414L201.689 41.6514L196.545 42.64Z" fill="white"/>
<path d="M51.3418 72.0615L51.2628 73.1765L53.7198 72.7042L53.2508 71.6946C52.9749 71.1489 52.698 70.5667 52.4202 69.948C52.1425 69.3293 51.8693 68.7342 51.6005 68.1626L51.5298 68.1762C51.5062 68.8161 51.4801 69.4749 51.4514 70.1525C51.4323 70.816 51.3958 71.4524 51.3418 72.0615ZM48.2912 78.6965L49.6822 66.4784L52.8109 65.8771L58.632 76.7091L55.8744 77.2391L54.6408 74.6351L51.1232 75.3112L50.9427 78.1869L48.2912 78.6965ZM59.8913 76.4671L57.6763 64.942L60.2747 64.4426L61.1444 68.9678L62.4171 68.7232L63.41 65.7829C63.5592 65.351 63.7149 64.9851 63.8772 64.685C64.049 64.371 64.2428 64.1077 64.4586 63.8951C64.6743 63.6826 64.9109 63.5149 65.1684 63.3921C65.4258 63.2693 65.7195 63.1762 66.0495 63.1128C66.2145 63.0811 66.3817 63.0611 66.5512 63.053C66.7325 63.0426 66.8937 63.0544 67.0346 63.0884L67.0622 65.5209C66.9611 65.5037 66.8635 65.5041 66.7692 65.5222C66.6727 65.5286 66.5949 65.5374 66.536 65.5487C66.2767 65.5986 66.0664 65.7123 65.9051 65.89C65.7555 66.0653 65.6025 66.3819 65.4461 66.8397L64.6341 69.1952L69.5603 74.6088L66.8205 75.1353L62.8214 70.8267L61.5487 71.0713L62.4897 75.9677L59.8913 76.4671ZM70.8873 74.3537L68.6723 62.8287L71.2707 62.3293L73.0645 71.6624L76.7058 70.9626L74.9121 61.6294L77.5105 61.13L79.3043 70.4632L80.7184 70.1914L81.031 71.8177L81.5486 75.7507L79.2153 76.1991L78.5766 72.8759L70.8873 74.3537ZM82.6256 72.0977L80.4106 60.5727L82.9913 60.0766L83.7727 64.1422C83.9041 64.8257 84.001 65.5525 84.0635 66.3226C84.1259 67.0926 84.1866 67.7897 84.2454 68.4138L84.3161 68.4002L84.9616 65.655L86.8802 59.3292L89.6377 58.7993L91.8527 70.3243L89.2896 70.817L88.5049 66.7337C88.3735 66.0502 88.273 65.3363 88.2033 64.5921C88.1453 63.8456 88.0847 63.1486 88.0213 62.5009L87.9506 62.5145L87.3017 65.242L85.3831 71.5677L82.6256 72.0977ZM100.139 68.7318L99.3408 64.5778L98.0504 64.8258L96.3917 69.452L93.4221 70.0227L95.5009 64.9125C94.7912 64.7801 94.1769 64.4766 93.658 64.002C93.1391 63.5274 92.7936 62.8423 92.6214 61.9467C92.4901 61.2632 92.4981 60.669 92.6454 60.1641C92.7928 59.6592 93.0408 59.2328 93.3893 58.8847C93.7474 58.5226 94.1803 58.2317 94.6879 58.012C95.2074 57.7899 95.7735 57.62 96.3863 57.5023L100.54 56.7039L102.755 68.229L100.139 68.7318ZM97.6176 62.7644L98.9433 62.5096L98.3216 59.2748L96.9959 59.5296C96.3006 59.6633 95.7977 59.876 95.4872 60.1678C95.1767 60.4597 95.0758 60.8884 95.1845 61.4541C95.4042 62.5972 96.2152 63.034 97.6176 62.7644Z" fill="#FAFF00"/>
<path d="M58.3661 100.38L57.9116 98.0158L52.7697 99.004L51.4855 92.3223L52.6129 92.1056L53.72 97.8662L56.7172 97.2902L55.61 91.5296L56.7374 91.3129L57.8445 97.0735L58.8207 96.8859L58.9581 97.6008L59.3422 100.193L58.3661 100.38ZM63.1225 97.1854C62.5267 97.2999 61.9595 97.2663 61.4209 97.0847C60.8805 96.8939 60.418 96.5646 60.0335 96.0968C59.649 95.629 59.3871 95.033 59.2479 94.3089C59.107 93.5757 59.1284 92.9205 59.3121 92.3435C59.505 91.7647 59.8033 91.2892 60.207 90.917C60.6107 90.5448 61.0645 90.3102 61.5687 90.2133C62.4211 90.0495 63.131 90.2077 63.6985 90.6879C64.2752 91.1663 64.6551 91.8821 64.8383 92.8353C64.8612 92.9545 64.8795 93.0745 64.8932 93.1954C64.9144 93.3054 64.9237 93.4034 64.9212 93.4894L60.4118 94.3561C60.5932 95.0531 60.9215 95.5745 61.3967 95.9203C61.881 96.2645 62.444 96.3749 63.0856 96.2515C63.4064 96.1899 63.6908 96.0877 63.939 95.945C64.1946 95.7913 64.4312 95.6128 64.6487 95.4094L65.1901 96.0752C64.9412 96.3131 64.6466 96.536 64.3064 96.744C63.9754 96.9502 63.5807 97.0973 63.1225 97.1854ZM60.2421 93.5476L63.8167 92.8606C63.6863 92.1824 63.441 91.6973 63.0808 91.4053C62.728 91.1025 62.2903 91.0013 61.7679 91.1017C61.3005 91.1915 60.9141 91.4559 60.6087 91.8947C60.3108 92.3226 60.1886 92.8736 60.2421 93.5476ZM67.2028 96.2301L65.9186 89.5484L67.046 89.3317L67.5665 92.0401L70.7837 91.4218L70.2631 88.7134L71.3905 88.4967L72.6747 95.1784L71.5473 95.3951L70.9766 92.4255L67.7594 93.0438L68.3302 96.0134L67.2028 96.2301ZM76.4944 94.6154C75.9353 94.7228 75.4361 94.6477 74.9969 94.39C74.5651 94.1213 74.292 93.6891 74.1775 93.0933C74.0365 92.3601 74.2545 91.7384 74.8312 91.2284C75.4154 90.7075 76.4029 90.2326 77.7936 89.8037C77.739 89.5196 77.6458 89.2571 77.514 89.0163C77.3913 88.7738 77.2142 88.594 76.9826 88.4769C76.7584 88.3489 76.463 88.3202 76.0964 88.3906C75.7114 88.4646 75.3635 88.6075 75.0525 88.8193C74.7416 89.0312 74.4708 89.2543 74.2403 89.4887L73.6497 88.7896C73.9226 88.528 74.266 88.2625 74.6798 87.9928C75.1011 87.7123 75.5776 87.5209 76.1092 87.4187C76.9249 87.262 77.5645 87.4004 78.0281 87.834C78.4898 88.2585 78.8008 88.8878 78.9611 89.7219L79.7485 93.8189L78.8136 93.9986L78.5642 93.2197L78.5229 93.2276C78.2606 93.5441 77.9601 93.8347 77.6213 94.0994C77.2916 94.3624 76.916 94.5344 76.4944 94.6154ZM76.6499 93.6446C76.9707 93.5829 77.2582 93.4469 77.5124 93.2365C77.7666 93.026 78.0268 92.7479 78.293 92.4021L77.9363 90.5461C76.8537 90.8967 76.1142 91.2527 75.718 91.614C75.3308 91.9735 75.1787 92.3687 75.2615 92.7994C75.3337 93.1752 75.5011 93.4282 75.7637 93.5583C76.0246 93.6792 76.32 93.708 76.6499 93.6446ZM85.3179 89.1132C85.3714 89.7872 85.3736 90.3427 85.3246 90.7799C85.2847 91.2152 85.2098 91.567 85.0997 91.8353L88.2069 91.2381L87.2768 86.3987L85.1458 86.8082L85.3179 89.1132ZM84.8368 92.841L85.2913 95.2057L84.3152 95.3933L83.6973 92.8461L83.5599 92.1312L83.8899 92.0678C84.0041 91.9698 84.0967 91.8332 84.1675 91.658C84.2458 91.4719 84.2993 91.1813 84.3279 90.7861C84.3547 90.3818 84.3407 89.8142 84.2857 89.0834L84.0751 86.0588L88.2271 85.2609L89.3343 91.0214L90.3104 90.8338L90.4478 91.5487L90.8319 94.1408L89.8558 94.3284L89.4013 91.9637L84.8368 92.841ZM94.6605 91.124C94.0647 91.2385 93.4976 91.205 92.9589 91.0234C92.4185 90.8326 91.9561 90.5033 91.5715 90.0354C91.187 89.5676 90.9251 88.9717 90.786 88.2476C90.6451 87.5143 90.6665 86.8592 90.8502 86.2821C91.0431 85.7033 91.3414 85.2278 91.745 84.8556C92.1487 84.4834 92.6026 84.2489 93.1067 84.152C93.9591 83.9881 94.669 84.1463 95.2365 84.6265C95.8132 85.1049 96.1931 85.8208 96.3763 86.774C96.3992 86.8931 96.4176 87.0132 96.4313 87.1341C96.4524 87.2441 96.4618 87.3421 96.4593 87.4281L91.9498 88.2948C92.1313 88.9917 92.4596 89.5131 92.9347 89.859C93.4191 90.2031 93.982 90.3135 94.6236 90.1902C94.9444 90.1285 95.2289 90.0263 95.4771 89.8836C95.7327 89.7299 95.9692 89.5514 96.1867 89.348L96.7281 90.0138C96.4792 90.2517 96.1847 90.4747 95.8445 90.6826C95.5134 90.8888 95.1188 91.0359 94.6605 91.124ZM91.7802 87.4863L95.3547 86.7993C95.2244 86.121 94.9791 85.6359 94.6189 85.344C94.266 85.0411 93.8284 84.9399 93.3059 85.0403C92.8385 85.1302 92.4521 85.3945 92.1468 85.8334C91.8489 86.2613 91.7267 86.8122 91.7802 87.4863ZM98.7409 90.1687L97.4567 83.487L98.5566 83.2756L99.0903 86.0528C99.159 86.4103 99.221 86.807 99.2763 87.2431C99.339 87.6682 99.398 88.0988 99.4533 88.5349L99.5083 88.5243C99.5961 88.2889 99.6969 88.0224 99.8108 87.7249C99.9321 87.4164 100.033 87.1499 100.113 86.9254L101.911 82.6309L102.97 82.4274L104.254 89.1091L103.154 89.3205L102.62 86.5434C102.552 86.1859 102.485 85.79 102.421 85.3557C102.365 84.9196 102.31 84.4836 102.255 84.0475L102.2 84.0581C102.119 84.2826 102.018 84.5491 101.897 84.8576C101.776 85.166 101.675 85.4325 101.595 85.657L99.7857 89.9679L98.7409 90.1687ZM100.018 81.7545C99.5045 81.8532 99.0726 81.8316 98.7222 81.6899C98.381 81.5463 98.1063 81.3283 97.898 81.0357C97.6897 80.7431 97.542 80.4198 97.455 80.0658L98.3898 79.8862C98.4839 80.2768 98.6453 80.5974 98.8741 80.8481C99.1028 81.0987 99.4418 81.1809 99.8909 81.0946C100.349 81.0065 100.638 80.8037 100.758 80.4861C100.877 80.1685 100.904 79.8117 100.837 79.4158L101.772 79.2362C101.822 79.5971 101.805 79.9521 101.72 80.3011C101.635 80.6501 101.456 80.9553 101.183 81.2169C100.919 81.4766 100.531 81.6559 100.018 81.7545ZM109.186 88.3323C108.599 88.4451 108.041 88.4098 107.512 88.2264C106.982 88.043 106.53 87.7165 106.155 87.2469C105.779 86.7774 105.521 86.1759 105.38 85.4427C105.236 84.6911 105.26 84.0259 105.453 83.4471C105.655 82.8665 105.972 82.3921 106.405 82.0238C106.847 81.6537 107.353 81.414 107.921 81.3048C108.361 81.2202 108.752 81.2259 109.093 81.3218C109.444 81.416 109.754 81.5465 110.024 81.7132L109.589 82.5666C109.363 82.4295 109.13 82.327 108.888 82.2593C108.657 82.1899 108.408 82.1807 108.142 82.2318C107.739 82.3093 107.398 82.4888 107.119 82.7705C106.848 83.0412 106.659 83.3912 106.551 83.8205C106.451 84.239 106.45 84.7048 106.549 85.2181C106.695 85.9788 107.002 86.5614 107.469 86.9658C107.944 87.3592 108.488 87.497 109.103 87.3789C109.414 87.319 109.691 87.1994 109.932 87.02C110.171 86.8314 110.374 86.6261 110.54 86.404L111.181 87.0651C110.929 87.389 110.635 87.6641 110.299 87.8904C109.96 88.1075 109.589 88.2548 109.186 88.3323ZM114.121 87.2127L113.014 81.4521L110.773 81.8828L110.596 80.9617L116.206 79.8836L116.383 80.8048L114.142 81.2355L115.249 86.996L114.121 87.2127ZM118.974 86.2801L117.69 79.5983L120.261 79.1042C120.994 78.9633 121.611 78.9826 122.111 79.1621C122.619 79.3306 122.931 79.7174 123.047 80.3223C123.117 80.6889 123.075 81.0154 122.921 81.3016C122.775 81.5769 122.537 81.7984 122.208 81.9662L122.216 82.0074C122.609 82.0268 122.967 82.1339 123.29 82.3285C123.622 82.5214 123.834 82.8607 123.927 83.3465C124.054 84.0064 123.9 84.5397 123.465 84.9465C123.028 85.3441 122.425 85.6168 121.655 85.7648L118.974 86.2801ZM119.343 82.189L120.607 81.9459C121.167 81.8384 121.548 81.6747 121.753 81.4548C121.956 81.2257 122.028 80.9553 121.968 80.6437C121.908 80.3321 121.742 80.1121 121.471 79.9837C121.208 79.8536 120.82 79.8379 120.307 79.9365L118.959 80.1955L119.343 82.189ZM119.932 85.2549L121.375 84.9774C121.925 84.8717 122.314 84.6925 122.541 84.4398C122.775 84.1761 122.857 83.861 122.787 83.4944C122.722 83.1553 122.529 82.9168 122.207 82.7789C121.886 82.641 121.442 82.6267 120.873 82.7359L119.498 83.0001L119.932 85.2549ZM126.564 87.8009C126.418 87.829 126.273 87.8426 126.13 87.8415C125.996 87.8387 125.871 87.8295 125.754 87.814L125.802 86.8781C125.879 86.8823 125.965 86.8848 126.06 86.8855C126.157 86.8954 126.247 86.8924 126.33 86.8765C126.705 86.8043 126.991 86.6069 127.185 86.2844C127.382 85.971 127.509 85.5949 127.567 85.156L127.623 84.632L123.655 78.4518L124.824 78.2272L126.896 81.664C127.051 81.9287 127.216 82.2155 127.389 82.5243C127.572 82.8314 127.743 83.131 127.904 83.4233L127.959 83.4127C128.002 83.0909 128.037 82.7562 128.065 82.4086C128.094 82.061 128.125 81.7318 128.161 81.4209L128.646 77.4927L129.746 77.2813L128.62 84.9965C128.549 85.4664 128.436 85.8966 128.283 86.2872C128.14 86.676 127.927 87.002 127.645 87.2653C127.373 87.536 127.013 87.7145 126.564 87.8009ZM135.006 83.3699C134.41 83.4844 133.843 83.4509 133.305 83.2693C132.764 83.0785 132.302 82.7492 131.917 82.2814C131.533 81.8135 131.271 81.2176 131.132 80.4935C130.991 79.7602 131.012 79.1051 131.196 78.528C131.389 77.9492 131.687 77.4737 132.091 77.1015C132.494 76.7293 132.948 76.4948 133.452 76.3979C134.305 76.234 135.015 76.3922 135.582 76.8724C136.159 77.3508 136.539 78.0667 136.722 79.0199C136.745 79.139 136.763 79.2591 136.777 79.38C136.798 79.49 136.807 79.588 136.805 79.674L132.295 80.5407C132.477 81.2376 132.805 81.759 133.28 82.1049C133.765 82.449 134.328 82.5594 134.969 82.4361C135.29 82.3744 135.574 82.2722 135.823 82.1295C136.078 81.9758 136.315 81.7973 136.532 81.5939L137.074 82.2597C136.825 82.4976 136.53 82.7206 136.19 82.9285C135.859 83.1347 135.464 83.2818 135.006 83.3699ZM132.126 79.7322L135.7 79.0452C135.57 78.3669 135.325 77.8818 134.964 77.5899C134.612 77.287 134.174 77.1858 133.652 77.2862C133.184 77.3761 132.798 77.6404 132.492 78.0793C132.194 78.5072 132.072 79.0581 132.126 79.7322ZM140.423 82.1577L139.316 76.3971L137.075 76.8278L136.898 75.9067L142.507 74.8286L142.684 75.7498L140.444 76.1805L141.551 81.941L140.423 82.1577ZM148.743 76.9234C148.797 77.5974 148.799 78.1529 148.75 78.5901C148.71 79.0254 148.635 79.3772 148.525 79.6455L151.632 79.0483L150.702 74.2089L148.571 74.6184L148.743 76.9234ZM148.262 80.6512L148.716 83.0159L147.74 83.2035L147.123 80.6563L146.985 79.9414L147.315 79.878C147.429 79.78 147.522 79.6434 147.593 79.4682C147.671 79.2821 147.724 78.9915 147.753 78.5963C147.78 78.192 147.766 77.6244 147.711 76.8936L147.5 73.869L151.652 73.0711L152.759 78.8316L153.736 78.644L153.873 79.3589L154.257 81.951L153.281 82.1386L152.826 79.7739L148.262 80.6512ZM157.976 78.9553C157.435 79.0593 156.9 79.0196 156.37 78.8362C155.85 78.6511 155.393 78.3255 154.999 77.8594C154.615 77.3916 154.352 76.791 154.211 76.0578C154.067 75.3062 154.086 74.6419 154.27 74.0648C154.463 73.486 154.767 73.0142 155.181 72.6494C155.605 72.2829 156.087 72.0476 156.628 71.9437C157.178 71.838 157.713 71.8777 158.233 72.0628C158.754 72.248 159.206 72.5744 159.591 73.0423C159.984 73.5083 160.253 74.1172 160.398 74.8687C160.539 75.602 160.513 76.258 160.32 76.8368C160.136 77.4139 159.837 77.8848 159.422 78.2496C159.008 78.6144 158.526 78.8497 157.976 78.9553ZM157.796 78.0205C158.373 77.9095 158.791 77.5868 159.05 77.0524C159.316 76.5071 159.376 75.8541 159.229 75.0933C159.081 74.3234 158.783 73.7345 158.334 73.3266C157.894 72.9169 157.385 72.7676 156.808 72.8786C156.24 72.9878 155.822 73.315 155.557 73.8604C155.291 74.4057 155.232 75.0633 155.38 75.8332C155.526 76.5939 155.824 77.1783 156.273 77.5862C156.72 77.9849 157.228 78.1297 157.796 78.0205ZM167.698 77.0867C167.002 77.2206 166.396 77.2087 165.881 77.0511C165.364 76.8843 164.928 76.6687 164.573 76.4043L165.008 75.5509C165.327 75.7748 165.685 75.9577 166.083 76.0999C166.481 76.242 166.937 76.2637 167.45 76.165C167.982 76.0629 168.389 75.8326 168.672 75.4741C168.954 75.1156 169.049 74.6935 168.956 74.2077C168.889 73.8594 168.739 73.5746 168.506 73.3532C168.281 73.1208 167.948 72.971 167.507 72.9036C167.076 72.8344 166.512 72.8668 165.815 73.0007L165.649 72.1345C166.272 72.0148 166.748 71.8472 167.078 71.6318C167.416 71.4147 167.639 71.1675 167.748 70.89C167.856 70.6126 167.881 70.3227 167.823 70.0202C167.74 69.5894 167.537 69.2767 167.215 69.0821C166.902 68.8857 166.511 68.8325 166.044 68.9223C165.677 68.9928 165.354 69.1404 165.074 69.3653C164.803 69.5884 164.56 69.8584 164.346 70.1753L163.603 69.5766C163.881 69.1907 164.206 68.8572 164.58 68.5763C164.952 68.2862 165.395 68.0919 165.908 67.9932C166.669 67.847 167.334 67.9234 167.905 68.2224C168.474 68.5122 168.826 69.01 168.962 69.7158C169.064 70.2474 169.001 70.7109 168.773 71.1064C168.545 71.5019 168.21 71.8371 167.769 72.112L167.779 72.167C168.334 72.184 168.831 72.3498 169.272 72.6642C169.711 72.9696 169.988 73.4247 170.105 74.0296C170.203 74.5429 170.16 75.0121 169.976 75.4372C169.792 75.8623 169.499 76.218 169.098 76.5042C168.706 76.7886 168.239 76.9828 167.698 77.0867ZM174.711 75.739C173.831 75.9081 173.063 75.6469 172.408 74.9556C171.76 74.2533 171.295 73.1689 171.013 71.7024C170.729 70.2268 170.761 69.0564 171.108 68.1914C171.464 67.3246 172.082 66.8066 172.962 66.6375C173.833 66.4702 174.589 66.7239 175.232 67.3987C175.884 68.0717 176.352 69.146 176.636 70.6217C176.918 72.0882 176.883 73.2686 176.532 74.1629C176.189 75.0463 175.582 75.5716 174.711 75.739ZM174.537 74.8316C175.05 74.7329 175.407 74.3649 175.608 73.7276C175.806 73.0811 175.783 72.1163 175.536 70.8331C175.289 69.5499 174.956 68.6587 174.537 68.1595C174.117 67.6511 173.649 67.4463 173.136 67.5449C172.623 67.6436 172.26 68.0078 172.049 68.6378C171.845 69.2568 171.866 70.2078 172.113 71.491C172.359 72.7742 172.695 73.6792 173.119 74.2059C173.551 74.7216 174.023 74.9302 174.537 74.8316ZM179.84 74.7532C179.611 74.7972 179.399 74.7572 179.204 74.6331C179.017 74.498 178.899 74.3068 178.851 74.0593C178.8 73.7935 178.838 73.5677 178.964 73.382C179.097 73.1853 179.278 73.0649 179.507 73.0209C179.727 72.9786 179.931 73.025 180.118 73.16C180.313 73.2841 180.436 73.4791 180.487 73.7449C180.535 73.9924 180.492 74.2144 180.359 74.4111C180.233 74.5969 180.06 74.7109 179.84 74.7532ZM184.969 73.7675C184.089 73.9366 183.321 73.6755 182.665 72.9842C182.017 72.2819 181.552 71.1975 181.27 69.731C180.987 68.2553 181.018 67.085 181.365 66.22C181.721 65.3532 182.339 64.8352 183.219 64.6661C184.09 64.4988 184.847 64.7525 185.49 65.4273C186.142 66.1003 186.61 67.1746 186.893 68.6503C187.175 70.1168 187.141 71.2972 186.79 72.1915C186.446 73.0748 185.839 73.6002 184.969 73.7675ZM184.794 72.8601C185.307 72.7615 185.664 72.3935 185.865 71.7562C186.064 71.1097 186.04 70.1449 185.794 68.8617C185.547 67.5785 185.214 66.6873 184.795 66.1881C184.374 65.6797 183.907 65.4748 183.394 65.5735C182.881 65.6721 182.518 66.0364 182.307 66.6663C182.102 67.2853 182.124 68.2364 182.37 69.5196C182.617 70.8028 182.952 71.7077 183.377 72.2344C183.808 72.7502 184.281 72.9588 184.794 72.8601ZM189.138 69.3452L191.888 68.8167L191.399 66.2732C191.353 66.0349 191.307 65.749 191.262 65.4156C191.217 65.0821 191.177 64.7999 191.142 64.569L191.087 64.5795C191.018 64.8115 190.943 65.0397 190.863 65.2643C190.782 65.4888 190.698 65.7188 190.61 65.9543L189.138 69.3452ZM192.527 72.1438L192.062 69.7241L188.116 70.4824L187.973 69.74L190.649 63.4093L191.914 63.1662L192.96 68.6106L194.156 68.3807L194.33 69.2881L193.134 69.518L193.599 71.9377L192.527 72.1438ZM196.932 71.4683C196.702 71.5124 196.49 71.4723 196.296 71.3482C196.108 71.2132 195.99 71.0219 195.943 70.7745C195.892 70.5087 195.929 70.2829 196.055 70.0971C196.188 69.9004 196.37 69.7801 196.599 69.736C196.819 69.6938 197.022 69.7401 197.21 69.8752C197.405 69.9993 197.528 70.1942 197.579 70.46C197.627 70.7075 197.584 70.9296 197.45 71.1263C197.325 71.312 197.152 71.4261 196.932 71.4683ZM199.155 70.8699L199.026 70.1963C199.736 69.1473 200.335 68.2338 200.823 67.4559C201.308 66.6687 201.66 65.9786 201.879 65.3853C202.096 64.7829 202.159 64.2479 202.069 63.7805C201.972 63.2764 201.756 62.8904 201.419 62.6224C201.082 62.3545 200.635 62.2742 200.075 62.3817C199.709 62.4521 199.39 62.6227 199.119 62.8934C198.846 63.1549 198.609 63.457 198.409 63.7996L197.639 63.2777C197.928 62.8039 198.256 62.4083 198.622 62.0907C198.996 61.7622 199.468 61.5433 200.036 61.4341C200.852 61.2773 201.539 61.3923 202.098 61.7791C202.655 62.1567 203.009 62.735 203.159 63.5141C203.264 64.064 203.216 64.6531 203.014 65.2813C202.819 65.8985 202.511 66.5707 202.09 67.2979C201.676 68.0142 201.19 68.8013 200.633 69.6592C200.868 69.5951 201.112 69.5292 201.365 69.4615C201.618 69.3939 201.859 69.338 202.088 69.294L204.632 68.8052L204.819 69.7813L199.155 70.8699ZM208.894 69.1693C208.014 69.3384 207.246 69.0772 206.591 68.3859C205.943 67.6836 205.478 66.5992 205.196 65.1327C204.912 63.6571 204.944 62.4867 205.291 61.6217C205.647 60.7549 206.265 60.2369 207.145 60.0678C208.016 59.9005 208.772 60.1542 209.415 60.829C210.067 61.502 210.535 62.5764 210.819 64.052C211.101 65.5185 211.066 66.6989 210.715 67.5932C210.372 68.4766 209.765 69.0019 208.894 69.1693ZM208.72 68.2619C209.233 68.1632 209.59 67.7952 209.791 67.1579C209.989 66.5114 209.966 65.5466 209.719 64.2634C209.472 62.9802 209.139 62.089 208.72 61.5898C208.3 61.0814 207.832 60.8766 207.319 60.9752C206.806 61.0739 206.443 61.4382 206.232 62.0681C206.028 62.6871 206.049 63.6382 206.296 64.9213C206.542 66.2045 206.878 67.1095 207.302 67.6362C207.734 68.1519 208.206 68.3605 208.72 68.2619ZM212.823 68.2431L212.693 67.5694C213.404 66.5204 214.003 65.607 214.49 64.829C214.976 64.0419 215.328 63.3517 215.547 62.7584C215.763 62.156 215.827 61.6211 215.737 61.1536C215.64 60.6495 215.424 60.2635 215.087 59.9956C214.75 59.7276 214.302 59.6474 213.743 59.7548C213.377 59.8253 213.058 59.9959 212.787 60.2666C212.514 60.5281 212.277 60.8302 212.077 61.1728L211.307 60.6508C211.596 60.1771 211.924 59.7814 212.29 59.4638C212.664 59.1353 213.135 58.9165 213.704 58.8073C214.519 58.6505 215.207 58.7655 215.766 59.1522C216.323 59.5298 216.677 60.1082 216.826 60.8873C216.932 61.4372 216.884 62.0262 216.681 62.6544C216.486 63.2716 216.178 63.9439 215.757 64.671C215.344 65.3873 214.858 66.1744 214.301 67.0324C214.536 66.9682 214.78 66.9024 215.033 66.8347C215.286 66.767 215.527 66.7112 215.756 66.6672L218.3 66.1783L218.487 67.1545L212.823 68.2431ZM219.657 66.9297L219.527 66.256C220.238 65.207 220.837 64.2935 221.324 63.5156C221.81 62.7285 222.162 62.0383 222.381 61.445C222.597 60.8426 222.661 60.3077 222.571 59.8402C222.474 59.3361 222.257 58.9501 221.921 58.6821C221.584 58.4142 221.136 58.3339 220.577 58.4414C220.211 58.5119 219.892 58.6824 219.621 58.9531C219.348 59.2147 219.111 59.5168 218.911 59.8594L218.141 59.3374C218.43 58.8636 218.758 58.468 219.124 58.1504C219.498 57.8219 219.969 57.603 220.538 57.4938C221.353 57.3371 222.041 57.452 222.6 57.8388C223.157 58.2164 223.511 58.7948 223.66 59.5738C223.766 60.1238 223.718 60.7128 223.515 61.341C223.32 61.9582 223.012 62.6304 222.591 63.3576C222.178 64.0739 221.692 64.861 221.135 65.719C221.37 65.6548 221.614 65.5889 221.867 65.5213C222.12 65.4536 222.361 65.3978 222.59 65.3537L225.133 64.8649L225.321 65.841L219.657 66.9297Z" fill="white"/>
<path d="M213.67 34.2402C213.001 34.3688 212.439 34.339 211.984 34.1507C211.53 33.9624 211.165 33.643 210.888 33.1925C210.619 32.731 210.421 32.1703 210.294 31.5104C210.221 31.1346 210.19 30.7985 210.2 30.502C210.209 30.2055 210.253 29.9404 210.332 29.7067C210.418 29.4621 210.529 29.246 210.664 29.0585C210.806 28.86 210.966 28.6773 211.143 28.5102C210.728 28.3332 210.369 28.0697 210.064 27.7196C209.757 27.3603 209.545 26.8737 209.427 26.2596C209.314 25.673 209.308 25.1467 209.409 24.6807C209.509 24.2146 209.73 23.8301 210.071 23.5269C210.419 23.2129 210.891 22.9986 211.487 22.8841C212.083 22.7696 212.591 22.7954 213.013 22.9614C213.442 23.1166 213.79 23.3919 214.056 23.7875C214.322 24.183 214.511 24.6741 214.624 25.2607C214.744 25.884 214.727 26.4147 214.574 26.8528C214.429 27.2892 214.193 27.6673 213.865 27.987C214.091 28.0765 214.303 28.188 214.499 28.3212C214.703 28.4436 214.886 28.6033 215.048 28.8003C215.216 28.9865 215.36 29.2155 215.479 29.4873C215.607 29.7573 215.707 30.0802 215.779 30.456C215.906 31.1159 215.925 31.711 215.837 32.2411C215.757 32.7604 215.54 33.1917 215.188 33.535C214.845 33.8765 214.339 34.1116 213.67 34.2402ZM213.445 33.0716C213.803 33.0029 214.06 32.8584 214.217 32.6381C214.374 32.4178 214.455 32.1457 214.459 31.8217C214.473 31.496 214.443 31.1406 214.369 30.7557C214.302 30.4074 214.198 30.0899 214.057 29.8033C213.924 29.5058 213.743 29.2793 213.513 29.1238C213.282 28.9592 212.997 28.9094 212.658 28.9746C212.318 29.0398 212.067 29.188 211.902 29.4192C211.746 29.6487 211.657 29.9272 211.635 30.2547C211.61 30.573 211.633 30.9109 211.701 31.2683C211.775 31.6533 211.879 31.9945 212.012 32.2921C212.145 32.5896 212.326 32.8115 212.554 32.9578C212.79 33.1024 213.088 33.1403 213.445 33.0716ZM212.388 27.5723C212.698 27.5032 212.913 27.3621 213.034 27.1488C213.163 26.9338 213.233 26.678 213.243 26.3816C213.25 26.0759 213.224 25.7673 213.164 25.4557C213.076 24.9974 212.919 24.6237 212.692 24.3346C212.466 24.0455 212.137 23.9424 211.706 24.0252C211.275 24.108 211.004 24.3265 210.891 24.6808C210.779 25.0351 210.767 25.4413 210.855 25.8996C210.915 26.2112 211.005 26.5075 211.125 26.7885C211.244 27.0603 211.404 27.272 211.604 27.4236C211.813 27.5735 212.075 27.623 212.388 27.5723ZM220.462 32.9347C219.884 33.0457 219.369 33.0355 218.916 32.9039C218.471 32.7615 218.103 32.5043 217.813 32.1323C217.523 31.7604 217.317 31.282 217.195 30.6972C217.191 30.6789 217.188 30.6605 217.184 30.6422C217.179 30.6147 217.174 30.5918 217.171 30.5735L218.642 30.2907C218.744 30.8223 218.91 31.218 219.141 31.4779C219.37 31.7285 219.736 31.8054 220.24 31.7085C220.515 31.6557 220.728 31.5291 220.88 31.3289C221.03 31.1195 221.117 30.8319 221.142 30.466C221.165 30.0909 221.124 29.633 221.02 29.0922L220.695 27.4012C220.602 27.6567 220.432 27.8843 220.185 28.0838C219.946 28.2723 219.624 28.4054 219.221 28.4829C218.607 28.6009 218.1 28.5605 217.701 28.3617C217.3 28.1536 216.98 27.8254 216.742 27.377C216.511 26.9176 216.334 26.3672 216.211 25.7256C216.08 25.0473 216.055 24.4202 216.134 23.8442C216.212 23.259 216.421 22.7673 216.763 22.369C217.114 21.9689 217.619 21.7055 218.279 21.5786C218.921 21.4553 219.475 21.5199 219.941 21.7723C220.406 22.0156 220.783 22.3946 221.072 22.9093C221.37 23.4222 221.585 24.0178 221.715 24.6961L222.434 28.4356C222.571 29.1505 222.616 29.8263 222.567 30.4629C222.518 31.0996 222.332 31.6391 222.008 32.0815C221.683 32.5147 221.167 32.7991 220.462 32.9347ZM219.378 27.2979C219.699 27.2363 219.945 27.1082 220.117 26.9136C220.287 26.7098 220.408 26.5012 220.481 26.2875L220.164 24.6377C220.09 24.2528 219.987 23.9115 219.853 23.614C219.718 23.3073 219.542 23.0799 219.323 22.9318C219.103 22.7746 218.832 22.7268 218.511 22.7885C218.191 22.8501 217.953 22.9957 217.797 23.2252C217.651 23.4529 217.566 23.7305 217.544 24.058C217.529 24.3745 217.556 24.7161 217.627 25.0827C217.711 25.5227 217.808 25.927 217.917 26.2958C218.035 26.6627 218.203 26.9441 218.421 27.1397C218.647 27.3245 218.966 27.3772 219.378 27.2979ZM230.504 31.0045C229.927 31.1154 229.412 31.1052 228.959 30.9736C228.513 30.8312 228.145 30.574 227.855 30.2021C227.565 29.8301 227.359 29.3517 227.237 28.7669C227.234 28.7486 227.23 28.7302 227.227 28.7119C227.221 28.6844 227.217 28.6615 227.214 28.6432L228.685 28.3604C228.787 28.892 228.953 29.2877 229.184 29.5476C229.412 29.7982 229.779 29.8751 230.283 29.7782C230.558 29.7254 230.771 29.5988 230.923 29.3986C231.073 29.1892 231.16 28.9016 231.185 28.5357C231.208 28.1606 231.167 27.7027 231.063 27.1619L230.738 25.4709C230.645 25.7264 230.475 25.954 230.228 26.1535C229.988 26.342 229.667 26.4751 229.264 26.5526C228.65 26.6706 228.143 26.6302 227.744 26.4314C227.342 26.2233 227.023 25.8951 226.784 25.4467C226.554 24.9873 226.377 24.4369 226.253 23.7953C226.123 23.117 226.097 22.4899 226.177 21.9139C226.254 21.3287 226.464 20.837 226.806 20.4387C227.156 20.0386 227.662 19.7752 228.322 19.6483C228.963 19.525 229.517 19.5896 229.984 19.842C230.449 20.0853 230.826 20.4643 231.115 20.979C231.413 21.4919 231.627 22.0875 231.758 22.7658L232.477 26.5053C232.614 27.2202 232.658 27.896 232.61 28.5326C232.561 29.1693 232.375 29.7088 232.051 30.1512C231.726 30.5844 231.21 30.8688 230.504 31.0045ZM229.421 25.3676C229.742 25.306 229.988 25.1779 230.16 24.9833C230.33 24.7796 230.451 24.5709 230.524 24.3573L230.207 22.7075C230.133 22.3225 230.029 21.9813 229.896 21.6837C229.761 21.377 229.584 21.1496 229.366 21.0016C229.146 20.8443 228.875 20.7965 228.554 20.8582C228.233 20.9198 227.995 21.0654 227.84 21.2949C227.693 21.5226 227.609 21.8002 227.586 22.1277C227.571 22.4442 227.599 22.7858 227.669 23.1524C227.754 23.5924 227.851 23.9967 227.96 24.3655C228.078 24.7324 228.246 25.0138 228.464 25.2094C228.689 25.3942 229.009 25.4469 229.421 25.3676ZM237.598 29.641C236.965 29.7626 236.416 29.7209 235.949 29.5161C235.491 29.3095 235.113 28.9781 234.817 28.5219C234.529 28.0639 234.324 27.5188 234.203 26.8863L233.281 22.0882C233.156 21.4374 233.143 20.8506 233.242 20.3279C233.339 19.7959 233.563 19.3537 233.913 19.0012C234.273 18.647 234.774 18.4082 235.415 18.2849C236.057 18.1616 236.606 18.1986 237.062 18.3961C237.518 18.5936 237.89 18.9212 238.177 19.3792C238.463 19.828 238.669 20.3777 238.794 21.0285L239.716 25.8267C239.839 26.4683 239.848 27.0559 239.741 27.5896C239.644 28.1215 239.421 28.5683 239.072 28.93C238.722 29.2825 238.23 29.5195 237.598 29.641ZM237.365 28.4312C237.714 28.3642 237.955 28.2132 238.091 27.9781C238.235 27.7412 238.31 27.4608 238.314 27.1368C238.326 26.8019 238.299 26.4649 238.234 26.1258L237.306 21.3001C237.238 20.9427 237.141 20.6143 237.017 20.315C236.891 20.0065 236.718 19.7737 236.498 19.6165C236.287 19.4574 236.003 19.4123 235.645 19.481C235.288 19.5497 235.036 19.6979 234.889 19.9256C234.743 20.1533 234.669 20.4338 234.666 20.7669C234.662 21.0908 234.694 21.4316 234.763 21.789L235.69 26.6147C235.756 26.9538 235.851 27.2776 235.977 27.5861C236.11 27.8836 236.288 28.1156 236.51 28.282C236.741 28.4466 237.026 28.4964 237.365 28.4312ZM244.7 28.2759C244.068 28.3974 243.518 28.3558 243.051 28.1509C242.593 27.9443 242.216 27.6129 241.919 27.1567C241.631 26.6988 241.427 26.1536 241.305 25.5212L240.383 20.723C240.258 20.0723 240.245 19.4855 240.344 18.9627C240.441 18.4308 240.665 17.9886 241.016 17.6361C241.375 17.2819 241.876 17.0431 242.518 16.9198C243.159 16.7964 243.708 16.8335 244.164 17.031C244.62 17.2284 244.992 17.5561 245.28 18.0141C245.566 18.4628 245.771 19.0126 245.896 19.6634L246.818 24.4615C246.942 25.1031 246.95 25.6908 246.844 26.2245C246.746 26.7564 246.523 27.2032 246.175 27.5648C245.824 27.9173 245.333 28.1543 244.7 28.2759ZM244.468 27.066C244.816 26.9991 245.058 26.8481 245.193 26.6129C245.338 26.3761 245.412 26.0957 245.417 25.7717C245.428 25.4368 245.401 25.0998 245.336 24.7607L244.409 19.935C244.34 19.5775 244.244 19.2492 244.12 18.9499C243.994 18.6414 243.821 18.4086 243.6 18.2513C243.389 18.0923 243.105 18.0472 242.747 18.1159C242.39 18.1846 242.138 18.3328 241.992 18.5605C241.846 18.7882 241.771 19.0686 241.769 19.4017C241.764 19.7257 241.797 20.0664 241.865 20.4239L242.793 25.2495C242.858 25.5887 242.953 25.9125 243.079 26.2209C243.213 26.5185 243.39 26.7504 243.612 26.9168C243.843 27.0815 244.129 27.1312 244.468 27.066Z" fill="white"/>
<line y1="-0.5" x2="50.4013" y2="-0.5" transform="matrix(0.871309 -0.490735 0.458085 0.888908 210.775 37.7232)" stroke="white"/>
<defs>
<filter id="filter0_d_269_2" x="5.57959" y="0.121582" width="271.004" height="125.588" filterUnits="userSpaceOnUse" color-interpolation-filters="sRGB">
<feFlood flood-opacity="0" result="BackgroundImageFix"/>
<feColorMatrix in="SourceAlpha" type="matrix" values="0 0 0 0 0 0 0 0 0 0 0 0 0 0 0 0 0 0 127 0" result="hardAlpha"/>
<feOffset dy="4"/>
<feGaussianBlur stdDeviation="1.5"/>
<feComposite in2="hardAlpha" operator="out"/>
<feColorMatrix type="matrix" values="0 0 0 0 0.0588235 0 0 0 0 0.0901961 0 0 0 0 0.133333 0 0 0 0.28 0"/>
<feBlend mode="normal" in2="BackgroundImageFix" result="effect1_dropShadow_269_2"/>
<feBlend mode="normal" in="SourceGraphic" in2="effect1_dropShadow_269_2" result="shape"/>
</filter>
<filter id="filter1_i_269_2" x="21.7319" y="78.5815" width="12.1118" height="15.8036" filterUnits="userSpaceOnUse" color-interpolation-filters="sRGB">
<feFlood flood-opacity="0" result="BackgroundImageFix"/>
<feBlend mode="normal" in="SourceGraphic" in2="BackgroundImageFix" result="shape"/>
<feColorMatrix in="SourceAlpha" type="matrix" values="0 0 0 0 0 0 0 0 0 0 0 0 0 0 0 0 0 0 127 0" result="hardAlpha"/>
<feOffset dy="4"/>
<feGaussianBlur stdDeviation="2"/>
<feComposite in2="hardAlpha" operator="arithmetic" k2="-1" k3="1"/>
<feColorMatrix type="matrix" values="0 0 0 0 0.0588235 0 0 0 0 0.0901961 0 0 0 0 0.133333 0 0 0 0.29 0"/>
<feBlend mode="normal" in2="shape" result="effect1_innerShadow_269_2"/>
</filter>
</defs>
</svg>
