<svg width="198" height="94" viewBox="0 0 198 94" fill="none" xmlns="http://www.w3.org/2000/svg">
<g filter="url(#filter0_d_47_9)">
<path d="M31.4249 29.2542L183.639 -0.000180334L194.586 56.9574L42.3717 86.2118L5.7565 65.2456L31.4249 29.2542Z" fill="#C21919"/>
<path d="M36.9943 33.3271L38.2067 31.7018L38.6074 32.0008L39.0977 31.3436L39.8964 31.1901L39.802 30.6991L41.7804 30.3188L41.8748 30.8098L43.8532 30.4296L43.7588 29.9386L45.7373 29.5583L45.8316 30.0494L47.8101 29.6691L47.7157 29.1781L49.6941 28.7979L49.7885 29.2889L51.7669 28.9086L51.6725 28.4176L53.651 28.0374L53.7453 28.5284L55.7238 28.1482L55.6294 27.6572L57.6078 27.2769L57.7022 27.7679L59.6806 27.3877L59.5862 26.8967L61.5647 26.5165L61.659 27.0075L63.6375 26.6272L63.5431 26.1362L65.5215 25.756L65.6159 26.247L67.5943 25.8668L67.4999 25.3757L69.4784 24.9955L69.5727 25.4865L71.5512 25.1063L71.4568 24.6153L73.4352 24.235L73.5296 24.726L75.508 24.3458L75.4136 23.8548L77.3921 23.4746L77.4864 23.9656L79.4649 23.5853L79.3705 23.0943L81.3489 22.7141L81.4433 23.2051L83.4217 22.8249L83.3273 22.3338L85.3058 21.9536L85.4001 22.4446L87.3786 22.0644L87.2842 21.5734L89.2626 21.1931L89.357 21.6841L91.3354 21.3039L91.241 20.8129L93.2195 20.4327L93.3138 20.9237L95.2923 20.5434L95.1979 20.0524L97.1763 19.6722L97.2707 20.1632L99.2491 19.783L99.1547 19.2919L101.133 18.9117L101.228 19.4027L103.206 19.0225L103.112 18.5315L105.09 18.1512L105.184 18.6422L107.163 18.262L107.068 17.771L109.047 17.3908L109.141 17.8818L111.12 17.5015L111.025 17.0105L113.004 16.6303L113.098 17.1213L115.077 16.7411L114.982 16.25L116.961 15.8698L117.055 16.3608L119.033 15.9806L118.939 15.4896L120.917 15.1093L121.012 15.6003L122.99 15.2201L122.896 14.7291L124.874 14.3489L124.969 14.8399L126.947 14.4596L126.853 13.9686L128.831 13.5884L128.925 14.0794L130.904 13.6992L130.81 13.2081L132.788 12.8279L132.882 13.3189L134.861 12.9387L134.766 12.4477L136.745 12.0674L136.839 12.5585L138.818 12.1782L138.723 11.6872L140.702 11.307L140.796 11.798L142.774 11.4177L142.68 10.9267L144.659 10.5465L144.753 11.0375L146.731 10.6573L146.637 10.1663L148.615 9.78602L148.71 10.277L150.688 9.89679L150.594 9.40578L152.572 9.02554L152.667 9.51656L154.645 9.13632L154.551 8.64531L156.529 8.26507L156.623 8.75608L158.602 8.37584L158.507 7.88483L160.486 7.50459L160.58 7.99561L162.559 7.61537L162.464 7.12436L164.443 6.74412L164.537 7.23514L166.516 6.8549L166.421 6.36389L168.4 5.98365L168.494 6.47466L170.472 6.09442L170.378 5.60341L172.356 5.22317L172.451 5.71419L174.429 5.33395L174.335 4.84294L176.313 4.4627L176.408 4.95371L178.386 4.57348L178.292 4.08246L180.27 3.70223L180.365 4.19324L180.863 4.09749L180.957 4.58851L181.448 4.49414L181.826 6.45819L181.335 6.55256L181.712 8.51662L182.203 8.42225L182.581 10.3863L182.09 10.4807L182.467 12.4447L182.958 12.3504L183.335 14.3144L182.844 14.4088L183.222 16.3728L183.713 16.2785L184.09 18.2425L183.599 18.3369L183.977 20.3009L184.468 20.2066L184.845 22.1706L184.354 22.265L184.732 24.2291L185.223 24.1347L185.6 26.0987L185.109 26.1931L185.487 28.1572L185.978 28.0628L186.355 30.0269L185.864 30.1212L186.242 32.0853L186.733 31.9909L187.11 33.955L186.619 34.0493L186.997 36.0134L187.488 35.919L187.865 37.8831L187.374 37.9774L187.752 39.9415L188.243 39.8471L188.62 41.8112L188.129 41.9056L188.507 43.8696L188.998 43.7752L189.375 45.7393L188.884 45.8337L189.262 47.7977L189.753 47.7033L190.13 49.6674L189.639 49.7618L190.016 51.7258L190.508 51.6315L190.885 53.5955L190.394 53.6899L190.488 54.1809L189.99 54.2766L190.085 54.7676L188.106 55.1479L188.012 54.6569L186.033 55.0371L186.128 55.5281L184.149 55.9084L184.055 55.4173L182.077 55.7976L182.171 56.2886L180.192 56.6688L180.098 56.1778L178.12 56.5581L178.214 57.0491L176.236 57.4293L176.141 56.9383L174.163 57.3185L174.257 57.8095L172.279 58.1898L172.184 57.6988L170.206 58.079L170.3 58.57L168.322 58.9503L168.228 58.4592L166.249 58.8395L166.343 59.3305L164.365 59.7107L164.271 59.2197L162.292 59.6L162.387 60.091L160.408 60.4712L160.314 59.9802L158.335 60.3604L158.43 60.8514L156.451 61.2317L156.357 60.7407L154.379 61.1209L154.473 61.6119L152.495 61.9921L152.4 61.5011L150.422 61.8814L150.516 62.3724L148.538 62.7526L148.443 62.2616L146.465 62.6418L146.559 63.1329L144.581 63.5131L144.486 63.0221L142.508 63.4023L142.602 63.8933L140.624 64.2736L140.53 63.7826L138.551 64.1628L138.646 64.6538L136.667 65.034L136.573 64.543L134.594 64.9233L134.689 65.4143L132.71 65.7945L132.616 65.3035L130.637 65.6837L130.732 66.1748L128.753 66.555L128.659 66.064L126.681 66.4442L126.775 66.9352L124.797 67.3155L124.702 66.8245L122.724 67.2047L122.818 67.6957L120.84 68.0759L120.745 67.5849L118.767 67.9652L118.861 68.4562L116.883 68.8364L116.788 68.3454L114.81 68.7256L114.904 69.2167L112.926 69.5969L112.832 69.1059L110.853 69.4861L110.948 69.9771L108.969 70.3574L108.875 69.8664L106.896 70.2466L106.991 70.7376L105.012 71.1178L104.918 70.6268L102.94 71.0071L103.034 71.4981L101.055 71.8783L100.961 71.3873L98.9827 71.7675L99.077 72.2586L97.0986 72.6388L97.0042 72.1478L95.0258 72.528L95.1202 73.019L93.1417 73.3993L93.0474 72.9082L91.069 73.2885L91.1633 73.7795L89.1849 74.1597L89.0905 73.6687L87.1121 74.049L87.2065 74.54L85.228 74.9202L85.1337 74.4292L83.1553 74.8094L83.2496 75.3004L81.2712 75.6807L81.1768 75.1897L79.1984 75.5699L79.2928 76.0609L77.3144 76.4412L77.22 75.9501L75.2416 76.3304L75.3359 76.8214L73.3575 77.2016L73.2631 76.7106L71.2847 77.0909L71.3791 77.5819L69.4007 77.9621L69.3063 77.4711L67.3279 77.8513L67.4222 78.3423L65.4438 78.7226L65.3494 78.2316L63.371 78.6118L63.4654 79.1028L61.487 79.4831L61.3926 78.992L59.4142 79.3723L59.5085 79.8633L57.5301 80.2435L57.4357 79.7525L55.4573 80.1328L55.5517 80.6238L53.5733 81.004L53.4789 80.513L51.5005 80.8932L51.5948 81.3842L49.6164 81.7645L49.5221 81.2735L48.709 81.4297L48.0149 81.0515L47.7757 81.4906L46.0726 80.5626L46.3118 80.1235L44.6087 79.1955L44.3695 79.6346L42.6664 78.7066L42.9057 78.2675L41.2026 77.3395L40.9633 77.7786L39.2602 76.8506L39.4995 76.4115L37.7964 75.4835L37.5572 75.9226L35.8541 74.9946L36.0933 74.5555L34.3902 73.6275L34.151 74.0666L32.4479 73.1386L32.6872 72.6995L30.9841 71.7715L30.7448 72.2106L29.0417 71.2826L29.281 70.8435L27.5779 69.9155L27.3387 70.3546L25.6356 69.4266L25.8748 68.9875L24.1717 68.0595L23.9325 68.4986L22.2294 67.5706L22.4687 67.1315L20.7656 66.2035L20.5263 66.6426L18.8232 65.7146L19.0625 65.2755L17.3594 64.3475L17.1202 64.7866L15.4171 63.8586L15.6563 63.4195L15.3111 63.2314L15.5725 62.8809L15.1717 62.5819L16.3841 60.9567L16.7849 61.2556L17.9972 59.6304L17.5965 59.3314L18.8088 57.7061L19.2096 58.0051L20.422 56.3798L20.0212 56.0809L21.2335 54.4556L21.6343 54.7545L22.8467 53.1293L22.4459 52.8303L23.6583 51.205L24.0591 51.504L25.2714 49.8787L24.8706 49.5798L26.083 47.9545L26.4838 48.2535L27.6962 46.6282L27.2954 46.3292L28.5077 44.704L28.9085 45.0029L30.1209 43.3777L29.7201 43.0787L30.9325 41.4534L31.3333 41.7524L32.5456 40.1271L32.1448 39.8282L33.3572 38.2029L33.758 38.5018L34.9703 36.8766L34.5696 36.5776L35.7819 34.9523L36.1827 35.2513L37.3951 33.626L36.9943 33.3271Z" stroke="white" stroke-dasharray="2 2"/>
<g filter="url(#filter1_i_47_9)">
<circle cx="18.2397" cy="61.319" r="4" transform="rotate(-10.8791 18.2397 61.319)" fill="#ABA7A7"/>
</g>
</g>
<path d="M49.9228 66.6266C48.9172 66.8198 48.0845 66.7681 47.4246 66.4713C46.7647 66.1745 46.2366 65.6732 45.8403 64.9673C45.4596 64.2584 45.1712 63.3933 44.9749 62.372L44.2139 58.4124C44.0176 57.3911 43.9648 56.4807 44.0556 55.6812C44.162 54.8787 44.4667 54.2173 44.9695 53.6971C45.4724 53.1768 46.2266 52.82 47.2322 52.6268C48.2378 52.4335 49.0627 52.4868 49.7068 52.7866C50.3667 53.0834 50.8869 53.5862 51.2676 54.2951C51.6639 55.001 51.9603 55.8646 52.1565 56.8859L52.9175 60.8454C53.1138 61.8668 53.1587 62.7787 53.0523 63.5812C52.9616 64.3807 52.6648 65.0406 52.1619 65.5608C51.6748 66.078 50.9284 66.4333 49.9228 66.6266ZM49.565 64.7646C50.0521 64.671 50.3627 64.4647 50.4969 64.1456C50.6468 63.8235 50.6937 63.4317 50.6375 62.97C50.5941 62.4895 50.524 61.9979 50.4274 61.4951L49.6075 57.2292C49.5079 56.7107 49.3907 56.2281 49.256 55.7815C49.137 55.3319 48.9482 54.9853 48.6895 54.7417C48.4436 54.4794 48.0771 54.3951 47.59 54.4887C47.1029 54.5823 46.786 54.798 46.6391 55.1358C46.4892 55.4579 46.4344 55.8513 46.4749 56.316C46.531 56.7777 46.6089 57.2678 46.7086 57.7863L47.5284 62.0523C47.6251 62.5551 47.7344 63.0391 47.8564 63.5045C47.9911 63.9511 48.1878 64.2961 48.4464 64.5397C48.705 64.7833 49.0779 64.8583 49.565 64.7646ZM57.4991 64.975L55.2433 53.2378L52.6979 53.727L52.3355 51.8415L59.9717 50.3739L60.3341 52.2593L57.7651 52.7531L60.0209 64.4903L57.4991 64.975ZM74.7094 61.6673L73.7264 56.5529L68.1878 57.6174L67.6804 54.9777L70.4746 42.6854L73.4443 42.1146L75.7001 53.8518L77.8448 53.4396L78.2752 55.6786L76.1304 56.0909L77.1134 61.2052L74.7094 61.6673ZM70.185 54.9118L73.2961 54.3139L71.6292 45.6406L70.185 54.9118ZM85.4361 59.8256C84.4462 60.0159 83.563 59.9983 82.7865 59.7728C82.0227 59.5285 81.3921 59.0876 80.8949 58.45C80.3976 57.8124 80.0445 56.9923 79.8355 55.9897C79.8294 55.9583 79.8234 55.9269 79.8174 55.8955C79.8083 55.8483 79.8008 55.8091 79.7947 55.7776L82.3166 55.293C82.4917 56.2043 82.7769 56.8826 83.172 57.3281C83.5642 57.7578 84.1924 57.8896 85.0565 57.7235C85.5279 57.6329 85.8935 57.416 86.1534 57.0728C86.4103 56.7138 86.5599 56.2207 86.6023 55.5935C86.6417 54.9505 86.5723 54.1655 86.3941 53.2384L85.8369 50.3395C85.6767 50.7776 85.3851 51.1677 84.9621 51.5097C84.5517 51.8329 84.0008 52.061 83.3095 52.1938C82.2568 52.3962 81.3881 52.3269 80.7034 51.986C80.0158 51.6294 79.4677 51.0667 79.0593 50.298C78.6635 49.5105 78.36 48.5668 78.1486 47.467C77.9251 46.3042 77.8814 45.2292 78.0175 44.2417C78.1506 43.2386 78.5099 42.3956 79.0956 41.7128C79.697 41.027 80.5633 40.5753 81.6946 40.3579C82.7945 40.1465 83.7444 40.2572 84.5445 40.69C85.3415 41.1071 85.9878 41.7568 86.4832 42.6391C86.9943 43.5185 87.3617 44.5395 87.5851 45.7022L88.8172 52.1129C89.0527 53.3385 89.1288 54.4969 89.0452 55.5883C88.9617 56.6797 88.6425 57.6045 88.0877 58.3629C87.5298 59.1055 86.646 59.5931 85.4361 59.8256ZM83.5789 50.1625C84.1289 50.0568 84.551 49.8372 84.8453 49.5036C85.1367 49.1544 85.3449 48.7966 85.47 48.4304L84.9265 45.6022C84.7996 44.9423 84.622 44.3573 84.3937 43.8472C84.1623 43.3214 83.8592 42.9316 83.4846 42.6778C83.1069 42.4082 82.6431 42.3263 82.0932 42.432C81.5433 42.5377 81.135 42.7872 80.8685 43.1806C80.6176 43.5709 80.4729 44.0468 80.4341 44.6082C80.4081 45.1509 80.4554 45.7365 80.5762 46.365C80.7212 47.1192 80.887 47.8123 81.0737 48.4444C81.276 49.0736 81.5642 49.5558 81.9383 49.8913C82.325 50.208 82.8719 50.2984 83.5789 50.1625ZM102.652 56.5168C101.662 56.7071 100.779 56.6895 100.003 56.464C99.2389 56.2197 98.6083 55.7788 98.111 55.1412C97.6138 54.5036 97.2606 53.6835 97.0517 52.6809C97.0456 52.6495 97.0396 52.6181 97.0335 52.5867C97.0245 52.5395 97.0169 52.5002 97.0109 52.4688L99.5327 51.9841C99.7079 52.8955 99.993 53.5738 100.388 54.0193C100.78 54.449 101.409 54.5808 102.273 54.4147C102.744 54.3241 103.11 54.1072 103.37 53.764C103.626 53.405 103.776 52.9119 103.818 52.2847C103.858 51.6417 103.788 50.8567 103.61 49.9296L103.053 47.0307C102.893 47.4688 102.601 47.8589 102.178 48.2008C101.768 48.5241 101.217 48.7522 100.526 48.885C99.4729 49.0874 98.6042 49.0181 97.9196 48.6772C97.2319 48.3205 96.6839 47.7579 96.2754 46.9891C95.8797 46.2017 95.5761 45.258 95.3648 44.1581C95.1413 42.9954 95.0976 41.9203 95.2337 40.9329C95.3667 39.9298 95.7261 39.0868 96.3118 38.404C96.9131 37.7182 97.7795 37.2665 98.9108 37.0491C100.011 36.8377 100.961 36.9484 101.761 37.3812C102.558 37.7983 103.204 38.448 103.699 39.3303C104.211 40.2097 104.578 41.2307 104.801 42.3934L106.033 48.8041C106.269 50.0296 106.345 51.1881 106.261 52.2795C106.178 53.3709 105.859 54.2957 105.304 55.0541C104.746 55.7967 103.862 56.2843 102.652 56.5168ZM100.795 46.8537C101.345 46.748 101.767 46.5284 102.062 46.1948C102.353 45.8456 102.561 45.4878 102.686 45.1216L102.143 42.2934C102.016 41.6335 101.838 41.0485 101.61 40.5384C101.378 40.0126 101.075 39.6228 100.701 39.369C100.323 39.0994 99.8593 39.0175 99.3094 39.1232C98.7594 39.2289 98.3512 39.4784 98.0846 39.8718C97.8338 40.2621 97.689 40.738 97.6503 41.2994C97.6242 41.8421 97.6716 42.4277 97.7924 43.0561C97.9374 43.8103 98.1032 44.5035 98.2898 45.1356C98.4922 45.7648 98.7804 46.247 99.1544 46.5825C99.5412 46.8992 100.088 46.9896 100.795 46.8537ZM114.813 54.1797C113.728 54.3881 112.786 54.3167 111.985 53.9655C111.2 53.6113 110.554 53.0431 110.045 52.2611C109.552 51.476 109.201 50.5414 108.993 49.4573L107.412 41.2318C107.197 40.1162 107.175 39.1103 107.345 38.2142C107.512 37.3023 107.896 36.5442 108.497 35.94C109.113 35.3327 109.971 34.9234 111.071 34.712C112.171 34.5006 113.112 34.5642 113.894 34.9027C114.676 35.2412 115.313 35.803 115.806 36.588C116.296 37.3574 116.648 38.2998 116.863 39.4154L118.444 47.6409C118.655 48.7407 118.67 49.7481 118.487 50.663C118.32 51.5749 117.938 52.3408 117.34 52.9608C116.739 53.565 115.897 53.9713 114.813 54.1797ZM114.414 52.1057C115.011 51.9909 115.426 51.732 115.658 51.329C115.906 50.9229 116.033 50.4422 116.04 49.8868C116.06 49.3127 116.015 48.735 115.903 48.1536L114.313 39.881C114.195 39.2683 114.03 38.7053 113.817 38.1922C113.602 37.6634 113.305 37.2643 112.927 36.9947C112.565 36.7221 112.078 36.6447 111.465 36.7625C110.852 36.8802 110.421 37.1343 110.17 37.5247C109.919 37.915 109.791 38.3957 109.787 38.9668C109.78 39.5222 109.835 40.1063 109.953 40.719L111.543 48.9916C111.654 49.573 111.818 50.1281 112.034 50.6569C112.262 51.1669 112.567 51.5646 112.947 51.8499C113.344 52.1321 113.833 52.2174 114.414 52.1057ZM126.988 51.8397C125.904 52.048 124.962 51.9766 124.161 51.6254C123.376 51.2712 122.729 50.7031 122.22 49.921C121.727 49.136 121.377 48.2014 121.168 47.1172L119.587 38.8918C119.373 37.7762 119.351 36.7703 119.521 35.8741C119.688 34.9622 120.071 34.2042 120.672 33.5999C121.289 32.9927 122.147 32.5833 123.247 32.3719C124.347 32.1606 125.287 32.2241 126.069 32.5626C126.851 32.9011 127.489 33.4629 127.982 34.248C128.472 35.0173 128.824 35.9598 129.038 37.0753L130.619 45.3008C130.831 46.4007 130.845 47.4081 130.663 48.323C130.496 49.2349 130.113 50.0008 129.516 50.6207C128.915 51.225 128.072 51.6313 126.988 51.8397ZM126.59 49.7656C127.187 49.6509 127.601 49.392 127.833 48.9889C128.081 48.5828 128.209 48.1021 128.216 47.5468C128.236 46.9727 128.19 46.3949 128.078 45.8136L126.489 37.541C126.371 36.9282 126.206 36.3653 125.993 35.8522C125.777 35.3234 125.481 34.9242 125.103 34.6546C124.741 34.3821 124.254 34.3046 123.641 34.4224C123.028 34.5402 122.596 34.7943 122.345 35.1846C122.095 35.575 121.967 36.0557 121.963 36.6268C121.955 37.1821 122.011 37.7662 122.128 38.379L123.718 46.6516C123.83 47.2329 123.994 47.788 124.209 48.3168C124.438 48.8269 124.742 49.2246 125.123 49.5098C125.519 49.7921 126.008 49.8774 126.59 49.7656ZM141.209 48.8865L138.953 37.1493L136.408 37.6386L136.046 35.7531L143.682 34.2854L144.044 36.1709L141.475 36.6647L143.731 48.4019L141.209 48.8865ZM147.825 47.615L145.207 33.9924L150.698 32.9369L151.047 34.7517L148.078 35.3225L150.347 47.1304L147.825 47.615ZM154.072 46.4145L155.541 26.3364L157.732 25.9151L156.24 45.9978L154.072 46.4145ZM163.29 44.6427L160.814 30.9929L162.675 30.635L167.3 38.4221L168.733 29.4709L170.595 29.113L173.354 42.7086L171.233 43.1162L169.67 34.985L168.453 42.2575L167.675 42.407L163.858 36.151L165.412 44.2351L163.29 44.6427ZM174.417 31.9222L174.14 30.4845L176.451 26.741C176.826 26.1476 177.114 25.6524 177.314 25.2554C177.528 24.8397 177.662 24.4798 177.718 24.1759C177.789 23.8689 177.798 23.574 177.743 23.2912C177.653 22.8198 177.473 22.4795 177.205 22.2704C176.934 22.0456 176.57 21.977 176.115 22.0645C175.518 22.1793 175.131 22.4572 174.955 22.8984C174.792 23.3208 174.781 23.9012 174.923 24.6397L173.061 24.9975L172.998 24.6676C172.865 23.9762 172.864 23.3329 172.994 22.7377C173.121 22.1267 173.404 21.608 173.843 21.1814C174.298 20.7518 174.942 20.4569 175.775 20.2969C176.796 20.1006 177.652 20.2294 178.342 20.6833C179.029 21.1215 179.466 21.8277 179.653 22.8019C179.804 23.5875 179.749 24.3151 179.486 24.9846C179.237 25.6355 178.796 26.437 178.164 27.3894L176.598 29.7922L180.958 28.9542L181.275 30.604L174.417 31.9222Z" fill="white"/>
<defs>
<filter id="filter0_d_47_9" x="2.75659" y="-0.000183105" width="194.829" height="93.2119" filterUnits="userSpaceOnUse" color-interpolation-filters="sRGB">
<feFlood flood-opacity="0" result="BackgroundImageFix"/>
<feColorMatrix in="SourceAlpha" type="matrix" values="0 0 0 0 0 0 0 0 0 0 0 0 0 0 0 0 0 0 127 0" result="hardAlpha"/>
<feOffset dy="4"/>
<feGaussianBlur stdDeviation="1.5"/>
<feComposite in2="hardAlpha" operator="out"/>
<feColorMatrix type="matrix" values="0 0 0 0 0.0588235 0 0 0 0 0.0901961 0 0 0 0 0.133333 0 0 0 0.28 0"/>
<feBlend mode="normal" in2="BackgroundImageFix" result="effect1_dropShadow_47_9"/>
<feBlend mode="normal" in="SourceGraphic" in2="effect1_dropShadow_47_9" result="shape"/>
</filter>
<filter id="filter1_i_47_9" x="14.239" y="57.3182" width="8.00146" height="12.0015" filterUnits="userSpaceOnUse" color-interpolation-filters="sRGB">
<feFlood flood-opacity="0" result="BackgroundImageFix"/>
<feBlend mode="normal" in="SourceGraphic" in2="BackgroundImageFix" result="shape"/>
<feColorMatrix in="SourceAlpha" type="matrix" values="0 0 0 0 0 0 0 0 0 0 0 0 0 0 0 0 0 0 127 0" result="hardAlpha"/>
<feOffset dy="4"/>
<feGaussianBlur stdDeviation="2"/>
<feComposite in2="hardAlpha" operator="arithmetic" k2="-1" k3="1"/>
<feColorMatrix type="matrix" values="0 0 0 0 0.0588235 0 0 0 0 0.0901961 0 0 0 0 0.133333 0 0 0 0.29 0"/>
<feBlend mode="normal" in2="shape" result="effect1_innerShadow_47_9"/>
</filter>
</defs>
</svg>
