<svg width="45" height="45" viewBox="0 0 45 45" fill="none" xmlns="http://www.w3.org/2000/svg">
<circle cx="22.5" cy="22.5" r="21.5" stroke="#E1B793" stroke-width="2"/>
<path d="M12.3712 36.7001C12.225 37.588 13.0462 38.282 13.77 37.886L22.0012 33.3744L30.2306 37.886C30.9544 38.282 31.7756 37.588 31.6294 36.7021L30.0731 27.2428L36.6769 20.5313C37.2956 19.9034 36.9769 18.7555 36.1481 18.6315L26.9644 17.2396L22.8694 8.58624C22.7913 8.41083 22.6683 8.26263 22.5144 8.15886C22.3606 8.05509 22.1823 8 22.0003 8C21.8183 8 21.64 8.05509 21.4861 8.15886C21.3323 8.26263 21.2092 8.41083 21.1312 8.58624L17.0362 17.2416L7.85248 18.6335C7.0256 18.7575 6.70498 19.9054 7.32185 20.5333L13.9275 27.2448L12.3712 36.7041V36.7001ZM21.5681 31.1665L14.6569 34.9542L15.9581 27.0408C15.9886 26.8587 15.9767 26.6713 15.9234 26.4952C15.8701 26.3191 15.7771 26.1597 15.6525 26.0309L10.2037 20.4913L17.8012 19.3394C17.9585 19.3141 18.1078 19.2485 18.2361 19.1481C18.3644 19.0478 18.4681 18.9158 18.5381 18.7635L21.9975 11.448L25.4606 18.7635C25.5306 18.9158 25.6343 19.0478 25.7626 19.1481C25.8909 19.2485 26.0402 19.3141 26.1975 19.3394L33.795 20.4893L28.3462 26.0289C28.2214 26.1579 28.1282 26.3177 28.0749 26.4941C28.0216 26.6706 28.0098 26.8584 28.0406 27.0408L29.3419 34.9542L22.4306 31.1665C22.297 31.093 22.1488 31.0547 21.9984 31.0547C21.8481 31.0547 21.6999 31.093 21.5662 31.1665H21.5681Z" fill="#E1B793"/>
</svg>
